%TF.GenerationSoftware,KiCad,Pcbnew,7.0.10*%
%TF.CreationDate,2024-04-17T13:25:17+09:00*%
%TF.ProjectId,HD-AK4316,48442d41-4b34-4333-9136-2e6b69636164,rev?*%
%TF.SameCoordinates,PX7735940PY47868c0*%
%TF.FileFunction,Soldermask,Bot*%
%TF.FilePolarity,Negative*%
%FSLAX46Y46*%
G04 Gerber Fmt 4.6, Leading zero omitted, Abs format (unit mm)*
G04 Created by KiCad (PCBNEW 7.0.10) date 2024-04-17 13:25:17*
%MOMM*%
%LPD*%
G01*
G04 APERTURE LIST*
G04 Aperture macros list*
%AMRoundRect*
0 Rectangle with rounded corners*
0 $1 Rounding radius*
0 $2 $3 $4 $5 $6 $7 $8 $9 X,Y pos of 4 corners*
0 Add a 4 corners polygon primitive as box body*
4,1,4,$2,$3,$4,$5,$6,$7,$8,$9,$2,$3,0*
0 Add four circle primitives for the rounded corners*
1,1,$1+$1,$2,$3*
1,1,$1+$1,$4,$5*
1,1,$1+$1,$6,$7*
1,1,$1+$1,$8,$9*
0 Add four rect primitives between the rounded corners*
20,1,$1+$1,$2,$3,$4,$5,0*
20,1,$1+$1,$4,$5,$6,$7,0*
20,1,$1+$1,$6,$7,$8,$9,0*
20,1,$1+$1,$8,$9,$2,$3,0*%
G04 Aperture macros list end*
%ADD10C,1.700000*%
%ADD11RoundRect,0.150000X-0.800000X0.800000X-0.800000X-0.800000X0.800000X-0.800000X0.800000X0.800000X0*%
%ADD12C,1.900000*%
%ADD13R,1.016000X1.524000*%
%ADD14O,1.016000X1.524000*%
%ADD15C,3.000000*%
%ADD16C,1.800000*%
%ADD17C,1.000000*%
%ADD18RoundRect,0.050000X-1.500000X0.550000X-1.500000X-0.550000X1.500000X-0.550000X1.500000X0.550000X0*%
%ADD19RoundRect,0.050000X1.500000X-0.550000X1.500000X0.550000X-1.500000X0.550000X-1.500000X-0.550000X0*%
%ADD20C,0.800000*%
G04 APERTURE END LIST*
D10*
%TO.C,R7*%
X44920000Y11000000D03*
X55080000Y11000000D03*
%TD*%
D11*
%TO.C,U1*%
X31190000Y17580000D03*
D12*
X31190000Y15040000D03*
X31190000Y12500000D03*
X31190000Y9960000D03*
X31190000Y7420000D03*
X38810000Y7420000D03*
X38810000Y9960000D03*
X38810000Y12500000D03*
X38810000Y15040000D03*
X38810000Y17580000D03*
%TD*%
D13*
%TO.C,U3*%
X21340000Y21000000D03*
D14*
X20070000Y21000000D03*
X18800000Y21000000D03*
%TD*%
D10*
%TO.C,R1*%
X29920000Y21000000D03*
X40080000Y21000000D03*
%TD*%
%TO.C,R4*%
X55080000Y20000000D03*
X44920000Y20000000D03*
%TD*%
D15*
%TO.C,REF\u002A\u002A*%
X67000000Y22000000D03*
%TD*%
D16*
%TO.C,C4*%
X14600000Y21000000D03*
D10*
X14600000Y15920000D03*
%TD*%
D15*
%TO.C,REF\u002A\u002A*%
X3000000Y22000000D03*
%TD*%
D17*
%TO.C,CN1*%
X6200000Y16450000D03*
X6200000Y8550000D03*
D18*
X10000000Y9500000D03*
X10000000Y11500000D03*
X10000000Y13500000D03*
X10000000Y15500000D03*
%TD*%
D17*
%TO.C,CN2*%
X63800000Y8550000D03*
X63800000Y16450000D03*
D19*
X60000000Y15500000D03*
X60000000Y13500000D03*
X60000000Y11500000D03*
X60000000Y9500000D03*
%TD*%
D16*
%TO.C,C5*%
X26000000Y21000000D03*
D10*
X26000000Y15920000D03*
%TD*%
D15*
%TO.C,REF\u002A\u002A*%
X3000000Y3000000D03*
%TD*%
D10*
%TO.C,R2*%
X55080000Y7000000D03*
X44920000Y7000000D03*
%TD*%
D15*
%TO.C,REF\u002A\u002A*%
X67000000Y3000000D03*
%TD*%
D10*
%TO.C,R6*%
X55080000Y14000000D03*
X44920000Y14000000D03*
%TD*%
%TO.C,R5*%
X44920000Y17000000D03*
X55080000Y17000000D03*
%TD*%
%TO.C,R3*%
X55080000Y4000000D03*
X44920000Y4000000D03*
%TD*%
D20*
X17200000Y16100000D03*
X17200000Y4300000D03*
X27400000Y4460000D03*
X35000000Y7000000D03*
X23900000Y14800000D03*
X60200000Y4900000D03*
X10000000Y17800000D03*
X15400000Y9900000D03*
M02*
