M48
; DRILL file {KiCad 7.0.10} date Wed Apr 17 13:25:21 2024
; FORMAT={-:-/ absolute / metric / decimal}
; #@! TF.CreationDate,2024-04-17T13:25:21+09:00
; #@! TF.GenerationSoftware,Kicad,Pcbnew,7.0.10
; #@! TF.FileFunction,MixedPlating,1,2
FMAT,2
METRIC
; #@! TA.AperFunction,Plated,PTH,ViaDrill
T1C0.400
; #@! TA.AperFunction,Plated,PTH,ComponentDrill
T2C0.800
; #@! TA.AperFunction,Plated,PTH,ComponentDrill
T3C1.000
; #@! TA.AperFunction,NonPlated,NPTH,ComponentDrill
T4C1.000
; #@! TA.AperFunction,NonPlated,NPTH,ComponentDrill
T5C3.000
%
G90
G05
T1
X10.0Y17.8
X15.4Y9.9
X17.2Y16.1
X17.2Y4.3
X23.9Y14.8
X27.4Y4.46
X35.0Y7.0
X60.2Y4.9
T2
X9.4Y15.5
X9.4Y13.5
X9.4Y11.5
X9.4Y9.5
X18.8Y21.0
X20.07Y21.0
X21.34Y21.0
X60.6Y15.5
X60.6Y13.5
X60.6Y11.5
X60.6Y9.5
T3
X14.6Y21.0
X14.6Y15.92
X26.0Y21.0
X26.0Y15.92
X29.92Y21.0
X31.19Y17.58
X31.19Y15.04
X31.19Y12.5
X31.19Y9.96
X31.19Y7.42
X38.81Y17.58
X38.81Y15.04
X38.81Y12.5
X38.81Y9.96
X38.81Y7.42
X40.08Y21.0
X44.92Y20.0
X44.92Y17.0
X44.92Y14.0
X44.92Y11.0
X44.92Y7.0
X44.92Y4.0
X55.08Y20.0
X55.08Y17.0
X55.08Y14.0
X55.08Y11.0
X55.08Y7.0
X55.08Y4.0
T4
X6.2Y16.45
X6.2Y8.55
X63.8Y16.45
X63.8Y8.55
T5
X3.0Y22.0
X3.0Y3.0
X67.0Y22.0
X67.0Y3.0
M30
