%TF.GenerationSoftware,KiCad,Pcbnew,7.0.10*%
%TF.CreationDate,2024-04-17T13:25:17+09:00*%
%TF.ProjectId,HD-AK4316,48442d41-4b34-4333-9136-2e6b69636164,rev?*%
%TF.SameCoordinates,PX7735940PY47868c0*%
%TF.FileFunction,Copper,L1,Top*%
%TF.FilePolarity,Positive*%
%FSLAX46Y46*%
G04 Gerber Fmt 4.6, Leading zero omitted, Abs format (unit mm)*
G04 Created by KiCad (PCBNEW 7.0.10) date 2024-04-17 13:25:17*
%MOMM*%
%LPD*%
G01*
G04 APERTURE LIST*
%TA.AperFunction,ComponentPad*%
%ADD10C,1.500000*%
%TD*%
%TA.AperFunction,SMDPad,CuDef*%
%ADD11R,4.540000X0.300000*%
%TD*%
%TA.AperFunction,SMDPad,CuDef*%
%ADD12R,0.800000X0.800000*%
%TD*%
%TA.AperFunction,ComponentPad*%
%ADD13R,1.600000X1.600000*%
%TD*%
%TA.AperFunction,ComponentPad*%
%ADD14C,1.600000*%
%TD*%
%TA.AperFunction,ComponentPad*%
%ADD15R,1.016000X1.524000*%
%TD*%
%TA.AperFunction,ComponentPad*%
%ADD16O,1.016000X1.524000*%
%TD*%
%TA.AperFunction,SMDPad,CuDef*%
%ADD17R,3.800000X1.500000*%
%TD*%
%TA.AperFunction,ComponentPad*%
%ADD18R,3.000000X1.100000*%
%TD*%
%TA.AperFunction,SMDPad,CuDef*%
%ADD19R,1.100000X0.600000*%
%TD*%
%TA.AperFunction,ViaPad*%
%ADD20C,0.800000*%
%TD*%
%TA.AperFunction,Conductor*%
%ADD21C,0.250000*%
%TD*%
G04 APERTURE END LIST*
D10*
%TO.P,R7,1,1*%
%TO.N,Net-(U1-XORL)*%
X44920000Y11000000D03*
D11*
X47070000Y11000000D03*
D12*
X49200000Y11000000D03*
%TO.P,R7,2,2*%
%TO.N,GND*%
X50800000Y11000000D03*
D11*
X53000000Y11000000D03*
D10*
X55080000Y11000000D03*
%TD*%
D13*
%TO.P,U1,1,VCC*%
%TO.N,+3V3*%
X31190000Y17580000D03*
D14*
%TO.P,U1,2,EN*%
X31190000Y15040000D03*
%TO.P,U1,3,READY*%
%TO.N,Net-(U1-READY)*%
X31190000Y12500000D03*
%TO.P,U1,4,SCLIN*%
%TO.N,Net-(U1-SCLIN)*%
X31190000Y9960000D03*
%TO.P,U1,5,SDAIN*%
%TO.N,Net-(U1-SDAIN)*%
X31190000Y7420000D03*
%TO.P,U1,6,SDAOUT*%
%TO.N,Net-(U1-SDAOUT)*%
X38810000Y7420000D03*
%TO.P,U1,7,SCLOUT*%
%TO.N,Net-(U1-SCLOUT)*%
X38810000Y9960000D03*
%TO.P,U1,8,XORL*%
%TO.N,Net-(U1-XORL)*%
X38810000Y12500000D03*
%TO.P,U1,9,XORH*%
%TO.N,Net-(U1-XORH)*%
X38810000Y15040000D03*
%TO.P,U1,10,GND*%
%TO.N,GND*%
X38810000Y17580000D03*
%TD*%
D15*
%TO.P,U3,1,OUT*%
%TO.N,+3V3*%
X21340000Y21000000D03*
D16*
%TO.P,U3,2,GND*%
%TO.N,GND*%
X20070000Y21000000D03*
%TO.P,U3,3,IN*%
%TO.N,+5V*%
X18800000Y21000000D03*
%TD*%
D10*
%TO.P,R1,1,1*%
%TO.N,+3V3*%
X29920000Y21000000D03*
D11*
X32070000Y21000000D03*
D12*
X34200000Y21000000D03*
%TO.P,R1,2,2*%
%TO.N,Net-(U1-READY)*%
X35800000Y21000000D03*
D11*
X38000000Y21000000D03*
D10*
X40080000Y21000000D03*
%TD*%
%TO.P,R4,1,1*%
%TO.N,+3V3*%
X55080000Y20000000D03*
D11*
X52930000Y20000000D03*
D12*
X50800000Y20000000D03*
%TO.P,R4,2,2*%
%TO.N,Net-(U1-XORH)*%
X49200000Y20000000D03*
D11*
X47000000Y20000000D03*
D10*
X44920000Y20000000D03*
%TD*%
D14*
%TO.P,C4,1,1*%
%TO.N,+5V*%
X14600000Y21000000D03*
%TO.P,C4,2,2*%
%TO.N,GND*%
X14600000Y15920000D03*
%TD*%
D12*
%TO.P,C1,1,1*%
%TO.N,+5V*%
X17300000Y11450000D03*
%TO.P,C1,2,2*%
%TO.N,GND*%
X17300000Y9850000D03*
%TD*%
D17*
%TO.P,CN1,*%
%TO.N,*%
X2900000Y17650000D03*
X2900000Y7350000D03*
D18*
%TO.P,CN1,1,1*%
%TO.N,Net-(U1-SCLIN)*%
X10000000Y9500000D03*
%TO.P,CN1,2,2*%
%TO.N,Net-(U1-SDAIN)*%
X10000000Y11500000D03*
%TO.P,CN1,3,3*%
%TO.N,+5V*%
X10000000Y13500000D03*
%TO.P,CN1,4,4*%
%TO.N,GND*%
X10000000Y15500000D03*
%TD*%
D12*
%TO.P,C2,1,1*%
%TO.N,Net-(U2-BYP)*%
X23300000Y7200000D03*
%TO.P,C2,2,2*%
%TO.N,GND*%
X23300000Y5600000D03*
%TD*%
D17*
%TO.P,CN2,*%
%TO.N,*%
X67100000Y7350000D03*
X67100000Y17650000D03*
D18*
%TO.P,CN2,1,1*%
%TO.N,Net-(U1-SCLOUT)*%
X60000000Y15500000D03*
%TO.P,CN2,2,2*%
%TO.N,Net-(U1-SDAOUT)*%
X60000000Y13500000D03*
%TO.P,CN2,3,3*%
%TO.N,+5V*%
X60000000Y11500000D03*
%TO.P,CN2,4,4*%
%TO.N,GND*%
X60000000Y9500000D03*
%TD*%
D14*
%TO.P,C5,1,1*%
%TO.N,+3V3*%
X26000000Y21000000D03*
%TO.P,C5,2,2*%
%TO.N,GND*%
X26000000Y15920000D03*
%TD*%
D12*
%TO.P,C3,1,1*%
%TO.N,+3V3*%
X26000000Y11450000D03*
%TO.P,C3,2,2*%
%TO.N,GND*%
X26000000Y9850000D03*
%TD*%
D10*
%TO.P,R2,1,1*%
%TO.N,+3V3*%
X55080000Y7000000D03*
D11*
X52930000Y7000000D03*
D12*
X50800000Y7000000D03*
%TO.P,R2,2,2*%
%TO.N,Net-(U1-SCLOUT)*%
X49200000Y7000000D03*
D11*
X47000000Y7000000D03*
D10*
X44920000Y7000000D03*
%TD*%
%TO.P,R6,1,1*%
%TO.N,+3V3*%
X55080000Y14000000D03*
D11*
X52930000Y14000000D03*
D12*
X50800000Y14000000D03*
%TO.P,R6,2,2*%
%TO.N,Net-(U1-XORL)*%
X49200000Y14000000D03*
D11*
X47000000Y14000000D03*
D10*
X44920000Y14000000D03*
%TD*%
%TO.P,R5,1,1*%
%TO.N,Net-(U1-XORH)*%
X44920000Y17000000D03*
D11*
X47070000Y17000000D03*
D12*
X49200000Y17000000D03*
%TO.P,R5,2,2*%
%TO.N,GND*%
X50800000Y17000000D03*
D11*
X53000000Y17000000D03*
D10*
X55080000Y17000000D03*
%TD*%
%TO.P,R3,1,1*%
%TO.N,+3V3*%
X55080000Y4000000D03*
D11*
X52930000Y4000000D03*
D12*
X50800000Y4000000D03*
%TO.P,R3,2,2*%
%TO.N,Net-(U1-SDAOUT)*%
X49200000Y4000000D03*
D11*
X47000000Y4000000D03*
D10*
X44920000Y4000000D03*
%TD*%
D19*
%TO.P,U2,1,VIN*%
%TO.N,+5V*%
X20700000Y11450000D03*
%TO.P,U2,2,GND*%
%TO.N,GND*%
X20700000Y10500000D03*
%TO.P,U2,3,EN*%
%TO.N,+5V*%
X20700000Y9550000D03*
%TO.P,U2,4,BYP*%
%TO.N,Net-(U2-BYP)*%
X23300000Y9550000D03*
%TO.P,U2,5,VOUT*%
%TO.N,+3V3*%
X23300000Y11450000D03*
%TD*%
D20*
%TO.N,GND*%
X17200000Y16100000D03*
X17200000Y4300000D03*
X27400000Y4460000D03*
X35000000Y7000000D03*
X23900000Y14800000D03*
X60200000Y4900000D03*
X10000000Y17800000D03*
X15400000Y9900000D03*
%TD*%
D21*
%TO.N,Net-(U1-SCLIN)*%
X30800000Y2200000D02*
X15500000Y2200000D01*
X13400000Y4300000D02*
X13400000Y8300000D01*
X12200000Y9500000D02*
X9200000Y9500000D01*
X32400000Y8750000D02*
X32400000Y3800000D01*
X13400000Y8300000D02*
X12200000Y9500000D01*
X32400000Y3800000D02*
X30800000Y2200000D01*
X15500000Y2200000D02*
X13400000Y4300000D01*
X31190000Y9960000D02*
X32400000Y8750000D01*
%TO.N,Net-(U1-SDAIN)*%
X14100000Y9500000D02*
X12100000Y11500000D01*
X12100000Y11500000D02*
X9200000Y11500000D01*
X14100000Y4600000D02*
X14100000Y9500000D01*
X30400000Y2800000D02*
X15900000Y2800000D01*
X15900000Y2800000D02*
X14100000Y4600000D01*
X31190000Y7420000D02*
X31190000Y3590000D01*
X31190000Y3590000D02*
X30400000Y2800000D01*
%TO.N,Net-(U1-SCLOUT)*%
X43540000Y9960000D02*
X44900000Y8600000D01*
X44900000Y8600000D02*
X44900000Y7000000D01*
X38810000Y9960000D02*
X43540000Y9960000D01*
X44900000Y7000000D02*
X44920000Y7000000D01*
%TO.N,Net-(U1-SDAOUT)*%
X38810000Y7420000D02*
X42780000Y7420000D01*
X44920000Y5280000D02*
X44920000Y4000000D01*
X42780000Y7420000D02*
X44920000Y5280000D01*
%TO.N,Net-(U1-XORH)*%
X38810000Y15040000D02*
X40790000Y15040000D01*
X42675000Y16925000D02*
X42750000Y17000000D01*
X44920000Y20000000D02*
X44920000Y17000000D01*
X40790000Y15040000D02*
X42675000Y16925000D01*
X44920000Y17000000D02*
X42750000Y17000000D01*
%TO.N,Net-(U1-XORL)*%
X42800000Y14000000D02*
X44920000Y14000000D01*
X38810000Y12500000D02*
X41300000Y12500000D01*
X41300000Y12500000D02*
X42800000Y14000000D01*
X44920000Y14000000D02*
X44920000Y11000000D01*
%TO.N,+5V*%
X22000000Y9900000D02*
X21600000Y9500000D01*
X15850000Y11450000D02*
X17300000Y11450000D01*
X18800000Y21000000D02*
X14600000Y21000000D01*
X21650000Y11450000D02*
X22000000Y11100000D01*
X9225000Y13525000D02*
X9200000Y13500000D01*
X9375000Y13525000D02*
X9225000Y13525000D01*
X22000000Y11100000D02*
X22000000Y9900000D01*
X14605000Y21235000D02*
X14600000Y21240000D01*
X19175000Y21240000D02*
X19180000Y21235000D01*
X21600000Y9500000D02*
X20750000Y9500000D01*
X9400000Y13500000D02*
X13800000Y13500000D01*
X13800000Y13500000D02*
X15850000Y11450000D01*
X20750000Y9500000D02*
X20700000Y9550000D01*
X20700000Y11450000D02*
X17300000Y11450000D01*
X9400000Y13500000D02*
X9375000Y13525000D01*
X20700000Y11450000D02*
X21650000Y11450000D01*
%TO.N,Net-(U2-BYP)*%
X23300000Y9550000D02*
X23300000Y7200000D01*
%TO.N,+3V3*%
X31190000Y17580000D02*
X31190000Y15040000D01*
X56000000Y20000000D02*
X56700000Y19300000D01*
X28600000Y12300000D02*
X28600000Y16800000D01*
X30920000Y21000000D02*
X26000000Y21000000D01*
X31190000Y18610000D02*
X31190000Y17580000D01*
X23300000Y11450000D02*
X26000000Y11450000D01*
X26000000Y11450000D02*
X27750000Y11450000D01*
X56700000Y15500000D02*
X55200000Y14000000D01*
X56600000Y8520000D02*
X55080000Y7000000D01*
X29920000Y21000000D02*
X29920000Y19880000D01*
X21340000Y21000000D02*
X26000000Y21000000D01*
X29380000Y17580000D02*
X31190000Y17580000D01*
X55080000Y14000000D02*
X56600000Y12480000D01*
X21300000Y21195000D02*
X21340000Y21235000D01*
X56600000Y12480000D02*
X56600000Y8520000D01*
X27750000Y11450000D02*
X28600000Y12300000D01*
X55080000Y20000000D02*
X56000000Y20000000D01*
X29920000Y19880000D02*
X31190000Y18610000D01*
X56700000Y19300000D02*
X56700000Y15500000D01*
X21345000Y21240000D02*
X21340000Y21235000D01*
X28600000Y16800000D02*
X29380000Y17580000D01*
X55200000Y14000000D02*
X55080000Y14000000D01*
%TO.N,Net-(U1-READY)*%
X32500000Y18700000D02*
X32500000Y12800000D01*
X33300000Y19500000D02*
X32500000Y18700000D01*
X35800000Y21000000D02*
X35800000Y19900000D01*
X35400000Y19500000D02*
X33300000Y19500000D01*
X32200000Y12500000D02*
X31190000Y12500000D01*
X35800000Y19900000D02*
X35400000Y19500000D01*
X32500000Y12800000D02*
X32200000Y12500000D01*
%TD*%
%TA.AperFunction,Conductor*%
%TO.N,GND*%
G36*
X14905203Y11509761D02*
G01*
X14911676Y11503734D01*
X15142148Y11273261D01*
X15349197Y11066212D01*
X15359022Y11053949D01*
X15359243Y11054131D01*
X15364211Y11048126D01*
X15364213Y11048124D01*
X15364214Y11048123D01*
X15385043Y11028563D01*
X15413222Y11002101D01*
X15416021Y10999388D01*
X15435522Y10979886D01*
X15435526Y10979883D01*
X15435529Y10979880D01*
X15438702Y10977419D01*
X15447574Y10969841D01*
X15479418Y10939938D01*
X15496976Y10930286D01*
X15513233Y10919607D01*
X15529064Y10907327D01*
X15558803Y10894458D01*
X15569152Y10889979D01*
X15579641Y10884840D01*
X15603457Y10871748D01*
X15617908Y10863803D01*
X15630523Y10860565D01*
X15637305Y10858823D01*
X15655719Y10852519D01*
X15674104Y10844562D01*
X15717261Y10837727D01*
X15728656Y10835368D01*
X15770981Y10824500D01*
X15791016Y10824500D01*
X15810413Y10822974D01*
X15830196Y10819840D01*
X15873675Y10823950D01*
X15885344Y10824500D01*
X16381535Y10824500D01*
X16448574Y10804815D01*
X16480801Y10774811D01*
X16518917Y10723895D01*
X16543335Y10658431D01*
X16528484Y10590158D01*
X16518918Y10575273D01*
X16456647Y10492090D01*
X16456645Y10492087D01*
X16406403Y10357380D01*
X16406401Y10357373D01*
X16400000Y10297845D01*
X16400000Y10100000D01*
X18200000Y10100000D01*
X18200000Y10297828D01*
X18199999Y10297845D01*
X18193598Y10357373D01*
X18193596Y10357380D01*
X18143354Y10492087D01*
X18143352Y10492090D01*
X18081082Y10575273D01*
X18056665Y10640738D01*
X18071517Y10709011D01*
X18081083Y10723895D01*
X18119199Y10774811D01*
X18175133Y10816682D01*
X18218465Y10824500D01*
X19526000Y10824500D01*
X19593039Y10804815D01*
X19611208Y10783847D01*
X19613681Y10786319D01*
X19650000Y10750000D01*
X19807893Y10750000D01*
X19874932Y10730315D01*
X19882204Y10725267D01*
X19905717Y10707665D01*
X19907668Y10706205D01*
X19907671Y10706203D01*
X20042517Y10655909D01*
X20042516Y10655909D01*
X20049444Y10655165D01*
X20102127Y10649500D01*
X20826001Y10649501D01*
X20893039Y10629817D01*
X20938794Y10577013D01*
X20950000Y10525501D01*
X20950000Y10474500D01*
X20930315Y10407461D01*
X20877511Y10361706D01*
X20826000Y10350500D01*
X20102129Y10350500D01*
X20102123Y10350499D01*
X20042516Y10344092D01*
X19907671Y10293798D01*
X19907668Y10293796D01*
X19882204Y10274733D01*
X19816739Y10250316D01*
X19807893Y10250000D01*
X19650000Y10250000D01*
X19650000Y10152156D01*
X19656401Y10092628D01*
X19656403Y10092621D01*
X19665195Y10069048D01*
X19670179Y9999356D01*
X19665196Y9982385D01*
X19655909Y9957484D01*
X19655908Y9957483D01*
X19651162Y9913334D01*
X19649501Y9897877D01*
X19649500Y9897864D01*
X19649500Y9202130D01*
X19649501Y9202124D01*
X19655908Y9142517D01*
X19706202Y9007672D01*
X19706206Y9007665D01*
X19792452Y8892456D01*
X19792455Y8892453D01*
X19907664Y8806207D01*
X19907671Y8806203D01*
X20042517Y8755909D01*
X20042516Y8755909D01*
X20049444Y8755165D01*
X20102127Y8749500D01*
X21297872Y8749501D01*
X21357483Y8755909D01*
X21492331Y8806204D01*
X21550522Y8849767D01*
X21615985Y8874184D01*
X21624833Y8874500D01*
X21639346Y8874500D01*
X21639350Y8874500D01*
X21643324Y8875003D01*
X21654963Y8875920D01*
X21698627Y8877291D01*
X21717869Y8882883D01*
X21736912Y8886826D01*
X21756792Y8889336D01*
X21797401Y8905415D01*
X21808444Y8909197D01*
X21850390Y8921382D01*
X21867629Y8931578D01*
X21885103Y8940138D01*
X21903727Y8947512D01*
X21903727Y8947513D01*
X21903732Y8947514D01*
X21939083Y8973200D01*
X21948814Y8979592D01*
X21986420Y9001830D01*
X22000589Y9016001D01*
X22015379Y9028632D01*
X22031587Y9040406D01*
X22059438Y9074074D01*
X22067279Y9082691D01*
X22084485Y9099897D01*
X22145806Y9133380D01*
X22215498Y9128396D01*
X22271431Y9086524D01*
X22288346Y9055547D01*
X22306202Y9007672D01*
X22306206Y9007665D01*
X22392452Y8892456D01*
X22392455Y8892453D01*
X22507664Y8806207D01*
X22507671Y8806203D01*
X22593833Y8774067D01*
X22649766Y8732196D01*
X22674184Y8666732D01*
X22674500Y8657885D01*
X22674500Y8118466D01*
X22654815Y8051427D01*
X22624812Y8019200D01*
X22542452Y7957545D01*
X22456206Y7842336D01*
X22456202Y7842329D01*
X22405908Y7707483D01*
X22400777Y7659751D01*
X22399501Y7647877D01*
X22399500Y7647865D01*
X22399500Y6752130D01*
X22399501Y6752124D01*
X22405908Y6692517D01*
X22456202Y6557672D01*
X22456204Y6557669D01*
X22460350Y6552130D01*
X22518917Y6473896D01*
X22543335Y6408431D01*
X22528484Y6340158D01*
X22518918Y6325273D01*
X22456647Y6242090D01*
X22456645Y6242087D01*
X22406403Y6107380D01*
X22406401Y6107373D01*
X22400000Y6047845D01*
X22400000Y5850000D01*
X24200000Y5850000D01*
X24200000Y6047828D01*
X24199999Y6047845D01*
X24193598Y6107373D01*
X24193596Y6107380D01*
X24143354Y6242087D01*
X24143352Y6242090D01*
X24081082Y6325273D01*
X24056665Y6390738D01*
X24071517Y6459011D01*
X24081083Y6473896D01*
X24095023Y6492517D01*
X24143796Y6557669D01*
X24194091Y6692517D01*
X24200500Y6752127D01*
X24200499Y7647872D01*
X24194806Y7700835D01*
X24194091Y7707484D01*
X24143797Y7842329D01*
X24143793Y7842336D01*
X24057547Y7957545D01*
X24052130Y7961600D01*
X23992557Y8006197D01*
X23975188Y8019200D01*
X23933318Y8075134D01*
X23925500Y8118466D01*
X23925500Y8657885D01*
X23945185Y8724924D01*
X23997989Y8770679D01*
X24006167Y8774067D01*
X24047143Y8789350D01*
X24092331Y8806204D01*
X24207546Y8892454D01*
X24293796Y9007669D01*
X24344091Y9142517D01*
X24350500Y9202127D01*
X24350499Y9600000D01*
X25100000Y9600000D01*
X25100000Y9402156D01*
X25106401Y9342628D01*
X25106403Y9342621D01*
X25156645Y9207914D01*
X25156649Y9207907D01*
X25242809Y9092813D01*
X25242812Y9092810D01*
X25357906Y9006650D01*
X25357913Y9006646D01*
X25492620Y8956404D01*
X25492627Y8956402D01*
X25552155Y8950001D01*
X25552172Y8950000D01*
X25750000Y8950000D01*
X25750000Y9600000D01*
X26250000Y9600000D01*
X26250000Y8950000D01*
X26447828Y8950000D01*
X26447844Y8950001D01*
X26507372Y8956402D01*
X26507379Y8956404D01*
X26642086Y9006646D01*
X26642093Y9006650D01*
X26757187Y9092810D01*
X26757190Y9092813D01*
X26843350Y9207907D01*
X26843354Y9207914D01*
X26893596Y9342621D01*
X26893598Y9342628D01*
X26899999Y9402156D01*
X26900000Y9402173D01*
X26900000Y9600000D01*
X26250000Y9600000D01*
X25750000Y9600000D01*
X25100000Y9600000D01*
X24350499Y9600000D01*
X24350499Y9897872D01*
X24345299Y9946243D01*
X24344091Y9957484D01*
X24307818Y10054737D01*
X24300000Y10098070D01*
X24300000Y10700500D01*
X24319685Y10767539D01*
X24372489Y10813294D01*
X24424000Y10824500D01*
X25081535Y10824500D01*
X25148574Y10804815D01*
X25180801Y10774811D01*
X25218917Y10723895D01*
X25243335Y10658431D01*
X25228484Y10590158D01*
X25218918Y10575273D01*
X25156647Y10492090D01*
X25156645Y10492087D01*
X25106403Y10357380D01*
X25106401Y10357373D01*
X25100000Y10297845D01*
X25100000Y10100000D01*
X26900000Y10100000D01*
X26900000Y10297828D01*
X26899999Y10297845D01*
X26893598Y10357373D01*
X26893596Y10357380D01*
X26843354Y10492087D01*
X26843352Y10492090D01*
X26781082Y10575273D01*
X26756665Y10640738D01*
X26771517Y10709011D01*
X26781083Y10723895D01*
X26819199Y10774811D01*
X26875133Y10816682D01*
X26918465Y10824500D01*
X27667257Y10824500D01*
X27682877Y10822776D01*
X27682904Y10823061D01*
X27690660Y10822329D01*
X27690667Y10822327D01*
X27757873Y10824439D01*
X27761768Y10824500D01*
X27789346Y10824500D01*
X27789350Y10824500D01*
X27793324Y10825003D01*
X27804963Y10825920D01*
X27848627Y10827291D01*
X27867869Y10832883D01*
X27886912Y10836826D01*
X27906792Y10839336D01*
X27947401Y10855415D01*
X27958444Y10859197D01*
X28000390Y10871382D01*
X28017629Y10881578D01*
X28035103Y10890138D01*
X28053727Y10897512D01*
X28053727Y10897513D01*
X28053732Y10897514D01*
X28089083Y10923200D01*
X28098814Y10929592D01*
X28136420Y10951830D01*
X28150589Y10966001D01*
X28165379Y10978632D01*
X28181587Y10990406D01*
X28209438Y11024074D01*
X28217269Y11032681D01*
X28548272Y11363684D01*
X28609594Y11397166D01*
X28635952Y11400000D01*
X30454514Y11400000D01*
X30521553Y11380315D01*
X30525624Y11377584D01*
X30537266Y11369432D01*
X30595275Y11342382D01*
X30647714Y11296209D01*
X30666866Y11229016D01*
X30646650Y11162135D01*
X30595275Y11117618D01*
X30537267Y11090569D01*
X30537265Y11090568D01*
X30350858Y10960046D01*
X30189954Y10799142D01*
X30059432Y10612735D01*
X30059431Y10612733D01*
X29963261Y10406498D01*
X29963258Y10406489D01*
X29904366Y10186698D01*
X29904364Y10186687D01*
X29884532Y9960002D01*
X29884532Y9959999D01*
X29904364Y9733314D01*
X29904366Y9733303D01*
X29963258Y9513512D01*
X29963261Y9513503D01*
X30059431Y9307268D01*
X30059432Y9307266D01*
X30189954Y9120859D01*
X30350858Y8959955D01*
X30391391Y8931574D01*
X30537266Y8829432D01*
X30594286Y8802843D01*
X30595275Y8802382D01*
X30647714Y8756209D01*
X30666866Y8689016D01*
X30646650Y8622135D01*
X30595275Y8577618D01*
X30537267Y8550569D01*
X30537265Y8550568D01*
X30350858Y8420046D01*
X30189954Y8259142D01*
X30059432Y8072735D01*
X30059431Y8072733D01*
X29963261Y7866498D01*
X29963258Y7866489D01*
X29904366Y7646698D01*
X29904364Y7646687D01*
X29884532Y7420002D01*
X29884532Y7419999D01*
X29904364Y7193314D01*
X29904366Y7193303D01*
X29963258Y6973512D01*
X29963261Y6973503D01*
X30059431Y6767268D01*
X30059432Y6767266D01*
X30189954Y6580859D01*
X30350858Y6419955D01*
X30511623Y6307387D01*
X30555248Y6252811D01*
X30564500Y6205812D01*
X30564500Y3900453D01*
X30544815Y3833414D01*
X30528181Y3812772D01*
X30177228Y3461819D01*
X30115905Y3428334D01*
X30089547Y3425500D01*
X16210453Y3425500D01*
X16143414Y3445185D01*
X16122772Y3461819D01*
X14761819Y4822772D01*
X14728334Y4884095D01*
X14725500Y4910453D01*
X14725500Y5350000D01*
X22400000Y5350000D01*
X22400000Y5152156D01*
X22406401Y5092628D01*
X22406403Y5092621D01*
X22456645Y4957914D01*
X22456649Y4957907D01*
X22542809Y4842813D01*
X22542812Y4842810D01*
X22657906Y4756650D01*
X22657913Y4756646D01*
X22792620Y4706404D01*
X22792627Y4706402D01*
X22852155Y4700001D01*
X22852172Y4700000D01*
X23050000Y4700000D01*
X23050000Y5350000D01*
X23550000Y5350000D01*
X23550000Y4700000D01*
X23747828Y4700000D01*
X23747844Y4700001D01*
X23807372Y4706402D01*
X23807379Y4706404D01*
X23942086Y4756646D01*
X23942093Y4756650D01*
X24057187Y4842810D01*
X24057190Y4842813D01*
X24143350Y4957907D01*
X24143354Y4957914D01*
X24193596Y5092621D01*
X24193598Y5092628D01*
X24199999Y5152156D01*
X24200000Y5152173D01*
X24200000Y5350000D01*
X23550000Y5350000D01*
X23050000Y5350000D01*
X22400000Y5350000D01*
X14725500Y5350000D01*
X14725500Y9417262D01*
X14727224Y9432876D01*
X14726938Y9432903D01*
X14727672Y9440666D01*
X14725561Y9507856D01*
X14725500Y9511750D01*
X14725500Y9539349D01*
X14725500Y9539350D01*
X14724997Y9543330D01*
X14724080Y9554979D01*
X14722709Y9598627D01*
X14722310Y9600000D01*
X16400000Y9600000D01*
X16400000Y9402156D01*
X16406401Y9342628D01*
X16406403Y9342621D01*
X16456645Y9207914D01*
X16456649Y9207907D01*
X16542809Y9092813D01*
X16542812Y9092810D01*
X16657906Y9006650D01*
X16657913Y9006646D01*
X16792620Y8956404D01*
X16792627Y8956402D01*
X16852155Y8950001D01*
X16852172Y8950000D01*
X17050000Y8950000D01*
X17050000Y9600000D01*
X17550000Y9600000D01*
X17550000Y8950000D01*
X17747828Y8950000D01*
X17747844Y8950001D01*
X17807372Y8956402D01*
X17807379Y8956404D01*
X17942086Y9006646D01*
X17942093Y9006650D01*
X18057187Y9092810D01*
X18057190Y9092813D01*
X18143350Y9207907D01*
X18143354Y9207914D01*
X18193596Y9342621D01*
X18193598Y9342628D01*
X18199999Y9402156D01*
X18200000Y9402173D01*
X18200000Y9600000D01*
X17550000Y9600000D01*
X17050000Y9600000D01*
X16400000Y9600000D01*
X14722310Y9600000D01*
X14717122Y9617856D01*
X14713174Y9636916D01*
X14710663Y9656796D01*
X14708706Y9661739D01*
X14700000Y9707382D01*
X14700000Y11416048D01*
X14719685Y11483087D01*
X14772489Y11528842D01*
X14841647Y11538786D01*
X14905203Y11509761D01*
G37*
%TD.AperFunction*%
%TA.AperFunction,Conductor*%
G36*
X48367288Y13329816D02*
G01*
X48399514Y13299814D01*
X48442454Y13242454D01*
X48442457Y13242452D01*
X48557664Y13156207D01*
X48557671Y13156203D01*
X48692517Y13105909D01*
X48692516Y13105909D01*
X48699444Y13105165D01*
X48752127Y13099500D01*
X49647872Y13099501D01*
X49707483Y13105909D01*
X49842331Y13156204D01*
X49925689Y13218607D01*
X49991153Y13243023D01*
X50059426Y13228172D01*
X50074311Y13218606D01*
X50157669Y13156204D01*
X50157671Y13156203D01*
X50292517Y13105909D01*
X50292516Y13105909D01*
X50299444Y13105165D01*
X50352127Y13099500D01*
X51247872Y13099501D01*
X51307483Y13105909D01*
X51442331Y13156204D01*
X51557546Y13242454D01*
X51600483Y13299813D01*
X51656415Y13341682D01*
X51699750Y13349501D01*
X53944354Y13349501D01*
X54011393Y13329816D01*
X54045927Y13296627D01*
X54118402Y13193123D01*
X54273123Y13038402D01*
X54452361Y12912898D01*
X54650670Y12820425D01*
X54862023Y12763793D01*
X55044926Y12747792D01*
X55079998Y12744723D01*
X55080000Y12744723D01*
X55080002Y12744723D01*
X55110212Y12747367D01*
X55297977Y12763793D01*
X55334221Y12773505D01*
X55404071Y12771844D01*
X55453998Y12741412D01*
X55938181Y12257229D01*
X55971666Y12195906D01*
X55974500Y12169548D01*
X55974500Y12137835D01*
X55954815Y12070796D01*
X55902011Y12025041D01*
X55832853Y12015097D01*
X55779376Y12036260D01*
X55707387Y12086667D01*
X55509159Y12179102D01*
X55509150Y12179106D01*
X55330000Y12227109D01*
X55330000Y11435502D01*
X55222315Y11484680D01*
X55115763Y11500000D01*
X55044237Y11500000D01*
X54937685Y11484680D01*
X54830000Y11435502D01*
X54830000Y12227108D01*
X54829999Y12227109D01*
X54650849Y12179106D01*
X54650840Y12179102D01*
X54452612Y12086667D01*
X54452608Y12086665D01*
X54273450Y11961217D01*
X54118785Y11806553D01*
X54046192Y11702877D01*
X53991616Y11659252D01*
X53944617Y11650000D01*
X53150000Y11650000D01*
X53150000Y10350000D01*
X53944616Y10350000D01*
X54011655Y10330315D01*
X54046191Y10297124D01*
X54118787Y10193446D01*
X54273445Y10038788D01*
X54452612Y9913334D01*
X54650843Y9820897D01*
X54830000Y9772894D01*
X54830000Y10564499D01*
X54937685Y10515320D01*
X55044237Y10500000D01*
X55115763Y10500000D01*
X55222315Y10515320D01*
X55330000Y10564499D01*
X55330000Y9772895D01*
X55509156Y9820897D01*
X55509157Y9820897D01*
X55707388Y9913334D01*
X55707394Y9913337D01*
X55779376Y9963740D01*
X55845582Y9986068D01*
X55913349Y9969058D01*
X55961162Y9918111D01*
X55974500Y9862166D01*
X55974500Y8830453D01*
X55954815Y8763414D01*
X55938181Y8742772D01*
X55453997Y8258589D01*
X55392674Y8225104D01*
X55334223Y8226495D01*
X55297977Y8236207D01*
X55080002Y8255277D01*
X55079998Y8255277D01*
X54934682Y8242564D01*
X54862023Y8236207D01*
X54862020Y8236207D01*
X54650677Y8179578D01*
X54650668Y8179574D01*
X54452361Y8087102D01*
X54452357Y8087100D01*
X54273124Y7961600D01*
X54118401Y7806876D01*
X54094464Y7772691D01*
X54045928Y7703375D01*
X53991353Y7659751D01*
X53944355Y7650500D01*
X51699751Y7650500D01*
X51632712Y7670185D01*
X51600485Y7700188D01*
X51557548Y7757543D01*
X51557546Y7757546D01*
X51538468Y7771828D01*
X51442335Y7843794D01*
X51442328Y7843798D01*
X51307482Y7894092D01*
X51307483Y7894092D01*
X51247883Y7900499D01*
X51247881Y7900500D01*
X51247873Y7900500D01*
X51247864Y7900500D01*
X50352129Y7900500D01*
X50352123Y7900499D01*
X50292516Y7894092D01*
X50157671Y7843798D01*
X50157669Y7843797D01*
X50074311Y7781394D01*
X50008847Y7756977D01*
X49940574Y7771828D01*
X49925689Y7781394D01*
X49842330Y7843797D01*
X49842328Y7843798D01*
X49707482Y7894092D01*
X49707483Y7894092D01*
X49647883Y7900499D01*
X49647881Y7900500D01*
X49647873Y7900500D01*
X49647864Y7900500D01*
X48752129Y7900500D01*
X48752123Y7900499D01*
X48692516Y7894092D01*
X48557671Y7843798D01*
X48557664Y7843794D01*
X48442457Y7757549D01*
X48442451Y7757543D01*
X48399515Y7700188D01*
X48343581Y7658318D01*
X48300249Y7650500D01*
X46055644Y7650500D01*
X45988605Y7670185D01*
X45954069Y7703377D01*
X45951193Y7707484D01*
X45916138Y7757549D01*
X45881599Y7806876D01*
X45813710Y7874765D01*
X45726877Y7961598D01*
X45697252Y7982342D01*
X45578376Y8065581D01*
X45534751Y8120158D01*
X45525500Y8167155D01*
X45525500Y8517263D01*
X45527224Y8532877D01*
X45526938Y8532904D01*
X45527672Y8540667D01*
X45525561Y8607857D01*
X45525500Y8611751D01*
X45525500Y8639349D01*
X45525500Y8639350D01*
X45524997Y8643330D01*
X45524080Y8654979D01*
X45523514Y8672989D01*
X45522709Y8698628D01*
X45517120Y8717863D01*
X45513174Y8736916D01*
X45510664Y8756792D01*
X45494578Y8797419D01*
X45490803Y8808446D01*
X45478617Y8850390D01*
X45468421Y8867631D01*
X45459860Y8885107D01*
X45458185Y8889338D01*
X45452486Y8903732D01*
X45426809Y8939074D01*
X45420412Y8948810D01*
X45398170Y8986421D01*
X45398167Y8986424D01*
X45398165Y8986427D01*
X45384005Y9000587D01*
X45371370Y9015380D01*
X45359593Y9031588D01*
X45325945Y9059424D01*
X45317304Y9067287D01*
X44850437Y9534154D01*
X44816952Y9595477D01*
X44821936Y9665169D01*
X44863808Y9721102D01*
X44927309Y9745363D01*
X45137977Y9763793D01*
X45349330Y9820425D01*
X45547639Y9912898D01*
X45726877Y10038402D01*
X45881598Y10193123D01*
X45916388Y10242809D01*
X45954070Y10296624D01*
X46008647Y10340249D01*
X46055645Y10349501D01*
X48300249Y10349501D01*
X48367288Y10329816D01*
X48399514Y10299814D01*
X48442454Y10242454D01*
X48471095Y10221013D01*
X48557664Y10156207D01*
X48557671Y10156203D01*
X48692517Y10105909D01*
X48692516Y10105909D01*
X48699444Y10105165D01*
X48752127Y10099500D01*
X49647872Y10099501D01*
X49707483Y10105909D01*
X49842331Y10156204D01*
X49926105Y10218918D01*
X49991569Y10243335D01*
X50059842Y10228484D01*
X50074727Y10218918D01*
X50157910Y10156648D01*
X50157913Y10156646D01*
X50292620Y10106404D01*
X50292627Y10106402D01*
X50352155Y10100001D01*
X50352172Y10100000D01*
X50550000Y10100000D01*
X50550000Y11900000D01*
X51050000Y11900000D01*
X51050000Y10100000D01*
X51247828Y10100000D01*
X51247844Y10100001D01*
X51307372Y10106402D01*
X51307379Y10106404D01*
X51442086Y10156646D01*
X51442093Y10156650D01*
X51557185Y10242809D01*
X51557194Y10242818D01*
X51600235Y10300311D01*
X51656169Y10342182D01*
X51699501Y10350000D01*
X52850000Y10350000D01*
X52850000Y11650000D01*
X51699501Y11650000D01*
X51632462Y11669685D01*
X51600235Y11699689D01*
X51557194Y11757183D01*
X51557185Y11757192D01*
X51442093Y11843351D01*
X51442086Y11843355D01*
X51307379Y11893597D01*
X51307372Y11893599D01*
X51247844Y11900000D01*
X51050000Y11900000D01*
X50550000Y11900000D01*
X50352155Y11900000D01*
X50292627Y11893599D01*
X50292620Y11893597D01*
X50157913Y11843355D01*
X50157910Y11843353D01*
X50074727Y11781082D01*
X50009262Y11756665D01*
X49940989Y11771517D01*
X49926106Y11781082D01*
X49842331Y11843796D01*
X49842328Y11843798D01*
X49707482Y11894092D01*
X49707483Y11894092D01*
X49647883Y11900499D01*
X49647881Y11900500D01*
X49647873Y11900500D01*
X49647864Y11900500D01*
X48752129Y11900500D01*
X48752123Y11900499D01*
X48692516Y11894092D01*
X48557671Y11843798D01*
X48557664Y11843794D01*
X48442457Y11757549D01*
X48442451Y11757543D01*
X48399515Y11700188D01*
X48343581Y11658318D01*
X48300249Y11650500D01*
X46055644Y11650500D01*
X45988605Y11670185D01*
X45954069Y11703377D01*
X45945643Y11715410D01*
X45887903Y11797873D01*
X45881599Y11806876D01*
X45804687Y11883788D01*
X45726877Y11961598D01*
X45598375Y12051577D01*
X45554751Y12106153D01*
X45545500Y12153150D01*
X45545500Y12846851D01*
X45565185Y12913890D01*
X45598374Y12948424D01*
X45726877Y13038402D01*
X45881598Y13193123D01*
X45916538Y13243023D01*
X45954070Y13296624D01*
X46008647Y13340249D01*
X46055645Y13349501D01*
X48300249Y13349501D01*
X48367288Y13329816D01*
G37*
%TD.AperFunction*%
%TA.AperFunction,Conductor*%
G36*
X48367288Y19329816D02*
G01*
X48399514Y19299814D01*
X48442454Y19242454D01*
X48442457Y19242452D01*
X48557664Y19156207D01*
X48557671Y19156203D01*
X48692517Y19105909D01*
X48692516Y19105909D01*
X48699444Y19105165D01*
X48752127Y19099500D01*
X49647872Y19099501D01*
X49707483Y19105909D01*
X49842331Y19156204D01*
X49925689Y19218607D01*
X49991153Y19243023D01*
X50059426Y19228172D01*
X50074311Y19218606D01*
X50157669Y19156204D01*
X50157671Y19156203D01*
X50292517Y19105909D01*
X50292516Y19105909D01*
X50299444Y19105165D01*
X50352127Y19099500D01*
X51247872Y19099501D01*
X51307483Y19105909D01*
X51442331Y19156204D01*
X51557546Y19242454D01*
X51600483Y19299813D01*
X51656415Y19341682D01*
X51699750Y19349501D01*
X53944354Y19349501D01*
X54011393Y19329816D01*
X54045927Y19296627D01*
X54118402Y19193123D01*
X54273123Y19038402D01*
X54452361Y18912898D01*
X54650670Y18820425D01*
X54862023Y18763793D01*
X55044926Y18747792D01*
X55079998Y18744723D01*
X55080000Y18744723D01*
X55080002Y18744723D01*
X55108254Y18747195D01*
X55297977Y18763793D01*
X55509330Y18820425D01*
X55707639Y18912898D01*
X55879379Y19033153D01*
X55945582Y19055478D01*
X56013350Y19038468D01*
X56061163Y18987520D01*
X56074500Y18931576D01*
X56074500Y18067814D01*
X56054815Y18000775D01*
X56002011Y17955020D01*
X55932853Y17945076D01*
X55879376Y17966239D01*
X55707387Y18086667D01*
X55509159Y18179102D01*
X55509150Y18179106D01*
X55330000Y18227109D01*
X55330000Y17435502D01*
X55222315Y17484680D01*
X55115763Y17500000D01*
X55044237Y17500000D01*
X54937685Y17484680D01*
X54830000Y17435502D01*
X54830000Y18227108D01*
X54829999Y18227109D01*
X54650849Y18179106D01*
X54650840Y18179102D01*
X54452612Y18086667D01*
X54452608Y18086665D01*
X54273450Y17961217D01*
X54118785Y17806553D01*
X54046192Y17702877D01*
X53991616Y17659252D01*
X53944617Y17650000D01*
X53150000Y17650000D01*
X53150000Y16350000D01*
X53944616Y16350000D01*
X54011655Y16330315D01*
X54046191Y16297124D01*
X54118787Y16193446D01*
X54273445Y16038788D01*
X54452612Y15913334D01*
X54650843Y15820897D01*
X54830000Y15772894D01*
X54830000Y16564499D01*
X54937685Y16515320D01*
X55044237Y16500000D01*
X55115763Y16500000D01*
X55222315Y16515320D01*
X55330000Y16564499D01*
X55330000Y15772895D01*
X55509156Y15820897D01*
X55509157Y15820897D01*
X55707387Y15913333D01*
X55879376Y16033762D01*
X55945582Y16056089D01*
X56013349Y16039079D01*
X56061163Y15988131D01*
X56074500Y15932187D01*
X56074500Y15810454D01*
X56054815Y15743415D01*
X56038181Y15722773D01*
X55548638Y15233231D01*
X55487315Y15199746D01*
X55428864Y15201137D01*
X55297977Y15236207D01*
X55080002Y15255277D01*
X55079998Y15255277D01*
X54934682Y15242564D01*
X54862023Y15236207D01*
X54862020Y15236207D01*
X54650677Y15179578D01*
X54650668Y15179574D01*
X54452361Y15087102D01*
X54452357Y15087100D01*
X54273124Y14961600D01*
X54118401Y14806876D01*
X54094464Y14772691D01*
X54045928Y14703375D01*
X53991353Y14659751D01*
X53944355Y14650500D01*
X51699751Y14650500D01*
X51632712Y14670185D01*
X51600485Y14700188D01*
X51557548Y14757543D01*
X51557546Y14757546D01*
X51538468Y14771828D01*
X51442335Y14843794D01*
X51442328Y14843798D01*
X51307482Y14894092D01*
X51307483Y14894092D01*
X51247883Y14900499D01*
X51247881Y14900500D01*
X51247873Y14900500D01*
X51247864Y14900500D01*
X50352129Y14900500D01*
X50352123Y14900499D01*
X50292516Y14894092D01*
X50157671Y14843798D01*
X50157669Y14843797D01*
X50074311Y14781394D01*
X50008847Y14756977D01*
X49940574Y14771828D01*
X49925689Y14781394D01*
X49842330Y14843797D01*
X49842328Y14843798D01*
X49707482Y14894092D01*
X49707483Y14894092D01*
X49647883Y14900499D01*
X49647881Y14900500D01*
X49647873Y14900500D01*
X49647864Y14900500D01*
X48752129Y14900500D01*
X48752123Y14900499D01*
X48692516Y14894092D01*
X48557671Y14843798D01*
X48557664Y14843794D01*
X48442457Y14757549D01*
X48442451Y14757543D01*
X48399515Y14700188D01*
X48343581Y14658318D01*
X48300249Y14650500D01*
X46055644Y14650500D01*
X45988605Y14670185D01*
X45954069Y14703377D01*
X45881599Y14806876D01*
X45844677Y14843798D01*
X45726877Y14961598D01*
X45718546Y14967431D01*
X45652875Y15013416D01*
X45609251Y15067994D01*
X45600000Y15114990D01*
X45600000Y15885012D01*
X45619685Y15952051D01*
X45652877Y15986587D01*
X45670289Y15998779D01*
X45726877Y16038402D01*
X45881598Y16193123D01*
X45939279Y16275501D01*
X45954070Y16296624D01*
X46008647Y16340249D01*
X46055645Y16349501D01*
X48300249Y16349501D01*
X48367288Y16329816D01*
X48399514Y16299814D01*
X48442454Y16242454D01*
X48471095Y16221013D01*
X48557664Y16156207D01*
X48557671Y16156203D01*
X48692517Y16105909D01*
X48692516Y16105909D01*
X48699444Y16105165D01*
X48752127Y16099500D01*
X49647872Y16099501D01*
X49707483Y16105909D01*
X49842331Y16156204D01*
X49926105Y16218918D01*
X49991569Y16243335D01*
X50059842Y16228484D01*
X50074727Y16218918D01*
X50157910Y16156648D01*
X50157913Y16156646D01*
X50292620Y16106404D01*
X50292627Y16106402D01*
X50352155Y16100001D01*
X50352172Y16100000D01*
X50550000Y16100000D01*
X50550000Y17900000D01*
X51050000Y17900000D01*
X51050000Y16100000D01*
X51247828Y16100000D01*
X51247844Y16100001D01*
X51307372Y16106402D01*
X51307379Y16106404D01*
X51442086Y16156646D01*
X51442093Y16156650D01*
X51557185Y16242809D01*
X51557194Y16242818D01*
X51600235Y16300311D01*
X51656169Y16342182D01*
X51699501Y16350000D01*
X52850000Y16350000D01*
X52850000Y17650000D01*
X51699501Y17650000D01*
X51632462Y17669685D01*
X51600235Y17699689D01*
X51557194Y17757183D01*
X51557185Y17757192D01*
X51442093Y17843351D01*
X51442086Y17843355D01*
X51307379Y17893597D01*
X51307372Y17893599D01*
X51247844Y17900000D01*
X51050000Y17900000D01*
X50550000Y17900000D01*
X50352155Y17900000D01*
X50292627Y17893599D01*
X50292620Y17893597D01*
X50157913Y17843355D01*
X50157910Y17843353D01*
X50074727Y17781082D01*
X50009262Y17756665D01*
X49940989Y17771517D01*
X49926106Y17781082D01*
X49842331Y17843796D01*
X49842328Y17843798D01*
X49707482Y17894092D01*
X49707483Y17894092D01*
X49647883Y17900499D01*
X49647881Y17900500D01*
X49647873Y17900500D01*
X49647864Y17900500D01*
X48752129Y17900500D01*
X48752123Y17900499D01*
X48692516Y17894092D01*
X48557671Y17843798D01*
X48557664Y17843794D01*
X48442457Y17757549D01*
X48442451Y17757543D01*
X48399515Y17700188D01*
X48343581Y17658318D01*
X48300249Y17650500D01*
X46055644Y17650500D01*
X45988605Y17670185D01*
X45954069Y17703377D01*
X45881599Y17806876D01*
X45844677Y17843798D01*
X45726877Y17961598D01*
X45598375Y18051577D01*
X45554751Y18106153D01*
X45545500Y18153150D01*
X45545500Y18846851D01*
X45565185Y18913890D01*
X45598374Y18948424D01*
X45726877Y19038402D01*
X45881598Y19193123D01*
X45916538Y19243023D01*
X45954070Y19296624D01*
X46008647Y19340249D01*
X46055645Y19349501D01*
X48300249Y19349501D01*
X48367288Y19329816D01*
G37*
%TD.AperFunction*%
%TA.AperFunction,Conductor*%
G36*
X68942539Y23979815D02*
G01*
X68988294Y23927011D01*
X68999500Y23875500D01*
X68999500Y19024500D01*
X68979815Y18957461D01*
X68927011Y18911706D01*
X68875500Y18900500D01*
X65152129Y18900500D01*
X65152123Y18900499D01*
X65092516Y18894092D01*
X64957671Y18843798D01*
X64957664Y18843794D01*
X64842455Y18757548D01*
X64842452Y18757545D01*
X64756206Y18642336D01*
X64756202Y18642329D01*
X64705908Y18507483D01*
X64702656Y18477229D01*
X64699501Y18447877D01*
X64699500Y18447865D01*
X64699500Y16860075D01*
X64679815Y16793036D01*
X64627011Y16747281D01*
X64557853Y16737337D01*
X64494297Y16766362D01*
X64461642Y16810961D01*
X64454377Y16827804D01*
X64445606Y16839585D01*
X64349609Y16968531D01*
X64215214Y17081302D01*
X64215212Y17081303D01*
X64058437Y17160039D01*
X64058433Y17160040D01*
X63887721Y17200500D01*
X63756291Y17200500D01*
X63651854Y17188293D01*
X63625743Y17185241D01*
X63625740Y17185240D01*
X63460884Y17125238D01*
X63460880Y17125236D01*
X63314306Y17028833D01*
X63314305Y17028832D01*
X63193910Y16901222D01*
X63106188Y16749282D01*
X63055870Y16581211D01*
X63055869Y16581206D01*
X63045668Y16406067D01*
X63074455Y16242818D01*
X63076135Y16233289D01*
X63145623Y16072196D01*
X63145624Y16072194D01*
X63145626Y16072191D01*
X63235068Y15952051D01*
X63250390Y15931470D01*
X63384786Y15818698D01*
X63462488Y15779675D01*
X63541562Y15739962D01*
X63541563Y15739962D01*
X63541567Y15739960D01*
X63712279Y15699500D01*
X63712282Y15699500D01*
X63843701Y15699500D01*
X63843709Y15699500D01*
X63974255Y15714759D01*
X64139117Y15774763D01*
X64285696Y15871170D01*
X64406092Y15998782D01*
X64493812Y16150719D01*
X64544130Y16318790D01*
X64554331Y16493935D01*
X64544682Y16548654D01*
X64552426Y16618091D01*
X64596481Y16672320D01*
X64662862Y16694123D01*
X64730493Y16676576D01*
X64766064Y16644497D01*
X64768433Y16641333D01*
X64842453Y16542455D01*
X64842455Y16542453D01*
X64957664Y16456207D01*
X64957671Y16456203D01*
X65092517Y16405909D01*
X65092516Y16405909D01*
X65099444Y16405165D01*
X65152127Y16399500D01*
X68875500Y16399501D01*
X68942539Y16379816D01*
X68988294Y16327012D01*
X68999500Y16275501D01*
X68999500Y8724500D01*
X68979815Y8657461D01*
X68927011Y8611706D01*
X68875500Y8600500D01*
X65152129Y8600500D01*
X65152123Y8600499D01*
X65092516Y8594092D01*
X64957671Y8543798D01*
X64957664Y8543794D01*
X64842455Y8457548D01*
X64768432Y8358666D01*
X64712498Y8316796D01*
X64642807Y8311812D01*
X64581484Y8345298D01*
X64547999Y8406621D01*
X64545376Y8440188D01*
X64545422Y8440981D01*
X64554331Y8593935D01*
X64523865Y8766711D01*
X64454377Y8927804D01*
X64451570Y8931574D01*
X64360626Y9053733D01*
X64349610Y9068530D01*
X64277747Y9128830D01*
X64215214Y9181302D01*
X64215212Y9181303D01*
X64058437Y9260039D01*
X64050353Y9261955D01*
X63887721Y9300500D01*
X63756291Y9300500D01*
X63651854Y9288293D01*
X63625743Y9285241D01*
X63625740Y9285240D01*
X63460884Y9225238D01*
X63460880Y9225236D01*
X63314306Y9128833D01*
X63314305Y9128832D01*
X63193910Y9001222D01*
X63106188Y8849282D01*
X63055870Y8681211D01*
X63055869Y8681206D01*
X63045668Y8506067D01*
X63074791Y8340910D01*
X63076135Y8333289D01*
X63145623Y8172196D01*
X63145624Y8172194D01*
X63145626Y8172191D01*
X63239945Y8045500D01*
X63250390Y8031470D01*
X63384786Y7918698D01*
X63441690Y7890120D01*
X63541562Y7839962D01*
X63541563Y7839962D01*
X63541567Y7839960D01*
X63712279Y7799500D01*
X63712282Y7799500D01*
X63843701Y7799500D01*
X63843709Y7799500D01*
X63974255Y7814759D01*
X64139117Y7874763D01*
X64285696Y7971170D01*
X64406092Y8098782D01*
X64468114Y8206210D01*
X64518679Y8254423D01*
X64587286Y8267647D01*
X64652151Y8241679D01*
X64692680Y8184765D01*
X64699500Y8144208D01*
X64699500Y6552130D01*
X64699501Y6552124D01*
X64705908Y6492517D01*
X64756202Y6357672D01*
X64756206Y6357665D01*
X64842452Y6242456D01*
X64842455Y6242453D01*
X64957664Y6156207D01*
X64957671Y6156203D01*
X65092517Y6105909D01*
X65092516Y6105909D01*
X65099444Y6105165D01*
X65152127Y6099500D01*
X68875500Y6099501D01*
X68942539Y6079816D01*
X68988294Y6027012D01*
X68999500Y5975501D01*
X68999500Y1124500D01*
X68979815Y1057461D01*
X68927011Y1011706D01*
X68875500Y1000500D01*
X1124500Y1000500D01*
X1057461Y1020185D01*
X1011706Y1072989D01*
X1000500Y1124500D01*
X1000500Y2868813D01*
X1249500Y2868813D01*
X1265330Y2763794D01*
X1288604Y2609385D01*
X1288605Y2609383D01*
X1288606Y2609377D01*
X1365938Y2358674D01*
X1479767Y2122304D01*
X1479768Y2122303D01*
X1479770Y2122300D01*
X1479772Y2122296D01*
X1627567Y1905521D01*
X1806014Y1713199D01*
X1806018Y1713196D01*
X1806019Y1713195D01*
X2011143Y1549614D01*
X2238357Y1418432D01*
X2482584Y1322580D01*
X2738370Y1264198D01*
X2738376Y1264198D01*
X2738379Y1264197D01*
X2934484Y1249501D01*
X2934503Y1249501D01*
X2934506Y1249500D01*
X2934508Y1249500D01*
X3065492Y1249500D01*
X3065494Y1249500D01*
X3065496Y1249501D01*
X3065515Y1249501D01*
X3261620Y1264197D01*
X3261622Y1264198D01*
X3261630Y1264198D01*
X3517416Y1322580D01*
X3761643Y1418432D01*
X3988857Y1549614D01*
X4193981Y1713195D01*
X4203856Y1723837D01*
X4280584Y1806531D01*
X4372433Y1905521D01*
X4520228Y2122296D01*
X4634063Y2358677D01*
X4711396Y2609385D01*
X4750500Y2868818D01*
X4750500Y3131182D01*
X4711396Y3390615D01*
X4634063Y3641323D01*
X4576710Y3760418D01*
X4520232Y3877697D01*
X4520231Y3877698D01*
X4520230Y3877699D01*
X4520228Y3877704D01*
X4372433Y4094479D01*
X4291094Y4182142D01*
X4193985Y4286802D01*
X4154533Y4318264D01*
X3988857Y4450386D01*
X3761643Y4581568D01*
X3517416Y4677420D01*
X3517411Y4677422D01*
X3517402Y4677424D01*
X3299818Y4727086D01*
X3261630Y4735802D01*
X3261629Y4735803D01*
X3261625Y4735803D01*
X3261620Y4735804D01*
X3065515Y4750500D01*
X3065494Y4750500D01*
X2934506Y4750500D01*
X2934484Y4750500D01*
X2738379Y4735804D01*
X2738374Y4735803D01*
X2482597Y4677424D01*
X2482578Y4677418D01*
X2238356Y4581568D01*
X2011143Y4450386D01*
X1806014Y4286802D01*
X1627567Y4094480D01*
X1479768Y3877698D01*
X1479767Y3877697D01*
X1365938Y3641327D01*
X1288606Y3390624D01*
X1288605Y3390619D01*
X1288604Y3390615D01*
X1279440Y3329816D01*
X1249500Y3131188D01*
X1249500Y2868813D01*
X1000500Y2868813D01*
X1000500Y5975501D01*
X1020185Y6042540D01*
X1072989Y6088295D01*
X1124500Y6099501D01*
X4847871Y6099501D01*
X4847872Y6099501D01*
X4907483Y6105909D01*
X5042331Y6156204D01*
X5157546Y6242454D01*
X5243796Y6357669D01*
X5294091Y6492517D01*
X5300500Y6552127D01*
X5300499Y8139927D01*
X5320184Y8206965D01*
X5372987Y8252720D01*
X5442146Y8262664D01*
X5505702Y8233639D01*
X5538357Y8189040D01*
X5545623Y8172196D01*
X5545624Y8172194D01*
X5545626Y8172191D01*
X5639945Y8045500D01*
X5650390Y8031470D01*
X5784786Y7918698D01*
X5841690Y7890120D01*
X5941562Y7839962D01*
X5941563Y7839962D01*
X5941567Y7839960D01*
X6112279Y7799500D01*
X6112282Y7799500D01*
X6243701Y7799500D01*
X6243709Y7799500D01*
X6374255Y7814759D01*
X6539117Y7874763D01*
X6685696Y7971170D01*
X6806092Y8098782D01*
X6893812Y8250719D01*
X6944130Y8418790D01*
X6954331Y8593935D01*
X6923865Y8766711D01*
X6865452Y8902130D01*
X7999500Y8902130D01*
X7999501Y8902124D01*
X8005908Y8842517D01*
X8056202Y8707672D01*
X8056206Y8707665D01*
X8142452Y8592456D01*
X8142455Y8592453D01*
X8257664Y8506207D01*
X8257671Y8506203D01*
X8392517Y8455909D01*
X8392516Y8455909D01*
X8399444Y8455165D01*
X8452127Y8449500D01*
X11547872Y8449501D01*
X11607483Y8455909D01*
X11742331Y8506204D01*
X11857546Y8592454D01*
X11899977Y8649134D01*
X11928225Y8686868D01*
X11984158Y8728739D01*
X12053850Y8733723D01*
X12115172Y8700238D01*
X12738181Y8077229D01*
X12771666Y8015906D01*
X12774500Y7989548D01*
X12774500Y4382745D01*
X12772775Y4367128D01*
X12773061Y4367101D01*
X12772326Y4359335D01*
X12774439Y4292128D01*
X12774500Y4288233D01*
X12774500Y4260643D01*
X12775003Y4256665D01*
X12775918Y4245033D01*
X12777290Y4201376D01*
X12777291Y4201373D01*
X12782880Y4182133D01*
X12786824Y4163089D01*
X12789336Y4143208D01*
X12805414Y4102597D01*
X12809197Y4091548D01*
X12821381Y4049612D01*
X12831580Y4032366D01*
X12840138Y4014897D01*
X12847514Y3996268D01*
X12873181Y3960940D01*
X12879593Y3951179D01*
X12901828Y3913583D01*
X12901833Y3913576D01*
X12915990Y3899420D01*
X12928628Y3884624D01*
X12940405Y3868414D01*
X12940406Y3868413D01*
X12974057Y3840575D01*
X12982698Y3832712D01*
X14999197Y1816212D01*
X15009022Y1803949D01*
X15009243Y1804131D01*
X15014211Y1798126D01*
X15063222Y1752101D01*
X15066021Y1749388D01*
X15085522Y1729886D01*
X15085526Y1729883D01*
X15085529Y1729880D01*
X15088702Y1727419D01*
X15097574Y1719841D01*
X15129418Y1689938D01*
X15146976Y1680286D01*
X15163235Y1669605D01*
X15179064Y1657327D01*
X15219155Y1639979D01*
X15229626Y1634849D01*
X15252180Y1622450D01*
X15267902Y1613806D01*
X15267904Y1613805D01*
X15267908Y1613803D01*
X15287316Y1608820D01*
X15305719Y1602519D01*
X15324101Y1594564D01*
X15324102Y1594564D01*
X15324104Y1594563D01*
X15367250Y1587730D01*
X15378672Y1585364D01*
X15420981Y1574500D01*
X15441016Y1574500D01*
X15460414Y1572974D01*
X15480194Y1569841D01*
X15480195Y1569840D01*
X15480195Y1569841D01*
X15480196Y1569840D01*
X15523675Y1573950D01*
X15535344Y1574500D01*
X30717257Y1574500D01*
X30732877Y1572776D01*
X30732904Y1573061D01*
X30740660Y1572329D01*
X30740667Y1572327D01*
X30807873Y1574439D01*
X30811768Y1574500D01*
X30839346Y1574500D01*
X30839350Y1574500D01*
X30843324Y1575003D01*
X30854963Y1575920D01*
X30898627Y1577291D01*
X30917869Y1582883D01*
X30936912Y1586826D01*
X30956792Y1589336D01*
X30997401Y1605415D01*
X31008444Y1609197D01*
X31050390Y1621382D01*
X31067629Y1631578D01*
X31085103Y1640138D01*
X31103727Y1647512D01*
X31103727Y1647513D01*
X31103732Y1647514D01*
X31139083Y1673200D01*
X31148814Y1679592D01*
X31186420Y1701830D01*
X31200589Y1716001D01*
X31215379Y1728632D01*
X31231587Y1740406D01*
X31259438Y1774074D01*
X31267279Y1782691D01*
X32783786Y3299198D01*
X32796048Y3309020D01*
X32795865Y3309241D01*
X32801868Y3314209D01*
X32801877Y3314214D01*
X32847934Y3363261D01*
X32850582Y3365994D01*
X32870120Y3385530D01*
X32872570Y3388690D01*
X32880154Y3397571D01*
X32910062Y3429418D01*
X32919714Y3446977D01*
X32930389Y3463228D01*
X32942674Y3479064D01*
X32960030Y3519175D01*
X32965161Y3529646D01*
X32986194Y3567902D01*
X32986194Y3567903D01*
X32986197Y3567908D01*
X32991180Y3587320D01*
X32997477Y3605709D01*
X33005438Y3624105D01*
X33012270Y3667252D01*
X33014639Y3678684D01*
X33025499Y3720978D01*
X33025500Y3720983D01*
X33025500Y3741017D01*
X33027027Y3760418D01*
X33030160Y3780196D01*
X33026050Y3823676D01*
X33025500Y3835345D01*
X33025500Y7419999D01*
X37504532Y7419999D01*
X37524364Y7193314D01*
X37524366Y7193303D01*
X37583258Y6973512D01*
X37583261Y6973503D01*
X37679431Y6767268D01*
X37679432Y6767266D01*
X37809954Y6580859D01*
X37970858Y6419955D01*
X37970861Y6419953D01*
X38157266Y6289432D01*
X38363504Y6193261D01*
X38363509Y6193260D01*
X38363511Y6193259D01*
X38416415Y6179084D01*
X38583308Y6134365D01*
X38745230Y6120199D01*
X38809998Y6114532D01*
X38810000Y6114532D01*
X38810002Y6114532D01*
X38866673Y6119491D01*
X39036692Y6134365D01*
X39256496Y6193261D01*
X39462734Y6289432D01*
X39649139Y6419953D01*
X39810047Y6580861D01*
X39922613Y6741623D01*
X39977189Y6785248D01*
X40024188Y6794500D01*
X42469548Y6794500D01*
X42536587Y6774815D01*
X42557229Y6758181D01*
X44150192Y5165217D01*
X44183677Y5103894D01*
X44178693Y5034202D01*
X44136821Y4978269D01*
X44133636Y4975962D01*
X44113120Y4961597D01*
X43958402Y4806879D01*
X43832900Y4627643D01*
X43832898Y4627639D01*
X43740426Y4429332D01*
X43740422Y4429323D01*
X43683793Y4217980D01*
X43683793Y4217976D01*
X43664723Y4000003D01*
X43664723Y3999998D01*
X43668994Y3951179D01*
X43679358Y3832712D01*
X43683793Y3782025D01*
X43683793Y3782021D01*
X43740422Y3570678D01*
X43740424Y3570674D01*
X43740425Y3570670D01*
X43741713Y3567908D01*
X43832897Y3372362D01*
X43832898Y3372361D01*
X43958402Y3193123D01*
X44113123Y3038402D01*
X44292361Y2912898D01*
X44490670Y2820425D01*
X44702023Y2763793D01*
X44884926Y2747792D01*
X44919998Y2744723D01*
X44920000Y2744723D01*
X44920002Y2744723D01*
X44948254Y2747195D01*
X45137977Y2763793D01*
X45349330Y2820425D01*
X45547639Y2912898D01*
X45726877Y3038402D01*
X45881598Y3193123D01*
X45916538Y3243023D01*
X45954070Y3296624D01*
X46008647Y3340249D01*
X46055645Y3349501D01*
X48300249Y3349501D01*
X48367288Y3329816D01*
X48399514Y3299814D01*
X48442454Y3242454D01*
X48442457Y3242452D01*
X48557664Y3156207D01*
X48557671Y3156203D01*
X48692517Y3105909D01*
X48692516Y3105909D01*
X48699444Y3105165D01*
X48752127Y3099500D01*
X49647872Y3099501D01*
X49707483Y3105909D01*
X49842331Y3156204D01*
X49925689Y3218607D01*
X49991153Y3243023D01*
X50059426Y3228172D01*
X50074311Y3218606D01*
X50157669Y3156204D01*
X50157671Y3156203D01*
X50292517Y3105909D01*
X50292516Y3105909D01*
X50299444Y3105165D01*
X50352127Y3099500D01*
X51247872Y3099501D01*
X51307483Y3105909D01*
X51442331Y3156204D01*
X51557546Y3242454D01*
X51600483Y3299813D01*
X51656415Y3341682D01*
X51699750Y3349501D01*
X53944354Y3349501D01*
X54011393Y3329816D01*
X54045927Y3296627D01*
X54118402Y3193123D01*
X54273123Y3038402D01*
X54452361Y2912898D01*
X54650670Y2820425D01*
X54862023Y2763793D01*
X55044926Y2747792D01*
X55079998Y2744723D01*
X55080000Y2744723D01*
X55080002Y2744723D01*
X55108254Y2747195D01*
X55297977Y2763793D01*
X55509330Y2820425D01*
X55613098Y2868813D01*
X65249500Y2868813D01*
X65265330Y2763794D01*
X65288604Y2609385D01*
X65288605Y2609383D01*
X65288606Y2609377D01*
X65365938Y2358674D01*
X65479767Y2122304D01*
X65479768Y2122303D01*
X65479770Y2122300D01*
X65479772Y2122296D01*
X65627567Y1905521D01*
X65806014Y1713199D01*
X65806018Y1713196D01*
X65806019Y1713195D01*
X66011143Y1549614D01*
X66238357Y1418432D01*
X66482584Y1322580D01*
X66738370Y1264198D01*
X66738376Y1264198D01*
X66738379Y1264197D01*
X66934484Y1249501D01*
X66934503Y1249501D01*
X66934506Y1249500D01*
X66934508Y1249500D01*
X67065492Y1249500D01*
X67065494Y1249500D01*
X67065496Y1249501D01*
X67065515Y1249501D01*
X67261620Y1264197D01*
X67261622Y1264198D01*
X67261630Y1264198D01*
X67517416Y1322580D01*
X67761643Y1418432D01*
X67988857Y1549614D01*
X68193981Y1713195D01*
X68203856Y1723837D01*
X68280584Y1806531D01*
X68372433Y1905521D01*
X68520228Y2122296D01*
X68634063Y2358677D01*
X68711396Y2609385D01*
X68750500Y2868818D01*
X68750500Y3131182D01*
X68711396Y3390615D01*
X68634063Y3641323D01*
X68576710Y3760418D01*
X68520232Y3877697D01*
X68520231Y3877698D01*
X68520230Y3877699D01*
X68520228Y3877704D01*
X68372433Y4094479D01*
X68291094Y4182142D01*
X68193985Y4286802D01*
X68154533Y4318264D01*
X67988857Y4450386D01*
X67761643Y4581568D01*
X67517416Y4677420D01*
X67517411Y4677422D01*
X67517402Y4677424D01*
X67299818Y4727086D01*
X67261630Y4735802D01*
X67261629Y4735803D01*
X67261625Y4735803D01*
X67261620Y4735804D01*
X67065515Y4750500D01*
X67065494Y4750500D01*
X66934506Y4750500D01*
X66934484Y4750500D01*
X66738379Y4735804D01*
X66738374Y4735803D01*
X66482597Y4677424D01*
X66482578Y4677418D01*
X66238356Y4581568D01*
X66011143Y4450386D01*
X65806014Y4286802D01*
X65627567Y4094480D01*
X65479768Y3877698D01*
X65479767Y3877697D01*
X65365938Y3641327D01*
X65288606Y3390624D01*
X65288605Y3390619D01*
X65288604Y3390615D01*
X65279440Y3329816D01*
X65249500Y3131188D01*
X65249500Y2868813D01*
X55613098Y2868813D01*
X55707639Y2912898D01*
X55886877Y3038402D01*
X56041598Y3193123D01*
X56167102Y3372361D01*
X56259575Y3570670D01*
X56316207Y3782023D01*
X56335277Y4000000D01*
X56316207Y4217977D01*
X56259575Y4429330D01*
X56167102Y4627638D01*
X56167100Y4627641D01*
X56167099Y4627643D01*
X56041599Y4806876D01*
X55964380Y4884095D01*
X55886877Y4961598D01*
X55748978Y5058156D01*
X55707638Y5087103D01*
X55568130Y5152156D01*
X55509330Y5179575D01*
X55509326Y5179576D01*
X55509322Y5179578D01*
X55297977Y5236207D01*
X55080002Y5255277D01*
X55079998Y5255277D01*
X54934682Y5242564D01*
X54862023Y5236207D01*
X54862020Y5236207D01*
X54650677Y5179578D01*
X54650668Y5179574D01*
X54452361Y5087102D01*
X54452357Y5087100D01*
X54273124Y4961600D01*
X54118401Y4806876D01*
X54094464Y4772691D01*
X54045928Y4703375D01*
X53991353Y4659751D01*
X53944355Y4650500D01*
X51699751Y4650500D01*
X51632712Y4670185D01*
X51600485Y4700188D01*
X51557548Y4757543D01*
X51557546Y4757546D01*
X51538468Y4771828D01*
X51442335Y4843794D01*
X51442328Y4843798D01*
X51307482Y4894092D01*
X51307483Y4894092D01*
X51247883Y4900499D01*
X51247881Y4900500D01*
X51247873Y4900500D01*
X51247864Y4900500D01*
X50352129Y4900500D01*
X50352123Y4900499D01*
X50292516Y4894092D01*
X50157671Y4843798D01*
X50157669Y4843797D01*
X50074311Y4781394D01*
X50008847Y4756977D01*
X49940574Y4771828D01*
X49925689Y4781394D01*
X49842330Y4843797D01*
X49842328Y4843798D01*
X49707482Y4894092D01*
X49707483Y4894092D01*
X49647883Y4900499D01*
X49647881Y4900500D01*
X49647873Y4900500D01*
X49647864Y4900500D01*
X48752129Y4900500D01*
X48752123Y4900499D01*
X48692516Y4894092D01*
X48557671Y4843798D01*
X48557664Y4843794D01*
X48442457Y4757549D01*
X48442451Y4757543D01*
X48399515Y4700188D01*
X48343581Y4658318D01*
X48300249Y4650500D01*
X46055644Y4650500D01*
X45988605Y4670185D01*
X45954069Y4703377D01*
X45951949Y4706404D01*
X45916138Y4757549D01*
X45881599Y4806876D01*
X45804380Y4884095D01*
X45726877Y4961598D01*
X45598375Y5051577D01*
X45554751Y5106153D01*
X45545500Y5153150D01*
X45545500Y5197258D01*
X45547224Y5212878D01*
X45546939Y5212904D01*
X45547671Y5220660D01*
X45547673Y5220667D01*
X45545561Y5287874D01*
X45545500Y5291769D01*
X45545500Y5319346D01*
X45545500Y5319350D01*
X45544996Y5323335D01*
X45544080Y5334979D01*
X45543608Y5350000D01*
X45542709Y5378627D01*
X45537122Y5397856D01*
X45533174Y5416916D01*
X45530663Y5436796D01*
X45514588Y5477396D01*
X45510804Y5488448D01*
X45498618Y5530391D01*
X45498616Y5530394D01*
X45488423Y5547629D01*
X45479861Y5565106D01*
X45472487Y5583731D01*
X45446816Y5619063D01*
X45440405Y5628823D01*
X45418170Y5666420D01*
X45416476Y5668114D01*
X45415572Y5669769D01*
X45413387Y5672586D01*
X45413841Y5672939D01*
X45382987Y5729435D01*
X45387966Y5799127D01*
X45429834Y5855063D01*
X45451747Y5868183D01*
X45547639Y5912898D01*
X45726877Y6038402D01*
X45881598Y6193123D01*
X45949034Y6289432D01*
X45954070Y6296624D01*
X46008647Y6340249D01*
X46055645Y6349501D01*
X48300249Y6349501D01*
X48367288Y6329816D01*
X48399514Y6299814D01*
X48442454Y6242454D01*
X48461532Y6228172D01*
X48557664Y6156207D01*
X48557671Y6156203D01*
X48692517Y6105909D01*
X48692516Y6105909D01*
X48699444Y6105165D01*
X48752127Y6099500D01*
X49647872Y6099501D01*
X49707483Y6105909D01*
X49842331Y6156204D01*
X49925689Y6218607D01*
X49991153Y6243023D01*
X50059426Y6228172D01*
X50074309Y6218607D01*
X50108166Y6193262D01*
X50157669Y6156204D01*
X50157671Y6156203D01*
X50292517Y6105909D01*
X50292516Y6105909D01*
X50299444Y6105165D01*
X50352127Y6099500D01*
X51247872Y6099501D01*
X51307483Y6105909D01*
X51442331Y6156204D01*
X51557546Y6242454D01*
X51600483Y6299813D01*
X51656415Y6341682D01*
X51699750Y6349501D01*
X53944354Y6349501D01*
X54011393Y6329816D01*
X54045927Y6296627D01*
X54118402Y6193123D01*
X54273123Y6038402D01*
X54452361Y5912898D01*
X54650670Y5820425D01*
X54862023Y5763793D01*
X55044926Y5747792D01*
X55079998Y5744723D01*
X55080000Y5744723D01*
X55080002Y5744723D01*
X55108254Y5747195D01*
X55297977Y5763793D01*
X55509330Y5820425D01*
X55707639Y5912898D01*
X55886877Y6038402D01*
X56041598Y6193123D01*
X56167102Y6372361D01*
X56259575Y6570670D01*
X56316207Y6782023D01*
X56335277Y7000000D01*
X56316207Y7217977D01*
X56306494Y7254226D01*
X56308157Y7324075D01*
X56338586Y7373998D01*
X56983786Y8019198D01*
X56996048Y8029020D01*
X56995865Y8029241D01*
X57001868Y8034209D01*
X57001877Y8034214D01*
X57047934Y8083261D01*
X57050582Y8085994D01*
X57070120Y8105530D01*
X57072570Y8108690D01*
X57080154Y8117571D01*
X57110062Y8149418D01*
X57119714Y8166977D01*
X57130389Y8183228D01*
X57142674Y8199064D01*
X57160030Y8239175D01*
X57165161Y8249646D01*
X57167788Y8254423D01*
X57186197Y8287908D01*
X57191180Y8307320D01*
X57197477Y8325709D01*
X57205438Y8344105D01*
X57212270Y8387252D01*
X57214639Y8398684D01*
X57220124Y8420046D01*
X57225500Y8440981D01*
X57225500Y8461017D01*
X57227027Y8480418D01*
X57230160Y8500196D01*
X57226050Y8543676D01*
X57225500Y8555345D01*
X57225500Y9250000D01*
X58000000Y9250000D01*
X58000000Y8902156D01*
X58006401Y8842628D01*
X58006403Y8842621D01*
X58056645Y8707914D01*
X58056649Y8707907D01*
X58142809Y8592813D01*
X58142812Y8592810D01*
X58257906Y8506650D01*
X58257913Y8506646D01*
X58392620Y8456404D01*
X58392627Y8456402D01*
X58452155Y8450001D01*
X58452172Y8450000D01*
X59750000Y8450000D01*
X59750000Y9250000D01*
X58000000Y9250000D01*
X57225500Y9250000D01*
X57225500Y10902130D01*
X57999500Y10902130D01*
X57999501Y10902124D01*
X58005908Y10842517D01*
X58056202Y10707672D01*
X58056206Y10707665D01*
X58142452Y10592456D01*
X58147584Y10587324D01*
X58181069Y10526001D01*
X58176085Y10456309D01*
X58147584Y10411962D01*
X58142809Y10407188D01*
X58056649Y10292094D01*
X58056645Y10292087D01*
X58006403Y10157380D01*
X58006401Y10157373D01*
X58000000Y10097845D01*
X58000000Y9750000D01*
X60284314Y9750000D01*
X60272359Y9738045D01*
X60214835Y9625148D01*
X60195014Y9500000D01*
X60214835Y9374852D01*
X60272359Y9261955D01*
X60284314Y9250000D01*
X60250000Y9250000D01*
X60250000Y8450000D01*
X61547828Y8450000D01*
X61547844Y8450001D01*
X61607372Y8456402D01*
X61607379Y8456404D01*
X61742086Y8506646D01*
X61742093Y8506650D01*
X61857187Y8592810D01*
X61857190Y8592813D01*
X61943350Y8707907D01*
X61943354Y8707914D01*
X61993596Y8842621D01*
X61993598Y8842628D01*
X61999999Y8902156D01*
X62000000Y8902173D01*
X62000000Y9250000D01*
X60915686Y9250000D01*
X60927641Y9261955D01*
X60985165Y9374852D01*
X61004986Y9500000D01*
X60985165Y9625148D01*
X60927641Y9738045D01*
X60915686Y9750000D01*
X62000000Y9750000D01*
X62000000Y10097828D01*
X61999999Y10097845D01*
X61993598Y10157373D01*
X61993596Y10157380D01*
X61943354Y10292087D01*
X61943350Y10292094D01*
X61857190Y10407188D01*
X61852416Y10411962D01*
X61818931Y10473285D01*
X61823915Y10542977D01*
X61852416Y10587324D01*
X61857542Y10592452D01*
X61857546Y10592454D01*
X61943796Y10707669D01*
X61994091Y10842517D01*
X62000500Y10902127D01*
X62000499Y12097872D01*
X61994091Y12157483D01*
X61986026Y12179106D01*
X61943797Y12292329D01*
X61943793Y12292336D01*
X61857547Y12407545D01*
X61852773Y12412319D01*
X61819288Y12473642D01*
X61824272Y12543334D01*
X61852773Y12587681D01*
X61857542Y12592452D01*
X61857546Y12592454D01*
X61943796Y12707669D01*
X61994091Y12842517D01*
X62000500Y12902127D01*
X62000499Y14097872D01*
X61994091Y14157483D01*
X61978983Y14197989D01*
X61943797Y14292329D01*
X61943793Y14292336D01*
X61857547Y14407545D01*
X61852773Y14412319D01*
X61819288Y14473642D01*
X61824272Y14543334D01*
X61852773Y14587681D01*
X61857542Y14592452D01*
X61857546Y14592454D01*
X61943796Y14707669D01*
X61994091Y14842517D01*
X62000500Y14902127D01*
X62000499Y16097872D01*
X61994229Y16156203D01*
X61994091Y16157484D01*
X61943797Y16292329D01*
X61943793Y16292336D01*
X61857547Y16407545D01*
X61857544Y16407548D01*
X61742335Y16493794D01*
X61742328Y16493798D01*
X61607482Y16544092D01*
X61607483Y16544092D01*
X61547883Y16550499D01*
X61547881Y16550500D01*
X61547873Y16550500D01*
X61547864Y16550500D01*
X58452129Y16550500D01*
X58452123Y16550499D01*
X58392516Y16544092D01*
X58257671Y16493798D01*
X58257664Y16493794D01*
X58142455Y16407548D01*
X58142452Y16407545D01*
X58056206Y16292336D01*
X58056202Y16292329D01*
X58005908Y16157483D01*
X57999675Y16099502D01*
X57999501Y16097877D01*
X57999500Y16097865D01*
X57999500Y14902130D01*
X57999501Y14902124D01*
X58005908Y14842517D01*
X58056202Y14707672D01*
X58056206Y14707665D01*
X58142452Y14592456D01*
X58147227Y14587681D01*
X58180712Y14526358D01*
X58175728Y14456666D01*
X58147227Y14412319D01*
X58142452Y14407545D01*
X58056206Y14292336D01*
X58056202Y14292329D01*
X58005908Y14157483D01*
X58000313Y14105438D01*
X57999501Y14097877D01*
X57999500Y14097865D01*
X57999500Y12902130D01*
X57999501Y12902124D01*
X58005908Y12842517D01*
X58056202Y12707672D01*
X58056206Y12707665D01*
X58142452Y12592456D01*
X58147227Y12587681D01*
X58180712Y12526358D01*
X58175728Y12456666D01*
X58147227Y12412319D01*
X58142452Y12407545D01*
X58056206Y12292336D01*
X58056202Y12292329D01*
X58005908Y12157483D01*
X57999501Y12097884D01*
X57999501Y12097877D01*
X57999500Y12097865D01*
X57999500Y10902130D01*
X57225500Y10902130D01*
X57225500Y12397258D01*
X57227224Y12412878D01*
X57226939Y12412905D01*
X57227673Y12420667D01*
X57225561Y12487888D01*
X57225500Y12491782D01*
X57225500Y12519344D01*
X57225500Y12519350D01*
X57224996Y12523332D01*
X57224081Y12534971D01*
X57222710Y12578627D01*
X57217119Y12597870D01*
X57213173Y12616922D01*
X57210664Y12636792D01*
X57194579Y12677417D01*
X57190806Y12688438D01*
X57178618Y12730390D01*
X57178617Y12730391D01*
X57178617Y12730393D01*
X57178616Y12730394D01*
X57168423Y12747629D01*
X57159861Y12765106D01*
X57152487Y12783731D01*
X57126816Y12819063D01*
X57120405Y12828823D01*
X57098170Y12866420D01*
X57098168Y12866422D01*
X57098165Y12866426D01*
X57084006Y12880585D01*
X57071368Y12895381D01*
X57066466Y12902128D01*
X57059594Y12911587D01*
X57059214Y12911901D01*
X57025940Y12939428D01*
X57017299Y12947291D01*
X56338588Y13626002D01*
X56305103Y13687325D01*
X56306495Y13745779D01*
X56316206Y13782019D01*
X56316206Y13782020D01*
X56316207Y13782023D01*
X56335277Y14000000D01*
X56320148Y14172922D01*
X56333914Y14241418D01*
X56355992Y14271404D01*
X57083787Y14999198D01*
X57096042Y15009014D01*
X57095859Y15009236D01*
X57101868Y15014209D01*
X57101877Y15014214D01*
X57147949Y15063278D01*
X57150566Y15065977D01*
X57170120Y15085529D01*
X57172576Y15088697D01*
X57180156Y15097573D01*
X57210062Y15129418D01*
X57219713Y15146976D01*
X57230396Y15163239D01*
X57242673Y15179064D01*
X57260021Y15219156D01*
X57265151Y15229629D01*
X57286197Y15267908D01*
X57291180Y15287320D01*
X57297481Y15305720D01*
X57305437Y15324104D01*
X57312270Y15367252D01*
X57314633Y15378662D01*
X57325500Y15420981D01*
X57325500Y15441017D01*
X57327027Y15460418D01*
X57330160Y15480196D01*
X57326050Y15523676D01*
X57325500Y15535345D01*
X57325500Y19217263D01*
X57327224Y19232877D01*
X57326938Y19232904D01*
X57327672Y19240667D01*
X57325561Y19307857D01*
X57325500Y19311751D01*
X57325500Y19339349D01*
X57325500Y19339350D01*
X57324997Y19343330D01*
X57324080Y19354979D01*
X57322709Y19398626D01*
X57322709Y19398628D01*
X57317120Y19417863D01*
X57313174Y19436916D01*
X57310664Y19456792D01*
X57294578Y19497419D01*
X57290803Y19508446D01*
X57278617Y19550390D01*
X57268421Y19567631D01*
X57259860Y19585107D01*
X57252486Y19603731D01*
X57252485Y19603733D01*
X57226809Y19639074D01*
X57220412Y19648810D01*
X57198170Y19686421D01*
X57198167Y19686424D01*
X57198165Y19686427D01*
X57184005Y19700587D01*
X57171370Y19715380D01*
X57159593Y19731588D01*
X57125945Y19759424D01*
X57117304Y19767287D01*
X56500803Y20383788D01*
X56490980Y20396050D01*
X56490759Y20395866D01*
X56485786Y20401878D01*
X56436776Y20447901D01*
X56433977Y20450614D01*
X56414477Y20470115D01*
X56414471Y20470120D01*
X56411286Y20472591D01*
X56402434Y20480152D01*
X56370582Y20510062D01*
X56370580Y20510064D01*
X56370577Y20510065D01*
X56353029Y20519712D01*
X56336763Y20530396D01*
X56320932Y20542676D01*
X56280849Y20560022D01*
X56270363Y20565159D01*
X56232094Y20586197D01*
X56224841Y20589068D01*
X56225365Y20590394D01*
X56172621Y20621793D01*
X56161925Y20635032D01*
X56041599Y20806876D01*
X55973623Y20874852D01*
X55886877Y20961598D01*
X55707639Y21087102D01*
X55707640Y21087102D01*
X55707638Y21087103D01*
X55608484Y21133339D01*
X55509330Y21179575D01*
X55509326Y21179576D01*
X55509322Y21179578D01*
X55297977Y21236207D01*
X55080002Y21255277D01*
X55079998Y21255277D01*
X54934682Y21242564D01*
X54862023Y21236207D01*
X54862020Y21236207D01*
X54650677Y21179578D01*
X54650668Y21179574D01*
X54452361Y21087102D01*
X54452357Y21087100D01*
X54273124Y20961600D01*
X54118401Y20806876D01*
X54094901Y20773314D01*
X54045928Y20703375D01*
X53991353Y20659751D01*
X53944355Y20650500D01*
X51699751Y20650500D01*
X51632712Y20670185D01*
X51600485Y20700188D01*
X51557548Y20757543D01*
X51557546Y20757546D01*
X51538468Y20771828D01*
X51442335Y20843794D01*
X51442328Y20843798D01*
X51307482Y20894092D01*
X51307483Y20894092D01*
X51247883Y20900499D01*
X51247881Y20900500D01*
X51247873Y20900500D01*
X51247864Y20900500D01*
X50352129Y20900500D01*
X50352123Y20900499D01*
X50292516Y20894092D01*
X50157671Y20843798D01*
X50157669Y20843797D01*
X50108350Y20806876D01*
X50075149Y20782021D01*
X50074311Y20781394D01*
X50008847Y20756977D01*
X49940574Y20771828D01*
X49925689Y20781394D01*
X49924851Y20782021D01*
X49842331Y20843796D01*
X49842330Y20843797D01*
X49842328Y20843798D01*
X49707482Y20894092D01*
X49707483Y20894092D01*
X49647883Y20900499D01*
X49647881Y20900500D01*
X49647873Y20900500D01*
X49647864Y20900500D01*
X48752129Y20900500D01*
X48752123Y20900499D01*
X48692516Y20894092D01*
X48557671Y20843798D01*
X48557664Y20843794D01*
X48442457Y20757549D01*
X48442451Y20757543D01*
X48399515Y20700188D01*
X48343581Y20658318D01*
X48300249Y20650500D01*
X46055644Y20650500D01*
X45988605Y20670185D01*
X45954069Y20703377D01*
X45947194Y20713195D01*
X45913053Y20761955D01*
X45881599Y20806876D01*
X45813623Y20874852D01*
X45726877Y20961598D01*
X45547639Y21087102D01*
X45547640Y21087102D01*
X45547638Y21087103D01*
X45448484Y21133339D01*
X45349330Y21179575D01*
X45349326Y21179576D01*
X45349322Y21179578D01*
X45137977Y21236207D01*
X44920002Y21255277D01*
X44919998Y21255277D01*
X44774682Y21242564D01*
X44702023Y21236207D01*
X44702020Y21236207D01*
X44490677Y21179578D01*
X44490668Y21179574D01*
X44292361Y21087102D01*
X44292357Y21087100D01*
X44113121Y20961598D01*
X43958402Y20806879D01*
X43832900Y20627643D01*
X43832898Y20627639D01*
X43740426Y20429332D01*
X43740422Y20429323D01*
X43683793Y20217980D01*
X43683793Y20217976D01*
X43664723Y20000003D01*
X43664723Y19999998D01*
X43665102Y19995669D01*
X43682727Y19794203D01*
X43683793Y19782025D01*
X43683793Y19782021D01*
X43740422Y19570678D01*
X43740424Y19570674D01*
X43740425Y19570670D01*
X43756497Y19536204D01*
X43832897Y19372362D01*
X43832898Y19372361D01*
X43958402Y19193123D01*
X44113123Y19038402D01*
X44241624Y18948425D01*
X44285248Y18893849D01*
X44294500Y18846851D01*
X44294500Y18153150D01*
X44274815Y18086111D01*
X44241623Y18051575D01*
X44113121Y17961598D01*
X43958402Y17806879D01*
X43868425Y17678377D01*
X43813848Y17634752D01*
X43766850Y17625500D01*
X42832743Y17625500D01*
X42817122Y17627225D01*
X42817096Y17626939D01*
X42809334Y17627673D01*
X42809333Y17627673D01*
X42747109Y17625718D01*
X42742127Y17625561D01*
X42738232Y17625500D01*
X42710647Y17625500D01*
X42706661Y17624997D01*
X42695033Y17624082D01*
X42651373Y17622710D01*
X42632129Y17617119D01*
X42613079Y17613175D01*
X42593211Y17610666D01*
X42593210Y17610666D01*
X42552599Y17594587D01*
X42541554Y17590806D01*
X42499614Y17578621D01*
X42499610Y17578619D01*
X42482366Y17568421D01*
X42464905Y17559867D01*
X42446274Y17552490D01*
X42446262Y17552483D01*
X42410933Y17526815D01*
X42401172Y17520403D01*
X42363581Y17498172D01*
X42349413Y17484004D01*
X42334627Y17471376D01*
X42318413Y17459595D01*
X42318412Y17459594D01*
X42290574Y17425944D01*
X42282714Y17417305D01*
X42204880Y17339471D01*
X40567228Y15701819D01*
X40505905Y15668334D01*
X40479547Y15665500D01*
X40024188Y15665500D01*
X39957149Y15685185D01*
X39922613Y15718377D01*
X39810045Y15879142D01*
X39649141Y16040046D01*
X39462734Y16170568D01*
X39462732Y16170569D01*
X39413672Y16193446D01*
X39404132Y16197895D01*
X39351694Y16244066D01*
X39332542Y16311260D01*
X39352758Y16378141D01*
X39404134Y16422659D01*
X39462484Y16449868D01*
X39648820Y16580343D01*
X39809657Y16741180D01*
X39940134Y16927518D01*
X40036265Y17133674D01*
X40036269Y17133683D01*
X40088872Y17330000D01*
X39243686Y17330000D01*
X39269493Y17370156D01*
X39310000Y17508111D01*
X39310000Y17651889D01*
X39269493Y17789844D01*
X39243686Y17830000D01*
X40088872Y17830000D01*
X40088872Y17830001D01*
X40036269Y18026318D01*
X40036265Y18026327D01*
X39940134Y18232483D01*
X39809657Y18418821D01*
X39648820Y18579658D01*
X39462482Y18710135D01*
X39256328Y18806266D01*
X39060000Y18858873D01*
X39060000Y18015502D01*
X38952315Y18064680D01*
X38845763Y18080000D01*
X38774237Y18080000D01*
X38667685Y18064680D01*
X38560000Y18015502D01*
X38560000Y18858873D01*
X38363671Y18806266D01*
X38157517Y18710135D01*
X37971179Y18579658D01*
X37810342Y18418821D01*
X37679865Y18232483D01*
X37583734Y18026327D01*
X37583730Y18026318D01*
X37531127Y17830001D01*
X37531128Y17830000D01*
X38376314Y17830000D01*
X38350507Y17789844D01*
X38310000Y17651889D01*
X38310000Y17508111D01*
X38350507Y17370156D01*
X38376314Y17330000D01*
X37531128Y17330000D01*
X37583730Y17133683D01*
X37583734Y17133674D01*
X37679865Y16927518D01*
X37810342Y16741180D01*
X37971179Y16580343D01*
X38157518Y16449866D01*
X38157520Y16449865D01*
X38215865Y16422658D01*
X38268305Y16376486D01*
X38287457Y16309293D01*
X38267242Y16242411D01*
X38215867Y16197895D01*
X38205633Y16193122D01*
X38157264Y16170567D01*
X37970858Y16040046D01*
X37809954Y15879142D01*
X37679432Y15692735D01*
X37679431Y15692733D01*
X37583261Y15486498D01*
X37583258Y15486489D01*
X37524366Y15266698D01*
X37524364Y15266687D01*
X37504532Y15040002D01*
X37504532Y15039999D01*
X37524364Y14813314D01*
X37524366Y14813303D01*
X37583258Y14593512D01*
X37583261Y14593503D01*
X37679431Y14387268D01*
X37679432Y14387266D01*
X37809954Y14200859D01*
X37970858Y14039955D01*
X37970861Y14039953D01*
X38157266Y13909432D01*
X38215275Y13882382D01*
X38267714Y13836209D01*
X38286866Y13769016D01*
X38266650Y13702135D01*
X38215275Y13657618D01*
X38157267Y13630569D01*
X38157265Y13630568D01*
X37970858Y13500046D01*
X37809954Y13339142D01*
X37679432Y13152735D01*
X37679431Y13152733D01*
X37583261Y12946498D01*
X37583258Y12946489D01*
X37524366Y12726698D01*
X37524364Y12726687D01*
X37504532Y12500002D01*
X37504532Y12499999D01*
X37524364Y12273314D01*
X37524366Y12273303D01*
X37583258Y12053512D01*
X37583261Y12053503D01*
X37679431Y11847268D01*
X37679432Y11847266D01*
X37809954Y11660859D01*
X37970858Y11499955D01*
X37970861Y11499953D01*
X38157266Y11369432D01*
X38215275Y11342382D01*
X38267714Y11296209D01*
X38286866Y11229016D01*
X38266650Y11162135D01*
X38215275Y11117618D01*
X38157267Y11090569D01*
X38157265Y11090568D01*
X37970858Y10960046D01*
X37809954Y10799142D01*
X37679432Y10612735D01*
X37679431Y10612733D01*
X37583261Y10406498D01*
X37583258Y10406489D01*
X37524366Y10186698D01*
X37524364Y10186687D01*
X37504532Y9960002D01*
X37504532Y9959999D01*
X37524364Y9733314D01*
X37524366Y9733303D01*
X37583258Y9513512D01*
X37583261Y9513503D01*
X37679431Y9307268D01*
X37679432Y9307266D01*
X37809954Y9120859D01*
X37970858Y8959955D01*
X38011391Y8931574D01*
X38157266Y8829432D01*
X38214286Y8802843D01*
X38215275Y8802382D01*
X38267714Y8756209D01*
X38286866Y8689016D01*
X38266650Y8622135D01*
X38215275Y8577618D01*
X38157267Y8550569D01*
X38157265Y8550568D01*
X37970858Y8420046D01*
X37809954Y8259142D01*
X37679432Y8072735D01*
X37679431Y8072733D01*
X37583261Y7866498D01*
X37583258Y7866489D01*
X37524366Y7646698D01*
X37524364Y7646687D01*
X37504532Y7420002D01*
X37504532Y7419999D01*
X33025500Y7419999D01*
X33025500Y8667263D01*
X33027224Y8682877D01*
X33026938Y8682904D01*
X33027672Y8690667D01*
X33025561Y8757857D01*
X33025500Y8761751D01*
X33025500Y8789349D01*
X33025500Y8789350D01*
X33024997Y8793330D01*
X33024080Y8804979D01*
X33024041Y8806205D01*
X33022709Y8848628D01*
X33017120Y8867863D01*
X33013174Y8886916D01*
X33010664Y8906792D01*
X32994578Y8947419D01*
X32990803Y8958446D01*
X32978617Y9000390D01*
X32978616Y9000392D01*
X32968421Y9017631D01*
X32959860Y9035107D01*
X32952486Y9053731D01*
X32952485Y9053733D01*
X32951167Y9055547D01*
X32926809Y9089074D01*
X32920412Y9098810D01*
X32898170Y9136421D01*
X32898167Y9136424D01*
X32898165Y9136427D01*
X32884005Y9150587D01*
X32871370Y9165380D01*
X32859593Y9181588D01*
X32825945Y9209424D01*
X32817304Y9217287D01*
X32489413Y9545178D01*
X32455928Y9606501D01*
X32457319Y9664952D01*
X32472364Y9721102D01*
X32475635Y9733308D01*
X32492634Y9927616D01*
X32495468Y9959999D01*
X32495468Y9960002D01*
X32488609Y10038402D01*
X32475635Y10186692D01*
X32416739Y10406496D01*
X32320568Y10612734D01*
X32212173Y10767539D01*
X32190045Y10799142D01*
X32029141Y10960046D01*
X31842734Y11090568D01*
X31842728Y11090571D01*
X31784725Y11117618D01*
X31732285Y11163790D01*
X31713133Y11230983D01*
X31733348Y11297865D01*
X31784725Y11342382D01*
X31842734Y11369432D01*
X32029139Y11499953D01*
X32190047Y11660861D01*
X32320568Y11847266D01*
X32320568Y11847268D01*
X32323673Y11851701D01*
X32324962Y11850798D01*
X32370273Y11894019D01*
X32381450Y11899100D01*
X32397412Y11905420D01*
X32408444Y11909197D01*
X32450390Y11921382D01*
X32467629Y11931578D01*
X32485103Y11940138D01*
X32503727Y11947512D01*
X32503727Y11947513D01*
X32503732Y11947514D01*
X32539083Y11973200D01*
X32548814Y11979592D01*
X32586420Y12001830D01*
X32600589Y12016001D01*
X32615379Y12028632D01*
X32631587Y12040406D01*
X32659437Y12074073D01*
X32667278Y12082690D01*
X32883788Y12299199D01*
X32896050Y12309021D01*
X32895867Y12309242D01*
X32901874Y12314212D01*
X32901874Y12314213D01*
X32901877Y12314214D01*
X32947935Y12363262D01*
X32950583Y12365994D01*
X32970120Y12385529D01*
X32972576Y12388697D01*
X32980156Y12397573D01*
X33010062Y12429418D01*
X33019715Y12446980D01*
X33030389Y12463230D01*
X33042673Y12479064D01*
X33060019Y12519150D01*
X33065157Y12529638D01*
X33081350Y12559091D01*
X33086197Y12567908D01*
X33091177Y12587309D01*
X33097478Y12605712D01*
X33105438Y12624104D01*
X33112272Y12667259D01*
X33114635Y12678669D01*
X33125500Y12720981D01*
X33125500Y12741017D01*
X33127027Y12760418D01*
X33130160Y12780196D01*
X33126050Y12823676D01*
X33125500Y12835345D01*
X33125500Y18389548D01*
X33145185Y18456587D01*
X33161819Y18477229D01*
X33522772Y18838181D01*
X33584095Y18871666D01*
X33610453Y18874500D01*
X35317257Y18874500D01*
X35332877Y18872776D01*
X35332904Y18873061D01*
X35340660Y18872329D01*
X35340667Y18872327D01*
X35407873Y18874439D01*
X35411768Y18874500D01*
X35439346Y18874500D01*
X35439350Y18874500D01*
X35443324Y18875003D01*
X35454963Y18875920D01*
X35498627Y18877291D01*
X35517869Y18882883D01*
X35536912Y18886826D01*
X35556792Y18889336D01*
X35597401Y18905415D01*
X35608444Y18909197D01*
X35650390Y18921382D01*
X35667629Y18931578D01*
X35685103Y18940138D01*
X35703727Y18947512D01*
X35703727Y18947513D01*
X35703732Y18947514D01*
X35739083Y18973200D01*
X35748814Y18979592D01*
X35786420Y19001830D01*
X35800589Y19016001D01*
X35815379Y19028632D01*
X35831587Y19040406D01*
X35859438Y19074074D01*
X35867279Y19082691D01*
X36183785Y19399197D01*
X36196041Y19409013D01*
X36195858Y19409235D01*
X36201870Y19414210D01*
X36201877Y19414214D01*
X36247949Y19463278D01*
X36250566Y19465977D01*
X36270120Y19485529D01*
X36272576Y19488697D01*
X36280156Y19497573D01*
X36310062Y19529418D01*
X36319713Y19546976D01*
X36330396Y19563239D01*
X36342673Y19579064D01*
X36360021Y19619156D01*
X36365151Y19629629D01*
X36386197Y19667908D01*
X36391180Y19687320D01*
X36397481Y19705720D01*
X36405437Y19724104D01*
X36412270Y19767252D01*
X36414633Y19778662D01*
X36425500Y19820981D01*
X36425500Y19841017D01*
X36427027Y19860418D01*
X36430160Y19880196D01*
X36426050Y19923676D01*
X36425500Y19935345D01*
X36425500Y20081536D01*
X36445185Y20148575D01*
X36475187Y20180801D01*
X36557546Y20242454D01*
X36600483Y20299813D01*
X36656415Y20341682D01*
X36699750Y20349501D01*
X38944354Y20349501D01*
X39011393Y20329816D01*
X39045927Y20296627D01*
X39118402Y20193123D01*
X39273123Y20038402D01*
X39452361Y19912898D01*
X39650670Y19820425D01*
X39862023Y19763793D01*
X40044926Y19747792D01*
X40079998Y19744723D01*
X40080000Y19744723D01*
X40080002Y19744723D01*
X40108254Y19747195D01*
X40297977Y19763793D01*
X40509330Y19820425D01*
X40707639Y19912898D01*
X40886877Y20038402D01*
X41041598Y20193123D01*
X41167102Y20372361D01*
X41259575Y20570670D01*
X41316207Y20782023D01*
X41335277Y21000000D01*
X41316207Y21217977D01*
X41259575Y21429330D01*
X41167102Y21627638D01*
X41167100Y21627641D01*
X41167099Y21627643D01*
X41041599Y21806876D01*
X40979662Y21868813D01*
X65249500Y21868813D01*
X65258385Y21809871D01*
X65288604Y21609385D01*
X65288605Y21609383D01*
X65288606Y21609377D01*
X65365938Y21358674D01*
X65479767Y21122304D01*
X65479768Y21122303D01*
X65479770Y21122300D01*
X65479772Y21122296D01*
X65563153Y20999999D01*
X65627567Y20905521D01*
X65806014Y20713199D01*
X65806018Y20713196D01*
X65806019Y20713195D01*
X66011143Y20549614D01*
X66238357Y20418432D01*
X66482584Y20322580D01*
X66738370Y20264198D01*
X66738376Y20264198D01*
X66738379Y20264197D01*
X66934484Y20249501D01*
X66934503Y20249501D01*
X66934506Y20249500D01*
X66934508Y20249500D01*
X67065492Y20249500D01*
X67065494Y20249500D01*
X67065496Y20249501D01*
X67065515Y20249501D01*
X67261620Y20264197D01*
X67261622Y20264198D01*
X67261630Y20264198D01*
X67517416Y20322580D01*
X67761643Y20418432D01*
X67988857Y20549614D01*
X68193981Y20713195D01*
X68372433Y20905521D01*
X68520228Y21122296D01*
X68521602Y21125148D01*
X68566305Y21217976D01*
X68634063Y21358677D01*
X68711396Y21609385D01*
X68750500Y21868818D01*
X68750500Y22131182D01*
X68711396Y22390615D01*
X68634063Y22641323D01*
X68622121Y22666120D01*
X68520232Y22877697D01*
X68520231Y22877698D01*
X68520230Y22877699D01*
X68520228Y22877704D01*
X68372433Y23094479D01*
X68362441Y23105247D01*
X68193985Y23286802D01*
X68154533Y23318264D01*
X67988857Y23450386D01*
X67761643Y23581568D01*
X67517416Y23677420D01*
X67517411Y23677422D01*
X67517402Y23677424D01*
X67299818Y23727086D01*
X67261630Y23735802D01*
X67261629Y23735803D01*
X67261625Y23735803D01*
X67261620Y23735804D01*
X67065515Y23750500D01*
X67065494Y23750500D01*
X66934506Y23750500D01*
X66934484Y23750500D01*
X66738379Y23735804D01*
X66738374Y23735803D01*
X66482597Y23677424D01*
X66482578Y23677418D01*
X66238356Y23581568D01*
X66011143Y23450386D01*
X65806014Y23286802D01*
X65627567Y23094480D01*
X65479768Y22877698D01*
X65479767Y22877697D01*
X65365938Y22641327D01*
X65288606Y22390624D01*
X65288605Y22390619D01*
X65288604Y22390615D01*
X65275770Y22305468D01*
X65249500Y22131188D01*
X65249500Y21868813D01*
X40979662Y21868813D01*
X40978991Y21869484D01*
X40886877Y21961598D01*
X40707639Y22087102D01*
X40707640Y22087102D01*
X40707638Y22087103D01*
X40608484Y22133339D01*
X40509330Y22179575D01*
X40509326Y22179576D01*
X40509322Y22179578D01*
X40297977Y22236207D01*
X40080002Y22255277D01*
X40079998Y22255277D01*
X39934682Y22242564D01*
X39862023Y22236207D01*
X39862020Y22236207D01*
X39650677Y22179578D01*
X39650668Y22179574D01*
X39452361Y22087102D01*
X39452357Y22087100D01*
X39273124Y21961600D01*
X39118401Y21806876D01*
X39094464Y21772691D01*
X39045928Y21703375D01*
X38991353Y21659751D01*
X38944355Y21650500D01*
X36699751Y21650500D01*
X36632712Y21670185D01*
X36600485Y21700188D01*
X36557548Y21757543D01*
X36557546Y21757546D01*
X36538468Y21771828D01*
X36442335Y21843794D01*
X36442328Y21843798D01*
X36307482Y21894092D01*
X36307483Y21894092D01*
X36247883Y21900499D01*
X36247881Y21900500D01*
X36247873Y21900500D01*
X36247864Y21900500D01*
X35352129Y21900500D01*
X35352123Y21900499D01*
X35292516Y21894092D01*
X35157671Y21843798D01*
X35157669Y21843797D01*
X35074311Y21781394D01*
X35008847Y21756977D01*
X34940574Y21771828D01*
X34925689Y21781394D01*
X34842330Y21843797D01*
X34842328Y21843798D01*
X34707482Y21894092D01*
X34707483Y21894092D01*
X34647883Y21900499D01*
X34647881Y21900500D01*
X34647873Y21900500D01*
X34647864Y21900500D01*
X33752129Y21900500D01*
X33752123Y21900499D01*
X33692516Y21894092D01*
X33557671Y21843798D01*
X33557664Y21843794D01*
X33442457Y21757549D01*
X33442451Y21757543D01*
X33399515Y21700188D01*
X33343581Y21658318D01*
X33300249Y21650500D01*
X31055644Y21650500D01*
X30988605Y21670185D01*
X30954069Y21703377D01*
X30881599Y21806876D01*
X30818991Y21869484D01*
X30726877Y21961598D01*
X30547639Y22087102D01*
X30547640Y22087102D01*
X30547638Y22087103D01*
X30448484Y22133339D01*
X30349330Y22179575D01*
X30349326Y22179576D01*
X30349322Y22179578D01*
X30137977Y22236207D01*
X29920002Y22255277D01*
X29919998Y22255277D01*
X29774682Y22242564D01*
X29702023Y22236207D01*
X29702020Y22236207D01*
X29490677Y22179578D01*
X29490668Y22179574D01*
X29292361Y22087102D01*
X29292357Y22087100D01*
X29113121Y21961598D01*
X28958402Y21806879D01*
X28868425Y21678377D01*
X28813848Y21634752D01*
X28766850Y21625500D01*
X27214188Y21625500D01*
X27147149Y21645185D01*
X27112613Y21678377D01*
X27000045Y21839142D01*
X26839141Y22000046D01*
X26652734Y22130568D01*
X26652732Y22130569D01*
X26446497Y22226739D01*
X26446488Y22226742D01*
X26226697Y22285634D01*
X26226693Y22285635D01*
X26226692Y22285635D01*
X26226691Y22285636D01*
X26226686Y22285636D01*
X26000002Y22305468D01*
X25999998Y22305468D01*
X25773313Y22285636D01*
X25773302Y22285634D01*
X25553511Y22226742D01*
X25553502Y22226739D01*
X25347267Y22130569D01*
X25347265Y22130568D01*
X25160858Y22000046D01*
X24999954Y21839142D01*
X24887387Y21678377D01*
X24832811Y21634752D01*
X24785812Y21625500D01*
X22472499Y21625500D01*
X22405460Y21645185D01*
X22359705Y21697989D01*
X22348499Y21749500D01*
X22348499Y21809871D01*
X22348498Y21809877D01*
X22347732Y21816999D01*
X22342163Y21868813D01*
X22342091Y21869484D01*
X22291797Y22004329D01*
X22291793Y22004336D01*
X22205547Y22119545D01*
X22205544Y22119548D01*
X22090335Y22205794D01*
X22090328Y22205798D01*
X21955482Y22256092D01*
X21955483Y22256092D01*
X21895883Y22262499D01*
X21895881Y22262500D01*
X21895873Y22262500D01*
X21895864Y22262500D01*
X20784129Y22262500D01*
X20784123Y22262499D01*
X20724516Y22256092D01*
X20589671Y22205798D01*
X20589668Y22205796D01*
X20585336Y22202553D01*
X20519870Y22178140D01*
X20464272Y22189929D01*
X20463243Y22187444D01*
X20457614Y22189776D01*
X20320000Y22231522D01*
X20320000Y21315686D01*
X20308045Y21327641D01*
X20195148Y21385165D01*
X20101481Y21400000D01*
X20038519Y21400000D01*
X19944852Y21385165D01*
X19831955Y21327641D01*
X19820000Y21315686D01*
X19820000Y22231522D01*
X19682387Y22189776D01*
X19507281Y22096180D01*
X19504343Y22094216D01*
X19502569Y22093661D01*
X19501904Y22093305D01*
X19501836Y22093432D01*
X19437665Y22073339D01*
X19370285Y22091824D01*
X19366557Y22094220D01*
X19363010Y22096590D01*
X19363004Y22096595D01*
X19362995Y22096600D01*
X19187808Y22190240D01*
X19067476Y22226742D01*
X18997701Y22247908D01*
X18997699Y22247909D01*
X18997701Y22247909D01*
X18800000Y22267380D01*
X18602300Y22247909D01*
X18412191Y22190240D01*
X18237001Y22096599D01*
X18236994Y22096595D01*
X18083431Y21970569D01*
X17957405Y21817006D01*
X17957401Y21816999D01*
X17890079Y21691047D01*
X17841117Y21641203D01*
X17780721Y21625500D01*
X15814188Y21625500D01*
X15747149Y21645185D01*
X15712613Y21678377D01*
X15600045Y21839142D01*
X15439141Y22000046D01*
X15252734Y22130568D01*
X15252732Y22130569D01*
X15046497Y22226739D01*
X15046488Y22226742D01*
X14826697Y22285634D01*
X14826693Y22285635D01*
X14826692Y22285635D01*
X14826691Y22285636D01*
X14826686Y22285636D01*
X14600002Y22305468D01*
X14599998Y22305468D01*
X14373313Y22285636D01*
X14373302Y22285634D01*
X14153511Y22226742D01*
X14153502Y22226739D01*
X13947267Y22130569D01*
X13947265Y22130568D01*
X13760858Y22000046D01*
X13599954Y21839142D01*
X13469432Y21652735D01*
X13469431Y21652733D01*
X13373261Y21446498D01*
X13373258Y21446489D01*
X13314366Y21226698D01*
X13314364Y21226687D01*
X13294532Y21000002D01*
X13294532Y20999999D01*
X13314364Y20773314D01*
X13314366Y20773303D01*
X13373258Y20553512D01*
X13373261Y20553503D01*
X13469431Y20347268D01*
X13469432Y20347266D01*
X13599954Y20160859D01*
X13760858Y19999955D01*
X13760861Y19999953D01*
X13947266Y19869432D01*
X14153504Y19773261D01*
X14153509Y19773260D01*
X14153511Y19773259D01*
X14188839Y19763793D01*
X14373308Y19714365D01*
X14530791Y19700587D01*
X14599998Y19694532D01*
X14600000Y19694532D01*
X14600002Y19694532D01*
X14656673Y19699491D01*
X14826692Y19714365D01*
X15046496Y19773261D01*
X15252734Y19869432D01*
X15439139Y19999953D01*
X15600047Y20160861D01*
X15681376Y20277012D01*
X15712613Y20321623D01*
X15767189Y20365248D01*
X15814188Y20374500D01*
X17780721Y20374500D01*
X17847760Y20354815D01*
X17890079Y20308953D01*
X17957401Y20183002D01*
X17957405Y20182995D01*
X18083431Y20029432D01*
X18236994Y19903406D01*
X18237001Y19903402D01*
X18412191Y19809761D01*
X18412193Y19809761D01*
X18412196Y19809759D01*
X18602299Y19752092D01*
X18602298Y19752092D01*
X18620024Y19750347D01*
X18800000Y19732620D01*
X18997701Y19752092D01*
X19187804Y19809759D01*
X19207763Y19820427D01*
X19299445Y19869432D01*
X19363004Y19903405D01*
X19363010Y19903411D01*
X19366552Y19905776D01*
X19433227Y19926661D01*
X19500609Y19908183D01*
X19504349Y19905780D01*
X19507283Y19903820D01*
X19682384Y19810226D01*
X19819999Y19768481D01*
X19820000Y19768481D01*
X19820000Y20684314D01*
X19831955Y20672359D01*
X19944852Y20614835D01*
X20038519Y20600000D01*
X20101481Y20600000D01*
X20195148Y20614835D01*
X20308045Y20672359D01*
X20320000Y20684314D01*
X20320000Y19768481D01*
X20457617Y19810227D01*
X20463239Y19812555D01*
X20464314Y19809960D01*
X20520885Y19821784D01*
X20585341Y19797444D01*
X20589669Y19794204D01*
X20589671Y19794203D01*
X20724517Y19743909D01*
X20724516Y19743909D01*
X20731444Y19743165D01*
X20784127Y19737500D01*
X21895872Y19737501D01*
X21955483Y19743909D01*
X22090331Y19794204D01*
X22205546Y19880454D01*
X22291796Y19995669D01*
X22342091Y20130517D01*
X22348500Y20190127D01*
X22348500Y20250500D01*
X22368185Y20317539D01*
X22420989Y20363294D01*
X22472500Y20374500D01*
X24785812Y20374500D01*
X24852851Y20354815D01*
X24887387Y20321623D01*
X24999954Y20160859D01*
X25160858Y19999955D01*
X25160861Y19999953D01*
X25347266Y19869432D01*
X25553504Y19773261D01*
X25553509Y19773260D01*
X25553511Y19773259D01*
X25588839Y19763793D01*
X25773308Y19714365D01*
X25930791Y19700587D01*
X25999998Y19694532D01*
X26000000Y19694532D01*
X26000002Y19694532D01*
X26056673Y19699491D01*
X26226692Y19714365D01*
X26446496Y19773261D01*
X26652734Y19869432D01*
X26839139Y19999953D01*
X27000047Y20160861D01*
X27081376Y20277012D01*
X27112613Y20321623D01*
X27167189Y20365248D01*
X27214188Y20374500D01*
X28766851Y20374500D01*
X28833890Y20354815D01*
X28868423Y20321626D01*
X28958402Y20193123D01*
X29113123Y20038402D01*
X29241624Y19948425D01*
X29285248Y19893849D01*
X29294500Y19846851D01*
X29294500Y19840643D01*
X29295003Y19836665D01*
X29295918Y19825033D01*
X29297290Y19781376D01*
X29297291Y19781373D01*
X29302880Y19762133D01*
X29306824Y19743089D01*
X29308278Y19731587D01*
X29309336Y19723208D01*
X29325414Y19682597D01*
X29329197Y19671548D01*
X29341381Y19629612D01*
X29351580Y19612366D01*
X29360138Y19594897D01*
X29367514Y19576268D01*
X29393181Y19540940D01*
X29399593Y19531179D01*
X29421828Y19493583D01*
X29421833Y19493576D01*
X29435990Y19479420D01*
X29448628Y19464624D01*
X29460405Y19448414D01*
X29460406Y19448413D01*
X29494057Y19420575D01*
X29502697Y19412713D01*
X30018730Y18896680D01*
X30052214Y18835358D01*
X30047230Y18765666D01*
X30030315Y18734689D01*
X29946204Y18622332D01*
X29946202Y18622329D01*
X29895908Y18487483D01*
X29889501Y18427884D01*
X29889500Y18427865D01*
X29889500Y18329500D01*
X29869815Y18262461D01*
X29817011Y18216706D01*
X29765500Y18205500D01*
X29462743Y18205500D01*
X29447122Y18207225D01*
X29447095Y18206939D01*
X29439333Y18207674D01*
X29372113Y18205561D01*
X29368219Y18205500D01*
X29340650Y18205500D01*
X29336673Y18204998D01*
X29325042Y18204083D01*
X29281374Y18202711D01*
X29281368Y18202710D01*
X29262126Y18197120D01*
X29243087Y18193177D01*
X29223217Y18190666D01*
X29223203Y18190663D01*
X29182598Y18174587D01*
X29171554Y18170806D01*
X29129614Y18158621D01*
X29129610Y18158619D01*
X29112366Y18148421D01*
X29094905Y18139867D01*
X29076274Y18132490D01*
X29076262Y18132483D01*
X29040933Y18106815D01*
X29031173Y18100404D01*
X28993580Y18078171D01*
X28979414Y18064005D01*
X28964624Y18051373D01*
X28948414Y18039596D01*
X28948411Y18039593D01*
X28920573Y18005942D01*
X28912711Y17997303D01*
X28216208Y17300801D01*
X28203951Y17290980D01*
X28204134Y17290759D01*
X28198122Y17285786D01*
X28152098Y17236777D01*
X28149391Y17233984D01*
X28129889Y17214483D01*
X28129875Y17214466D01*
X28127407Y17211285D01*
X28119843Y17202430D01*
X28089937Y17170582D01*
X28089936Y17170580D01*
X28080284Y17153024D01*
X28069610Y17136774D01*
X28057329Y17120939D01*
X28057324Y17120932D01*
X28039975Y17080842D01*
X28034838Y17070356D01*
X28013803Y17032094D01*
X28008822Y17012693D01*
X28002521Y16994290D01*
X27994562Y16975898D01*
X27994561Y16975895D01*
X27987728Y16932757D01*
X27985360Y16921326D01*
X27974501Y16879029D01*
X27974500Y16879018D01*
X27974500Y16858984D01*
X27972973Y16839585D01*
X27969840Y16819806D01*
X27969840Y16819805D01*
X27973950Y16776326D01*
X27974500Y16764657D01*
X27974500Y12610453D01*
X27954815Y12543414D01*
X27938181Y12522772D01*
X27527228Y12111819D01*
X27465905Y12078334D01*
X27439547Y12075500D01*
X26918465Y12075500D01*
X26851426Y12095185D01*
X26819198Y12125189D01*
X26757546Y12207546D01*
X26712835Y12241017D01*
X26642335Y12293794D01*
X26642328Y12293798D01*
X26507482Y12344092D01*
X26507483Y12344092D01*
X26447883Y12350499D01*
X26447881Y12350500D01*
X26447873Y12350500D01*
X26447864Y12350500D01*
X25552129Y12350500D01*
X25552123Y12350499D01*
X25492516Y12344092D01*
X25357671Y12293798D01*
X25357664Y12293794D01*
X25242456Y12207548D01*
X25242455Y12207547D01*
X25242454Y12207546D01*
X25180802Y12125189D01*
X25124868Y12083318D01*
X25081535Y12075500D01*
X24290954Y12075500D01*
X24223915Y12095185D01*
X24214842Y12102496D01*
X24214645Y12102232D01*
X24092335Y12193794D01*
X24092328Y12193798D01*
X23957482Y12244092D01*
X23957483Y12244092D01*
X23897883Y12250499D01*
X23897881Y12250500D01*
X23897873Y12250500D01*
X23897864Y12250500D01*
X22702129Y12250500D01*
X22702123Y12250499D01*
X22642516Y12244092D01*
X22507671Y12193798D01*
X22507664Y12193794D01*
X22392455Y12107548D01*
X22392452Y12107545D01*
X22306206Y11992336D01*
X22306203Y11992330D01*
X22288355Y11944477D01*
X22246483Y11888544D01*
X22181019Y11864127D01*
X22112746Y11878979D01*
X22087358Y11897354D01*
X22086845Y11897835D01*
X22083975Y11900615D01*
X22064475Y11920117D01*
X22061292Y11922586D01*
X22052434Y11930152D01*
X22020582Y11960062D01*
X22020580Y11960064D01*
X22020577Y11960065D01*
X22003029Y11969712D01*
X21986763Y11980396D01*
X21973858Y11990406D01*
X21970936Y11992673D01*
X21970935Y11992674D01*
X21970932Y11992676D01*
X21930849Y12010022D01*
X21920363Y12015159D01*
X21882094Y12036197D01*
X21882092Y12036198D01*
X21862693Y12041178D01*
X21844281Y12047482D01*
X21825898Y12055438D01*
X21825892Y12055440D01*
X21782760Y12062271D01*
X21771322Y12064639D01*
X21729020Y12075500D01*
X21729019Y12075500D01*
X21708984Y12075500D01*
X21689589Y12077027D01*
X21676483Y12079103D01*
X21667565Y12080515D01*
X21612656Y12103721D01*
X21492331Y12193796D01*
X21492328Y12193798D01*
X21357482Y12244092D01*
X21357483Y12244092D01*
X21297883Y12250499D01*
X21297881Y12250500D01*
X21297873Y12250500D01*
X21297864Y12250500D01*
X20102129Y12250500D01*
X20102123Y12250499D01*
X20042516Y12244092D01*
X19907671Y12193798D01*
X19907664Y12193794D01*
X19785355Y12102232D01*
X19783560Y12104630D01*
X19735404Y12078334D01*
X19709046Y12075500D01*
X18218465Y12075500D01*
X18151426Y12095185D01*
X18119198Y12125189D01*
X18057546Y12207546D01*
X18012835Y12241017D01*
X17942335Y12293794D01*
X17942328Y12293798D01*
X17807482Y12344092D01*
X17807483Y12344092D01*
X17747883Y12350499D01*
X17747881Y12350500D01*
X17747873Y12350500D01*
X17747864Y12350500D01*
X16852129Y12350500D01*
X16852123Y12350499D01*
X16792516Y12344092D01*
X16657671Y12293798D01*
X16657664Y12293794D01*
X16542456Y12207548D01*
X16542455Y12207547D01*
X16542454Y12207546D01*
X16480802Y12125189D01*
X16424868Y12083318D01*
X16381535Y12075500D01*
X16160452Y12075500D01*
X16093413Y12095185D01*
X16072771Y12111819D01*
X14300803Y13883788D01*
X14290980Y13896050D01*
X14290759Y13895866D01*
X14285786Y13901878D01*
X14236776Y13947901D01*
X14233977Y13950614D01*
X14214477Y13970115D01*
X14214471Y13970120D01*
X14211286Y13972591D01*
X14202434Y13980152D01*
X14170582Y14010062D01*
X14170580Y14010064D01*
X14170577Y14010065D01*
X14153029Y14019712D01*
X14136763Y14030396D01*
X14124442Y14039953D01*
X14120936Y14042673D01*
X14120935Y14042674D01*
X14120932Y14042676D01*
X14080849Y14060022D01*
X14070363Y14065159D01*
X14032094Y14086197D01*
X14032092Y14086198D01*
X14012693Y14091178D01*
X13994281Y14097482D01*
X13975898Y14105438D01*
X13975892Y14105440D01*
X13932760Y14112271D01*
X13921322Y14114639D01*
X13879020Y14125500D01*
X13879019Y14125500D01*
X13858984Y14125500D01*
X13839586Y14127027D01*
X13832162Y14128203D01*
X13819805Y14130160D01*
X13819804Y14130160D01*
X13776325Y14126050D01*
X13764656Y14125500D01*
X12092115Y14125500D01*
X12025076Y14145185D01*
X11979321Y14197989D01*
X11975933Y14206167D01*
X11943797Y14292329D01*
X11943793Y14292336D01*
X11857547Y14407545D01*
X11852416Y14412676D01*
X11818931Y14473999D01*
X11823915Y14543691D01*
X11852416Y14588038D01*
X11857190Y14592813D01*
X11943350Y14707907D01*
X11943354Y14707914D01*
X11993596Y14842621D01*
X11993598Y14842628D01*
X11999999Y14902156D01*
X12000000Y14902173D01*
X12000000Y15250000D01*
X9715686Y15250000D01*
X9727641Y15261955D01*
X9785165Y15374852D01*
X9804986Y15500000D01*
X9785165Y15625148D01*
X9727641Y15738045D01*
X9715686Y15750000D01*
X9750000Y15750000D01*
X9750000Y16550000D01*
X10250000Y16550000D01*
X10250000Y15750000D01*
X12000000Y15750000D01*
X12000000Y16097828D01*
X11999999Y16097845D01*
X11993598Y16157373D01*
X11993596Y16157380D01*
X11988889Y16170001D01*
X13321127Y16170001D01*
X13321128Y16170000D01*
X14166314Y16170000D01*
X14140507Y16129844D01*
X14100000Y15991889D01*
X14100000Y15848111D01*
X14140507Y15710156D01*
X14166314Y15670000D01*
X13321128Y15670000D01*
X13373730Y15473683D01*
X13373734Y15473674D01*
X13469865Y15267518D01*
X13600342Y15081180D01*
X13761179Y14920343D01*
X13947517Y14789866D01*
X14153673Y14693735D01*
X14153682Y14693731D01*
X14349999Y14641128D01*
X14350000Y14641129D01*
X14350000Y15484499D01*
X14457685Y15435320D01*
X14564237Y15420000D01*
X14635763Y15420000D01*
X14742315Y15435320D01*
X14850000Y15484499D01*
X14850000Y14641128D01*
X15046317Y14693731D01*
X15046326Y14693735D01*
X15252482Y14789866D01*
X15438820Y14920343D01*
X15599657Y15081180D01*
X15730134Y15267518D01*
X15826265Y15473674D01*
X15826269Y15473683D01*
X15878872Y15670000D01*
X15033686Y15670000D01*
X15059493Y15710156D01*
X15100000Y15848111D01*
X15100000Y15991889D01*
X15059493Y16129844D01*
X15033686Y16170000D01*
X15878872Y16170000D01*
X15878872Y16170001D01*
X24721127Y16170001D01*
X24721128Y16170000D01*
X25566314Y16170000D01*
X25540507Y16129844D01*
X25500000Y15991889D01*
X25500000Y15848111D01*
X25540507Y15710156D01*
X25566314Y15670000D01*
X24721128Y15670000D01*
X24773730Y15473683D01*
X24773734Y15473674D01*
X24869865Y15267518D01*
X25000342Y15081180D01*
X25161179Y14920343D01*
X25347517Y14789866D01*
X25553673Y14693735D01*
X25553682Y14693731D01*
X25749999Y14641128D01*
X25750000Y14641129D01*
X25750000Y15484499D01*
X25857685Y15435320D01*
X25964237Y15420000D01*
X26035763Y15420000D01*
X26142315Y15435320D01*
X26250000Y15484499D01*
X26250000Y14641128D01*
X26446317Y14693731D01*
X26446326Y14693735D01*
X26652482Y14789866D01*
X26838820Y14920343D01*
X26999657Y15081180D01*
X27130134Y15267518D01*
X27226265Y15473674D01*
X27226269Y15473683D01*
X27278872Y15670000D01*
X26433686Y15670000D01*
X26459493Y15710156D01*
X26500000Y15848111D01*
X26500000Y15991889D01*
X26459493Y16129844D01*
X26433686Y16170000D01*
X27278872Y16170000D01*
X27278872Y16170001D01*
X27226269Y16366318D01*
X27226265Y16366327D01*
X27130134Y16572483D01*
X26999657Y16758821D01*
X26838820Y16919658D01*
X26652482Y17050135D01*
X26446328Y17146266D01*
X26250000Y17198873D01*
X26250000Y16355502D01*
X26142315Y16404680D01*
X26035763Y16420000D01*
X25964237Y16420000D01*
X25857685Y16404680D01*
X25750000Y16355502D01*
X25750000Y17198873D01*
X25553671Y17146266D01*
X25347517Y17050135D01*
X25161179Y16919658D01*
X25000342Y16758821D01*
X24869865Y16572483D01*
X24773734Y16366327D01*
X24773730Y16366318D01*
X24721127Y16170001D01*
X15878872Y16170001D01*
X15826269Y16366318D01*
X15826265Y16366327D01*
X15730134Y16572483D01*
X15599657Y16758821D01*
X15438820Y16919658D01*
X15252482Y17050135D01*
X15046328Y17146266D01*
X14850000Y17198873D01*
X14850000Y16355502D01*
X14742315Y16404680D01*
X14635763Y16420000D01*
X14564237Y16420000D01*
X14457685Y16404680D01*
X14350000Y16355502D01*
X14350000Y17198873D01*
X14153671Y17146266D01*
X13947517Y17050135D01*
X13761179Y16919658D01*
X13600342Y16758821D01*
X13469865Y16572483D01*
X13373734Y16366327D01*
X13373730Y16366318D01*
X13321127Y16170001D01*
X11988889Y16170001D01*
X11943354Y16292087D01*
X11943350Y16292094D01*
X11857190Y16407188D01*
X11857187Y16407191D01*
X11742093Y16493351D01*
X11742086Y16493355D01*
X11607379Y16543597D01*
X11607372Y16543599D01*
X11547844Y16550000D01*
X10250000Y16550000D01*
X9750000Y16550000D01*
X8452155Y16550000D01*
X8392627Y16543599D01*
X8392620Y16543597D01*
X8257913Y16493355D01*
X8257906Y16493351D01*
X8142812Y16407191D01*
X8142809Y16407188D01*
X8056649Y16292094D01*
X8056645Y16292087D01*
X8006403Y16157380D01*
X8006401Y16157373D01*
X8000000Y16097845D01*
X8000000Y15750000D01*
X9084314Y15750000D01*
X9072359Y15738045D01*
X9014835Y15625148D01*
X8995014Y15500000D01*
X9014835Y15374852D01*
X9072359Y15261955D01*
X9084314Y15250000D01*
X8000000Y15250000D01*
X8000000Y14902156D01*
X8006401Y14842628D01*
X8006403Y14842621D01*
X8056645Y14707914D01*
X8056649Y14707907D01*
X8142809Y14592813D01*
X8147584Y14588038D01*
X8181069Y14526715D01*
X8176085Y14457023D01*
X8147584Y14412676D01*
X8142452Y14407545D01*
X8056206Y14292336D01*
X8056202Y14292329D01*
X8005908Y14157483D01*
X8000313Y14105438D01*
X7999501Y14097877D01*
X7999500Y14097865D01*
X7999500Y12902130D01*
X7999501Y12902124D01*
X8005908Y12842517D01*
X8056202Y12707672D01*
X8056206Y12707665D01*
X8142452Y12592456D01*
X8147227Y12587681D01*
X8180712Y12526358D01*
X8175728Y12456666D01*
X8147227Y12412319D01*
X8142452Y12407545D01*
X8056206Y12292336D01*
X8056202Y12292329D01*
X8005908Y12157483D01*
X7999501Y12097884D01*
X7999501Y12097877D01*
X7999500Y12097865D01*
X7999500Y10902130D01*
X7999501Y10902124D01*
X8005908Y10842517D01*
X8056202Y10707672D01*
X8056206Y10707665D01*
X8142452Y10592456D01*
X8147227Y10587681D01*
X8180712Y10526358D01*
X8175728Y10456666D01*
X8147227Y10412319D01*
X8142452Y10407545D01*
X8056206Y10292336D01*
X8056202Y10292329D01*
X8005908Y10157483D01*
X7999501Y10097884D01*
X7999500Y10097865D01*
X7999500Y8902130D01*
X6865452Y8902130D01*
X6854377Y8927804D01*
X6851570Y8931574D01*
X6760626Y9053733D01*
X6749610Y9068530D01*
X6677747Y9128830D01*
X6615214Y9181302D01*
X6615212Y9181303D01*
X6458437Y9260039D01*
X6450353Y9261955D01*
X6287721Y9300500D01*
X6156291Y9300500D01*
X6051854Y9288293D01*
X6025743Y9285241D01*
X6025740Y9285240D01*
X5860884Y9225238D01*
X5860880Y9225236D01*
X5714306Y9128833D01*
X5714305Y9128832D01*
X5593910Y9001222D01*
X5506188Y8849282D01*
X5455870Y8681211D01*
X5455869Y8681206D01*
X5445668Y8506067D01*
X5445669Y8506065D01*
X5455317Y8451348D01*
X5447573Y8381909D01*
X5403516Y8327680D01*
X5337135Y8305878D01*
X5269505Y8323426D01*
X5233935Y8355505D01*
X5157547Y8457545D01*
X5157544Y8457548D01*
X5042335Y8543794D01*
X5042328Y8543798D01*
X4907482Y8594092D01*
X4907483Y8594092D01*
X4847883Y8600499D01*
X4847881Y8600500D01*
X4847873Y8600500D01*
X4847865Y8600500D01*
X1124500Y8600500D01*
X1057461Y8620185D01*
X1011706Y8672989D01*
X1000500Y8724500D01*
X1000500Y16275501D01*
X1020185Y16342540D01*
X1072989Y16388295D01*
X1124500Y16399501D01*
X4847871Y16399501D01*
X4847872Y16399501D01*
X4907483Y16405909D01*
X5042331Y16456204D01*
X5157546Y16542454D01*
X5231567Y16641335D01*
X5287500Y16683205D01*
X5357191Y16688189D01*
X5418514Y16654704D01*
X5451999Y16593381D01*
X5454623Y16559814D01*
X5445668Y16406067D01*
X5474455Y16242818D01*
X5476135Y16233289D01*
X5545623Y16072196D01*
X5545624Y16072194D01*
X5545626Y16072191D01*
X5635068Y15952051D01*
X5650390Y15931470D01*
X5784786Y15818698D01*
X5862488Y15779675D01*
X5941562Y15739962D01*
X5941563Y15739962D01*
X5941567Y15739960D01*
X6112279Y15699500D01*
X6112282Y15699500D01*
X6243701Y15699500D01*
X6243709Y15699500D01*
X6374255Y15714759D01*
X6539117Y15774763D01*
X6685696Y15871170D01*
X6806092Y15998782D01*
X6893812Y16150719D01*
X6944130Y16318790D01*
X6954331Y16493935D01*
X6923865Y16666711D01*
X6854377Y16827804D01*
X6845606Y16839585D01*
X6749609Y16968531D01*
X6615214Y17081302D01*
X6615212Y17081303D01*
X6458437Y17160039D01*
X6458433Y17160040D01*
X6287721Y17200500D01*
X6156291Y17200500D01*
X6051854Y17188293D01*
X6025743Y17185241D01*
X6025740Y17185240D01*
X5860884Y17125238D01*
X5860880Y17125236D01*
X5714306Y17028833D01*
X5714305Y17028832D01*
X5593910Y16901222D01*
X5531886Y16793793D01*
X5481319Y16745577D01*
X5412712Y16732355D01*
X5347847Y16758323D01*
X5307319Y16815237D01*
X5300499Y16855788D01*
X5300499Y18447872D01*
X5294091Y18507483D01*
X5267171Y18579658D01*
X5243797Y18642329D01*
X5243793Y18642336D01*
X5157547Y18757545D01*
X5157544Y18757548D01*
X5042335Y18843794D01*
X5042328Y18843798D01*
X4907482Y18894092D01*
X4907483Y18894092D01*
X4847883Y18900499D01*
X4847881Y18900500D01*
X4847873Y18900500D01*
X4847865Y18900500D01*
X1124500Y18900500D01*
X1057461Y18920185D01*
X1011706Y18972989D01*
X1000500Y19024500D01*
X1000500Y21868813D01*
X1249500Y21868813D01*
X1258385Y21809871D01*
X1288604Y21609385D01*
X1288605Y21609383D01*
X1288606Y21609377D01*
X1365938Y21358674D01*
X1479767Y21122304D01*
X1479768Y21122303D01*
X1479770Y21122300D01*
X1479772Y21122296D01*
X1563153Y20999999D01*
X1627567Y20905521D01*
X1806014Y20713199D01*
X1806018Y20713196D01*
X1806019Y20713195D01*
X2011143Y20549614D01*
X2238357Y20418432D01*
X2482584Y20322580D01*
X2738370Y20264198D01*
X2738376Y20264198D01*
X2738379Y20264197D01*
X2934484Y20249501D01*
X2934503Y20249501D01*
X2934506Y20249500D01*
X2934508Y20249500D01*
X3065492Y20249500D01*
X3065494Y20249500D01*
X3065496Y20249501D01*
X3065515Y20249501D01*
X3261620Y20264197D01*
X3261622Y20264198D01*
X3261630Y20264198D01*
X3517416Y20322580D01*
X3761643Y20418432D01*
X3988857Y20549614D01*
X4193981Y20713195D01*
X4372433Y20905521D01*
X4520228Y21122296D01*
X4521602Y21125148D01*
X4566305Y21217976D01*
X4634063Y21358677D01*
X4711396Y21609385D01*
X4750500Y21868818D01*
X4750500Y22131182D01*
X4711396Y22390615D01*
X4634063Y22641323D01*
X4622121Y22666120D01*
X4520232Y22877697D01*
X4520231Y22877698D01*
X4520230Y22877699D01*
X4520228Y22877704D01*
X4372433Y23094479D01*
X4362441Y23105247D01*
X4193985Y23286802D01*
X4154533Y23318264D01*
X3988857Y23450386D01*
X3761643Y23581568D01*
X3517416Y23677420D01*
X3517411Y23677422D01*
X3517402Y23677424D01*
X3299818Y23727086D01*
X3261630Y23735802D01*
X3261629Y23735803D01*
X3261625Y23735803D01*
X3261620Y23735804D01*
X3065515Y23750500D01*
X3065494Y23750500D01*
X2934506Y23750500D01*
X2934484Y23750500D01*
X2738379Y23735804D01*
X2738374Y23735803D01*
X2482597Y23677424D01*
X2482578Y23677418D01*
X2238356Y23581568D01*
X2011143Y23450386D01*
X1806014Y23286802D01*
X1627567Y23094480D01*
X1479768Y22877698D01*
X1479767Y22877697D01*
X1365938Y22641327D01*
X1288606Y22390624D01*
X1288605Y22390619D01*
X1288604Y22390615D01*
X1275770Y22305468D01*
X1249500Y22131188D01*
X1249500Y21868813D01*
X1000500Y21868813D01*
X1000500Y23875500D01*
X1020185Y23942539D01*
X1072989Y23988294D01*
X1124500Y23999500D01*
X68875500Y23999500D01*
X68942539Y23979815D01*
G37*
%TD.AperFunction*%
%TD*%
M02*
