%TF.GenerationSoftware,KiCad,Pcbnew,7.0.10*%
%TF.CreationDate,2024-04-17T13:25:17+09:00*%
%TF.ProjectId,HD-AK4316,48442d41-4b34-4333-9136-2e6b69636164,rev?*%
%TF.SameCoordinates,PX7735940PY47868c0*%
%TF.FileFunction,Legend,Bot*%
%TF.FilePolarity,Positive*%
%FSLAX46Y46*%
G04 Gerber Fmt 4.6, Leading zero omitted, Abs format (unit mm)*
G04 Created by KiCad (PCBNEW 7.0.10) date 2024-04-17 13:25:17*
%MOMM*%
%LPD*%
G01*
G04 APERTURE LIST*
%ADD10C,0.150000*%
%ADD11C,0.200000*%
%ADD12C,0.250000*%
G04 APERTURE END LIST*
D10*
X16600000Y10700000D02*
X29600000Y10700000D01*
X29600000Y5700000D01*
X16600000Y5700000D01*
X16600000Y10700000D01*
G36*
X16600000Y10700000D02*
G01*
X29600000Y10700000D01*
X29600000Y5700000D01*
X16600000Y5700000D01*
X16600000Y10700000D01*
G37*
D11*
X43158898Y2951115D02*
X43106517Y3022543D01*
X43106517Y3022543D02*
X43001755Y3093972D01*
X43001755Y3093972D02*
X42739850Y3093972D01*
X42739850Y3093972D02*
X42635088Y3022543D01*
X42635088Y3022543D02*
X42582707Y2951115D01*
X42582707Y2951115D02*
X42530326Y2808258D01*
X42530326Y2808258D02*
X42530326Y2665400D01*
X42530326Y2665400D02*
X42582707Y2451115D01*
X42582707Y2451115D02*
X43211279Y1593972D01*
X43211279Y1593972D02*
X42530326Y1593972D01*
X41849374Y3093972D02*
X41744612Y3093972D01*
X41744612Y3093972D02*
X41639850Y3022543D01*
X41639850Y3022543D02*
X41587469Y2951115D01*
X41587469Y2951115D02*
X41535088Y2808258D01*
X41535088Y2808258D02*
X41482707Y2522543D01*
X41482707Y2522543D02*
X41482707Y2165400D01*
X41482707Y2165400D02*
X41535088Y1879686D01*
X41535088Y1879686D02*
X41587469Y1736829D01*
X41587469Y1736829D02*
X41639850Y1665400D01*
X41639850Y1665400D02*
X41744612Y1593972D01*
X41744612Y1593972D02*
X41849374Y1593972D01*
X41849374Y1593972D02*
X41954136Y1665400D01*
X41954136Y1665400D02*
X42006517Y1736829D01*
X42006517Y1736829D02*
X42058898Y1879686D01*
X42058898Y1879686D02*
X42111279Y2165400D01*
X42111279Y2165400D02*
X42111279Y2522543D01*
X42111279Y2522543D02*
X42058898Y2808258D01*
X42058898Y2808258D02*
X42006517Y2951115D01*
X42006517Y2951115D02*
X41954136Y3022543D01*
X41954136Y3022543D02*
X41849374Y3093972D01*
X41063660Y2951115D02*
X41011279Y3022543D01*
X41011279Y3022543D02*
X40906517Y3093972D01*
X40906517Y3093972D02*
X40644612Y3093972D01*
X40644612Y3093972D02*
X40539850Y3022543D01*
X40539850Y3022543D02*
X40487469Y2951115D01*
X40487469Y2951115D02*
X40435088Y2808258D01*
X40435088Y2808258D02*
X40435088Y2665400D01*
X40435088Y2665400D02*
X40487469Y2451115D01*
X40487469Y2451115D02*
X41116041Y1593972D01*
X41116041Y1593972D02*
X40435088Y1593972D01*
X39492231Y2593972D02*
X39492231Y1593972D01*
X39754136Y3165400D02*
X40016041Y2093972D01*
X40016041Y2093972D02*
X39335088Y2093972D01*
X38916041Y2165400D02*
X38077946Y2165400D01*
X37606517Y2022543D02*
X37082707Y2022543D01*
X37711279Y1593972D02*
X37344612Y3093972D01*
X37344612Y3093972D02*
X36977945Y1593972D01*
X36611279Y1593972D02*
X36611279Y3093972D01*
X36611279Y3093972D02*
X36192231Y3093972D01*
X36192231Y3093972D02*
X36087469Y3022543D01*
X36087469Y3022543D02*
X36035088Y2951115D01*
X36035088Y2951115D02*
X35982707Y2808258D01*
X35982707Y2808258D02*
X35982707Y2593972D01*
X35982707Y2593972D02*
X36035088Y2451115D01*
X36035088Y2451115D02*
X36087469Y2379686D01*
X36087469Y2379686D02*
X36192231Y2308258D01*
X36192231Y2308258D02*
X36611279Y2308258D01*
X34882707Y1593972D02*
X35249374Y2308258D01*
X35511279Y1593972D02*
X35511279Y3093972D01*
X35511279Y3093972D02*
X35092231Y3093972D01*
X35092231Y3093972D02*
X34987469Y3022543D01*
X34987469Y3022543D02*
X34935088Y2951115D01*
X34935088Y2951115D02*
X34882707Y2808258D01*
X34882707Y2808258D02*
X34882707Y2593972D01*
X34882707Y2593972D02*
X34935088Y2451115D01*
X34935088Y2451115D02*
X34987469Y2379686D01*
X34987469Y2379686D02*
X35092231Y2308258D01*
X35092231Y2308258D02*
X35511279Y2308258D01*
X2293971Y9893483D02*
X3793971Y9893483D01*
X3793971Y9893483D02*
X2722542Y10260150D01*
X2722542Y10260150D02*
X3793971Y10626817D01*
X3793971Y10626817D02*
X2293971Y10626817D01*
X2722542Y11098245D02*
X2722542Y11622055D01*
X2293971Y10993483D02*
X3793971Y11360150D01*
X3793971Y11360150D02*
X2293971Y11726817D01*
X2365400Y12041102D02*
X2293971Y12198245D01*
X2293971Y12198245D02*
X2293971Y12460150D01*
X2293971Y12460150D02*
X2365400Y12564912D01*
X2365400Y12564912D02*
X2436828Y12617293D01*
X2436828Y12617293D02*
X2579685Y12669674D01*
X2579685Y12669674D02*
X2722542Y12669674D01*
X2722542Y12669674D02*
X2865400Y12617293D01*
X2865400Y12617293D02*
X2936828Y12564912D01*
X2936828Y12564912D02*
X3008257Y12460150D01*
X3008257Y12460150D02*
X3079685Y12250626D01*
X3079685Y12250626D02*
X3151114Y12145864D01*
X3151114Y12145864D02*
X3222542Y12093483D01*
X3222542Y12093483D02*
X3365400Y12041102D01*
X3365400Y12041102D02*
X3508257Y12041102D01*
X3508257Y12041102D02*
X3651114Y12093483D01*
X3651114Y12093483D02*
X3722542Y12145864D01*
X3722542Y12145864D02*
X3793971Y12250626D01*
X3793971Y12250626D02*
X3793971Y12512531D01*
X3793971Y12512531D02*
X3722542Y12669674D01*
X3793971Y12983959D02*
X3793971Y13612531D01*
X2293971Y13298245D02*
X3793971Y13298245D01*
X3079685Y13979197D02*
X3079685Y14345864D01*
X2293971Y14503007D02*
X2293971Y13979197D01*
X2293971Y13979197D02*
X3793971Y13979197D01*
X3793971Y13979197D02*
X3793971Y14503007D01*
X2293971Y15603007D02*
X3008257Y15236340D01*
X2293971Y14974435D02*
X3793971Y14974435D01*
X3793971Y14974435D02*
X3793971Y15393483D01*
X3793971Y15393483D02*
X3722542Y15498245D01*
X3722542Y15498245D02*
X3651114Y15550626D01*
X3651114Y15550626D02*
X3508257Y15603007D01*
X3508257Y15603007D02*
X3293971Y15603007D01*
X3293971Y15603007D02*
X3151114Y15550626D01*
X3151114Y15550626D02*
X3079685Y15498245D01*
X3079685Y15498245D02*
X3008257Y15393483D01*
X3008257Y15393483D02*
X3008257Y14974435D01*
D12*
X23678384Y1457762D02*
X23678384Y3457762D01*
X23678384Y2505381D02*
X22821241Y2505381D01*
X22821241Y1457762D02*
X22821241Y3457762D01*
X21464098Y1457762D02*
X21464098Y2505381D01*
X21464098Y2505381D02*
X21535526Y2695858D01*
X21535526Y2695858D02*
X21678383Y2791096D01*
X21678383Y2791096D02*
X21964098Y2791096D01*
X21964098Y2791096D02*
X22106955Y2695858D01*
X21464098Y1553000D02*
X21606955Y1457762D01*
X21606955Y1457762D02*
X21964098Y1457762D01*
X21964098Y1457762D02*
X22106955Y1553000D01*
X22106955Y1553000D02*
X22178383Y1743477D01*
X22178383Y1743477D02*
X22178383Y1933953D01*
X22178383Y1933953D02*
X22106955Y2124429D01*
X22106955Y2124429D02*
X21964098Y2219667D01*
X21964098Y2219667D02*
X21606955Y2219667D01*
X21606955Y2219667D02*
X21464098Y2314905D01*
X20749812Y1457762D02*
X20749812Y2791096D01*
X20749812Y2410143D02*
X20678383Y2600620D01*
X20678383Y2600620D02*
X20606955Y2695858D01*
X20606955Y2695858D02*
X20464097Y2791096D01*
X20464097Y2791096D02*
X20321240Y2791096D01*
X19178384Y1457762D02*
X19178384Y3457762D01*
X19178384Y1553000D02*
X19321241Y1457762D01*
X19321241Y1457762D02*
X19606955Y1457762D01*
X19606955Y1457762D02*
X19749812Y1553000D01*
X19749812Y1553000D02*
X19821241Y1648239D01*
X19821241Y1648239D02*
X19892669Y1838715D01*
X19892669Y1838715D02*
X19892669Y2410143D01*
X19892669Y2410143D02*
X19821241Y2600620D01*
X19821241Y2600620D02*
X19749812Y2695858D01*
X19749812Y2695858D02*
X19606955Y2791096D01*
X19606955Y2791096D02*
X19321241Y2791096D01*
X19321241Y2791096D02*
X19178384Y2695858D01*
X18606955Y2791096D02*
X18321241Y1457762D01*
X18321241Y1457762D02*
X18035526Y2410143D01*
X18035526Y2410143D02*
X17749812Y1457762D01*
X17749812Y1457762D02*
X17464098Y2791096D01*
X16249812Y1457762D02*
X16249812Y2505381D01*
X16249812Y2505381D02*
X16321240Y2695858D01*
X16321240Y2695858D02*
X16464097Y2791096D01*
X16464097Y2791096D02*
X16749812Y2791096D01*
X16749812Y2791096D02*
X16892669Y2695858D01*
X16249812Y1553000D02*
X16392669Y1457762D01*
X16392669Y1457762D02*
X16749812Y1457762D01*
X16749812Y1457762D02*
X16892669Y1553000D01*
X16892669Y1553000D02*
X16964097Y1743477D01*
X16964097Y1743477D02*
X16964097Y1933953D01*
X16964097Y1933953D02*
X16892669Y2124429D01*
X16892669Y2124429D02*
X16749812Y2219667D01*
X16749812Y2219667D02*
X16392669Y2219667D01*
X16392669Y2219667D02*
X16249812Y2314905D01*
X15535526Y1457762D02*
X15535526Y2791096D01*
X15535526Y2410143D02*
X15464097Y2600620D01*
X15464097Y2600620D02*
X15392669Y2695858D01*
X15392669Y2695858D02*
X15249811Y2791096D01*
X15249811Y2791096D02*
X15106954Y2791096D01*
X14035526Y1553000D02*
X14178383Y1457762D01*
X14178383Y1457762D02*
X14464098Y1457762D01*
X14464098Y1457762D02*
X14606955Y1553000D01*
X14606955Y1553000D02*
X14678383Y1743477D01*
X14678383Y1743477D02*
X14678383Y2505381D01*
X14678383Y2505381D02*
X14606955Y2695858D01*
X14606955Y2695858D02*
X14464098Y2791096D01*
X14464098Y2791096D02*
X14178383Y2791096D01*
X14178383Y2791096D02*
X14035526Y2695858D01*
X14035526Y2695858D02*
X13964098Y2505381D01*
X13964098Y2505381D02*
X13964098Y2314905D01*
X13964098Y2314905D02*
X14678383Y2124429D01*
X13321241Y1457762D02*
X13321241Y3457762D01*
X13321241Y3457762D02*
X12964098Y3457762D01*
X12964098Y3457762D02*
X12749812Y3362524D01*
X12749812Y3362524D02*
X12606955Y3172048D01*
X12606955Y3172048D02*
X12535526Y2981572D01*
X12535526Y2981572D02*
X12464098Y2600620D01*
X12464098Y2600620D02*
X12464098Y2314905D01*
X12464098Y2314905D02*
X12535526Y1933953D01*
X12535526Y1933953D02*
X12606955Y1743477D01*
X12606955Y1743477D02*
X12749812Y1553000D01*
X12749812Y1553000D02*
X12964098Y1457762D01*
X12964098Y1457762D02*
X13321241Y1457762D01*
X11821241Y1457762D02*
X11821241Y2791096D01*
X11821241Y2410143D02*
X11749812Y2600620D01*
X11749812Y2600620D02*
X11678384Y2695858D01*
X11678384Y2695858D02*
X11535526Y2791096D01*
X11535526Y2791096D02*
X11392669Y2791096D01*
X10321241Y1553000D02*
X10464098Y1457762D01*
X10464098Y1457762D02*
X10749813Y1457762D01*
X10749813Y1457762D02*
X10892670Y1553000D01*
X10892670Y1553000D02*
X10964098Y1743477D01*
X10964098Y1743477D02*
X10964098Y2505381D01*
X10964098Y2505381D02*
X10892670Y2695858D01*
X10892670Y2695858D02*
X10749813Y2791096D01*
X10749813Y2791096D02*
X10464098Y2791096D01*
X10464098Y2791096D02*
X10321241Y2695858D01*
X10321241Y2695858D02*
X10249813Y2505381D01*
X10249813Y2505381D02*
X10249813Y2314905D01*
X10249813Y2314905D02*
X10964098Y2124429D01*
X8964099Y1457762D02*
X8964099Y2505381D01*
X8964099Y2505381D02*
X9035527Y2695858D01*
X9035527Y2695858D02*
X9178384Y2791096D01*
X9178384Y2791096D02*
X9464099Y2791096D01*
X9464099Y2791096D02*
X9606956Y2695858D01*
X8964099Y1553000D02*
X9106956Y1457762D01*
X9106956Y1457762D02*
X9464099Y1457762D01*
X9464099Y1457762D02*
X9606956Y1553000D01*
X9606956Y1553000D02*
X9678384Y1743477D01*
X9678384Y1743477D02*
X9678384Y1933953D01*
X9678384Y1933953D02*
X9606956Y2124429D01*
X9606956Y2124429D02*
X9464099Y2219667D01*
X9464099Y2219667D02*
X9106956Y2219667D01*
X9106956Y2219667D02*
X8964099Y2314905D01*
X8249813Y1457762D02*
X8249813Y2791096D01*
X8249813Y2600620D02*
X8178384Y2695858D01*
X8178384Y2695858D02*
X8035527Y2791096D01*
X8035527Y2791096D02*
X7821241Y2791096D01*
X7821241Y2791096D02*
X7678384Y2695858D01*
X7678384Y2695858D02*
X7606956Y2505381D01*
X7606956Y2505381D02*
X7606956Y1457762D01*
X7606956Y2505381D02*
X7535527Y2695858D01*
X7535527Y2695858D02*
X7392670Y2791096D01*
X7392670Y2791096D02*
X7178384Y2791096D01*
X7178384Y2791096D02*
X7035527Y2695858D01*
X7035527Y2695858D02*
X6964098Y2505381D01*
X6964098Y2505381D02*
X6964098Y1457762D01*
X6321241Y1553000D02*
X6178384Y1457762D01*
X6178384Y1457762D02*
X5892670Y1457762D01*
X5892670Y1457762D02*
X5749813Y1553000D01*
X5749813Y1553000D02*
X5678384Y1743477D01*
X5678384Y1743477D02*
X5678384Y1838715D01*
X5678384Y1838715D02*
X5749813Y2029191D01*
X5749813Y2029191D02*
X5892670Y2124429D01*
X5892670Y2124429D02*
X6106956Y2124429D01*
X6106956Y2124429D02*
X6249813Y2219667D01*
X6249813Y2219667D02*
X6321241Y2410143D01*
X6321241Y2410143D02*
X6321241Y2505381D01*
X6321241Y2505381D02*
X6249813Y2695858D01*
X6249813Y2695858D02*
X6106956Y2791096D01*
X6106956Y2791096D02*
X5892670Y2791096D01*
X5892670Y2791096D02*
X5749813Y2695858D01*
D11*
X27577945Y11815067D02*
X27630326Y11748400D01*
X27630326Y11748400D02*
X27787469Y11681734D01*
X27787469Y11681734D02*
X27892231Y11681734D01*
X27892231Y11681734D02*
X28049374Y11748400D01*
X28049374Y11748400D02*
X28154136Y11881734D01*
X28154136Y11881734D02*
X28206517Y12015067D01*
X28206517Y12015067D02*
X28258898Y12281734D01*
X28258898Y12281734D02*
X28258898Y12481734D01*
X28258898Y12481734D02*
X28206517Y12748400D01*
X28206517Y12748400D02*
X28154136Y12881734D01*
X28154136Y12881734D02*
X28049374Y13015067D01*
X28049374Y13015067D02*
X27892231Y13081734D01*
X27892231Y13081734D02*
X27787469Y13081734D01*
X27787469Y13081734D02*
X27630326Y13015067D01*
X27630326Y13015067D02*
X27577945Y12948400D01*
X26896993Y13081734D02*
X26687469Y13081734D01*
X26687469Y13081734D02*
X26582707Y13015067D01*
X26582707Y13015067D02*
X26477945Y12881734D01*
X26477945Y12881734D02*
X26425564Y12615067D01*
X26425564Y12615067D02*
X26425564Y12148400D01*
X26425564Y12148400D02*
X26477945Y11881734D01*
X26477945Y11881734D02*
X26582707Y11748400D01*
X26582707Y11748400D02*
X26687469Y11681734D01*
X26687469Y11681734D02*
X26896993Y11681734D01*
X26896993Y11681734D02*
X27001755Y11748400D01*
X27001755Y11748400D02*
X27106517Y11881734D01*
X27106517Y11881734D02*
X27158898Y12148400D01*
X27158898Y12148400D02*
X27158898Y12615067D01*
X27158898Y12615067D02*
X27106517Y12881734D01*
X27106517Y12881734D02*
X27001755Y13015067D01*
X27001755Y13015067D02*
X26896993Y13081734D01*
X25954136Y11681734D02*
X25954136Y13081734D01*
X25954136Y13081734D02*
X25325564Y11681734D01*
X25325564Y11681734D02*
X25325564Y13081734D01*
X24435088Y12415067D02*
X24801755Y12415067D01*
X24801755Y11681734D02*
X24801755Y13081734D01*
X24801755Y13081734D02*
X24277945Y13081734D01*
X23858898Y11681734D02*
X23858898Y13081734D01*
X22758897Y13015067D02*
X22863659Y13081734D01*
X22863659Y13081734D02*
X23020802Y13081734D01*
X23020802Y13081734D02*
X23177945Y13015067D01*
X23177945Y13015067D02*
X23282707Y12881734D01*
X23282707Y12881734D02*
X23335088Y12748400D01*
X23335088Y12748400D02*
X23387469Y12481734D01*
X23387469Y12481734D02*
X23387469Y12281734D01*
X23387469Y12281734D02*
X23335088Y12015067D01*
X23335088Y12015067D02*
X23282707Y11881734D01*
X23282707Y11881734D02*
X23177945Y11748400D01*
X23177945Y11748400D02*
X23020802Y11681734D01*
X23020802Y11681734D02*
X22916040Y11681734D01*
X22916040Y11681734D02*
X22758897Y11748400D01*
X22758897Y11748400D02*
X22706516Y11815067D01*
X22706516Y11815067D02*
X22706516Y12281734D01*
X22706516Y12281734D02*
X22916040Y12281734D01*
X65965400Y10641102D02*
X65893971Y10798245D01*
X65893971Y10798245D02*
X65893971Y11060150D01*
X65893971Y11060150D02*
X65965400Y11164912D01*
X65965400Y11164912D02*
X66036828Y11217293D01*
X66036828Y11217293D02*
X66179685Y11269674D01*
X66179685Y11269674D02*
X66322542Y11269674D01*
X66322542Y11269674D02*
X66465400Y11217293D01*
X66465400Y11217293D02*
X66536828Y11164912D01*
X66536828Y11164912D02*
X66608257Y11060150D01*
X66608257Y11060150D02*
X66679685Y10850626D01*
X66679685Y10850626D02*
X66751114Y10745864D01*
X66751114Y10745864D02*
X66822542Y10693483D01*
X66822542Y10693483D02*
X66965400Y10641102D01*
X66965400Y10641102D02*
X67108257Y10641102D01*
X67108257Y10641102D02*
X67251114Y10693483D01*
X67251114Y10693483D02*
X67322542Y10745864D01*
X67322542Y10745864D02*
X67393971Y10850626D01*
X67393971Y10850626D02*
X67393971Y11112531D01*
X67393971Y11112531D02*
X67322542Y11269674D01*
X66322542Y11688721D02*
X66322542Y12212531D01*
X65893971Y11583959D02*
X67393971Y11950626D01*
X67393971Y11950626D02*
X65893971Y12317293D01*
X65893971Y13207769D02*
X65893971Y12683959D01*
X65893971Y12683959D02*
X67393971Y12683959D01*
X67393971Y13417292D02*
X65893971Y13783959D01*
X65893971Y13783959D02*
X67393971Y14150626D01*
X66679685Y14517292D02*
X66679685Y14883959D01*
X65893971Y15041102D02*
X65893971Y14517292D01*
X65893971Y14517292D02*
X67393971Y14517292D01*
X67393971Y14517292D02*
X67393971Y15041102D01*
X62306517Y21593972D02*
X62306517Y23093972D01*
X62306517Y22379686D02*
X61677945Y22379686D01*
X61677945Y21593972D02*
X61677945Y23093972D01*
X61154136Y21593972D02*
X61154136Y23093972D01*
X61154136Y23093972D02*
X60892231Y23093972D01*
X60892231Y23093972D02*
X60735088Y23022543D01*
X60735088Y23022543D02*
X60630326Y22879686D01*
X60630326Y22879686D02*
X60577945Y22736829D01*
X60577945Y22736829D02*
X60525564Y22451115D01*
X60525564Y22451115D02*
X60525564Y22236829D01*
X60525564Y22236829D02*
X60577945Y21951115D01*
X60577945Y21951115D02*
X60630326Y21808258D01*
X60630326Y21808258D02*
X60735088Y21665400D01*
X60735088Y21665400D02*
X60892231Y21593972D01*
X60892231Y21593972D02*
X61154136Y21593972D01*
X60054136Y22165400D02*
X59216041Y22165400D01*
X58744612Y22022543D02*
X58220802Y22022543D01*
X58849374Y21593972D02*
X58482707Y23093972D01*
X58482707Y23093972D02*
X58116040Y21593972D01*
X57749374Y21593972D02*
X57749374Y23093972D01*
X57120802Y21593972D02*
X57592231Y22451115D01*
X57120802Y23093972D02*
X57749374Y22236829D01*
X56177945Y22593972D02*
X56177945Y21593972D01*
X56439850Y23165400D02*
X56701755Y22093972D01*
X56701755Y22093972D02*
X56020802Y22093972D01*
X55706517Y23093972D02*
X55025564Y23093972D01*
X55025564Y23093972D02*
X55392231Y22522543D01*
X55392231Y22522543D02*
X55235088Y22522543D01*
X55235088Y22522543D02*
X55130326Y22451115D01*
X55130326Y22451115D02*
X55077945Y22379686D01*
X55077945Y22379686D02*
X55025564Y22236829D01*
X55025564Y22236829D02*
X55025564Y21879686D01*
X55025564Y21879686D02*
X55077945Y21736829D01*
X55077945Y21736829D02*
X55130326Y21665400D01*
X55130326Y21665400D02*
X55235088Y21593972D01*
X55235088Y21593972D02*
X55549374Y21593972D01*
X55549374Y21593972D02*
X55654136Y21665400D01*
X55654136Y21665400D02*
X55706517Y21736829D01*
X53977945Y21593972D02*
X54606517Y21593972D01*
X54292231Y21593972D02*
X54292231Y23093972D01*
X54292231Y23093972D02*
X54396993Y22879686D01*
X54396993Y22879686D02*
X54501755Y22736829D01*
X54501755Y22736829D02*
X54606517Y22665400D01*
X53035088Y23093972D02*
X53244612Y23093972D01*
X53244612Y23093972D02*
X53349374Y23022543D01*
X53349374Y23022543D02*
X53401755Y22951115D01*
X53401755Y22951115D02*
X53506517Y22736829D01*
X53506517Y22736829D02*
X53558898Y22451115D01*
X53558898Y22451115D02*
X53558898Y21879686D01*
X53558898Y21879686D02*
X53506517Y21736829D01*
X53506517Y21736829D02*
X53454136Y21665400D01*
X53454136Y21665400D02*
X53349374Y21593972D01*
X53349374Y21593972D02*
X53139850Y21593972D01*
X53139850Y21593972D02*
X53035088Y21665400D01*
X53035088Y21665400D02*
X52982707Y21736829D01*
X52982707Y21736829D02*
X52930326Y21879686D01*
X52930326Y21879686D02*
X52930326Y22236829D01*
X52930326Y22236829D02*
X52982707Y22379686D01*
X52982707Y22379686D02*
X53035088Y22451115D01*
X53035088Y22451115D02*
X53139850Y22522543D01*
X53139850Y22522543D02*
X53349374Y22522543D01*
X53349374Y22522543D02*
X53454136Y22451115D01*
X53454136Y22451115D02*
X53506517Y22379686D01*
X53506517Y22379686D02*
X53558898Y22236829D01*
M02*
