%TF.GenerationSoftware,KiCad,Pcbnew,7.0.10*%
%TF.CreationDate,2024-03-29T17:01:24+09:00*%
%TF.ProjectId,HD-AK4316,48442d41-4b34-4333-9136-2e6b69636164,rev?*%
%TF.SameCoordinates,Original*%
%TF.FileFunction,Soldermask,Top*%
%TF.FilePolarity,Negative*%
%FSLAX46Y46*%
G04 Gerber Fmt 4.6, Leading zero omitted, Abs format (unit mm)*
G04 Created by KiCad (PCBNEW 7.0.10) date 2024-03-29 17:01:24*
%MOMM*%
%LPD*%
G01*
G04 APERTURE LIST*
G04 Aperture macros list*
%AMRoundRect*
0 Rectangle with rounded corners*
0 $1 Rounding radius*
0 $2 $3 $4 $5 $6 $7 $8 $9 X,Y pos of 4 corners*
0 Add a 4 corners polygon primitive as box body*
4,1,4,$2,$3,$4,$5,$6,$7,$8,$9,$2,$3,0*
0 Add four circle primitives for the rounded corners*
1,1,$1+$1,$2,$3*
1,1,$1+$1,$4,$5*
1,1,$1+$1,$6,$7*
1,1,$1+$1,$8,$9*
0 Add four rect primitives between the rounded corners*
20,1,$1+$1,$2,$3,$4,$5,0*
20,1,$1+$1,$4,$5,$6,$7,0*
20,1,$1+$1,$6,$7,$8,$9,0*
20,1,$1+$1,$8,$9,$2,$3,0*%
G04 Aperture macros list end*
%ADD10C,1.100000*%
%ADD11RoundRect,0.050000X0.400000X0.400000X-0.400000X0.400000X-0.400000X-0.400000X0.400000X-0.400000X0*%
%ADD12RoundRect,0.150000X-0.762000X0.762000X-0.762000X-0.762000X0.762000X-0.762000X0.762000X0.762000X0*%
%ADD13C,1.824000*%
%ADD14R,1.016000X1.524000*%
%ADD15O,1.016000X1.524000*%
%ADD16C,1.800000*%
%ADD17C,1.700000*%
%ADD18RoundRect,0.050000X-1.900000X0.750000X-1.900000X-0.750000X1.900000X-0.750000X1.900000X0.750000X0*%
%ADD19C,1.000000*%
%ADD20RoundRect,0.050000X-1.500000X0.550000X-1.500000X-0.550000X1.500000X-0.550000X1.500000X0.550000X0*%
%ADD21RoundRect,0.050000X-0.400000X-0.400000X0.400000X-0.400000X0.400000X0.400000X-0.400000X0.400000X0*%
%ADD22RoundRect,0.050000X1.900000X-0.750000X1.900000X0.750000X-1.900000X0.750000X-1.900000X-0.750000X0*%
%ADD23RoundRect,0.050000X1.500000X-0.550000X1.500000X0.550000X-1.500000X0.550000X-1.500000X-0.550000X0*%
%ADD24RoundRect,0.050000X-0.550000X0.300000X-0.550000X-0.300000X0.550000X-0.300000X0.550000X0.300000X0*%
%ADD25C,0.800000*%
G04 APERTURE END LIST*
D10*
%TO.C,R7*%
X181080000Y-55000000D03*
X170920000Y-55000000D03*
%TD*%
D11*
%TO.C,C6*%
X149300000Y-61500000D03*
X147700000Y-61500000D03*
%TD*%
D10*
%TO.C,R11*%
X170920000Y-58000000D03*
X181080000Y-58000000D03*
%TD*%
D12*
%TO.C,U1*%
X158690000Y-57420000D03*
D13*
X158690000Y-59960000D03*
X158690000Y-62500000D03*
X158690000Y-65040000D03*
X158690000Y-67580000D03*
X166310000Y-67580000D03*
X166310000Y-65040000D03*
X166310000Y-62500000D03*
X166310000Y-59960000D03*
X166310000Y-57420000D03*
%TD*%
D14*
%TO.C,U3*%
X146720000Y-53765000D03*
D15*
X145450000Y-53765000D03*
X144180000Y-53765000D03*
%TD*%
D10*
%TO.C,R1*%
X158919999Y-53200000D03*
X169079999Y-53200000D03*
%TD*%
D11*
%TO.C,R4*%
X176800000Y-68500000D03*
X175200000Y-68500000D03*
%TD*%
%TO.C,R8*%
X176800000Y-55000000D03*
X175200000Y-55000000D03*
%TD*%
%TO.C,R10*%
X176800000Y-61000000D03*
X175200000Y-61000000D03*
%TD*%
D16*
%TO.C,C1*%
X138925000Y-53760000D03*
D17*
X138925000Y-58840000D03*
%TD*%
D10*
%TO.C,R9*%
X181080000Y-61000000D03*
X170920000Y-61000000D03*
%TD*%
D18*
%TO.C,CN1*%
X127900000Y-57350000D03*
D19*
X131200000Y-58550000D03*
X131200000Y-66450000D03*
D18*
X127900000Y-67650000D03*
D20*
X135000000Y-65500000D03*
X135000000Y-63500000D03*
X135000000Y-61500000D03*
X135000000Y-59500000D03*
%TD*%
D21*
%TO.C,C2*%
X141700000Y-61500000D03*
X143300000Y-61500000D03*
%TD*%
D22*
%TO.C,CN2*%
X192100000Y-67650000D03*
D19*
X188800000Y-66450000D03*
X188800000Y-58550000D03*
D22*
X192100000Y-57350000D03*
D23*
X185000000Y-59500000D03*
X185000000Y-61500000D03*
X185000000Y-63500000D03*
X185000000Y-65500000D03*
%TD*%
D16*
%TO.C,C5*%
X151825000Y-58790000D03*
D17*
X151825000Y-53710000D03*
%TD*%
D11*
%TO.C,C4*%
X146800000Y-67700000D03*
X145200000Y-67700000D03*
%TD*%
D10*
%TO.C,R13*%
X170920000Y-64000000D03*
X181080000Y-64000000D03*
%TD*%
D16*
%TO.C,C3*%
X150300000Y-65460000D03*
D17*
X150300000Y-70540000D03*
%TD*%
D21*
%TO.C,R2*%
X163199999Y-53200000D03*
X164799999Y-53200000D03*
%TD*%
%TO.C,R12*%
X175200000Y-58000000D03*
X176800000Y-58000000D03*
%TD*%
%TO.C,R14*%
X175200000Y-64000000D03*
X176800000Y-64000000D03*
%TD*%
D11*
%TO.C,R6*%
X176800000Y-71500000D03*
X175200000Y-71500000D03*
%TD*%
D10*
%TO.C,R5*%
X181080000Y-71500000D03*
X170920000Y-71500000D03*
%TD*%
%TO.C,R3*%
X181080000Y-68500000D03*
X170920000Y-68500000D03*
%TD*%
D24*
%TO.C,U2*%
X144200000Y-63550000D03*
X144200000Y-64500000D03*
X144200000Y-65450000D03*
X146800000Y-65450000D03*
X146800000Y-63550000D03*
%TD*%
D25*
X145100000Y-61500000D03*
X178600000Y-64000000D03*
X143500000Y-67700000D03*
X169200000Y-72600000D03*
X145450000Y-51950000D03*
X155640000Y-70540000D03*
X147700000Y-59900000D03*
X185200000Y-70100000D03*
X145450000Y-56150000D03*
X160000000Y-72600000D03*
X135000000Y-57200000D03*
X141000000Y-64500000D03*
X178400000Y-58000000D03*
M02*
