%TF.GenerationSoftware,KiCad,Pcbnew,7.0.10*%
%TF.CreationDate,2024-03-29T17:01:24+09:00*%
%TF.ProjectId,HD-AK4316,48442d41-4b34-4333-9136-2e6b69636164,rev?*%
%TF.SameCoordinates,Original*%
%TF.FileFunction,Copper,L2,Bot*%
%TF.FilePolarity,Positive*%
%FSLAX46Y46*%
G04 Gerber Fmt 4.6, Leading zero omitted, Abs format (unit mm)*
G04 Created by KiCad (PCBNEW 7.0.10) date 2024-03-29 17:01:24*
%MOMM*%
%LPD*%
G01*
G04 APERTURE LIST*
%TA.AperFunction,ComponentPad*%
%ADD10C,1.100000*%
%TD*%
%TA.AperFunction,ComponentPad*%
%ADD11R,1.524000X1.524000*%
%TD*%
%TA.AperFunction,ComponentPad*%
%ADD12C,1.524000*%
%TD*%
%TA.AperFunction,ComponentPad*%
%ADD13R,1.016000X1.524000*%
%TD*%
%TA.AperFunction,ComponentPad*%
%ADD14O,1.016000X1.524000*%
%TD*%
%TA.AperFunction,ComponentPad*%
%ADD15C,1.600000*%
%TD*%
%TA.AperFunction,ComponentPad*%
%ADD16R,3.000000X1.100000*%
%TD*%
%TA.AperFunction,ViaPad*%
%ADD17C,0.800000*%
%TD*%
%TA.AperFunction,Conductor*%
%ADD18C,0.250000*%
%TD*%
%TA.AperFunction,Conductor*%
%ADD19C,0.400000*%
%TD*%
G04 APERTURE END LIST*
D10*
%TO.P,R7,1,1*%
%TO.N,+3V3*%
X181080000Y-55000000D03*
%TO.P,R7,2,2*%
%TO.N,Net-(U1-XORH)*%
X170920000Y-55000000D03*
%TD*%
%TO.P,R11,1,1*%
%TO.N,Net-(U1-XORH)*%
X170920000Y-58000000D03*
%TO.P,R11,2,2*%
%TO.N,GND*%
X181080000Y-58000000D03*
%TD*%
D11*
%TO.P,U1,1,VCC*%
%TO.N,+3V3*%
X158690000Y-57420000D03*
D12*
%TO.P,U1,2,EN*%
X158690000Y-59960000D03*
%TO.P,U1,3,READY*%
%TO.N,Net-(U1-READY)*%
X158690000Y-62500000D03*
%TO.P,U1,4,SCLIN*%
%TO.N,Net-(U1-SCLIN)*%
X158690000Y-65040000D03*
%TO.P,U1,5,SDAIN*%
%TO.N,Net-(U1-SDAIN)*%
X158690000Y-67580000D03*
%TO.P,U1,6,SDAOUT*%
%TO.N,Net-(U1-SDAOUT)*%
X166310000Y-67580000D03*
%TO.P,U1,7,SCLOUT*%
%TO.N,Net-(U1-SCLOUT)*%
X166310000Y-65040000D03*
%TO.P,U1,8,XORL*%
%TO.N,Net-(U1-XORL)*%
X166310000Y-62500000D03*
%TO.P,U1,9,XORH*%
%TO.N,Net-(U1-XORH)*%
X166310000Y-59960000D03*
%TO.P,U1,10,GND*%
%TO.N,GND*%
X166310000Y-57420000D03*
%TD*%
D13*
%TO.P,U3,1,OUT*%
%TO.N,+3V3*%
X146720000Y-53765000D03*
D14*
%TO.P,U3,2,GND*%
%TO.N,GND*%
X145450000Y-53765000D03*
%TO.P,U3,3,IN*%
%TO.N,+5V*%
X144180000Y-53765000D03*
%TD*%
D10*
%TO.P,R1,1,1*%
%TO.N,+3V3*%
X158919999Y-53200000D03*
%TO.P,R1,2,2*%
%TO.N,Net-(U1-READY)*%
X169079999Y-53200000D03*
%TD*%
D15*
%TO.P,C1,1,1*%
%TO.N,+5V*%
X138925000Y-53760000D03*
%TO.P,C1,2,2*%
%TO.N,GND*%
X138925000Y-58840000D03*
%TD*%
D10*
%TO.P,R9,1,1*%
%TO.N,+3V3*%
X181080000Y-61000000D03*
%TO.P,R9,2,2*%
%TO.N,Net-(U1-XORL)*%
X170920000Y-61000000D03*
%TD*%
D16*
%TO.P,CN1,1,1*%
%TO.N,Net-(U1-SCLIN)*%
X135000000Y-65500000D03*
%TO.P,CN1,2,2*%
%TO.N,Net-(U1-SDAIN)*%
X135000000Y-63500000D03*
%TO.P,CN1,3,3*%
%TO.N,+5V*%
X135000000Y-61500000D03*
%TO.P,CN1,4,4*%
%TO.N,GND*%
X135000000Y-59500000D03*
%TD*%
%TO.P,CN2,1,1*%
%TO.N,Net-(U1-SCLOUT)*%
X185000000Y-59500000D03*
%TO.P,CN2,2,2*%
%TO.N,Net-(U1-SDAOUT)*%
X185000000Y-61500000D03*
%TO.P,CN2,3,3*%
%TO.N,+5V*%
X185000000Y-63500000D03*
%TO.P,CN2,4,4*%
%TO.N,GND*%
X185000000Y-65500000D03*
%TD*%
D15*
%TO.P,C5,1,1*%
%TO.N,+3V3*%
X151825000Y-58790000D03*
%TO.P,C5,2,2*%
%TO.N,GND*%
X151825000Y-53710000D03*
%TD*%
D10*
%TO.P,R13,1,1*%
%TO.N,Net-(U1-XORL)*%
X170920000Y-64000000D03*
%TO.P,R13,2,2*%
%TO.N,GND*%
X181080000Y-64000000D03*
%TD*%
D15*
%TO.P,C3,1,1*%
%TO.N,Net-(U2-BYP)*%
X150300000Y-65460000D03*
%TO.P,C3,2,2*%
%TO.N,GND*%
X150300000Y-70540000D03*
%TD*%
D10*
%TO.P,R5,1,1*%
%TO.N,+3V3*%
X181080000Y-71500000D03*
%TO.P,R5,2,2*%
%TO.N,Net-(U1-SDAOUT)*%
X170920000Y-71500000D03*
%TD*%
%TO.P,R3,1,1*%
%TO.N,+3V3*%
X181080000Y-68500000D03*
%TO.P,R3,2,2*%
%TO.N,Net-(U1-SCLOUT)*%
X170920000Y-68500000D03*
%TD*%
D17*
%TO.N,GND*%
X145100000Y-61500000D03*
X178600000Y-64000000D03*
X143500000Y-67700000D03*
X169200000Y-72600000D03*
X145450000Y-51950000D03*
X155640000Y-70540000D03*
X147700000Y-59900000D03*
X185200000Y-70100000D03*
X145450000Y-56150000D03*
X160000000Y-72600000D03*
X135000000Y-57200000D03*
X141000000Y-64500000D03*
X178400000Y-58000000D03*
%TD*%
D18*
%TO.N,Net-(U1-SCLOUT)*%
X170920000Y-68500000D02*
X172720000Y-70300000D01*
X183400000Y-59500000D02*
X185800000Y-59500000D01*
X182200000Y-60700000D02*
X183400000Y-59500000D01*
X182200000Y-68900000D02*
X182200000Y-60700000D01*
X180800000Y-70300000D02*
X182200000Y-68900000D01*
X172720000Y-70300000D02*
X180800000Y-70300000D01*
%TO.N,Net-(U1-SDAOUT)*%
X182700000Y-61900000D02*
X183100000Y-61500000D01*
X170920000Y-71500000D02*
X172420000Y-73000000D01*
X182700000Y-71800000D02*
X182700000Y-61900000D01*
X181500000Y-73000000D02*
X182700000Y-71800000D01*
X172420000Y-73000000D02*
X181500000Y-73000000D01*
X183100000Y-61500000D02*
X185800000Y-61500000D01*
D19*
%TO.N,+5V*%
X138900000Y-63000000D02*
X137400000Y-61500000D01*
X138900000Y-72100000D02*
X138900000Y-63000000D01*
X140675000Y-73875000D02*
X138900000Y-72100000D01*
X185000000Y-73875000D02*
X140675000Y-73875000D01*
X187600000Y-64400000D02*
X187600000Y-71275000D01*
X137400000Y-61500000D02*
X134200000Y-61500000D01*
X186700000Y-63500000D02*
X187600000Y-64400000D01*
X185800000Y-63500000D02*
X186700000Y-63500000D01*
X187600000Y-71275000D02*
X185000000Y-73875000D01*
D18*
%TO.N,GND*%
X185200000Y-65500000D02*
X185200000Y-70100000D01*
X145450000Y-53765000D02*
X145450000Y-56150000D01*
X151825000Y-53710000D02*
X154190000Y-53710000D01*
X135000000Y-58900000D02*
X135000000Y-57200000D01*
X134400000Y-59500000D02*
X135000000Y-58900000D01*
X185600000Y-65500000D02*
X185200000Y-65500000D01*
X145450000Y-53765000D02*
X145450000Y-51950000D01*
%TO.N,+3V3*%
X179600000Y-59520000D02*
X181080000Y-61000000D01*
X179600000Y-56200000D02*
X179600000Y-59520000D01*
X181080000Y-68500000D02*
X181080000Y-67580000D01*
X181080000Y-67580000D02*
X179700000Y-66200000D01*
X179700000Y-62380000D02*
X181080000Y-61000000D01*
X179700000Y-66200000D02*
X179700000Y-62380000D01*
X181080000Y-55000000D02*
X180800000Y-55000000D01*
X180800000Y-55000000D02*
X179600000Y-56200000D01*
%TD*%
%TA.AperFunction,Conductor*%
%TO.N,GND*%
G36*
X193942539Y-51020185D02*
G01*
X193988294Y-51072989D01*
X193999500Y-51124500D01*
X193999500Y-73875500D01*
X193979815Y-73942539D01*
X193927011Y-73988294D01*
X193875500Y-73999500D01*
X186059452Y-73999500D01*
X185992413Y-73979815D01*
X185946658Y-73927011D01*
X185936714Y-73857853D01*
X185965739Y-73794297D01*
X185971771Y-73787819D01*
X186146768Y-73612821D01*
X188083786Y-71675802D01*
X188096048Y-71665980D01*
X188095865Y-71665759D01*
X188101868Y-71660791D01*
X188101877Y-71660786D01*
X188147934Y-71611739D01*
X188150582Y-71609006D01*
X188170120Y-71589470D01*
X188172570Y-71586310D01*
X188180154Y-71577429D01*
X188210062Y-71545582D01*
X188219714Y-71528023D01*
X188230389Y-71511772D01*
X188242674Y-71495936D01*
X188260030Y-71455825D01*
X188265161Y-71445354D01*
X188286194Y-71407098D01*
X188286194Y-71407097D01*
X188286197Y-71407092D01*
X188291180Y-71387680D01*
X188297477Y-71369291D01*
X188305438Y-71350895D01*
X188312270Y-71307748D01*
X188314639Y-71296316D01*
X188325499Y-71254022D01*
X188325500Y-71254017D01*
X188325500Y-71233983D01*
X188327027Y-71214582D01*
X188330160Y-71194804D01*
X188326050Y-71151324D01*
X188325500Y-71139655D01*
X188325500Y-67252561D01*
X188345185Y-67185522D01*
X188397989Y-67139767D01*
X188467147Y-67129823D01*
X188505146Y-67141748D01*
X188541567Y-67160040D01*
X188712279Y-67200500D01*
X188712282Y-67200500D01*
X188843701Y-67200500D01*
X188843709Y-67200500D01*
X188974255Y-67185241D01*
X189139117Y-67125237D01*
X189285696Y-67028830D01*
X189406092Y-66901218D01*
X189493812Y-66749281D01*
X189544130Y-66581210D01*
X189554331Y-66406065D01*
X189523865Y-66233289D01*
X189454377Y-66072196D01*
X189349610Y-65931470D01*
X189331060Y-65915905D01*
X189215214Y-65818698D01*
X189215212Y-65818697D01*
X189058437Y-65739961D01*
X189050353Y-65738045D01*
X188887721Y-65699500D01*
X188756291Y-65699500D01*
X188651854Y-65711707D01*
X188625743Y-65714759D01*
X188625740Y-65714760D01*
X188491910Y-65763470D01*
X188422181Y-65767901D01*
X188361125Y-65733930D01*
X188328128Y-65672343D01*
X188325500Y-65646948D01*
X188325500Y-64582742D01*
X188327224Y-64567122D01*
X188326939Y-64567095D01*
X188327673Y-64559333D01*
X188325561Y-64492112D01*
X188325500Y-64488218D01*
X188325500Y-64460656D01*
X188325500Y-64460650D01*
X188324997Y-64456666D01*
X188324081Y-64445029D01*
X188322710Y-64401373D01*
X188317119Y-64382130D01*
X188313173Y-64363078D01*
X188310664Y-64343208D01*
X188294579Y-64302583D01*
X188290806Y-64291562D01*
X188278618Y-64249610D01*
X188278617Y-64249609D01*
X188278617Y-64249607D01*
X188278616Y-64249606D01*
X188268423Y-64232371D01*
X188259861Y-64214894D01*
X188252487Y-64196269D01*
X188226816Y-64160937D01*
X188220405Y-64151177D01*
X188198170Y-64113580D01*
X188198168Y-64113578D01*
X188198165Y-64113574D01*
X188184006Y-64099415D01*
X188171368Y-64084619D01*
X188159594Y-64068413D01*
X188125940Y-64040572D01*
X188117299Y-64032709D01*
X187200803Y-63116212D01*
X187190980Y-63103950D01*
X187190759Y-63104134D01*
X187185786Y-63098122D01*
X187136776Y-63052099D01*
X187133977Y-63049386D01*
X187114477Y-63029885D01*
X187114471Y-63029880D01*
X187111286Y-63027409D01*
X187102434Y-63019848D01*
X187070582Y-62989938D01*
X187070580Y-62989936D01*
X187070578Y-62989935D01*
X187062777Y-62985647D01*
X187013511Y-62936103D01*
X186999220Y-62890237D01*
X186994091Y-62842517D01*
X186977172Y-62797156D01*
X186943797Y-62707671D01*
X186943793Y-62707664D01*
X186857547Y-62592455D01*
X186852773Y-62587681D01*
X186819288Y-62526358D01*
X186824272Y-62456666D01*
X186852773Y-62412319D01*
X186857542Y-62407548D01*
X186857546Y-62407546D01*
X186943796Y-62292331D01*
X186994091Y-62157483D01*
X187000500Y-62097873D01*
X187000499Y-60902128D01*
X186994091Y-60842517D01*
X186978983Y-60802011D01*
X186943797Y-60707671D01*
X186943793Y-60707664D01*
X186857547Y-60592455D01*
X186852773Y-60587681D01*
X186819288Y-60526358D01*
X186824272Y-60456666D01*
X186852773Y-60412319D01*
X186857542Y-60407548D01*
X186857546Y-60407546D01*
X186943796Y-60292331D01*
X186994091Y-60157483D01*
X187000500Y-60097873D01*
X187000499Y-58902128D01*
X186994091Y-58842517D01*
X186986953Y-58823380D01*
X186943797Y-58707671D01*
X186943793Y-58707664D01*
X186858653Y-58593933D01*
X188045668Y-58593933D01*
X188065767Y-58707913D01*
X188076135Y-58766711D01*
X188145623Y-58927804D01*
X188145624Y-58927806D01*
X188145626Y-58927809D01*
X188240751Y-59055583D01*
X188250390Y-59068530D01*
X188384786Y-59181302D01*
X188441027Y-59209547D01*
X188541562Y-59260038D01*
X188541563Y-59260038D01*
X188541567Y-59260040D01*
X188712279Y-59300500D01*
X188712282Y-59300500D01*
X188843701Y-59300500D01*
X188843709Y-59300500D01*
X188974255Y-59285241D01*
X189139117Y-59225237D01*
X189285696Y-59128830D01*
X189406092Y-59001218D01*
X189493812Y-58849281D01*
X189544130Y-58681210D01*
X189554331Y-58506065D01*
X189523865Y-58333289D01*
X189454377Y-58172196D01*
X189428373Y-58137267D01*
X189365943Y-58053409D01*
X189349610Y-58031470D01*
X189312104Y-57999999D01*
X189215214Y-57918698D01*
X189215212Y-57918697D01*
X189058437Y-57839961D01*
X189016476Y-57830016D01*
X188887721Y-57799500D01*
X188756291Y-57799500D01*
X188651854Y-57811707D01*
X188625743Y-57814759D01*
X188625740Y-57814760D01*
X188460884Y-57874762D01*
X188460880Y-57874764D01*
X188314306Y-57971167D01*
X188314305Y-57971168D01*
X188193910Y-58098778D01*
X188106188Y-58250718D01*
X188055870Y-58418789D01*
X188055869Y-58418794D01*
X188045668Y-58593933D01*
X186858653Y-58593933D01*
X186857547Y-58592455D01*
X186857544Y-58592452D01*
X186742335Y-58506206D01*
X186742328Y-58506202D01*
X186607482Y-58455908D01*
X186607483Y-58455908D01*
X186547883Y-58449501D01*
X186547881Y-58449500D01*
X186547873Y-58449500D01*
X186547864Y-58449500D01*
X183452129Y-58449500D01*
X183452123Y-58449501D01*
X183392516Y-58455908D01*
X183257671Y-58506202D01*
X183257664Y-58506206D01*
X183142455Y-58592452D01*
X183142452Y-58592455D01*
X183056206Y-58707664D01*
X183056202Y-58707671D01*
X183005908Y-58842517D01*
X183001051Y-58887700D01*
X182999501Y-58902123D01*
X182999500Y-58902135D01*
X182999500Y-58958186D01*
X182979815Y-59025225D01*
X182971041Y-59037230D01*
X182940571Y-59074059D01*
X182932711Y-59082696D01*
X181870402Y-60145005D01*
X181809079Y-60178490D01*
X181739387Y-60173506D01*
X181704056Y-60153177D01*
X181666453Y-60122317D01*
X181666451Y-60122316D01*
X181666450Y-60122315D01*
X181483954Y-60024768D01*
X181285934Y-59964700D01*
X181285932Y-59964699D01*
X181285934Y-59964699D01*
X181098463Y-59946235D01*
X181080000Y-59944417D01*
X181079999Y-59944417D01*
X180982701Y-59953999D01*
X180914055Y-59940980D01*
X180882867Y-59918277D01*
X180261819Y-59297228D01*
X180228334Y-59235905D01*
X180225500Y-59209547D01*
X180225500Y-58919233D01*
X180245185Y-58852194D01*
X180297989Y-58806439D01*
X180367147Y-58796495D01*
X180428165Y-58823380D01*
X180493826Y-58877267D01*
X180493833Y-58877271D01*
X180676233Y-58974766D01*
X180874165Y-59034808D01*
X181080000Y-59055080D01*
X181285834Y-59034808D01*
X181483764Y-58974766D01*
X181625469Y-58899022D01*
X181026447Y-58300000D01*
X181107802Y-58300000D01*
X181190250Y-58284588D01*
X181285610Y-58225543D01*
X181353201Y-58136038D01*
X181383895Y-58028160D01*
X181381286Y-58000000D01*
X181433553Y-58000000D01*
X181979022Y-58545469D01*
X182054766Y-58403764D01*
X182114808Y-58205834D01*
X182135080Y-58000000D01*
X182114808Y-57794165D01*
X182054766Y-57596233D01*
X181979023Y-57454528D01*
X181433553Y-57999999D01*
X181433553Y-58000000D01*
X181381286Y-58000000D01*
X181373546Y-57916479D01*
X181323552Y-57816078D01*
X181240666Y-57740516D01*
X181136080Y-57700000D01*
X181052198Y-57700000D01*
X181020526Y-57705920D01*
X181080000Y-57646447D01*
X181625469Y-57100976D01*
X181625469Y-57100975D01*
X181483766Y-57025233D01*
X181285834Y-56965191D01*
X181080000Y-56944919D01*
X180874165Y-56965191D01*
X180676233Y-57025233D01*
X180493833Y-57122728D01*
X180493827Y-57122732D01*
X180428164Y-57176620D01*
X180363854Y-57203932D01*
X180294987Y-57192141D01*
X180243427Y-57144988D01*
X180225500Y-57080766D01*
X180225500Y-56510452D01*
X180245185Y-56443413D01*
X180261819Y-56422771D01*
X180455098Y-56229492D01*
X180649052Y-56035537D01*
X180710373Y-56002054D01*
X180772725Y-56004558D01*
X180874066Y-56035300D01*
X180874065Y-56035300D01*
X180892529Y-56037118D01*
X181080000Y-56055583D01*
X181285934Y-56035300D01*
X181483954Y-55975232D01*
X181666450Y-55877685D01*
X181826410Y-55746410D01*
X181957685Y-55586450D01*
X182055232Y-55403954D01*
X182115300Y-55205934D01*
X182135583Y-55000000D01*
X182115300Y-54794066D01*
X182055232Y-54596046D01*
X181957685Y-54413550D01*
X181828046Y-54255583D01*
X181826410Y-54253589D01*
X181666452Y-54122317D01*
X181666453Y-54122317D01*
X181666450Y-54122315D01*
X181483954Y-54024768D01*
X181285934Y-53964700D01*
X181285932Y-53964699D01*
X181285934Y-53964699D01*
X181080000Y-53944417D01*
X180874067Y-53964699D01*
X180676043Y-54024769D01*
X180594149Y-54068543D01*
X180493550Y-54122315D01*
X180493548Y-54122316D01*
X180493547Y-54122317D01*
X180333589Y-54253589D01*
X180202317Y-54413547D01*
X180104769Y-54596043D01*
X180044699Y-54794067D01*
X180040674Y-54834931D01*
X180014511Y-54899718D01*
X180004952Y-54910455D01*
X179216208Y-55699199D01*
X179203951Y-55709020D01*
X179204134Y-55709241D01*
X179198122Y-55714214D01*
X179152098Y-55763223D01*
X179149391Y-55766016D01*
X179129889Y-55785517D01*
X179129875Y-55785534D01*
X179127407Y-55788715D01*
X179119843Y-55797570D01*
X179089937Y-55829418D01*
X179089936Y-55829420D01*
X179080284Y-55846976D01*
X179069610Y-55863226D01*
X179057329Y-55879061D01*
X179057324Y-55879068D01*
X179039975Y-55919158D01*
X179034838Y-55929644D01*
X179013803Y-55967906D01*
X179008822Y-55987307D01*
X179002521Y-56005710D01*
X178994562Y-56024102D01*
X178994561Y-56024105D01*
X178987728Y-56067243D01*
X178985360Y-56078674D01*
X178974501Y-56120971D01*
X178974500Y-56120982D01*
X178974500Y-56141016D01*
X178972973Y-56160415D01*
X178969840Y-56180194D01*
X178969840Y-56180195D01*
X178973950Y-56223674D01*
X178974500Y-56235343D01*
X178974500Y-59437255D01*
X178972775Y-59452872D01*
X178973061Y-59452899D01*
X178972326Y-59460665D01*
X178974439Y-59527872D01*
X178974500Y-59531767D01*
X178974500Y-59559357D01*
X178975003Y-59563335D01*
X178975918Y-59574967D01*
X178977290Y-59618624D01*
X178977291Y-59618627D01*
X178982880Y-59637867D01*
X178986824Y-59656911D01*
X178989336Y-59676792D01*
X179005414Y-59717403D01*
X179009197Y-59728452D01*
X179021381Y-59770388D01*
X179031580Y-59787634D01*
X179040138Y-59805103D01*
X179047514Y-59823732D01*
X179073181Y-59859060D01*
X179079593Y-59868821D01*
X179101828Y-59906417D01*
X179101833Y-59906424D01*
X179115990Y-59920580D01*
X179128628Y-59935376D01*
X179140405Y-59951586D01*
X179140406Y-59951587D01*
X179174057Y-59979425D01*
X179182698Y-59987288D01*
X179998277Y-60802868D01*
X180031762Y-60864191D01*
X180033999Y-60902702D01*
X180024417Y-60999998D01*
X180024417Y-61000000D01*
X180033999Y-61097297D01*
X180020980Y-61165943D01*
X179998277Y-61197131D01*
X179316208Y-61879199D01*
X179303951Y-61889020D01*
X179304134Y-61889241D01*
X179298122Y-61894214D01*
X179252098Y-61943223D01*
X179249391Y-61946016D01*
X179229889Y-61965517D01*
X179229875Y-61965534D01*
X179227407Y-61968715D01*
X179219843Y-61977570D01*
X179189937Y-62009418D01*
X179189936Y-62009420D01*
X179180284Y-62026976D01*
X179169610Y-62043226D01*
X179157329Y-62059061D01*
X179157324Y-62059068D01*
X179139975Y-62099158D01*
X179134838Y-62109644D01*
X179113803Y-62147906D01*
X179108822Y-62167307D01*
X179102521Y-62185710D01*
X179094562Y-62204102D01*
X179094561Y-62204105D01*
X179087728Y-62247243D01*
X179085360Y-62258674D01*
X179074501Y-62300971D01*
X179074500Y-62300982D01*
X179074500Y-62321016D01*
X179072973Y-62340415D01*
X179069840Y-62360194D01*
X179069840Y-62360195D01*
X179073950Y-62403674D01*
X179074500Y-62415343D01*
X179074500Y-66117255D01*
X179072775Y-66132872D01*
X179073061Y-66132899D01*
X179072326Y-66140665D01*
X179074439Y-66207872D01*
X179074500Y-66211767D01*
X179074500Y-66239357D01*
X179075003Y-66243335D01*
X179075918Y-66254967D01*
X179077290Y-66298624D01*
X179077291Y-66298627D01*
X179082880Y-66317867D01*
X179086824Y-66336911D01*
X179089336Y-66356792D01*
X179105414Y-66397403D01*
X179109197Y-66408452D01*
X179121381Y-66450388D01*
X179131580Y-66467634D01*
X179140138Y-66485103D01*
X179147514Y-66503732D01*
X179173181Y-66539060D01*
X179179593Y-66548821D01*
X179201828Y-66586417D01*
X179201833Y-66586424D01*
X179215990Y-66600580D01*
X179228628Y-66615376D01*
X179240405Y-66631586D01*
X179240406Y-66631587D01*
X179274057Y-66659425D01*
X179282698Y-66667288D01*
X180270081Y-67654671D01*
X180303566Y-67715994D01*
X180298582Y-67785686D01*
X180278254Y-67821016D01*
X180202317Y-67913546D01*
X180104769Y-68096043D01*
X180044699Y-68294067D01*
X180024417Y-68500000D01*
X180044699Y-68705932D01*
X180064405Y-68770894D01*
X180104768Y-68903954D01*
X180202315Y-69086450D01*
X180202317Y-69086452D01*
X180333589Y-69246410D01*
X180415625Y-69313734D01*
X180493550Y-69377685D01*
X180570388Y-69418756D01*
X180620231Y-69467718D01*
X180635691Y-69535855D01*
X180611859Y-69601535D01*
X180599616Y-69615792D01*
X180577230Y-69638179D01*
X180515908Y-69671666D01*
X180489547Y-69674500D01*
X173030453Y-69674500D01*
X172963414Y-69654815D01*
X172942772Y-69638181D01*
X172001721Y-68697130D01*
X171968236Y-68635807D01*
X171965999Y-68597299D01*
X171975583Y-68500000D01*
X171955300Y-68294066D01*
X171895232Y-68096046D01*
X171797685Y-67913550D01*
X171704555Y-67800070D01*
X171666410Y-67753589D01*
X171506452Y-67622317D01*
X171506453Y-67622317D01*
X171506450Y-67622315D01*
X171323954Y-67524768D01*
X171125934Y-67464700D01*
X171125932Y-67464699D01*
X171125934Y-67464699D01*
X170920000Y-67444417D01*
X170714067Y-67464699D01*
X170516043Y-67524769D01*
X170412721Y-67579997D01*
X170333550Y-67622315D01*
X170333548Y-67622316D01*
X170333547Y-67622317D01*
X170173589Y-67753589D01*
X170042317Y-67913547D01*
X169944769Y-68096043D01*
X169884699Y-68294067D01*
X169864417Y-68500000D01*
X169884699Y-68705932D01*
X169904405Y-68770894D01*
X169944768Y-68903954D01*
X170042315Y-69086450D01*
X170042317Y-69086452D01*
X170173589Y-69246410D01*
X170255625Y-69313734D01*
X170333550Y-69377685D01*
X170516046Y-69475232D01*
X170714066Y-69535300D01*
X170714065Y-69535300D01*
X170734348Y-69537297D01*
X170920000Y-69555583D01*
X171017297Y-69545999D01*
X171085941Y-69559017D01*
X171117130Y-69581720D01*
X171670550Y-70135141D01*
X172219197Y-70683788D01*
X172229022Y-70696051D01*
X172229243Y-70695869D01*
X172234211Y-70701874D01*
X172283222Y-70747899D01*
X172286021Y-70750612D01*
X172305522Y-70770114D01*
X172305526Y-70770117D01*
X172305529Y-70770120D01*
X172308702Y-70772581D01*
X172317574Y-70780159D01*
X172349418Y-70810062D01*
X172366976Y-70819714D01*
X172383235Y-70830395D01*
X172399064Y-70842673D01*
X172439155Y-70860021D01*
X172449626Y-70865151D01*
X172459898Y-70870798D01*
X172487902Y-70886194D01*
X172487904Y-70886195D01*
X172487908Y-70886197D01*
X172507316Y-70891180D01*
X172525719Y-70897481D01*
X172544101Y-70905436D01*
X172544102Y-70905436D01*
X172544104Y-70905437D01*
X172587250Y-70912270D01*
X172598672Y-70914636D01*
X172640981Y-70925500D01*
X172661016Y-70925500D01*
X172680414Y-70927026D01*
X172700194Y-70930159D01*
X172700195Y-70930160D01*
X172700195Y-70930159D01*
X172700196Y-70930160D01*
X172743675Y-70926050D01*
X172755344Y-70925500D01*
X179989831Y-70925500D01*
X180056870Y-70945185D01*
X180102625Y-70997989D01*
X180112569Y-71067147D01*
X180106263Y-71090133D01*
X180106537Y-71090216D01*
X180104769Y-71096043D01*
X180104768Y-71096046D01*
X180088000Y-71151324D01*
X180044699Y-71294067D01*
X180024417Y-71500000D01*
X180044699Y-71705932D01*
X180063001Y-71766265D01*
X180104768Y-71903954D01*
X180199323Y-72080853D01*
X180202317Y-72086453D01*
X180272388Y-72171835D01*
X180299701Y-72236145D01*
X180287910Y-72305013D01*
X180240758Y-72356573D01*
X180176535Y-72374500D01*
X172730453Y-72374500D01*
X172663414Y-72354815D01*
X172642772Y-72338181D01*
X172001721Y-71697130D01*
X171968236Y-71635807D01*
X171965999Y-71597299D01*
X171975583Y-71500000D01*
X171955300Y-71294066D01*
X171895232Y-71096046D01*
X171797685Y-70913550D01*
X171729443Y-70830396D01*
X171666410Y-70753589D01*
X171506452Y-70622317D01*
X171506453Y-70622317D01*
X171506450Y-70622315D01*
X171323954Y-70524768D01*
X171125934Y-70464700D01*
X171125932Y-70464699D01*
X171125934Y-70464699D01*
X170920000Y-70444417D01*
X170714067Y-70464699D01*
X170516043Y-70524769D01*
X170405898Y-70583643D01*
X170333550Y-70622315D01*
X170333548Y-70622316D01*
X170333547Y-70622317D01*
X170173589Y-70753589D01*
X170042616Y-70913183D01*
X170042315Y-70913550D01*
X170025406Y-70945185D01*
X169944769Y-71096043D01*
X169884699Y-71294067D01*
X169864417Y-71500000D01*
X169884699Y-71705932D01*
X169903001Y-71766265D01*
X169944768Y-71903954D01*
X170042315Y-72086450D01*
X170061489Y-72109814D01*
X170173589Y-72246410D01*
X170239872Y-72300806D01*
X170333550Y-72377685D01*
X170516046Y-72475232D01*
X170714066Y-72535300D01*
X170714065Y-72535300D01*
X170734348Y-72537297D01*
X170920000Y-72555583D01*
X171017297Y-72545999D01*
X171085941Y-72559017D01*
X171117131Y-72581721D01*
X171573228Y-73037819D01*
X171606713Y-73099142D01*
X171601729Y-73168834D01*
X171559857Y-73224767D01*
X171494393Y-73249184D01*
X171485547Y-73249500D01*
X140985452Y-73249500D01*
X140918413Y-73229815D01*
X140897771Y-73213181D01*
X139561819Y-71877228D01*
X139528334Y-71815905D01*
X139525500Y-71789547D01*
X139525500Y-70289999D01*
X149021127Y-70289999D01*
X149021128Y-70290000D01*
X149866314Y-70290000D01*
X149840507Y-70330156D01*
X149800000Y-70468111D01*
X149800000Y-70611889D01*
X149840507Y-70749844D01*
X149866314Y-70790000D01*
X149021128Y-70790000D01*
X149073730Y-70986317D01*
X149073734Y-70986326D01*
X149169865Y-71192482D01*
X149300342Y-71378820D01*
X149461179Y-71539657D01*
X149647517Y-71670134D01*
X149853673Y-71766265D01*
X149853682Y-71766269D01*
X150049999Y-71818872D01*
X150050000Y-71818871D01*
X150050000Y-70975501D01*
X150157685Y-71024680D01*
X150264237Y-71040000D01*
X150335763Y-71040000D01*
X150442315Y-71024680D01*
X150550000Y-70975501D01*
X150550000Y-71818872D01*
X150746317Y-71766269D01*
X150746326Y-71766265D01*
X150952482Y-71670134D01*
X151138820Y-71539657D01*
X151299657Y-71378820D01*
X151430134Y-71192482D01*
X151526265Y-70986326D01*
X151526269Y-70986317D01*
X151578872Y-70790000D01*
X150733686Y-70790000D01*
X150759493Y-70749844D01*
X150800000Y-70611889D01*
X150800000Y-70468111D01*
X150759493Y-70330156D01*
X150733686Y-70290000D01*
X151578872Y-70290000D01*
X151578872Y-70289999D01*
X151526269Y-70093682D01*
X151526265Y-70093673D01*
X151430134Y-69887517D01*
X151299657Y-69701179D01*
X151138820Y-69540342D01*
X150952482Y-69409865D01*
X150746328Y-69313734D01*
X150550000Y-69261127D01*
X150550000Y-70104498D01*
X150442315Y-70055320D01*
X150335763Y-70040000D01*
X150264237Y-70040000D01*
X150157685Y-70055320D01*
X150050000Y-70104498D01*
X150050000Y-69261127D01*
X149853671Y-69313734D01*
X149647517Y-69409865D01*
X149461179Y-69540342D01*
X149300342Y-69701179D01*
X149169865Y-69887517D01*
X149073734Y-70093673D01*
X149073730Y-70093682D01*
X149021127Y-70289999D01*
X139525500Y-70289999D01*
X139525500Y-67580002D01*
X157422677Y-67580002D01*
X157441929Y-67800062D01*
X157441930Y-67800070D01*
X157499104Y-68013445D01*
X157499105Y-68013447D01*
X157499106Y-68013450D01*
X157537620Y-68096043D01*
X157592466Y-68213662D01*
X157592468Y-68213666D01*
X157719170Y-68394615D01*
X157719175Y-68394621D01*
X157875378Y-68550824D01*
X157875384Y-68550829D01*
X158056333Y-68677531D01*
X158056335Y-68677532D01*
X158056338Y-68677534D01*
X158256550Y-68770894D01*
X158469932Y-68828070D01*
X158627123Y-68841822D01*
X158689998Y-68847323D01*
X158690000Y-68847323D01*
X158690002Y-68847323D01*
X158745017Y-68842509D01*
X158910068Y-68828070D01*
X159123450Y-68770894D01*
X159323662Y-68677534D01*
X159504620Y-68550826D01*
X159660826Y-68394620D01*
X159787534Y-68213662D01*
X159880894Y-68013450D01*
X159938070Y-67800068D01*
X159957323Y-67580002D01*
X165042677Y-67580002D01*
X165061929Y-67800062D01*
X165061930Y-67800070D01*
X165119104Y-68013445D01*
X165119105Y-68013447D01*
X165119106Y-68013450D01*
X165157620Y-68096043D01*
X165212466Y-68213662D01*
X165212468Y-68213666D01*
X165339170Y-68394615D01*
X165339175Y-68394621D01*
X165495378Y-68550824D01*
X165495384Y-68550829D01*
X165676333Y-68677531D01*
X165676335Y-68677532D01*
X165676338Y-68677534D01*
X165876550Y-68770894D01*
X166089932Y-68828070D01*
X166247123Y-68841822D01*
X166309998Y-68847323D01*
X166310000Y-68847323D01*
X166310002Y-68847323D01*
X166365017Y-68842509D01*
X166530068Y-68828070D01*
X166743450Y-68770894D01*
X166943662Y-68677534D01*
X167124620Y-68550826D01*
X167280826Y-68394620D01*
X167407534Y-68213662D01*
X167500894Y-68013450D01*
X167558070Y-67800068D01*
X167577323Y-67580000D01*
X167558070Y-67359932D01*
X167500894Y-67146550D01*
X167407534Y-66946339D01*
X167324539Y-66827809D01*
X167280827Y-66765381D01*
X167261079Y-66745633D01*
X167124620Y-66609174D01*
X167124616Y-66609171D01*
X167124615Y-66609170D01*
X166943666Y-66482468D01*
X166943658Y-66482464D01*
X166814811Y-66422382D01*
X166762371Y-66376210D01*
X166743219Y-66309017D01*
X166763435Y-66242135D01*
X166814811Y-66197618D01*
X166820802Y-66194824D01*
X166943662Y-66137534D01*
X167124620Y-66010826D01*
X167280826Y-65854620D01*
X167407534Y-65673662D01*
X167500894Y-65473450D01*
X167558070Y-65260068D01*
X167577323Y-65040000D01*
X167573399Y-64995153D01*
X167567449Y-64927137D01*
X167558070Y-64819932D01*
X167500894Y-64606550D01*
X167407534Y-64406339D01*
X167297789Y-64249606D01*
X167280827Y-64225381D01*
X167206616Y-64151170D01*
X167124620Y-64069174D01*
X167124616Y-64069171D01*
X167124615Y-64069170D01*
X167025830Y-64000000D01*
X169864417Y-64000000D01*
X169884699Y-64205932D01*
X169897948Y-64249607D01*
X169944768Y-64403954D01*
X170042315Y-64586450D01*
X170047243Y-64592455D01*
X170173589Y-64746410D01*
X170247745Y-64807267D01*
X170333550Y-64877685D01*
X170516046Y-64975232D01*
X170714066Y-65035300D01*
X170714065Y-65035300D01*
X170732529Y-65037118D01*
X170920000Y-65055583D01*
X171125934Y-65035300D01*
X171323954Y-64975232D01*
X171506450Y-64877685D01*
X171666410Y-64746410D01*
X171797685Y-64586450D01*
X171895232Y-64403954D01*
X171955300Y-64205934D01*
X171975583Y-64000000D01*
X171955300Y-63794066D01*
X171895232Y-63596046D01*
X171797685Y-63413550D01*
X171670924Y-63259090D01*
X171666410Y-63253589D01*
X171506452Y-63122317D01*
X171506453Y-63122317D01*
X171506450Y-63122315D01*
X171323954Y-63024768D01*
X171125934Y-62964700D01*
X171125932Y-62964699D01*
X171125934Y-62964699D01*
X170920000Y-62944417D01*
X170714067Y-62964699D01*
X170578500Y-63005823D01*
X170519119Y-63023836D01*
X170516043Y-63024769D01*
X170407595Y-63082737D01*
X170333550Y-63122315D01*
X170333548Y-63122316D01*
X170333547Y-63122317D01*
X170173589Y-63253589D01*
X170042317Y-63413547D01*
X170042315Y-63413550D01*
X170003643Y-63485898D01*
X169944769Y-63596043D01*
X169884699Y-63794067D01*
X169864417Y-64000000D01*
X167025830Y-64000000D01*
X166943666Y-63942468D01*
X166943658Y-63942464D01*
X166814811Y-63882382D01*
X166762371Y-63836210D01*
X166743219Y-63769017D01*
X166763435Y-63702135D01*
X166814811Y-63657618D01*
X166820802Y-63654824D01*
X166943662Y-63597534D01*
X167124620Y-63470826D01*
X167280826Y-63314620D01*
X167407534Y-63133662D01*
X167500894Y-62933450D01*
X167558070Y-62720068D01*
X167577323Y-62500000D01*
X167558070Y-62279932D01*
X167500894Y-62066550D01*
X167407534Y-61866339D01*
X167280826Y-61685380D01*
X167124620Y-61529174D01*
X167124616Y-61529171D01*
X167124615Y-61529170D01*
X166943666Y-61402468D01*
X166943658Y-61402464D01*
X166814811Y-61342382D01*
X166762371Y-61296210D01*
X166743219Y-61229017D01*
X166763435Y-61162135D01*
X166814811Y-61117618D01*
X166838589Y-61106530D01*
X166943662Y-61057534D01*
X167025829Y-61000000D01*
X169864417Y-61000000D01*
X169884699Y-61205932D01*
X169912085Y-61296210D01*
X169944768Y-61403954D01*
X170042315Y-61586450D01*
X170042317Y-61586452D01*
X170173589Y-61746410D01*
X170270209Y-61825702D01*
X170333550Y-61877685D01*
X170516046Y-61975232D01*
X170714066Y-62035300D01*
X170714065Y-62035300D01*
X170716350Y-62035525D01*
X170920000Y-62055583D01*
X171125934Y-62035300D01*
X171323954Y-61975232D01*
X171506450Y-61877685D01*
X171666410Y-61746410D01*
X171797685Y-61586450D01*
X171895232Y-61403954D01*
X171955300Y-61205934D01*
X171975583Y-61000000D01*
X171955300Y-60794066D01*
X171895232Y-60596046D01*
X171797685Y-60413550D01*
X171745702Y-60350209D01*
X171666410Y-60253589D01*
X171506452Y-60122317D01*
X171506453Y-60122317D01*
X171506450Y-60122315D01*
X171323954Y-60024768D01*
X171125934Y-59964700D01*
X171125932Y-59964699D01*
X171125934Y-59964699D01*
X170920000Y-59944417D01*
X170714067Y-59964699D01*
X170516043Y-60024769D01*
X170420885Y-60075633D01*
X170333550Y-60122315D01*
X170333548Y-60122316D01*
X170333547Y-60122317D01*
X170173589Y-60253589D01*
X170047242Y-60407546D01*
X170042315Y-60413550D01*
X170019460Y-60456309D01*
X169944769Y-60596043D01*
X169884699Y-60794067D01*
X169864417Y-61000000D01*
X167025829Y-61000000D01*
X167124620Y-60930826D01*
X167280826Y-60774620D01*
X167407534Y-60593662D01*
X167500894Y-60393450D01*
X167558070Y-60180068D01*
X167575624Y-59979425D01*
X167577323Y-59960002D01*
X167577323Y-59959997D01*
X167568492Y-59859060D01*
X167558070Y-59739932D01*
X167500894Y-59526550D01*
X167407534Y-59326339D01*
X167280826Y-59145380D01*
X167124620Y-58989174D01*
X167124616Y-58989171D01*
X167124615Y-58989170D01*
X166943666Y-58862468D01*
X166943662Y-58862466D01*
X166814218Y-58802105D01*
X166761779Y-58755932D01*
X166742627Y-58688739D01*
X166762843Y-58621858D01*
X166814219Y-58577340D01*
X166943412Y-58517097D01*
X167124301Y-58390436D01*
X167280436Y-58234301D01*
X167407099Y-58053409D01*
X167407100Y-58053407D01*
X167432004Y-58000000D01*
X169864417Y-58000000D01*
X169884699Y-58205932D01*
X169893305Y-58234301D01*
X169944768Y-58403954D01*
X170042315Y-58586450D01*
X170074603Y-58625793D01*
X170173589Y-58746410D01*
X170226706Y-58790001D01*
X170333550Y-58877685D01*
X170516046Y-58975232D01*
X170714066Y-59035300D01*
X170714065Y-59035300D01*
X170732529Y-59037118D01*
X170920000Y-59055583D01*
X171125934Y-59035300D01*
X171323954Y-58975232D01*
X171506450Y-58877685D01*
X171666410Y-58746410D01*
X171797685Y-58586450D01*
X171895232Y-58403954D01*
X171955300Y-58205934D01*
X171975583Y-58000000D01*
X171955300Y-57794066D01*
X171895232Y-57596046D01*
X171797685Y-57413550D01*
X171719873Y-57318735D01*
X171666410Y-57253589D01*
X171506452Y-57122317D01*
X171506453Y-57122317D01*
X171506450Y-57122315D01*
X171323954Y-57024768D01*
X171125934Y-56964700D01*
X171125932Y-56964699D01*
X171125934Y-56964699D01*
X170920000Y-56944417D01*
X170714067Y-56964699D01*
X170516043Y-57024769D01*
X170411282Y-57080766D01*
X170333550Y-57122315D01*
X170333548Y-57122316D01*
X170333547Y-57122317D01*
X170173589Y-57253589D01*
X170042317Y-57413547D01*
X169944769Y-57596043D01*
X169884699Y-57794067D01*
X169864417Y-58000000D01*
X167432004Y-58000000D01*
X167500419Y-57853284D01*
X167500424Y-57853270D01*
X167549531Y-57670000D01*
X166685278Y-57670000D01*
X166733625Y-57586260D01*
X166763810Y-57454008D01*
X166753673Y-57318735D01*
X166704113Y-57192459D01*
X166686203Y-57170000D01*
X167549531Y-57170000D01*
X167549531Y-57169999D01*
X167500424Y-56986729D01*
X167500420Y-56986720D01*
X167407099Y-56786591D01*
X167407098Y-56786589D01*
X167280442Y-56605704D01*
X167124297Y-56449560D01*
X166943409Y-56322900D01*
X166943407Y-56322899D01*
X166743283Y-56229580D01*
X166560000Y-56180468D01*
X166560000Y-57045810D01*
X166507453Y-57009984D01*
X166377827Y-56970000D01*
X166276276Y-56970000D01*
X166175862Y-56985135D01*
X166060000Y-57040931D01*
X166060000Y-56180468D01*
X165876718Y-56229579D01*
X165676591Y-56322900D01*
X165676589Y-56322901D01*
X165495700Y-56449560D01*
X165339560Y-56605700D01*
X165212901Y-56786589D01*
X165212900Y-56786591D01*
X165119579Y-56986720D01*
X165119575Y-56986729D01*
X165070468Y-57169999D01*
X165070469Y-57170000D01*
X165934722Y-57170000D01*
X165886375Y-57253740D01*
X165856190Y-57385992D01*
X165866327Y-57521265D01*
X165915887Y-57647541D01*
X165933797Y-57670000D01*
X165070469Y-57670000D01*
X165119575Y-57853270D01*
X165119580Y-57853284D01*
X165212899Y-58053407D01*
X165212900Y-58053409D01*
X165339563Y-58234301D01*
X165495698Y-58390436D01*
X165676589Y-58517099D01*
X165805781Y-58577342D01*
X165858220Y-58623514D01*
X165877372Y-58690708D01*
X165857156Y-58757589D01*
X165805781Y-58802106D01*
X165676340Y-58862465D01*
X165676338Y-58862466D01*
X165495377Y-58989175D01*
X165339175Y-59145377D01*
X165212466Y-59326338D01*
X165212465Y-59326340D01*
X165119107Y-59526548D01*
X165119104Y-59526554D01*
X165061930Y-59739929D01*
X165061929Y-59739937D01*
X165042677Y-59959997D01*
X165042677Y-59960002D01*
X165061929Y-60180062D01*
X165061930Y-60180070D01*
X165119104Y-60393445D01*
X165119105Y-60393447D01*
X165119106Y-60393450D01*
X165145243Y-60449501D01*
X165212466Y-60593662D01*
X165212468Y-60593666D01*
X165339170Y-60774615D01*
X165339175Y-60774621D01*
X165495378Y-60930824D01*
X165495384Y-60930829D01*
X165676333Y-61057531D01*
X165676335Y-61057532D01*
X165676338Y-61057534D01*
X165781411Y-61106530D01*
X165805189Y-61117618D01*
X165857628Y-61163790D01*
X165876780Y-61230984D01*
X165856564Y-61297865D01*
X165805189Y-61342382D01*
X165676340Y-61402465D01*
X165676338Y-61402466D01*
X165495377Y-61529175D01*
X165339175Y-61685377D01*
X165212466Y-61866338D01*
X165212465Y-61866340D01*
X165151865Y-61996298D01*
X165124221Y-62055582D01*
X165119107Y-62066548D01*
X165119104Y-62066554D01*
X165061930Y-62279929D01*
X165061929Y-62279937D01*
X165042677Y-62499997D01*
X165042677Y-62500002D01*
X165061929Y-62720062D01*
X165061930Y-62720070D01*
X165119104Y-62933445D01*
X165119105Y-62933447D01*
X165119106Y-62933450D01*
X165195894Y-63098123D01*
X165212466Y-63133662D01*
X165212468Y-63133666D01*
X165339170Y-63314615D01*
X165339175Y-63314621D01*
X165495378Y-63470824D01*
X165495384Y-63470829D01*
X165676333Y-63597531D01*
X165676335Y-63597532D01*
X165676338Y-63597534D01*
X165795748Y-63653215D01*
X165805189Y-63657618D01*
X165857628Y-63703790D01*
X165876780Y-63770984D01*
X165856564Y-63837865D01*
X165805189Y-63882382D01*
X165676340Y-63942465D01*
X165676338Y-63942466D01*
X165495377Y-64069175D01*
X165339175Y-64225377D01*
X165212466Y-64406338D01*
X165212465Y-64406340D01*
X165119107Y-64606548D01*
X165119104Y-64606554D01*
X165061930Y-64819929D01*
X165061929Y-64819937D01*
X165042677Y-65039997D01*
X165042677Y-65040002D01*
X165061929Y-65260062D01*
X165061930Y-65260070D01*
X165119104Y-65473445D01*
X165119105Y-65473447D01*
X165119106Y-65473450D01*
X165189844Y-65625148D01*
X165212466Y-65673662D01*
X165212468Y-65673666D01*
X165339170Y-65854615D01*
X165339175Y-65854621D01*
X165495378Y-66010824D01*
X165495384Y-66010829D01*
X165676333Y-66137531D01*
X165676335Y-66137532D01*
X165676338Y-66137534D01*
X165795748Y-66193215D01*
X165805189Y-66197618D01*
X165857628Y-66243790D01*
X165876780Y-66310984D01*
X165856564Y-66377865D01*
X165805189Y-66422382D01*
X165676340Y-66482465D01*
X165676338Y-66482466D01*
X165495377Y-66609175D01*
X165339175Y-66765377D01*
X165212466Y-66946338D01*
X165212465Y-66946340D01*
X165119107Y-67146548D01*
X165119104Y-67146554D01*
X165061930Y-67359929D01*
X165061929Y-67359937D01*
X165042677Y-67579997D01*
X165042677Y-67580002D01*
X159957323Y-67580002D01*
X159957323Y-67580000D01*
X159938070Y-67359932D01*
X159880894Y-67146550D01*
X159787534Y-66946339D01*
X159704539Y-66827809D01*
X159660827Y-66765381D01*
X159641079Y-66745633D01*
X159504620Y-66609174D01*
X159504616Y-66609171D01*
X159504615Y-66609170D01*
X159323666Y-66482468D01*
X159323658Y-66482464D01*
X159194811Y-66422382D01*
X159142371Y-66376210D01*
X159123219Y-66309017D01*
X159143435Y-66242135D01*
X159194811Y-66197618D01*
X159200802Y-66194824D01*
X159323662Y-66137534D01*
X159504620Y-66010826D01*
X159660826Y-65854620D01*
X159787534Y-65673662D01*
X159880894Y-65473450D01*
X159938070Y-65260068D01*
X159957323Y-65040000D01*
X159953399Y-64995153D01*
X159947449Y-64927137D01*
X159938070Y-64819932D01*
X159880894Y-64606550D01*
X159787534Y-64406339D01*
X159677789Y-64249606D01*
X159660827Y-64225381D01*
X159586616Y-64151170D01*
X159504620Y-64069174D01*
X159504616Y-64069171D01*
X159504615Y-64069170D01*
X159323666Y-63942468D01*
X159323658Y-63942464D01*
X159194811Y-63882382D01*
X159142371Y-63836210D01*
X159123219Y-63769017D01*
X159143435Y-63702135D01*
X159194811Y-63657618D01*
X159200802Y-63654824D01*
X159323662Y-63597534D01*
X159504620Y-63470826D01*
X159660826Y-63314620D01*
X159787534Y-63133662D01*
X159880894Y-62933450D01*
X159938070Y-62720068D01*
X159957323Y-62500000D01*
X159938070Y-62279932D01*
X159880894Y-62066550D01*
X159787534Y-61866339D01*
X159660826Y-61685380D01*
X159504620Y-61529174D01*
X159504616Y-61529171D01*
X159504615Y-61529170D01*
X159323666Y-61402468D01*
X159323658Y-61402464D01*
X159194811Y-61342382D01*
X159142371Y-61296210D01*
X159123219Y-61229017D01*
X159143435Y-61162135D01*
X159194811Y-61117618D01*
X159218589Y-61106530D01*
X159323662Y-61057534D01*
X159504620Y-60930826D01*
X159660826Y-60774620D01*
X159787534Y-60593662D01*
X159880894Y-60393450D01*
X159938070Y-60180068D01*
X159955624Y-59979425D01*
X159957323Y-59960002D01*
X159957323Y-59959997D01*
X159948492Y-59859060D01*
X159938070Y-59739932D01*
X159880894Y-59526550D01*
X159787534Y-59326339D01*
X159660826Y-59145380D01*
X159504620Y-58989174D01*
X159504616Y-58989171D01*
X159504615Y-58989170D01*
X159388797Y-58908074D01*
X159345172Y-58853497D01*
X159337978Y-58783999D01*
X159369501Y-58721644D01*
X159429730Y-58686230D01*
X159459919Y-58682499D01*
X159499872Y-58682499D01*
X159559483Y-58676091D01*
X159694331Y-58625796D01*
X159809546Y-58539546D01*
X159895796Y-58424331D01*
X159946091Y-58289483D01*
X159952500Y-58229873D01*
X159952499Y-56610128D01*
X159946091Y-56550517D01*
X159895796Y-56415669D01*
X159895795Y-56415668D01*
X159895793Y-56415664D01*
X159809547Y-56300455D01*
X159809544Y-56300452D01*
X159694335Y-56214206D01*
X159694328Y-56214202D01*
X159559482Y-56163908D01*
X159559483Y-56163908D01*
X159499883Y-56157501D01*
X159499881Y-56157500D01*
X159499873Y-56157500D01*
X159499864Y-56157500D01*
X157880129Y-56157500D01*
X157880123Y-56157501D01*
X157820516Y-56163908D01*
X157685671Y-56214202D01*
X157685664Y-56214206D01*
X157570455Y-56300452D01*
X157570452Y-56300455D01*
X157484206Y-56415664D01*
X157484202Y-56415671D01*
X157433908Y-56550517D01*
X157427501Y-56610116D01*
X157427501Y-56610123D01*
X157427500Y-56610135D01*
X157427500Y-58229870D01*
X157427501Y-58229876D01*
X157433908Y-58289483D01*
X157484202Y-58424328D01*
X157484206Y-58424335D01*
X157570452Y-58539544D01*
X157570455Y-58539547D01*
X157685664Y-58625793D01*
X157685671Y-58625797D01*
X157820517Y-58676091D01*
X157820516Y-58676091D01*
X157827444Y-58676835D01*
X157880127Y-58682500D01*
X157920079Y-58682499D01*
X157987116Y-58702182D01*
X158032872Y-58754985D01*
X158042817Y-58824143D01*
X158013794Y-58887700D01*
X157991203Y-58908074D01*
X157875375Y-58989177D01*
X157719175Y-59145377D01*
X157592466Y-59326338D01*
X157592465Y-59326340D01*
X157499107Y-59526548D01*
X157499104Y-59526554D01*
X157441930Y-59739929D01*
X157441929Y-59739937D01*
X157422677Y-59959997D01*
X157422677Y-59960002D01*
X157441929Y-60180062D01*
X157441930Y-60180070D01*
X157499104Y-60393445D01*
X157499105Y-60393447D01*
X157499106Y-60393450D01*
X157525243Y-60449501D01*
X157592466Y-60593662D01*
X157592468Y-60593666D01*
X157719170Y-60774615D01*
X157719175Y-60774621D01*
X157875378Y-60930824D01*
X157875384Y-60930829D01*
X158056333Y-61057531D01*
X158056335Y-61057532D01*
X158056338Y-61057534D01*
X158161411Y-61106530D01*
X158185189Y-61117618D01*
X158237628Y-61163790D01*
X158256780Y-61230984D01*
X158236564Y-61297865D01*
X158185189Y-61342382D01*
X158056340Y-61402465D01*
X158056338Y-61402466D01*
X157875377Y-61529175D01*
X157719175Y-61685377D01*
X157592466Y-61866338D01*
X157592465Y-61866340D01*
X157531865Y-61996298D01*
X157504221Y-62055582D01*
X157499107Y-62066548D01*
X157499104Y-62066554D01*
X157441930Y-62279929D01*
X157441929Y-62279937D01*
X157422677Y-62499997D01*
X157422677Y-62500002D01*
X157441929Y-62720062D01*
X157441930Y-62720070D01*
X157499104Y-62933445D01*
X157499105Y-62933447D01*
X157499106Y-62933450D01*
X157575894Y-63098123D01*
X157592466Y-63133662D01*
X157592468Y-63133666D01*
X157719170Y-63314615D01*
X157719175Y-63314621D01*
X157875378Y-63470824D01*
X157875384Y-63470829D01*
X158056333Y-63597531D01*
X158056335Y-63597532D01*
X158056338Y-63597534D01*
X158175748Y-63653215D01*
X158185189Y-63657618D01*
X158237628Y-63703790D01*
X158256780Y-63770984D01*
X158236564Y-63837865D01*
X158185189Y-63882382D01*
X158056340Y-63942465D01*
X158056338Y-63942466D01*
X157875377Y-64069175D01*
X157719175Y-64225377D01*
X157592466Y-64406338D01*
X157592465Y-64406340D01*
X157499107Y-64606548D01*
X157499104Y-64606554D01*
X157441930Y-64819929D01*
X157441929Y-64819937D01*
X157422677Y-65039997D01*
X157422677Y-65040002D01*
X157441929Y-65260062D01*
X157441930Y-65260070D01*
X157499104Y-65473445D01*
X157499105Y-65473447D01*
X157499106Y-65473450D01*
X157569844Y-65625148D01*
X157592466Y-65673662D01*
X157592468Y-65673666D01*
X157719170Y-65854615D01*
X157719175Y-65854621D01*
X157875378Y-66010824D01*
X157875384Y-66010829D01*
X158056333Y-66137531D01*
X158056335Y-66137532D01*
X158056338Y-66137534D01*
X158175748Y-66193215D01*
X158185189Y-66197618D01*
X158237628Y-66243790D01*
X158256780Y-66310984D01*
X158236564Y-66377865D01*
X158185189Y-66422382D01*
X158056340Y-66482465D01*
X158056338Y-66482466D01*
X157875377Y-66609175D01*
X157719175Y-66765377D01*
X157592466Y-66946338D01*
X157592465Y-66946340D01*
X157499107Y-67146548D01*
X157499104Y-67146554D01*
X157441930Y-67359929D01*
X157441929Y-67359937D01*
X157422677Y-67579997D01*
X157422677Y-67580002D01*
X139525500Y-67580002D01*
X139525500Y-65460001D01*
X148994532Y-65460001D01*
X149014364Y-65686686D01*
X149014366Y-65686697D01*
X149073258Y-65906488D01*
X149073261Y-65906497D01*
X149169431Y-66112732D01*
X149169432Y-66112734D01*
X149299954Y-66299141D01*
X149460858Y-66460045D01*
X149492879Y-66482466D01*
X149647266Y-66590568D01*
X149853504Y-66686739D01*
X150073308Y-66745635D01*
X150235230Y-66759801D01*
X150299998Y-66765468D01*
X150300000Y-66765468D01*
X150300002Y-66765468D01*
X150356673Y-66760509D01*
X150526692Y-66745635D01*
X150746496Y-66686739D01*
X150952734Y-66590568D01*
X151139139Y-66460047D01*
X151300047Y-66299139D01*
X151430568Y-66112734D01*
X151526739Y-65906496D01*
X151585635Y-65686692D01*
X151605468Y-65460000D01*
X151585635Y-65233308D01*
X151526739Y-65013504D01*
X151430568Y-64807266D01*
X151300047Y-64620861D01*
X151300045Y-64620858D01*
X151139141Y-64459954D01*
X150952734Y-64329432D01*
X150952732Y-64329431D01*
X150746497Y-64233261D01*
X150746488Y-64233258D01*
X150526697Y-64174366D01*
X150526693Y-64174365D01*
X150526692Y-64174365D01*
X150526691Y-64174364D01*
X150526686Y-64174364D01*
X150300002Y-64154532D01*
X150299998Y-64154532D01*
X150073313Y-64174364D01*
X150073302Y-64174366D01*
X149853511Y-64233258D01*
X149853502Y-64233261D01*
X149647267Y-64329431D01*
X149647265Y-64329432D01*
X149460858Y-64459954D01*
X149299954Y-64620858D01*
X149169432Y-64807265D01*
X149169431Y-64807267D01*
X149073261Y-65013502D01*
X149073258Y-65013511D01*
X149014366Y-65233302D01*
X149014364Y-65233313D01*
X148994532Y-65459998D01*
X148994532Y-65460001D01*
X139525500Y-65460001D01*
X139525500Y-63082737D01*
X139527224Y-63067123D01*
X139526938Y-63067096D01*
X139527672Y-63059333D01*
X139527359Y-63049386D01*
X139525561Y-62992144D01*
X139525500Y-62988250D01*
X139525500Y-62960651D01*
X139525500Y-62960650D01*
X139524997Y-62956670D01*
X139524080Y-62945021D01*
X139523800Y-62936103D01*
X139522709Y-62901373D01*
X139517121Y-62882139D01*
X139513174Y-62863081D01*
X139510664Y-62843208D01*
X139510663Y-62843205D01*
X139494583Y-62802592D01*
X139490799Y-62791539D01*
X139478618Y-62749615D01*
X139478617Y-62749610D01*
X139468420Y-62732368D01*
X139459863Y-62714902D01*
X139452486Y-62696268D01*
X139426809Y-62660926D01*
X139420412Y-62651190D01*
X139398170Y-62613579D01*
X139398167Y-62613576D01*
X139398165Y-62613573D01*
X139384005Y-62599413D01*
X139371370Y-62584620D01*
X139359593Y-62568412D01*
X139325945Y-62540576D01*
X139317304Y-62532713D01*
X137900803Y-61116212D01*
X137890980Y-61103950D01*
X137890759Y-61104134D01*
X137885786Y-61098122D01*
X137836776Y-61052099D01*
X137833977Y-61049386D01*
X137814477Y-61029885D01*
X137814471Y-61029880D01*
X137811286Y-61027409D01*
X137802434Y-61019848D01*
X137770582Y-60989938D01*
X137770580Y-60989936D01*
X137770577Y-60989935D01*
X137753029Y-60980288D01*
X137736763Y-60969604D01*
X137720932Y-60957324D01*
X137680849Y-60939978D01*
X137670363Y-60934841D01*
X137632094Y-60913803D01*
X137632092Y-60913802D01*
X137612693Y-60908822D01*
X137594281Y-60902518D01*
X137575898Y-60894562D01*
X137575892Y-60894560D01*
X137532760Y-60887729D01*
X137521322Y-60885361D01*
X137479020Y-60874500D01*
X137479019Y-60874500D01*
X137458984Y-60874500D01*
X137439586Y-60872973D01*
X137432162Y-60871797D01*
X137419805Y-60869840D01*
X137419804Y-60869840D01*
X137376325Y-60873950D01*
X137364656Y-60874500D01*
X137092115Y-60874500D01*
X137025076Y-60854815D01*
X136979321Y-60802011D01*
X136975933Y-60793833D01*
X136943797Y-60707671D01*
X136943793Y-60707664D01*
X136857547Y-60592455D01*
X136852416Y-60587324D01*
X136818931Y-60526001D01*
X136823915Y-60456309D01*
X136852416Y-60411962D01*
X136857190Y-60407187D01*
X136943350Y-60292093D01*
X136943354Y-60292086D01*
X136993596Y-60157379D01*
X136993598Y-60157372D01*
X136999999Y-60097844D01*
X137000000Y-60097827D01*
X137000000Y-59750000D01*
X134715686Y-59750000D01*
X134727641Y-59738045D01*
X134785165Y-59625148D01*
X134804986Y-59500000D01*
X134785165Y-59374852D01*
X134727641Y-59261955D01*
X134715686Y-59250000D01*
X134750000Y-59250000D01*
X134750000Y-58450000D01*
X135250000Y-58450000D01*
X135250000Y-59250000D01*
X137000000Y-59250000D01*
X137000000Y-58902172D01*
X136999999Y-58902155D01*
X136993598Y-58842627D01*
X136993596Y-58842620D01*
X136943354Y-58707913D01*
X136943350Y-58707906D01*
X136857190Y-58592812D01*
X136857187Y-58592809D01*
X136853433Y-58589999D01*
X137646127Y-58589999D01*
X137646128Y-58590000D01*
X138491314Y-58590000D01*
X138465507Y-58630156D01*
X138425000Y-58768111D01*
X138425000Y-58911889D01*
X138465507Y-59049844D01*
X138491314Y-59090000D01*
X137646128Y-59090000D01*
X137698730Y-59286317D01*
X137698734Y-59286326D01*
X137794865Y-59492482D01*
X137925342Y-59678820D01*
X138086179Y-59839657D01*
X138272517Y-59970134D01*
X138478673Y-60066265D01*
X138478682Y-60066269D01*
X138674999Y-60118872D01*
X138675000Y-60118871D01*
X138675000Y-59275501D01*
X138782685Y-59324680D01*
X138889237Y-59340000D01*
X138960763Y-59340000D01*
X139067315Y-59324680D01*
X139175000Y-59275501D01*
X139175000Y-60118872D01*
X139371317Y-60066269D01*
X139371326Y-60066265D01*
X139577482Y-59970134D01*
X139763820Y-59839657D01*
X139924657Y-59678820D01*
X140055134Y-59492482D01*
X140151265Y-59286326D01*
X140151269Y-59286317D01*
X140203872Y-59090000D01*
X139358686Y-59090000D01*
X139384493Y-59049844D01*
X139425000Y-58911889D01*
X139425000Y-58790001D01*
X150519532Y-58790001D01*
X150539364Y-59016686D01*
X150539366Y-59016697D01*
X150598258Y-59236488D01*
X150598261Y-59236497D01*
X150694431Y-59442732D01*
X150694432Y-59442734D01*
X150824954Y-59629141D01*
X150985858Y-59790045D01*
X151007363Y-59805103D01*
X151172266Y-59920568D01*
X151378504Y-60016739D01*
X151378509Y-60016740D01*
X151378511Y-60016741D01*
X151431415Y-60030916D01*
X151598308Y-60075635D01*
X151760230Y-60089801D01*
X151824998Y-60095468D01*
X151825000Y-60095468D01*
X151825002Y-60095468D01*
X151881673Y-60090509D01*
X152051692Y-60075635D01*
X152271496Y-60016739D01*
X152477734Y-59920568D01*
X152664139Y-59790047D01*
X152825047Y-59629139D01*
X152955568Y-59442734D01*
X153051739Y-59236496D01*
X153110635Y-59016692D01*
X153130468Y-58790000D01*
X153128430Y-58766711D01*
X153123265Y-58707669D01*
X153110635Y-58563308D01*
X153051739Y-58343504D01*
X152955568Y-58137266D01*
X152825047Y-57950861D01*
X152825045Y-57950858D01*
X152664141Y-57789954D01*
X152477734Y-57659432D01*
X152477732Y-57659431D01*
X152271497Y-57563261D01*
X152271488Y-57563258D01*
X152051697Y-57504366D01*
X152051693Y-57504365D01*
X152051692Y-57504365D01*
X152051691Y-57504364D01*
X152051686Y-57504364D01*
X151825002Y-57484532D01*
X151824998Y-57484532D01*
X151598313Y-57504364D01*
X151598302Y-57504366D01*
X151378511Y-57563258D01*
X151378502Y-57563261D01*
X151172267Y-57659431D01*
X151172265Y-57659432D01*
X150985858Y-57789954D01*
X150824954Y-57950858D01*
X150694432Y-58137265D01*
X150694431Y-58137267D01*
X150598261Y-58343502D01*
X150598258Y-58343511D01*
X150539366Y-58563302D01*
X150539364Y-58563313D01*
X150519532Y-58789998D01*
X150519532Y-58790001D01*
X139425000Y-58790001D01*
X139425000Y-58768111D01*
X139384493Y-58630156D01*
X139358686Y-58590000D01*
X140203872Y-58590000D01*
X140203872Y-58589999D01*
X140151269Y-58393682D01*
X140151265Y-58393673D01*
X140055134Y-58187517D01*
X139924657Y-58001179D01*
X139763820Y-57840342D01*
X139577482Y-57709865D01*
X139371328Y-57613734D01*
X139175000Y-57561127D01*
X139175000Y-58404498D01*
X139067315Y-58355320D01*
X138960763Y-58340000D01*
X138889237Y-58340000D01*
X138782685Y-58355320D01*
X138675000Y-58404498D01*
X138675000Y-57561127D01*
X138478671Y-57613734D01*
X138272517Y-57709865D01*
X138086179Y-57840342D01*
X137925342Y-58001179D01*
X137794865Y-58187517D01*
X137698734Y-58393673D01*
X137698730Y-58393682D01*
X137646127Y-58589999D01*
X136853433Y-58589999D01*
X136742093Y-58506649D01*
X136742086Y-58506645D01*
X136607379Y-58456403D01*
X136607372Y-58456401D01*
X136547844Y-58450000D01*
X135250000Y-58450000D01*
X134750000Y-58450000D01*
X133452155Y-58450000D01*
X133392627Y-58456401D01*
X133392620Y-58456403D01*
X133257913Y-58506645D01*
X133257906Y-58506649D01*
X133142812Y-58592809D01*
X133142809Y-58592812D01*
X133056649Y-58707906D01*
X133056645Y-58707913D01*
X133006403Y-58842620D01*
X133006401Y-58842627D01*
X133000000Y-58902155D01*
X133000000Y-59250000D01*
X134084314Y-59250000D01*
X134072359Y-59261955D01*
X134014835Y-59374852D01*
X133995014Y-59500000D01*
X134014835Y-59625148D01*
X134072359Y-59738045D01*
X134084314Y-59750000D01*
X133000000Y-59750000D01*
X133000000Y-60097844D01*
X133006401Y-60157372D01*
X133006403Y-60157379D01*
X133056645Y-60292086D01*
X133056649Y-60292093D01*
X133142809Y-60407187D01*
X133147584Y-60411962D01*
X133181069Y-60473285D01*
X133176085Y-60542977D01*
X133147584Y-60587324D01*
X133142452Y-60592455D01*
X133056206Y-60707664D01*
X133056202Y-60707671D01*
X133005908Y-60842517D01*
X133000313Y-60894562D01*
X132999501Y-60902123D01*
X132999500Y-60902135D01*
X132999500Y-62097870D01*
X132999501Y-62097876D01*
X133005908Y-62157483D01*
X133056202Y-62292328D01*
X133056206Y-62292335D01*
X133142452Y-62407544D01*
X133147227Y-62412319D01*
X133180712Y-62473642D01*
X133175728Y-62543334D01*
X133147227Y-62587681D01*
X133142452Y-62592455D01*
X133056206Y-62707664D01*
X133056202Y-62707671D01*
X133005908Y-62842517D01*
X132999581Y-62901371D01*
X132999501Y-62902123D01*
X132999500Y-62902135D01*
X132999500Y-64097870D01*
X132999501Y-64097876D01*
X133005908Y-64157483D01*
X133056202Y-64292328D01*
X133056206Y-64292335D01*
X133142452Y-64407544D01*
X133147227Y-64412319D01*
X133180712Y-64473642D01*
X133175728Y-64543334D01*
X133147227Y-64587681D01*
X133142452Y-64592455D01*
X133056206Y-64707664D01*
X133056202Y-64707671D01*
X133005908Y-64842517D01*
X133001730Y-64881382D01*
X132999501Y-64902123D01*
X132999500Y-64902135D01*
X132999500Y-66097870D01*
X132999501Y-66097876D01*
X133005908Y-66157483D01*
X133056202Y-66292328D01*
X133056206Y-66292335D01*
X133142452Y-66407544D01*
X133142455Y-66407547D01*
X133257664Y-66493793D01*
X133257671Y-66493797D01*
X133392517Y-66544091D01*
X133392516Y-66544091D01*
X133399444Y-66544835D01*
X133452127Y-66550500D01*
X136547872Y-66550499D01*
X136607483Y-66544091D01*
X136742331Y-66493796D01*
X136857546Y-66407546D01*
X136943796Y-66292331D01*
X136994091Y-66157483D01*
X137000500Y-66097873D01*
X137000499Y-64902128D01*
X136994091Y-64842517D01*
X136985669Y-64819937D01*
X136943797Y-64707671D01*
X136943793Y-64707664D01*
X136857547Y-64592455D01*
X136852773Y-64587681D01*
X136819288Y-64526358D01*
X136824272Y-64456666D01*
X136852773Y-64412319D01*
X136857542Y-64407548D01*
X136857546Y-64407546D01*
X136943796Y-64292331D01*
X136994091Y-64157483D01*
X137000500Y-64097873D01*
X137000499Y-62902128D01*
X136994091Y-62842517D01*
X136977172Y-62797156D01*
X136943797Y-62707671D01*
X136943793Y-62707664D01*
X136857547Y-62592455D01*
X136852773Y-62587681D01*
X136819288Y-62526358D01*
X136824272Y-62456666D01*
X136852773Y-62412319D01*
X136857542Y-62407548D01*
X136857546Y-62407546D01*
X136943796Y-62292331D01*
X136975236Y-62208037D01*
X137017107Y-62152103D01*
X137082571Y-62127686D01*
X137150844Y-62142538D01*
X137179099Y-62163689D01*
X138238181Y-63222771D01*
X138271666Y-63284094D01*
X138274500Y-63310452D01*
X138274500Y-72017255D01*
X138272775Y-72032872D01*
X138273061Y-72032899D01*
X138272326Y-72040665D01*
X138274439Y-72107872D01*
X138274500Y-72111767D01*
X138274500Y-72139357D01*
X138275003Y-72143335D01*
X138275918Y-72154967D01*
X138277290Y-72198624D01*
X138277291Y-72198627D01*
X138282880Y-72217867D01*
X138286824Y-72236911D01*
X138288025Y-72246410D01*
X138289336Y-72256792D01*
X138305414Y-72297403D01*
X138309197Y-72308452D01*
X138317834Y-72338181D01*
X138321382Y-72350390D01*
X138325038Y-72356573D01*
X138331580Y-72367634D01*
X138340138Y-72385103D01*
X138347514Y-72403732D01*
X138373181Y-72439060D01*
X138379593Y-72448821D01*
X138401828Y-72486417D01*
X138401833Y-72486424D01*
X138415990Y-72500580D01*
X138428627Y-72515375D01*
X138440406Y-72531587D01*
X138469411Y-72555582D01*
X138474057Y-72559425D01*
X138482698Y-72567288D01*
X139703228Y-73787819D01*
X139736713Y-73849142D01*
X139731729Y-73918834D01*
X139689857Y-73974767D01*
X139624393Y-73999184D01*
X139615547Y-73999500D01*
X126124500Y-73999500D01*
X126057461Y-73979815D01*
X126011706Y-73927011D01*
X126000500Y-73875500D01*
X126000500Y-66493933D01*
X130445668Y-66493933D01*
X130474850Y-66659425D01*
X130476135Y-66666711D01*
X130545623Y-66827804D01*
X130545624Y-66827806D01*
X130545626Y-66827809D01*
X130633869Y-66946339D01*
X130650390Y-66968530D01*
X130784786Y-67081302D01*
X130855562Y-67116847D01*
X130941562Y-67160038D01*
X130941563Y-67160038D01*
X130941567Y-67160040D01*
X131112279Y-67200500D01*
X131112282Y-67200500D01*
X131243701Y-67200500D01*
X131243709Y-67200500D01*
X131374255Y-67185241D01*
X131539117Y-67125237D01*
X131685696Y-67028830D01*
X131806092Y-66901218D01*
X131893812Y-66749281D01*
X131944130Y-66581210D01*
X131954331Y-66406065D01*
X131923865Y-66233289D01*
X131854377Y-66072196D01*
X131749610Y-65931470D01*
X131731060Y-65915905D01*
X131615214Y-65818698D01*
X131615212Y-65818697D01*
X131458437Y-65739961D01*
X131450353Y-65738045D01*
X131287721Y-65699500D01*
X131156291Y-65699500D01*
X131051854Y-65711707D01*
X131025743Y-65714759D01*
X131025740Y-65714760D01*
X130860884Y-65774762D01*
X130860880Y-65774764D01*
X130714306Y-65871167D01*
X130714305Y-65871168D01*
X130593910Y-65998778D01*
X130506188Y-66150718D01*
X130455870Y-66318789D01*
X130455869Y-66318794D01*
X130445668Y-66493933D01*
X126000500Y-66493933D01*
X126000500Y-58593933D01*
X130445668Y-58593933D01*
X130465767Y-58707913D01*
X130476135Y-58766711D01*
X130545623Y-58927804D01*
X130545624Y-58927806D01*
X130545626Y-58927809D01*
X130640751Y-59055583D01*
X130650390Y-59068530D01*
X130784786Y-59181302D01*
X130841027Y-59209547D01*
X130941562Y-59260038D01*
X130941563Y-59260038D01*
X130941567Y-59260040D01*
X131112279Y-59300500D01*
X131112282Y-59300500D01*
X131243701Y-59300500D01*
X131243709Y-59300500D01*
X131374255Y-59285241D01*
X131539117Y-59225237D01*
X131685696Y-59128830D01*
X131806092Y-59001218D01*
X131893812Y-58849281D01*
X131944130Y-58681210D01*
X131954331Y-58506065D01*
X131923865Y-58333289D01*
X131854377Y-58172196D01*
X131828373Y-58137267D01*
X131765943Y-58053409D01*
X131749610Y-58031470D01*
X131712104Y-57999999D01*
X131615214Y-57918698D01*
X131615212Y-57918697D01*
X131458437Y-57839961D01*
X131416476Y-57830016D01*
X131287721Y-57799500D01*
X131156291Y-57799500D01*
X131051854Y-57811707D01*
X131025743Y-57814759D01*
X131025740Y-57814760D01*
X130860884Y-57874762D01*
X130860880Y-57874764D01*
X130714306Y-57971167D01*
X130714305Y-57971168D01*
X130593910Y-58098778D01*
X130506188Y-58250718D01*
X130455870Y-58418789D01*
X130455869Y-58418794D01*
X130445668Y-58593933D01*
X126000500Y-58593933D01*
X126000500Y-53760001D01*
X137619532Y-53760001D01*
X137639364Y-53986686D01*
X137639366Y-53986697D01*
X137698258Y-54206488D01*
X137698261Y-54206497D01*
X137794431Y-54412732D01*
X137794432Y-54412734D01*
X137924954Y-54599141D01*
X138085858Y-54760045D01*
X138085861Y-54760047D01*
X138272266Y-54890568D01*
X138478504Y-54986739D01*
X138478509Y-54986740D01*
X138478511Y-54986741D01*
X138515004Y-54996519D01*
X138698308Y-55045635D01*
X138860230Y-55059801D01*
X138924998Y-55065468D01*
X138925000Y-55065468D01*
X138925002Y-55065468D01*
X138981673Y-55060509D01*
X139151692Y-55045635D01*
X139371496Y-54986739D01*
X139577734Y-54890568D01*
X139764139Y-54760047D01*
X139925047Y-54599139D01*
X140055568Y-54412734D01*
X140151739Y-54206496D01*
X140188702Y-54068547D01*
X143171500Y-54068547D01*
X143176302Y-54117306D01*
X143186091Y-54216699D01*
X143243760Y-54406808D01*
X143337401Y-54581998D01*
X143337405Y-54582005D01*
X143463431Y-54735568D01*
X143616994Y-54861594D01*
X143617001Y-54861598D01*
X143792191Y-54955239D01*
X143792193Y-54955239D01*
X143792196Y-54955241D01*
X143982299Y-55012908D01*
X143982298Y-55012908D01*
X144000024Y-55014653D01*
X144180000Y-55032380D01*
X144377701Y-55012908D01*
X144567804Y-54955241D01*
X144743004Y-54861595D01*
X144743010Y-54861589D01*
X144746552Y-54859224D01*
X144813227Y-54838339D01*
X144880609Y-54856817D01*
X144884349Y-54859220D01*
X144887283Y-54861180D01*
X145062384Y-54954774D01*
X145199999Y-54996519D01*
X145200000Y-54996519D01*
X145200000Y-54089737D01*
X145208146Y-54097883D01*
X145322850Y-54156327D01*
X145418015Y-54171400D01*
X145481985Y-54171400D01*
X145577150Y-54156327D01*
X145691854Y-54097883D01*
X145700000Y-54089737D01*
X145700000Y-54996519D01*
X145837617Y-54954773D01*
X145843239Y-54952445D01*
X145844314Y-54955040D01*
X145900885Y-54943216D01*
X145965341Y-54967556D01*
X145969669Y-54970796D01*
X145969671Y-54970797D01*
X146104517Y-55021091D01*
X146104516Y-55021091D01*
X146111444Y-55021835D01*
X146164127Y-55027500D01*
X147275872Y-55027499D01*
X147335483Y-55021091D01*
X147392031Y-55000000D01*
X169864417Y-55000000D01*
X169884699Y-55205932D01*
X169884700Y-55205934D01*
X169944768Y-55403954D01*
X170042315Y-55586450D01*
X170042317Y-55586452D01*
X170173589Y-55746410D01*
X170221263Y-55785534D01*
X170333550Y-55877685D01*
X170516046Y-55975232D01*
X170714066Y-56035300D01*
X170714065Y-56035300D01*
X170732529Y-56037118D01*
X170920000Y-56055583D01*
X171125934Y-56035300D01*
X171323954Y-55975232D01*
X171506450Y-55877685D01*
X171666410Y-55746410D01*
X171797685Y-55586450D01*
X171895232Y-55403954D01*
X171955300Y-55205934D01*
X171975583Y-55000000D01*
X171955300Y-54794066D01*
X171895232Y-54596046D01*
X171797685Y-54413550D01*
X171668046Y-54255583D01*
X171666410Y-54253589D01*
X171506452Y-54122317D01*
X171506453Y-54122317D01*
X171506450Y-54122315D01*
X171323954Y-54024768D01*
X171125934Y-53964700D01*
X171125932Y-53964699D01*
X171125934Y-53964699D01*
X170920000Y-53944417D01*
X170714067Y-53964699D01*
X170516043Y-54024769D01*
X170434149Y-54068543D01*
X170333550Y-54122315D01*
X170333548Y-54122316D01*
X170333547Y-54122317D01*
X170173589Y-54253589D01*
X170042317Y-54413547D01*
X169944769Y-54596043D01*
X169884699Y-54794067D01*
X169864417Y-55000000D01*
X147392031Y-55000000D01*
X147470331Y-54970796D01*
X147585546Y-54884546D01*
X147671796Y-54769331D01*
X147722091Y-54634483D01*
X147728500Y-54574873D01*
X147728499Y-53459999D01*
X150546127Y-53459999D01*
X150546128Y-53460000D01*
X151391314Y-53460000D01*
X151365507Y-53500156D01*
X151325000Y-53638111D01*
X151325000Y-53781889D01*
X151365507Y-53919844D01*
X151391314Y-53960000D01*
X150546128Y-53960000D01*
X150598730Y-54156317D01*
X150598734Y-54156326D01*
X150694865Y-54362482D01*
X150825342Y-54548820D01*
X150986179Y-54709657D01*
X151172517Y-54840134D01*
X151378673Y-54936265D01*
X151378682Y-54936269D01*
X151574999Y-54988872D01*
X151575000Y-54988871D01*
X151575000Y-54145501D01*
X151682685Y-54194680D01*
X151789237Y-54210000D01*
X151860763Y-54210000D01*
X151967315Y-54194680D01*
X152075000Y-54145501D01*
X152075000Y-54988872D01*
X152271317Y-54936269D01*
X152271326Y-54936265D01*
X152477482Y-54840134D01*
X152663820Y-54709657D01*
X152824657Y-54548820D01*
X152955134Y-54362482D01*
X153051265Y-54156326D01*
X153051269Y-54156317D01*
X153103872Y-53960000D01*
X152258686Y-53960000D01*
X152284493Y-53919844D01*
X152325000Y-53781889D01*
X152325000Y-53638111D01*
X152284493Y-53500156D01*
X152258686Y-53460000D01*
X153103872Y-53460000D01*
X153103872Y-53459999D01*
X153051269Y-53263682D01*
X153051265Y-53263673D01*
X153021574Y-53200000D01*
X157864416Y-53200000D01*
X157884698Y-53405932D01*
X157901540Y-53461453D01*
X157944767Y-53603954D01*
X158042314Y-53786450D01*
X158042316Y-53786452D01*
X158173588Y-53946410D01*
X158269069Y-54024768D01*
X158333549Y-54077685D01*
X158516045Y-54175232D01*
X158714065Y-54235300D01*
X158714064Y-54235300D01*
X158732528Y-54237118D01*
X158919999Y-54255583D01*
X159125933Y-54235300D01*
X159323953Y-54175232D01*
X159506449Y-54077685D01*
X159666409Y-53946410D01*
X159797684Y-53786450D01*
X159895231Y-53603954D01*
X159955299Y-53405934D01*
X159975582Y-53200000D01*
X168024416Y-53200000D01*
X168044698Y-53405932D01*
X168061540Y-53461453D01*
X168104767Y-53603954D01*
X168202314Y-53786450D01*
X168202316Y-53786452D01*
X168333588Y-53946410D01*
X168429069Y-54024768D01*
X168493549Y-54077685D01*
X168676045Y-54175232D01*
X168874065Y-54235300D01*
X168874064Y-54235300D01*
X168892528Y-54237118D01*
X169079999Y-54255583D01*
X169285933Y-54235300D01*
X169483953Y-54175232D01*
X169666449Y-54077685D01*
X169826409Y-53946410D01*
X169957684Y-53786450D01*
X170055231Y-53603954D01*
X170115299Y-53405934D01*
X170135582Y-53200000D01*
X170115299Y-52994066D01*
X170055231Y-52796046D01*
X169957684Y-52613550D01*
X169891793Y-52533261D01*
X169826409Y-52453589D01*
X169666451Y-52322317D01*
X169666452Y-52322317D01*
X169666449Y-52322315D01*
X169483953Y-52224768D01*
X169285933Y-52164700D01*
X169285931Y-52164699D01*
X169285933Y-52164699D01*
X169079999Y-52144417D01*
X168874066Y-52164699D01*
X168676042Y-52224769D01*
X168565897Y-52283643D01*
X168493549Y-52322315D01*
X168493547Y-52322316D01*
X168493546Y-52322317D01*
X168333588Y-52453589D01*
X168202316Y-52613547D01*
X168202314Y-52613550D01*
X168171235Y-52671695D01*
X168104768Y-52796043D01*
X168044698Y-52994067D01*
X168024416Y-53200000D01*
X159975582Y-53200000D01*
X159955299Y-52994066D01*
X159895231Y-52796046D01*
X159797684Y-52613550D01*
X159731793Y-52533261D01*
X159666409Y-52453589D01*
X159506451Y-52322317D01*
X159506452Y-52322317D01*
X159506449Y-52322315D01*
X159323953Y-52224768D01*
X159125933Y-52164700D01*
X159125931Y-52164699D01*
X159125933Y-52164699D01*
X158919999Y-52144417D01*
X158714066Y-52164699D01*
X158516042Y-52224769D01*
X158405897Y-52283643D01*
X158333549Y-52322315D01*
X158333547Y-52322316D01*
X158333546Y-52322317D01*
X158173588Y-52453589D01*
X158042316Y-52613547D01*
X158042314Y-52613550D01*
X158011235Y-52671695D01*
X157944768Y-52796043D01*
X157884698Y-52994067D01*
X157864416Y-53200000D01*
X153021574Y-53200000D01*
X152955134Y-53057517D01*
X152824657Y-52871179D01*
X152663820Y-52710342D01*
X152477482Y-52579865D01*
X152271328Y-52483734D01*
X152075000Y-52431127D01*
X152075000Y-53274498D01*
X151967315Y-53225320D01*
X151860763Y-53210000D01*
X151789237Y-53210000D01*
X151682685Y-53225320D01*
X151575000Y-53274498D01*
X151575000Y-52431127D01*
X151378671Y-52483734D01*
X151172517Y-52579865D01*
X150986179Y-52710342D01*
X150825342Y-52871179D01*
X150694865Y-53057517D01*
X150598734Y-53263673D01*
X150598730Y-53263682D01*
X150546127Y-53459999D01*
X147728499Y-53459999D01*
X147728499Y-52955128D01*
X147722091Y-52895517D01*
X147684388Y-52794431D01*
X147671797Y-52760671D01*
X147671793Y-52760664D01*
X147585547Y-52645455D01*
X147585544Y-52645452D01*
X147470335Y-52559206D01*
X147470328Y-52559202D01*
X147335482Y-52508908D01*
X147335483Y-52508908D01*
X147275883Y-52502501D01*
X147275881Y-52502500D01*
X147275873Y-52502500D01*
X147275864Y-52502500D01*
X146164129Y-52502500D01*
X146164123Y-52502501D01*
X146104516Y-52508908D01*
X145969671Y-52559202D01*
X145969668Y-52559204D01*
X145965336Y-52562447D01*
X145899870Y-52586860D01*
X145844272Y-52575071D01*
X145843243Y-52577556D01*
X145837614Y-52575224D01*
X145700000Y-52533478D01*
X145700000Y-53440263D01*
X145691854Y-53432117D01*
X145577150Y-53373673D01*
X145481985Y-53358600D01*
X145418015Y-53358600D01*
X145322850Y-53373673D01*
X145208146Y-53432117D01*
X145200000Y-53440263D01*
X145200000Y-52533478D01*
X145062387Y-52575224D01*
X144887281Y-52668820D01*
X144884343Y-52670784D01*
X144882569Y-52671339D01*
X144881904Y-52671695D01*
X144881836Y-52671568D01*
X144817665Y-52691661D01*
X144750285Y-52673176D01*
X144746557Y-52670780D01*
X144743010Y-52668410D01*
X144743004Y-52668405D01*
X144742995Y-52668400D01*
X144567808Y-52574760D01*
X144472752Y-52545925D01*
X144377701Y-52517092D01*
X144377699Y-52517091D01*
X144377701Y-52517091D01*
X144180000Y-52497620D01*
X143982300Y-52517091D01*
X143792191Y-52574760D01*
X143617001Y-52668401D01*
X143616994Y-52668405D01*
X143463431Y-52794431D01*
X143337405Y-52947994D01*
X143337401Y-52948001D01*
X143243760Y-53123191D01*
X143186091Y-53313300D01*
X143179601Y-53379202D01*
X143171500Y-53461453D01*
X143171500Y-54068547D01*
X140188702Y-54068547D01*
X140210635Y-53986692D01*
X140230468Y-53760000D01*
X140210635Y-53533308D01*
X140151739Y-53313504D01*
X140055568Y-53107266D01*
X139957839Y-52967693D01*
X139925045Y-52920858D01*
X139764141Y-52759954D01*
X139577734Y-52629432D01*
X139577732Y-52629431D01*
X139371497Y-52533261D01*
X139371488Y-52533258D01*
X139151697Y-52474366D01*
X139151693Y-52474365D01*
X139151692Y-52474365D01*
X139151691Y-52474364D01*
X139151686Y-52474364D01*
X138925002Y-52454532D01*
X138924998Y-52454532D01*
X138698313Y-52474364D01*
X138698302Y-52474366D01*
X138478511Y-52533258D01*
X138478502Y-52533261D01*
X138272267Y-52629431D01*
X138272265Y-52629432D01*
X138085858Y-52759954D01*
X137924954Y-52920858D01*
X137794432Y-53107265D01*
X137794431Y-53107267D01*
X137698261Y-53313502D01*
X137698258Y-53313511D01*
X137639366Y-53533302D01*
X137639364Y-53533313D01*
X137619532Y-53759998D01*
X137619532Y-53760001D01*
X126000500Y-53760001D01*
X126000500Y-51124500D01*
X126020185Y-51057461D01*
X126072989Y-51011706D01*
X126124500Y-51000500D01*
X193875500Y-51000500D01*
X193942539Y-51020185D01*
G37*
%TD.AperFunction*%
%TA.AperFunction,Conductor*%
G36*
X185193039Y-65269685D02*
G01*
X185238794Y-65322489D01*
X185239608Y-65326231D01*
X185214835Y-65374852D01*
X185195014Y-65500000D01*
X185214835Y-65625148D01*
X185250000Y-65694163D01*
X185250000Y-66550000D01*
X186547828Y-66550000D01*
X186547844Y-66549999D01*
X186607372Y-66543598D01*
X186607379Y-66543596D01*
X186742086Y-66493354D01*
X186742093Y-66493350D01*
X186857187Y-66407190D01*
X186862819Y-66401559D01*
X186924142Y-66368074D01*
X186993834Y-66373058D01*
X187049767Y-66414930D01*
X187074184Y-66480394D01*
X187074500Y-66489240D01*
X187074500Y-70864547D01*
X187054815Y-70931586D01*
X187038181Y-70952228D01*
X184777228Y-73213181D01*
X184715905Y-73246666D01*
X184689547Y-73249500D01*
X182434452Y-73249500D01*
X182367413Y-73229815D01*
X182321658Y-73177011D01*
X182311714Y-73107853D01*
X182340739Y-73044297D01*
X182346771Y-73037819D01*
X183083788Y-72300801D01*
X183096042Y-72290986D01*
X183095859Y-72290764D01*
X183101868Y-72285791D01*
X183101877Y-72285786D01*
X183147949Y-72236722D01*
X183150566Y-72234023D01*
X183170120Y-72214471D01*
X183172576Y-72211303D01*
X183180156Y-72202427D01*
X183210062Y-72170582D01*
X183219713Y-72153024D01*
X183230396Y-72136761D01*
X183242673Y-72120936D01*
X183260021Y-72080844D01*
X183265151Y-72070371D01*
X183286197Y-72032092D01*
X183291180Y-72012680D01*
X183297481Y-71994280D01*
X183305437Y-71975896D01*
X183312270Y-71932748D01*
X183314633Y-71921338D01*
X183325500Y-71879019D01*
X183325500Y-71858983D01*
X183327027Y-71839582D01*
X183330160Y-71819804D01*
X183326050Y-71776324D01*
X183325500Y-71764655D01*
X183325500Y-66674000D01*
X183345185Y-66606961D01*
X183397989Y-66561206D01*
X183449500Y-66550000D01*
X184750000Y-66550000D01*
X184750000Y-65374000D01*
X184769685Y-65306961D01*
X184822489Y-65261206D01*
X184874000Y-65250000D01*
X185126000Y-65250000D01*
X185193039Y-65269685D01*
G37*
%TD.AperFunction*%
%TA.AperFunction,Conductor*%
G36*
X180781261Y-58027491D02*
G01*
X180780643Y-58026358D01*
X180780866Y-58023227D01*
X180781261Y-58027491D01*
G37*
%TD.AperFunction*%
%TD*%
M02*
