%TF.GenerationSoftware,KiCad,Pcbnew,7.0.10*%
%TF.CreationDate,2024-03-29T17:01:24+09:00*%
%TF.ProjectId,HD-AK4316,48442d41-4b34-4333-9136-2e6b69636164,rev?*%
%TF.SameCoordinates,Original*%
%TF.FileFunction,Copper,L1,Top*%
%TF.FilePolarity,Positive*%
%FSLAX46Y46*%
G04 Gerber Fmt 4.6, Leading zero omitted, Abs format (unit mm)*
G04 Created by KiCad (PCBNEW 7.0.10) date 2024-03-29 17:01:24*
%MOMM*%
%LPD*%
G01*
G04 APERTURE LIST*
%TA.AperFunction,ComponentPad*%
%ADD10C,1.100000*%
%TD*%
%TA.AperFunction,SMDPad,CuDef*%
%ADD11R,0.800000X0.800000*%
%TD*%
%TA.AperFunction,ComponentPad*%
%ADD12R,1.524000X1.524000*%
%TD*%
%TA.AperFunction,ComponentPad*%
%ADD13C,1.524000*%
%TD*%
%TA.AperFunction,ComponentPad*%
%ADD14R,1.016000X1.524000*%
%TD*%
%TA.AperFunction,ComponentPad*%
%ADD15O,1.016000X1.524000*%
%TD*%
%TA.AperFunction,ComponentPad*%
%ADD16C,1.600000*%
%TD*%
%TA.AperFunction,SMDPad,CuDef*%
%ADD17R,3.800000X1.500000*%
%TD*%
%TA.AperFunction,ComponentPad*%
%ADD18R,3.000000X1.100000*%
%TD*%
%TA.AperFunction,SMDPad,CuDef*%
%ADD19R,1.100000X0.600000*%
%TD*%
%TA.AperFunction,ViaPad*%
%ADD20C,0.800000*%
%TD*%
%TA.AperFunction,Conductor*%
%ADD21C,0.250000*%
%TD*%
G04 APERTURE END LIST*
D10*
%TO.P,R7,1,1*%
%TO.N,+3V3*%
X181080000Y-55000000D03*
%TO.P,R7,2,2*%
%TO.N,Net-(U1-XORH)*%
X170920000Y-55000000D03*
%TD*%
D11*
%TO.P,C6,1,1*%
%TO.N,+3V3*%
X149300000Y-61500000D03*
%TO.P,C6,2,2*%
%TO.N,GND*%
X147700000Y-61500000D03*
%TD*%
D10*
%TO.P,R11,1,1*%
%TO.N,Net-(U1-XORH)*%
X170920000Y-58000000D03*
%TO.P,R11,2,2*%
%TO.N,GND*%
X181080000Y-58000000D03*
%TD*%
D12*
%TO.P,U1,1,VCC*%
%TO.N,+3V3*%
X158690000Y-57420000D03*
D13*
%TO.P,U1,2,EN*%
X158690000Y-59960000D03*
%TO.P,U1,3,READY*%
%TO.N,Net-(U1-READY)*%
X158690000Y-62500000D03*
%TO.P,U1,4,SCLIN*%
%TO.N,Net-(U1-SCLIN)*%
X158690000Y-65040000D03*
%TO.P,U1,5,SDAIN*%
%TO.N,Net-(U1-SDAIN)*%
X158690000Y-67580000D03*
%TO.P,U1,6,SDAOUT*%
%TO.N,Net-(U1-SDAOUT)*%
X166310000Y-67580000D03*
%TO.P,U1,7,SCLOUT*%
%TO.N,Net-(U1-SCLOUT)*%
X166310000Y-65040000D03*
%TO.P,U1,8,XORL*%
%TO.N,Net-(U1-XORL)*%
X166310000Y-62500000D03*
%TO.P,U1,9,XORH*%
%TO.N,Net-(U1-XORH)*%
X166310000Y-59960000D03*
%TO.P,U1,10,GND*%
%TO.N,GND*%
X166310000Y-57420000D03*
%TD*%
D14*
%TO.P,U3,1,OUT*%
%TO.N,+3V3*%
X146720000Y-53765000D03*
D15*
%TO.P,U3,2,GND*%
%TO.N,GND*%
X145450000Y-53765000D03*
%TO.P,U3,3,IN*%
%TO.N,+5V*%
X144180000Y-53765000D03*
%TD*%
D10*
%TO.P,R1,1,1*%
%TO.N,+3V3*%
X158919999Y-53200000D03*
%TO.P,R1,2,2*%
%TO.N,Net-(U1-READY)*%
X169079999Y-53200000D03*
%TD*%
D11*
%TO.P,R4,1,1*%
%TO.N,+3V3*%
X176800000Y-68500000D03*
%TO.P,R4,2,2*%
%TO.N,Net-(U1-SCLOUT)*%
X175200000Y-68500000D03*
%TD*%
%TO.P,R8,1,1*%
%TO.N,+3V3*%
X176800000Y-55000000D03*
%TO.P,R8,2,2*%
%TO.N,Net-(U1-XORH)*%
X175200000Y-55000000D03*
%TD*%
%TO.P,R10,1,1*%
%TO.N,+3V3*%
X176800000Y-61000000D03*
%TO.P,R10,2,2*%
%TO.N,Net-(U1-XORL)*%
X175200000Y-61000000D03*
%TD*%
D16*
%TO.P,C1,1,1*%
%TO.N,+5V*%
X138925000Y-53760000D03*
%TO.P,C1,2,2*%
%TO.N,GND*%
X138925000Y-58840000D03*
%TD*%
D10*
%TO.P,R9,1,1*%
%TO.N,+3V3*%
X181080000Y-61000000D03*
%TO.P,R9,2,2*%
%TO.N,Net-(U1-XORL)*%
X170920000Y-61000000D03*
%TD*%
D17*
%TO.P,CN1,*%
%TO.N,*%
X127900000Y-57350000D03*
X127900000Y-67650000D03*
D18*
%TO.P,CN1,1,1*%
%TO.N,Net-(U1-SCLIN)*%
X135000000Y-65500000D03*
%TO.P,CN1,2,2*%
%TO.N,Net-(U1-SDAIN)*%
X135000000Y-63500000D03*
%TO.P,CN1,3,3*%
%TO.N,+5V*%
X135000000Y-61500000D03*
%TO.P,CN1,4,4*%
%TO.N,GND*%
X135000000Y-59500000D03*
%TD*%
D11*
%TO.P,C2,1,1*%
%TO.N,+5V*%
X141700000Y-61500000D03*
%TO.P,C2,2,2*%
%TO.N,GND*%
X143300000Y-61500000D03*
%TD*%
D17*
%TO.P,CN2,*%
%TO.N,*%
X192100000Y-67650000D03*
X192100000Y-57350000D03*
D18*
%TO.P,CN2,1,1*%
%TO.N,Net-(U1-SCLOUT)*%
X185000000Y-59500000D03*
%TO.P,CN2,2,2*%
%TO.N,Net-(U1-SDAOUT)*%
X185000000Y-61500000D03*
%TO.P,CN2,3,3*%
%TO.N,+5V*%
X185000000Y-63500000D03*
%TO.P,CN2,4,4*%
%TO.N,GND*%
X185000000Y-65500000D03*
%TD*%
D16*
%TO.P,C5,1,1*%
%TO.N,+3V3*%
X151825000Y-58790000D03*
%TO.P,C5,2,2*%
%TO.N,GND*%
X151825000Y-53710000D03*
%TD*%
D11*
%TO.P,C4,1,1*%
%TO.N,Net-(U2-BYP)*%
X146800000Y-67700000D03*
%TO.P,C4,2,2*%
%TO.N,GND*%
X145200000Y-67700000D03*
%TD*%
D10*
%TO.P,R13,1,1*%
%TO.N,Net-(U1-XORL)*%
X170920000Y-64000000D03*
%TO.P,R13,2,2*%
%TO.N,GND*%
X181080000Y-64000000D03*
%TD*%
D16*
%TO.P,C3,1,1*%
%TO.N,Net-(U2-BYP)*%
X150300000Y-65460000D03*
%TO.P,C3,2,2*%
%TO.N,GND*%
X150300000Y-70540000D03*
%TD*%
D11*
%TO.P,R2,1,1*%
%TO.N,+3V3*%
X163199999Y-53200000D03*
%TO.P,R2,2,2*%
%TO.N,Net-(U1-READY)*%
X164799999Y-53200000D03*
%TD*%
%TO.P,R12,1,1*%
%TO.N,Net-(U1-XORH)*%
X175200000Y-58000000D03*
%TO.P,R12,2,2*%
%TO.N,GND*%
X176800000Y-58000000D03*
%TD*%
%TO.P,R14,1,1*%
%TO.N,Net-(U1-XORL)*%
X175200000Y-64000000D03*
%TO.P,R14,2,2*%
%TO.N,GND*%
X176800000Y-64000000D03*
%TD*%
%TO.P,R6,1,1*%
%TO.N,+3V3*%
X176800000Y-71500000D03*
%TO.P,R6,2,2*%
%TO.N,Net-(U1-SDAOUT)*%
X175200000Y-71500000D03*
%TD*%
D10*
%TO.P,R5,1,1*%
%TO.N,+3V3*%
X181080000Y-71500000D03*
%TO.P,R5,2,2*%
%TO.N,Net-(U1-SDAOUT)*%
X170920000Y-71500000D03*
%TD*%
%TO.P,R3,1,1*%
%TO.N,+3V3*%
X181080000Y-68500000D03*
%TO.P,R3,2,2*%
%TO.N,Net-(U1-SCLOUT)*%
X170920000Y-68500000D03*
%TD*%
D19*
%TO.P,U2,1,VIN*%
%TO.N,+5V*%
X144200000Y-63550000D03*
%TO.P,U2,2,GND*%
%TO.N,GND*%
X144200000Y-64500000D03*
%TO.P,U2,3,EN*%
%TO.N,+5V*%
X144200000Y-65450000D03*
%TO.P,U2,4,BYP*%
%TO.N,Net-(U2-BYP)*%
X146800000Y-65450000D03*
%TO.P,U2,5,VOUT*%
%TO.N,+3V3*%
X146800000Y-63550000D03*
%TD*%
D20*
%TO.N,GND*%
X145100000Y-61500000D03*
X178600000Y-64000000D03*
X143500000Y-67700000D03*
X169200000Y-72600000D03*
X145450000Y-51950000D03*
X155640000Y-70540000D03*
X147700000Y-59900000D03*
X185200000Y-70100000D03*
X145450000Y-56150000D03*
X160000000Y-72600000D03*
X135000000Y-57200000D03*
X141000000Y-64500000D03*
X178400000Y-58000000D03*
%TD*%
D21*
%TO.N,Net-(U1-SCLIN)*%
X158630000Y-65100000D02*
X159600000Y-65100000D01*
X160100000Y-65600000D02*
X160100000Y-70675000D01*
X137500000Y-70500000D02*
X137500000Y-66200000D01*
X137500000Y-66200000D02*
X136800000Y-65500000D01*
X136800000Y-65500000D02*
X134200000Y-65500000D01*
X159600000Y-65100000D02*
X160100000Y-65600000D01*
X139800000Y-72800000D02*
X137500000Y-70500000D01*
X158690000Y-65040000D02*
X158630000Y-65100000D01*
X157975000Y-72800000D02*
X139800000Y-72800000D01*
X160100000Y-70675000D02*
X157975000Y-72800000D01*
%TO.N,Net-(U1-SDAIN)*%
X138200000Y-64600000D02*
X137100000Y-63500000D01*
X140000000Y-72200000D02*
X138200000Y-70400000D01*
X157700000Y-72200000D02*
X140000000Y-72200000D01*
X158690000Y-67580000D02*
X158690000Y-71210000D01*
X158690000Y-71210000D02*
X157700000Y-72200000D01*
X138200000Y-70400000D02*
X138200000Y-64600000D01*
X137100000Y-63500000D02*
X134200000Y-63500000D01*
%TO.N,Net-(U1-SCLOUT)*%
X166310000Y-65040000D02*
X167460000Y-65040000D01*
X167460000Y-65040000D02*
X170920000Y-68500000D01*
X170920000Y-68500000D02*
X175200000Y-68500000D01*
%TO.N,Net-(U1-SDAOUT)*%
X170920000Y-71500000D02*
X175200000Y-71500000D01*
X167000000Y-67580000D02*
X170920000Y-71500000D01*
X166310000Y-67580000D02*
X167000000Y-67580000D01*
%TO.N,Net-(U1-XORH)*%
X175200000Y-58000000D02*
X170920000Y-58000000D01*
X170920000Y-58000000D02*
X170920000Y-55000000D01*
X166310000Y-59960000D02*
X167240000Y-59960000D01*
X170920000Y-58000000D02*
X169200000Y-58000000D01*
X175200000Y-55000000D02*
X175200000Y-58000000D01*
X167240000Y-59960000D02*
X169200000Y-58000000D01*
%TO.N,Net-(U1-XORL)*%
X175200000Y-61000000D02*
X175200000Y-64000000D01*
X166310000Y-62500000D02*
X167700000Y-62500000D01*
X169200000Y-61000000D02*
X170920000Y-61000000D01*
X170920000Y-61000000D02*
X170920000Y-64000000D01*
X170920000Y-64000000D02*
X175200000Y-64000000D01*
X167700000Y-62500000D02*
X169200000Y-61000000D01*
%TO.N,+5V*%
X145500000Y-65200000D02*
X145250000Y-65450000D01*
X134200000Y-61500000D02*
X133350000Y-61500000D01*
X142400000Y-63500000D02*
X144150000Y-63500000D01*
X134225000Y-61475000D02*
X134200000Y-61500000D01*
X134375000Y-61475000D02*
X134225000Y-61475000D01*
X141700000Y-61500000D02*
X141700000Y-62800000D01*
X145050000Y-63550000D02*
X145500000Y-64000000D01*
X141700000Y-62800000D02*
X142400000Y-63500000D01*
X144175000Y-53760000D02*
X144180000Y-53765000D01*
X144200000Y-63550000D02*
X145050000Y-63550000D01*
X145500000Y-64000000D02*
X145500000Y-65200000D01*
X132500000Y-60650000D02*
X132500000Y-56100000D01*
X141700000Y-61500000D02*
X134400000Y-61500000D01*
X132500000Y-56100000D02*
X134840000Y-53760000D01*
X134840000Y-53760000D02*
X138925000Y-53760000D01*
X145250000Y-65450000D02*
X144200000Y-65450000D01*
X133350000Y-61500000D02*
X132500000Y-60650000D01*
X144150000Y-63500000D02*
X144200000Y-63550000D01*
X134400000Y-61500000D02*
X134375000Y-61475000D01*
X138925000Y-53760000D02*
X144175000Y-53760000D01*
%TO.N,GND*%
X143300000Y-61500000D02*
X145100000Y-61500000D01*
X178600000Y-64000000D02*
X181080000Y-64000000D01*
X150300000Y-70540000D02*
X155640000Y-70540000D01*
X144200000Y-64500000D02*
X141000000Y-64500000D01*
X143725000Y-64425000D02*
X144600000Y-64425000D01*
X145200000Y-67700000D02*
X143500000Y-67700000D01*
X160000000Y-72600000D02*
X169200000Y-72600000D01*
X147700000Y-61500000D02*
X147700000Y-59900000D01*
X176800000Y-58000000D02*
X178400000Y-58000000D01*
X176800000Y-64000000D02*
X178600000Y-64000000D01*
%TO.N,Net-(U2-BYP)*%
X146800000Y-67600000D02*
X146700000Y-67700000D01*
X146800000Y-65450000D02*
X150290000Y-65450000D01*
X150290000Y-65450000D02*
X150300000Y-65460000D01*
X146800000Y-65450000D02*
X146800000Y-67600000D01*
%TO.N,+3V3*%
X151825000Y-58790000D02*
X155485000Y-58790000D01*
X146720000Y-53765000D02*
X146725000Y-53770000D01*
X151350000Y-61500000D02*
X151825000Y-61025000D01*
X151825000Y-61025000D02*
X151825000Y-58790000D01*
X176800000Y-68500000D02*
X181080000Y-68500000D01*
X176800000Y-61000000D02*
X181080000Y-61000000D01*
X146800000Y-63550000D02*
X148650000Y-63550000D01*
X163199999Y-53200000D02*
X158650000Y-53200000D01*
X146725000Y-56725000D02*
X148790000Y-58790000D01*
X158650000Y-53200000D02*
X158650000Y-57380000D01*
X181080000Y-53280000D02*
X181080000Y-55000000D01*
X179600000Y-51800000D02*
X181080000Y-53280000D01*
X181080000Y-68500000D02*
X181080000Y-71500000D01*
X149300000Y-61500000D02*
X151350000Y-61500000D01*
X156855000Y-57420000D02*
X158690000Y-57420000D01*
X149300000Y-62900000D02*
X149300000Y-61500000D01*
X176800000Y-55000000D02*
X181080000Y-55000000D01*
X163199999Y-53200000D02*
X163199999Y-52000001D01*
X155485000Y-58790000D02*
X156855000Y-57420000D01*
X176800000Y-71500000D02*
X181080000Y-71500000D01*
X148790000Y-58790000D02*
X151825000Y-58790000D01*
X163199999Y-52000001D02*
X163400000Y-51800000D01*
X148650000Y-63550000D02*
X149300000Y-62900000D01*
X158650000Y-57380000D02*
X158690000Y-57420000D01*
X158690000Y-57420000D02*
X158690000Y-59960000D01*
X163400000Y-51800000D02*
X179600000Y-51800000D01*
X146725000Y-53770000D02*
X146725000Y-56725000D01*
%TO.N,Net-(U1-READY)*%
X164799999Y-53200000D02*
X169350000Y-53200000D01*
X160775000Y-62500000D02*
X164799999Y-58475001D01*
X164799999Y-58475001D02*
X164799999Y-53200000D01*
X158690000Y-62500000D02*
X160775000Y-62500000D01*
%TD*%
%TA.AperFunction,Conductor*%
%TO.N,GND*%
G36*
X193942539Y-51020185D02*
G01*
X193988294Y-51072989D01*
X193999500Y-51124500D01*
X193999500Y-55975500D01*
X193979815Y-56042539D01*
X193927011Y-56088294D01*
X193875500Y-56099500D01*
X190152129Y-56099500D01*
X190152123Y-56099501D01*
X190092516Y-56105908D01*
X189957671Y-56156202D01*
X189957664Y-56156206D01*
X189842455Y-56242452D01*
X189842452Y-56242455D01*
X189756206Y-56357664D01*
X189756202Y-56357671D01*
X189705908Y-56492517D01*
X189699673Y-56550516D01*
X189699501Y-56552123D01*
X189699500Y-56552135D01*
X189699500Y-58139925D01*
X189679815Y-58206964D01*
X189627011Y-58252719D01*
X189557853Y-58262663D01*
X189494297Y-58233638D01*
X189461642Y-58189039D01*
X189454377Y-58172196D01*
X189448683Y-58164548D01*
X189365943Y-58053409D01*
X189349610Y-58031470D01*
X189312104Y-57999999D01*
X189215214Y-57918698D01*
X189215212Y-57918697D01*
X189058437Y-57839961D01*
X189016476Y-57830016D01*
X188887721Y-57799500D01*
X188756291Y-57799500D01*
X188651854Y-57811707D01*
X188625743Y-57814759D01*
X188625740Y-57814760D01*
X188460884Y-57874762D01*
X188460880Y-57874764D01*
X188314306Y-57971167D01*
X188314305Y-57971168D01*
X188193910Y-58098778D01*
X188106188Y-58250718D01*
X188055870Y-58418789D01*
X188055869Y-58418794D01*
X188045668Y-58593933D01*
X188074456Y-58757190D01*
X188076135Y-58766711D01*
X188145623Y-58927804D01*
X188145624Y-58927806D01*
X188145626Y-58927809D01*
X188240751Y-59055583D01*
X188250390Y-59068530D01*
X188384786Y-59181302D01*
X188444790Y-59211437D01*
X188541562Y-59260038D01*
X188541563Y-59260038D01*
X188541567Y-59260040D01*
X188712279Y-59300500D01*
X188712282Y-59300500D01*
X188843701Y-59300500D01*
X188843709Y-59300500D01*
X188974255Y-59285241D01*
X189139117Y-59225237D01*
X189285696Y-59128830D01*
X189406092Y-59001218D01*
X189493812Y-58849281D01*
X189544130Y-58681210D01*
X189554331Y-58506065D01*
X189544682Y-58451346D01*
X189552426Y-58381909D01*
X189596481Y-58327680D01*
X189662862Y-58305877D01*
X189730493Y-58323424D01*
X189766064Y-58355503D01*
X189794645Y-58393682D01*
X189842453Y-58457545D01*
X189842455Y-58457547D01*
X189957664Y-58543793D01*
X189957671Y-58543797D01*
X190092517Y-58594091D01*
X190092516Y-58594091D01*
X190099444Y-58594835D01*
X190152127Y-58600500D01*
X193875500Y-58600499D01*
X193942539Y-58620184D01*
X193988294Y-58672988D01*
X193999500Y-58724499D01*
X193999500Y-66275500D01*
X193979815Y-66342539D01*
X193927011Y-66388294D01*
X193875500Y-66399500D01*
X190152129Y-66399500D01*
X190152123Y-66399501D01*
X190092516Y-66405908D01*
X189957671Y-66456202D01*
X189957664Y-66456206D01*
X189842455Y-66542452D01*
X189768432Y-66641334D01*
X189712498Y-66683204D01*
X189642807Y-66688188D01*
X189581484Y-66654702D01*
X189547999Y-66593379D01*
X189545376Y-66559812D01*
X189554331Y-66406065D01*
X189523865Y-66233289D01*
X189454377Y-66072196D01*
X189445790Y-66060662D01*
X189349609Y-65931469D01*
X189215214Y-65818698D01*
X189215212Y-65818697D01*
X189058437Y-65739961D01*
X189050353Y-65738045D01*
X188887721Y-65699500D01*
X188756291Y-65699500D01*
X188651854Y-65711707D01*
X188625743Y-65714759D01*
X188625740Y-65714760D01*
X188460884Y-65774762D01*
X188460880Y-65774764D01*
X188314306Y-65871167D01*
X188314305Y-65871168D01*
X188193910Y-65998778D01*
X188106188Y-66150718D01*
X188055870Y-66318789D01*
X188055869Y-66318794D01*
X188045668Y-66493933D01*
X188076134Y-66666706D01*
X188076135Y-66666711D01*
X188145623Y-66827804D01*
X188145624Y-66827806D01*
X188145626Y-66827809D01*
X188233869Y-66946339D01*
X188250390Y-66968530D01*
X188384786Y-67081302D01*
X188462488Y-67120325D01*
X188541562Y-67160038D01*
X188541563Y-67160038D01*
X188541567Y-67160040D01*
X188712279Y-67200500D01*
X188712282Y-67200500D01*
X188843701Y-67200500D01*
X188843709Y-67200500D01*
X188974255Y-67185241D01*
X189139117Y-67125237D01*
X189285696Y-67028830D01*
X189406092Y-66901218D01*
X189468114Y-66793790D01*
X189518679Y-66745577D01*
X189587286Y-66732353D01*
X189652151Y-66758321D01*
X189692680Y-66815235D01*
X189699500Y-66855792D01*
X189699500Y-68447870D01*
X189699501Y-68447876D01*
X189705908Y-68507483D01*
X189756202Y-68642328D01*
X189756206Y-68642335D01*
X189842452Y-68757544D01*
X189842455Y-68757547D01*
X189957664Y-68843793D01*
X189957671Y-68843797D01*
X190092517Y-68894091D01*
X190092516Y-68894091D01*
X190099444Y-68894835D01*
X190152127Y-68900500D01*
X193875500Y-68900499D01*
X193942539Y-68920184D01*
X193988294Y-68972988D01*
X193999500Y-69024499D01*
X193999500Y-73875500D01*
X193979815Y-73942539D01*
X193927011Y-73988294D01*
X193875500Y-73999500D01*
X126124500Y-73999500D01*
X126057461Y-73979815D01*
X126011706Y-73927011D01*
X126000500Y-73875500D01*
X126000500Y-69024499D01*
X126020185Y-68957460D01*
X126072989Y-68911705D01*
X126124500Y-68900499D01*
X129847871Y-68900499D01*
X129847872Y-68900499D01*
X129907483Y-68894091D01*
X130042331Y-68843796D01*
X130157546Y-68757546D01*
X130243796Y-68642331D01*
X130294091Y-68507483D01*
X130300500Y-68447873D01*
X130300499Y-66860073D01*
X130320184Y-66793035D01*
X130372987Y-66747280D01*
X130442146Y-66737336D01*
X130505702Y-66766361D01*
X130538357Y-66810960D01*
X130545623Y-66827804D01*
X130545624Y-66827806D01*
X130545626Y-66827809D01*
X130633869Y-66946339D01*
X130650390Y-66968530D01*
X130784786Y-67081302D01*
X130862488Y-67120325D01*
X130941562Y-67160038D01*
X130941563Y-67160038D01*
X130941567Y-67160040D01*
X131112279Y-67200500D01*
X131112282Y-67200500D01*
X131243701Y-67200500D01*
X131243709Y-67200500D01*
X131374255Y-67185241D01*
X131539117Y-67125237D01*
X131685696Y-67028830D01*
X131806092Y-66901218D01*
X131893812Y-66749281D01*
X131944130Y-66581210D01*
X131954331Y-66406065D01*
X131923865Y-66233289D01*
X131854377Y-66072196D01*
X131845790Y-66060662D01*
X131749609Y-65931469D01*
X131615214Y-65818698D01*
X131615212Y-65818697D01*
X131458437Y-65739961D01*
X131450353Y-65738045D01*
X131287721Y-65699500D01*
X131156291Y-65699500D01*
X131051854Y-65711707D01*
X131025743Y-65714759D01*
X131025740Y-65714760D01*
X130860884Y-65774762D01*
X130860880Y-65774764D01*
X130714306Y-65871167D01*
X130714305Y-65871168D01*
X130593910Y-65998778D01*
X130506188Y-66150718D01*
X130455870Y-66318789D01*
X130455869Y-66318794D01*
X130445668Y-66493933D01*
X130445669Y-66493935D01*
X130455317Y-66548652D01*
X130447573Y-66618091D01*
X130403516Y-66672320D01*
X130337135Y-66694122D01*
X130269505Y-66676574D01*
X130233935Y-66644495D01*
X130157547Y-66542455D01*
X130157544Y-66542452D01*
X130042335Y-66456206D01*
X130042328Y-66456202D01*
X129907482Y-66405908D01*
X129907483Y-66405908D01*
X129847883Y-66399501D01*
X129847881Y-66399500D01*
X129847873Y-66399500D01*
X129847865Y-66399500D01*
X126124500Y-66399500D01*
X126057461Y-66379815D01*
X126011706Y-66327011D01*
X126000500Y-66275500D01*
X126000500Y-58724499D01*
X126020185Y-58657460D01*
X126072989Y-58611705D01*
X126124500Y-58600499D01*
X129847871Y-58600499D01*
X129847872Y-58600499D01*
X129907483Y-58594091D01*
X130042331Y-58543796D01*
X130157546Y-58457546D01*
X130231567Y-58358665D01*
X130287500Y-58316795D01*
X130357191Y-58311811D01*
X130418514Y-58345296D01*
X130451999Y-58406619D01*
X130454623Y-58440186D01*
X130445668Y-58593933D01*
X130474456Y-58757190D01*
X130476135Y-58766711D01*
X130545623Y-58927804D01*
X130545624Y-58927806D01*
X130545626Y-58927809D01*
X130640751Y-59055583D01*
X130650390Y-59068530D01*
X130784786Y-59181302D01*
X130844790Y-59211437D01*
X130941562Y-59260038D01*
X130941563Y-59260038D01*
X130941567Y-59260040D01*
X131112279Y-59300500D01*
X131112282Y-59300500D01*
X131243701Y-59300500D01*
X131243709Y-59300500D01*
X131374255Y-59285241D01*
X131539117Y-59225237D01*
X131660532Y-59145381D01*
X131682361Y-59131024D01*
X131749188Y-59110631D01*
X131816432Y-59129605D01*
X131862743Y-59181922D01*
X131874500Y-59234624D01*
X131874500Y-60567255D01*
X131872775Y-60582872D01*
X131873061Y-60582899D01*
X131872326Y-60590665D01*
X131874439Y-60657872D01*
X131874500Y-60661767D01*
X131874500Y-60689357D01*
X131875003Y-60693335D01*
X131875918Y-60704967D01*
X131877290Y-60748624D01*
X131877291Y-60748627D01*
X131882880Y-60767867D01*
X131886824Y-60786911D01*
X131889336Y-60806792D01*
X131905414Y-60847403D01*
X131909197Y-60858452D01*
X131913036Y-60871666D01*
X131921382Y-60900390D01*
X131922410Y-60902129D01*
X131931580Y-60917634D01*
X131940138Y-60935103D01*
X131947514Y-60953732D01*
X131973181Y-60989060D01*
X131979593Y-60998821D01*
X132001828Y-61036417D01*
X132001833Y-61036424D01*
X132015990Y-61050580D01*
X132028627Y-61065375D01*
X132040406Y-61081587D01*
X132067518Y-61104016D01*
X132074057Y-61109425D01*
X132082698Y-61117288D01*
X132849194Y-61883784D01*
X132859019Y-61896048D01*
X132859240Y-61895866D01*
X132864210Y-61901874D01*
X132913239Y-61947915D01*
X132916036Y-61950626D01*
X132935529Y-61970119D01*
X132938696Y-61972576D01*
X132947573Y-61980158D01*
X132960382Y-61992186D01*
X132995778Y-62052427D01*
X132999500Y-62082573D01*
X132999500Y-62097866D01*
X132999501Y-62097877D01*
X133005908Y-62157483D01*
X133056202Y-62292328D01*
X133056206Y-62292335D01*
X133142452Y-62407544D01*
X133147227Y-62412319D01*
X133180712Y-62473642D01*
X133175728Y-62543334D01*
X133147227Y-62587681D01*
X133142452Y-62592455D01*
X133056206Y-62707664D01*
X133056202Y-62707671D01*
X133005908Y-62842517D01*
X132999876Y-62898627D01*
X132999501Y-62902123D01*
X132999500Y-62902135D01*
X132999500Y-64097870D01*
X132999501Y-64097876D01*
X133005908Y-64157483D01*
X133056202Y-64292328D01*
X133056206Y-64292335D01*
X133142452Y-64407544D01*
X133147227Y-64412319D01*
X133180712Y-64473642D01*
X133175728Y-64543334D01*
X133147227Y-64587681D01*
X133142452Y-64592455D01*
X133056206Y-64707664D01*
X133056202Y-64707671D01*
X133005908Y-64842517D01*
X132999501Y-64902116D01*
X132999500Y-64902135D01*
X132999500Y-66097870D01*
X132999501Y-66097876D01*
X133005908Y-66157483D01*
X133056202Y-66292328D01*
X133056206Y-66292335D01*
X133142452Y-66407544D01*
X133142455Y-66407547D01*
X133257664Y-66493793D01*
X133257671Y-66493797D01*
X133392517Y-66544091D01*
X133392516Y-66544091D01*
X133399444Y-66544835D01*
X133452127Y-66550500D01*
X136547872Y-66550499D01*
X136607483Y-66544091D01*
X136707168Y-66506910D01*
X136776858Y-66501927D01*
X136838181Y-66535412D01*
X136871666Y-66596735D01*
X136874500Y-66623093D01*
X136874500Y-70417255D01*
X136872775Y-70432872D01*
X136873061Y-70432899D01*
X136872326Y-70440665D01*
X136874439Y-70507872D01*
X136874500Y-70511767D01*
X136874500Y-70539357D01*
X136875003Y-70543335D01*
X136875918Y-70554967D01*
X136877290Y-70598624D01*
X136877291Y-70598627D01*
X136882880Y-70617867D01*
X136886824Y-70636911D01*
X136888645Y-70651324D01*
X136889336Y-70656792D01*
X136905414Y-70697403D01*
X136909197Y-70708452D01*
X136919241Y-70743023D01*
X136921382Y-70750390D01*
X136923526Y-70754016D01*
X136931580Y-70767634D01*
X136940138Y-70785103D01*
X136947514Y-70803732D01*
X136973181Y-70839060D01*
X136979593Y-70848821D01*
X137001828Y-70886417D01*
X137001833Y-70886424D01*
X137015990Y-70900580D01*
X137028628Y-70915376D01*
X137040405Y-70931586D01*
X137040406Y-70931587D01*
X137074057Y-70959425D01*
X137082698Y-70967288D01*
X139299197Y-73183788D01*
X139309022Y-73196051D01*
X139309243Y-73195869D01*
X139314211Y-73201874D01*
X139363222Y-73247899D01*
X139366021Y-73250612D01*
X139385522Y-73270114D01*
X139385526Y-73270117D01*
X139385529Y-73270120D01*
X139388702Y-73272581D01*
X139397574Y-73280159D01*
X139429418Y-73310062D01*
X139446976Y-73319714D01*
X139463235Y-73330395D01*
X139479064Y-73342673D01*
X139519155Y-73360021D01*
X139529626Y-73365151D01*
X139552180Y-73377550D01*
X139567902Y-73386194D01*
X139567904Y-73386195D01*
X139567908Y-73386197D01*
X139587316Y-73391180D01*
X139605719Y-73397481D01*
X139624101Y-73405436D01*
X139624102Y-73405436D01*
X139624104Y-73405437D01*
X139667250Y-73412270D01*
X139678672Y-73414636D01*
X139720981Y-73425500D01*
X139741016Y-73425500D01*
X139760414Y-73427026D01*
X139780194Y-73430159D01*
X139780195Y-73430160D01*
X139780195Y-73430159D01*
X139780196Y-73430160D01*
X139823675Y-73426050D01*
X139835344Y-73425500D01*
X157892257Y-73425500D01*
X157907877Y-73427224D01*
X157907904Y-73426939D01*
X157915660Y-73427671D01*
X157915667Y-73427673D01*
X157982873Y-73425561D01*
X157986768Y-73425500D01*
X158014346Y-73425500D01*
X158014350Y-73425500D01*
X158018324Y-73424997D01*
X158029963Y-73424080D01*
X158073627Y-73422709D01*
X158092869Y-73417117D01*
X158111912Y-73413174D01*
X158131792Y-73410664D01*
X158172401Y-73394585D01*
X158183444Y-73390803D01*
X158225390Y-73378618D01*
X158242629Y-73368422D01*
X158260103Y-73359862D01*
X158278727Y-73352488D01*
X158278727Y-73352487D01*
X158278732Y-73352486D01*
X158314083Y-73326800D01*
X158323814Y-73320408D01*
X158361420Y-73298170D01*
X158375589Y-73283999D01*
X158390379Y-73271368D01*
X158406587Y-73259594D01*
X158434438Y-73225926D01*
X158442279Y-73217309D01*
X160483788Y-71175801D01*
X160496042Y-71165986D01*
X160495859Y-71165764D01*
X160501868Y-71160791D01*
X160501877Y-71160786D01*
X160547949Y-71111722D01*
X160550566Y-71109023D01*
X160570120Y-71089471D01*
X160572576Y-71086303D01*
X160580156Y-71077427D01*
X160610062Y-71045582D01*
X160619715Y-71028020D01*
X160630389Y-71011770D01*
X160642673Y-70995936D01*
X160660019Y-70955850D01*
X160665157Y-70945362D01*
X160681643Y-70915376D01*
X160686197Y-70907092D01*
X160691177Y-70887691D01*
X160697478Y-70869288D01*
X160705438Y-70850896D01*
X160712272Y-70807741D01*
X160714635Y-70796331D01*
X160725500Y-70754019D01*
X160725500Y-70733983D01*
X160727027Y-70714582D01*
X160727998Y-70708452D01*
X160730160Y-70694804D01*
X160726050Y-70651324D01*
X160725500Y-70639655D01*
X160725500Y-65682742D01*
X160727224Y-65667122D01*
X160726939Y-65667096D01*
X160727671Y-65659340D01*
X160727673Y-65659333D01*
X160725561Y-65592126D01*
X160725500Y-65588231D01*
X160725500Y-65560654D01*
X160725500Y-65560650D01*
X160724996Y-65556665D01*
X160724080Y-65545021D01*
X160722709Y-65501373D01*
X160717122Y-65482144D01*
X160713174Y-65463084D01*
X160712785Y-65460001D01*
X160710664Y-65443208D01*
X160710663Y-65443206D01*
X160710663Y-65443204D01*
X160694588Y-65402604D01*
X160690804Y-65391552D01*
X160678618Y-65349609D01*
X160678616Y-65349606D01*
X160668423Y-65332371D01*
X160659861Y-65314894D01*
X160652487Y-65296269D01*
X160626816Y-65260937D01*
X160620405Y-65251177D01*
X160598170Y-65213580D01*
X160598168Y-65213578D01*
X160598165Y-65213574D01*
X160584006Y-65199415D01*
X160571368Y-65184619D01*
X160566725Y-65178228D01*
X160559594Y-65168413D01*
X160546506Y-65157586D01*
X160525940Y-65140572D01*
X160517299Y-65132709D01*
X160100806Y-64716216D01*
X160090981Y-64703952D01*
X160090760Y-64704136D01*
X160085784Y-64698121D01*
X160036776Y-64652099D01*
X160033977Y-64649386D01*
X160014477Y-64629885D01*
X160014387Y-64629815D01*
X160011286Y-64627409D01*
X160002434Y-64619848D01*
X159970582Y-64589938D01*
X159970580Y-64589936D01*
X159970577Y-64589935D01*
X159953029Y-64580288D01*
X159936763Y-64569604D01*
X159920936Y-64557327D01*
X159920935Y-64557326D01*
X159920933Y-64557325D01*
X159885242Y-64541880D01*
X159831534Y-64497190D01*
X159822112Y-64480493D01*
X159787534Y-64406339D01*
X159695383Y-64274733D01*
X159660827Y-64225381D01*
X159589978Y-64154532D01*
X159504620Y-64069174D01*
X159504616Y-64069171D01*
X159504615Y-64069170D01*
X159323666Y-63942468D01*
X159323658Y-63942464D01*
X159194811Y-63882382D01*
X159142371Y-63836210D01*
X159123219Y-63769017D01*
X159143435Y-63702135D01*
X159194811Y-63657618D01*
X159218767Y-63646447D01*
X159323662Y-63597534D01*
X159504620Y-63470826D01*
X159660826Y-63314620D01*
X159756225Y-63178376D01*
X159810802Y-63134752D01*
X159857800Y-63125500D01*
X160692257Y-63125500D01*
X160707877Y-63127224D01*
X160707904Y-63126939D01*
X160715660Y-63127671D01*
X160715667Y-63127673D01*
X160782873Y-63125561D01*
X160786768Y-63125500D01*
X160814346Y-63125500D01*
X160814350Y-63125500D01*
X160818324Y-63124997D01*
X160829963Y-63124080D01*
X160873627Y-63122709D01*
X160892869Y-63117117D01*
X160911912Y-63113174D01*
X160931792Y-63110664D01*
X160972401Y-63094585D01*
X160983444Y-63090803D01*
X161025390Y-63078618D01*
X161042629Y-63068422D01*
X161060103Y-63059862D01*
X161078727Y-63052488D01*
X161078727Y-63052487D01*
X161078732Y-63052486D01*
X161114083Y-63026800D01*
X161123814Y-63020408D01*
X161161420Y-62998170D01*
X161175589Y-62983999D01*
X161190379Y-62971368D01*
X161206587Y-62959594D01*
X161234438Y-62925926D01*
X161242279Y-62917309D01*
X165095977Y-59063612D01*
X165157298Y-59030129D01*
X165226990Y-59035113D01*
X165282923Y-59076985D01*
X165307340Y-59142449D01*
X165292488Y-59210722D01*
X165285232Y-59222417D01*
X165212465Y-59326340D01*
X165119107Y-59526548D01*
X165119104Y-59526554D01*
X165061930Y-59739929D01*
X165061929Y-59739937D01*
X165042677Y-59959997D01*
X165042677Y-59960002D01*
X165061929Y-60180062D01*
X165061930Y-60180070D01*
X165119104Y-60393445D01*
X165119105Y-60393447D01*
X165119106Y-60393450D01*
X165207435Y-60582872D01*
X165212466Y-60593662D01*
X165212468Y-60593666D01*
X165339170Y-60774615D01*
X165339175Y-60774621D01*
X165495378Y-60930824D01*
X165495384Y-60930829D01*
X165676333Y-61057531D01*
X165676335Y-61057532D01*
X165676338Y-61057534D01*
X165776024Y-61104018D01*
X165805189Y-61117618D01*
X165857628Y-61163790D01*
X165876780Y-61230984D01*
X165856564Y-61297865D01*
X165805189Y-61342382D01*
X165676340Y-61402465D01*
X165676338Y-61402466D01*
X165495377Y-61529175D01*
X165339175Y-61685377D01*
X165212466Y-61866338D01*
X165212465Y-61866340D01*
X165150992Y-61998170D01*
X165124221Y-62055582D01*
X165119107Y-62066548D01*
X165119104Y-62066554D01*
X165061930Y-62279929D01*
X165061929Y-62279937D01*
X165042677Y-62499997D01*
X165042677Y-62500002D01*
X165061929Y-62720062D01*
X165061930Y-62720070D01*
X165119104Y-62933445D01*
X165119105Y-62933447D01*
X165119106Y-62933450D01*
X165198611Y-63103950D01*
X165212466Y-63133662D01*
X165212468Y-63133666D01*
X165339170Y-63314615D01*
X165339175Y-63314621D01*
X165495378Y-63470824D01*
X165495384Y-63470829D01*
X165676333Y-63597531D01*
X165676335Y-63597532D01*
X165676338Y-63597534D01*
X165781233Y-63646447D01*
X165805189Y-63657618D01*
X165857628Y-63703790D01*
X165876780Y-63770984D01*
X165856564Y-63837865D01*
X165805189Y-63882382D01*
X165676340Y-63942465D01*
X165676338Y-63942466D01*
X165495377Y-64069175D01*
X165339175Y-64225377D01*
X165212466Y-64406338D01*
X165212465Y-64406340D01*
X165119107Y-64606548D01*
X165119104Y-64606554D01*
X165061930Y-64819929D01*
X165061929Y-64819937D01*
X165042677Y-65039997D01*
X165042677Y-65040002D01*
X165061929Y-65260062D01*
X165061930Y-65260070D01*
X165119104Y-65473445D01*
X165119105Y-65473447D01*
X165119106Y-65473450D01*
X165189844Y-65625148D01*
X165212466Y-65673662D01*
X165212468Y-65673666D01*
X165339170Y-65854615D01*
X165339175Y-65854621D01*
X165495378Y-66010824D01*
X165495384Y-66010829D01*
X165676333Y-66137531D01*
X165676335Y-66137532D01*
X165676338Y-66137534D01*
X165795748Y-66193215D01*
X165805189Y-66197618D01*
X165857628Y-66243790D01*
X165876780Y-66310984D01*
X165856564Y-66377865D01*
X165805189Y-66422382D01*
X165676340Y-66482465D01*
X165676338Y-66482466D01*
X165495377Y-66609175D01*
X165339175Y-66765377D01*
X165212466Y-66946338D01*
X165212465Y-66946340D01*
X165119107Y-67146548D01*
X165119104Y-67146554D01*
X165061930Y-67359929D01*
X165061929Y-67359937D01*
X165042677Y-67579997D01*
X165042677Y-67580002D01*
X165061929Y-67800062D01*
X165061930Y-67800070D01*
X165119104Y-68013445D01*
X165119105Y-68013447D01*
X165119106Y-68013450D01*
X165157620Y-68096043D01*
X165212466Y-68213662D01*
X165212468Y-68213666D01*
X165339170Y-68394615D01*
X165339175Y-68394621D01*
X165495378Y-68550824D01*
X165495384Y-68550829D01*
X165676333Y-68677531D01*
X165676335Y-68677532D01*
X165676338Y-68677534D01*
X165876550Y-68770894D01*
X166089932Y-68828070D01*
X166247123Y-68841822D01*
X166309998Y-68847323D01*
X166310000Y-68847323D01*
X166310002Y-68847323D01*
X166365017Y-68842509D01*
X166530068Y-68828070D01*
X166743450Y-68770894D01*
X166943662Y-68677534D01*
X167016814Y-68626311D01*
X167083015Y-68603985D01*
X167150783Y-68620994D01*
X167175616Y-68640206D01*
X169838277Y-71302868D01*
X169871762Y-71364191D01*
X169873999Y-71402702D01*
X169864417Y-71499998D01*
X169864417Y-71499999D01*
X169884699Y-71705932D01*
X169884700Y-71705934D01*
X169944768Y-71903954D01*
X170042315Y-72086450D01*
X170042317Y-72086452D01*
X170173589Y-72246410D01*
X170216218Y-72281394D01*
X170333550Y-72377685D01*
X170516046Y-72475232D01*
X170714066Y-72535300D01*
X170714065Y-72535300D01*
X170732529Y-72537118D01*
X170920000Y-72555583D01*
X171125934Y-72535300D01*
X171323954Y-72475232D01*
X171506450Y-72377685D01*
X171666410Y-72246410D01*
X171703813Y-72200834D01*
X171728432Y-72170836D01*
X171786178Y-72131501D01*
X171824286Y-72125500D01*
X174281535Y-72125500D01*
X174348574Y-72145185D01*
X174380800Y-72175187D01*
X174442454Y-72257546D01*
X174474311Y-72281394D01*
X174557664Y-72343793D01*
X174557671Y-72343797D01*
X174692517Y-72394091D01*
X174692516Y-72394091D01*
X174699444Y-72394835D01*
X174752127Y-72400500D01*
X175647872Y-72400499D01*
X175707483Y-72394091D01*
X175842331Y-72343796D01*
X175925689Y-72281393D01*
X175991153Y-72256977D01*
X176059426Y-72271828D01*
X176074311Y-72281394D01*
X176157669Y-72343796D01*
X176157671Y-72343797D01*
X176292517Y-72394091D01*
X176292516Y-72394091D01*
X176299444Y-72394835D01*
X176352127Y-72400500D01*
X177247872Y-72400499D01*
X177307483Y-72394091D01*
X177442331Y-72343796D01*
X177557546Y-72257546D01*
X177619199Y-72175188D01*
X177675132Y-72133318D01*
X177718465Y-72125500D01*
X180175714Y-72125500D01*
X180242753Y-72145185D01*
X180271568Y-72170836D01*
X180333589Y-72246410D01*
X180376218Y-72281394D01*
X180493550Y-72377685D01*
X180676046Y-72475232D01*
X180874066Y-72535300D01*
X180874065Y-72535300D01*
X180892529Y-72537118D01*
X181080000Y-72555583D01*
X181285934Y-72535300D01*
X181483954Y-72475232D01*
X181666450Y-72377685D01*
X181826410Y-72246410D01*
X181957685Y-72086450D01*
X182055232Y-71903954D01*
X182115300Y-71705934D01*
X182135583Y-71500000D01*
X182115300Y-71294066D01*
X182055232Y-71096046D01*
X181957685Y-70913550D01*
X181884859Y-70824811D01*
X181826410Y-70753589D01*
X181750836Y-70691568D01*
X181711501Y-70633822D01*
X181705500Y-70595714D01*
X181705500Y-69404285D01*
X181725185Y-69337246D01*
X181750836Y-69308431D01*
X181826410Y-69246410D01*
X181957685Y-69086450D01*
X182055232Y-68903954D01*
X182115300Y-68705934D01*
X182135583Y-68500000D01*
X182115300Y-68294066D01*
X182055232Y-68096046D01*
X181957685Y-67913550D01*
X181864555Y-67800070D01*
X181826410Y-67753589D01*
X181666452Y-67622317D01*
X181666453Y-67622317D01*
X181666450Y-67622315D01*
X181483954Y-67524768D01*
X181285934Y-67464700D01*
X181285932Y-67464699D01*
X181285934Y-67464699D01*
X181080000Y-67444417D01*
X180874067Y-67464699D01*
X180676043Y-67524769D01*
X180572721Y-67579997D01*
X180493550Y-67622315D01*
X180493548Y-67622316D01*
X180493547Y-67622317D01*
X180333589Y-67753589D01*
X180271568Y-67829164D01*
X180213822Y-67868499D01*
X180175714Y-67874500D01*
X177718465Y-67874500D01*
X177651426Y-67854815D01*
X177619198Y-67824811D01*
X177600677Y-67800070D01*
X177557546Y-67742454D01*
X177525689Y-67718606D01*
X177442335Y-67656206D01*
X177442328Y-67656202D01*
X177307482Y-67605908D01*
X177307483Y-67605908D01*
X177247883Y-67599501D01*
X177247881Y-67599500D01*
X177247873Y-67599500D01*
X177247864Y-67599500D01*
X176352129Y-67599500D01*
X176352123Y-67599501D01*
X176292516Y-67605908D01*
X176157671Y-67656202D01*
X176157669Y-67656203D01*
X176074311Y-67718606D01*
X176008847Y-67743023D01*
X175940574Y-67728172D01*
X175925689Y-67718606D01*
X175842330Y-67656203D01*
X175842328Y-67656202D01*
X175707482Y-67605908D01*
X175707483Y-67605908D01*
X175647883Y-67599501D01*
X175647881Y-67599500D01*
X175647873Y-67599500D01*
X175647864Y-67599500D01*
X174752129Y-67599500D01*
X174752123Y-67599501D01*
X174692516Y-67605908D01*
X174557671Y-67656202D01*
X174557664Y-67656206D01*
X174442456Y-67742452D01*
X174442455Y-67742453D01*
X174442454Y-67742454D01*
X174399323Y-67800070D01*
X174380802Y-67824811D01*
X174324868Y-67866682D01*
X174281535Y-67874500D01*
X171824286Y-67874500D01*
X171757247Y-67854815D01*
X171728432Y-67829164D01*
X171666410Y-67753589D01*
X171506452Y-67622317D01*
X171506453Y-67622317D01*
X171506450Y-67622315D01*
X171323954Y-67524768D01*
X171125934Y-67464700D01*
X171125932Y-67464699D01*
X171125934Y-67464699D01*
X170938463Y-67446235D01*
X170920000Y-67444417D01*
X170919999Y-67444417D01*
X170822701Y-67453999D01*
X170754055Y-67440980D01*
X170722867Y-67418277D01*
X169349176Y-66044586D01*
X169054590Y-65750000D01*
X183000000Y-65750000D01*
X183000000Y-66097844D01*
X183006401Y-66157372D01*
X183006403Y-66157379D01*
X183056645Y-66292086D01*
X183056649Y-66292093D01*
X183142809Y-66407187D01*
X183142812Y-66407190D01*
X183257906Y-66493350D01*
X183257913Y-66493354D01*
X183392620Y-66543596D01*
X183392627Y-66543598D01*
X183452155Y-66549999D01*
X183452172Y-66550000D01*
X184750000Y-66550000D01*
X184750000Y-65750000D01*
X183000000Y-65750000D01*
X169054590Y-65750000D01*
X167960803Y-64656212D01*
X167950980Y-64643950D01*
X167950759Y-64644134D01*
X167945786Y-64638122D01*
X167896776Y-64592099D01*
X167893977Y-64589386D01*
X167874477Y-64569885D01*
X167874115Y-64569604D01*
X167871286Y-64567409D01*
X167862434Y-64559848D01*
X167830582Y-64529938D01*
X167830580Y-64529936D01*
X167830577Y-64529935D01*
X167813029Y-64520288D01*
X167796763Y-64509604D01*
X167780932Y-64497324D01*
X167740849Y-64479978D01*
X167730363Y-64474841D01*
X167692094Y-64453803D01*
X167692092Y-64453802D01*
X167672693Y-64448822D01*
X167654281Y-64442518D01*
X167635898Y-64434562D01*
X167635892Y-64434560D01*
X167592760Y-64427729D01*
X167581322Y-64425361D01*
X167539020Y-64414500D01*
X167539019Y-64414500D01*
X167518984Y-64414500D01*
X167499586Y-64412973D01*
X167492162Y-64411797D01*
X167479805Y-64409840D01*
X167472007Y-64409595D01*
X167472103Y-64406520D01*
X167417533Y-64395928D01*
X167372924Y-64356911D01*
X167368434Y-64350499D01*
X167315383Y-64274733D01*
X167280827Y-64225381D01*
X167209978Y-64154532D01*
X167124620Y-64069174D01*
X167124616Y-64069171D01*
X167124615Y-64069170D01*
X166943666Y-63942468D01*
X166943658Y-63942464D01*
X166814811Y-63882382D01*
X166762371Y-63836210D01*
X166743219Y-63769017D01*
X166763435Y-63702135D01*
X166814811Y-63657618D01*
X166838767Y-63646447D01*
X166943662Y-63597534D01*
X167124620Y-63470826D01*
X167280826Y-63314620D01*
X167376225Y-63178376D01*
X167430802Y-63134752D01*
X167477800Y-63125500D01*
X167617257Y-63125500D01*
X167632877Y-63127224D01*
X167632904Y-63126939D01*
X167640660Y-63127671D01*
X167640667Y-63127673D01*
X167707873Y-63125561D01*
X167711768Y-63125500D01*
X167739346Y-63125500D01*
X167739350Y-63125500D01*
X167743324Y-63124997D01*
X167754963Y-63124080D01*
X167798627Y-63122709D01*
X167817869Y-63117117D01*
X167836912Y-63113174D01*
X167856792Y-63110664D01*
X167897401Y-63094585D01*
X167908444Y-63090803D01*
X167950390Y-63078618D01*
X167967629Y-63068422D01*
X167985103Y-63059862D01*
X168003727Y-63052488D01*
X168003727Y-63052487D01*
X168003732Y-63052486D01*
X168039083Y-63026800D01*
X168048814Y-63020408D01*
X168086420Y-62998170D01*
X168100589Y-62983999D01*
X168115379Y-62971368D01*
X168131587Y-62959594D01*
X168159438Y-62925926D01*
X168167279Y-62917309D01*
X169422772Y-61661819D01*
X169484095Y-61628334D01*
X169510453Y-61625500D01*
X170015714Y-61625500D01*
X170082753Y-61645185D01*
X170111568Y-61670836D01*
X170173587Y-61746407D01*
X170173588Y-61746408D01*
X170173590Y-61746410D01*
X170216219Y-61781394D01*
X170249164Y-61808431D01*
X170288499Y-61866177D01*
X170294500Y-61904285D01*
X170294500Y-63095714D01*
X170274815Y-63162753D01*
X170249164Y-63191568D01*
X170173589Y-63253589D01*
X170042317Y-63413547D01*
X170042315Y-63413550D01*
X170003643Y-63485898D01*
X169944769Y-63596043D01*
X169884699Y-63794067D01*
X169864417Y-64000000D01*
X169884699Y-64205932D01*
X169892989Y-64233261D01*
X169944768Y-64403954D01*
X170042315Y-64586450D01*
X170047243Y-64592455D01*
X170173589Y-64746410D01*
X170270209Y-64825702D01*
X170333550Y-64877685D01*
X170516046Y-64975232D01*
X170714066Y-65035300D01*
X170714065Y-65035300D01*
X170732529Y-65037118D01*
X170920000Y-65055583D01*
X171125934Y-65035300D01*
X171323954Y-64975232D01*
X171506450Y-64877685D01*
X171666410Y-64746410D01*
X171699138Y-64706531D01*
X171728432Y-64670836D01*
X171786178Y-64631501D01*
X171824286Y-64625500D01*
X174281535Y-64625500D01*
X174348574Y-64645185D01*
X174380800Y-64675187D01*
X174442454Y-64757546D01*
X174488643Y-64792123D01*
X174557664Y-64843793D01*
X174557671Y-64843797D01*
X174692517Y-64894091D01*
X174692516Y-64894091D01*
X174699444Y-64894835D01*
X174752127Y-64900500D01*
X175647872Y-64900499D01*
X175707483Y-64894091D01*
X175842331Y-64843796D01*
X175926105Y-64781082D01*
X175991569Y-64756665D01*
X176059842Y-64771516D01*
X176074727Y-64781082D01*
X176157910Y-64843352D01*
X176157913Y-64843354D01*
X176292620Y-64893596D01*
X176292627Y-64893598D01*
X176352155Y-64899999D01*
X176352172Y-64900000D01*
X176550000Y-64900000D01*
X176550000Y-64250000D01*
X177050000Y-64250000D01*
X177050000Y-64900000D01*
X177247828Y-64900000D01*
X177247844Y-64899999D01*
X177256921Y-64899023D01*
X180534528Y-64899023D01*
X180676233Y-64974766D01*
X180874165Y-65034808D01*
X181080000Y-65055080D01*
X181285834Y-65034808D01*
X181483764Y-64974766D01*
X181625470Y-64899022D01*
X181080001Y-64353553D01*
X181080000Y-64353553D01*
X180534528Y-64899023D01*
X177256921Y-64899023D01*
X177307372Y-64893598D01*
X177307379Y-64893596D01*
X177442086Y-64843354D01*
X177442093Y-64843350D01*
X177557187Y-64757190D01*
X177557190Y-64757187D01*
X177643350Y-64642093D01*
X177643354Y-64642086D01*
X177693596Y-64507379D01*
X177693598Y-64507372D01*
X177699999Y-64447844D01*
X177700000Y-64447827D01*
X177700000Y-64250000D01*
X177050000Y-64250000D01*
X176550000Y-64250000D01*
X176550000Y-64000000D01*
X180024919Y-64000000D01*
X180045191Y-64205834D01*
X180105233Y-64403766D01*
X180180975Y-64545469D01*
X180180976Y-64545469D01*
X180726447Y-64000000D01*
X180698287Y-63971840D01*
X180776105Y-63971840D01*
X180786454Y-64083521D01*
X180836448Y-64183922D01*
X180919334Y-64259484D01*
X181023920Y-64300000D01*
X181107802Y-64300000D01*
X181190250Y-64284588D01*
X181285610Y-64225543D01*
X181353201Y-64136038D01*
X181383895Y-64028160D01*
X181381286Y-64000000D01*
X181433553Y-64000000D01*
X181979022Y-64545469D01*
X182054766Y-64403764D01*
X182114808Y-64205834D01*
X182125441Y-64097870D01*
X182999500Y-64097870D01*
X182999501Y-64097876D01*
X183005908Y-64157483D01*
X183056202Y-64292328D01*
X183056206Y-64292335D01*
X183142452Y-64407544D01*
X183147584Y-64412676D01*
X183181069Y-64473999D01*
X183176085Y-64543691D01*
X183147584Y-64588038D01*
X183142809Y-64592812D01*
X183056649Y-64707906D01*
X183056645Y-64707913D01*
X183006403Y-64842620D01*
X183006401Y-64842627D01*
X183000000Y-64902155D01*
X183000000Y-65250000D01*
X185284314Y-65250000D01*
X185272359Y-65261955D01*
X185214835Y-65374852D01*
X185195014Y-65500000D01*
X185214835Y-65625148D01*
X185272359Y-65738045D01*
X185284314Y-65750000D01*
X185250000Y-65750000D01*
X185250000Y-66550000D01*
X186547828Y-66550000D01*
X186547844Y-66549999D01*
X186607372Y-66543598D01*
X186607379Y-66543596D01*
X186742086Y-66493354D01*
X186742093Y-66493350D01*
X186857187Y-66407190D01*
X186857190Y-66407187D01*
X186943350Y-66292093D01*
X186943354Y-66292086D01*
X186993596Y-66157379D01*
X186993598Y-66157372D01*
X186999999Y-66097844D01*
X187000000Y-66097827D01*
X187000000Y-65750000D01*
X185915686Y-65750000D01*
X185927641Y-65738045D01*
X185985165Y-65625148D01*
X186004986Y-65500000D01*
X185985165Y-65374852D01*
X185927641Y-65261955D01*
X185915686Y-65250000D01*
X187000000Y-65250000D01*
X187000000Y-64902172D01*
X186999999Y-64902155D01*
X186993598Y-64842627D01*
X186993596Y-64842620D01*
X186943354Y-64707913D01*
X186943350Y-64707906D01*
X186857190Y-64592812D01*
X186852416Y-64588038D01*
X186818931Y-64526715D01*
X186823915Y-64457023D01*
X186852416Y-64412676D01*
X186857542Y-64407548D01*
X186857546Y-64407546D01*
X186943796Y-64292331D01*
X186994091Y-64157483D01*
X187000500Y-64097873D01*
X187000499Y-62902128D01*
X186994091Y-62842517D01*
X186992912Y-62839357D01*
X186943797Y-62707671D01*
X186943793Y-62707664D01*
X186857547Y-62592455D01*
X186852773Y-62587681D01*
X186819288Y-62526358D01*
X186824272Y-62456666D01*
X186852773Y-62412319D01*
X186857542Y-62407548D01*
X186857546Y-62407546D01*
X186943796Y-62292331D01*
X186994091Y-62157483D01*
X187000500Y-62097873D01*
X187000499Y-60902128D01*
X186994091Y-60842517D01*
X186980766Y-60806792D01*
X186943797Y-60707671D01*
X186943793Y-60707664D01*
X186857547Y-60592455D01*
X186852773Y-60587681D01*
X186819288Y-60526358D01*
X186824272Y-60456666D01*
X186852773Y-60412319D01*
X186857542Y-60407548D01*
X186857546Y-60407546D01*
X186943796Y-60292331D01*
X186994091Y-60157483D01*
X187000500Y-60097873D01*
X187000499Y-58902128D01*
X186994229Y-58843797D01*
X186994091Y-58842516D01*
X186943797Y-58707671D01*
X186943793Y-58707664D01*
X186857547Y-58592455D01*
X186857544Y-58592452D01*
X186742335Y-58506206D01*
X186742328Y-58506202D01*
X186607482Y-58455908D01*
X186607483Y-58455908D01*
X186547883Y-58449501D01*
X186547881Y-58449500D01*
X186547873Y-58449500D01*
X186547864Y-58449500D01*
X183452129Y-58449500D01*
X183452123Y-58449501D01*
X183392516Y-58455908D01*
X183257671Y-58506202D01*
X183257664Y-58506206D01*
X183142455Y-58592452D01*
X183142452Y-58592455D01*
X183056206Y-58707664D01*
X183056202Y-58707671D01*
X183005908Y-58842517D01*
X182999675Y-58900498D01*
X182999501Y-58902123D01*
X182999500Y-58902135D01*
X182999500Y-60097870D01*
X182999501Y-60097876D01*
X183005908Y-60157483D01*
X183056202Y-60292328D01*
X183056206Y-60292335D01*
X183142452Y-60407544D01*
X183147227Y-60412319D01*
X183180712Y-60473642D01*
X183175728Y-60543334D01*
X183147227Y-60587681D01*
X183142452Y-60592455D01*
X183056206Y-60707664D01*
X183056202Y-60707671D01*
X183005908Y-60842517D01*
X183002470Y-60874500D01*
X182999501Y-60902123D01*
X182999500Y-60902135D01*
X182999500Y-62097870D01*
X182999501Y-62097876D01*
X183005908Y-62157483D01*
X183056202Y-62292328D01*
X183056206Y-62292335D01*
X183142452Y-62407544D01*
X183147227Y-62412319D01*
X183180712Y-62473642D01*
X183175728Y-62543334D01*
X183147227Y-62587681D01*
X183142452Y-62592455D01*
X183056206Y-62707664D01*
X183056202Y-62707671D01*
X183005908Y-62842517D01*
X182999876Y-62898627D01*
X182999501Y-62902123D01*
X182999500Y-62902135D01*
X182999500Y-64097870D01*
X182125441Y-64097870D01*
X182135080Y-64000000D01*
X182114808Y-63794165D01*
X182054766Y-63596233D01*
X181979023Y-63454528D01*
X181433553Y-63999999D01*
X181433553Y-64000000D01*
X181381286Y-64000000D01*
X181373546Y-63916479D01*
X181323552Y-63816078D01*
X181240666Y-63740516D01*
X181136080Y-63700000D01*
X181052198Y-63700000D01*
X180969750Y-63715412D01*
X180874390Y-63774457D01*
X180806799Y-63863962D01*
X180776105Y-63971840D01*
X180698287Y-63971840D01*
X180180976Y-63454529D01*
X180180975Y-63454529D01*
X180105234Y-63596234D01*
X180045191Y-63794166D01*
X180024919Y-64000000D01*
X176550000Y-64000000D01*
X176550000Y-63100000D01*
X177050000Y-63100000D01*
X177050000Y-63750000D01*
X177700000Y-63750000D01*
X177700000Y-63552172D01*
X177699999Y-63552155D01*
X177693598Y-63492627D01*
X177693596Y-63492620D01*
X177643354Y-63357913D01*
X177643350Y-63357906D01*
X177557190Y-63242812D01*
X177557187Y-63242809D01*
X177442093Y-63156649D01*
X177442086Y-63156645D01*
X177307379Y-63106403D01*
X177307372Y-63106401D01*
X177256921Y-63100976D01*
X180534529Y-63100976D01*
X181080000Y-63646447D01*
X181080001Y-63646447D01*
X181625469Y-63100976D01*
X181625469Y-63100975D01*
X181483766Y-63025233D01*
X181285834Y-62965191D01*
X181080000Y-62944919D01*
X180874166Y-62965191D01*
X180676234Y-63025234D01*
X180534529Y-63100975D01*
X180534529Y-63100976D01*
X177256921Y-63100976D01*
X177247844Y-63100000D01*
X177050000Y-63100000D01*
X176550000Y-63100000D01*
X176352155Y-63100000D01*
X176292627Y-63106401D01*
X176292620Y-63106403D01*
X176157913Y-63156645D01*
X176157910Y-63156647D01*
X176074727Y-63218918D01*
X176009262Y-63243335D01*
X175940989Y-63228483D01*
X175926103Y-63218916D01*
X175921374Y-63215376D01*
X175910832Y-63207484D01*
X175875187Y-63180799D01*
X175833317Y-63124865D01*
X175825500Y-63081534D01*
X175825500Y-61918464D01*
X175845185Y-61851425D01*
X175875187Y-61819199D01*
X175925689Y-61781393D01*
X175991153Y-61756977D01*
X176059426Y-61771829D01*
X176074310Y-61781394D01*
X176118902Y-61814775D01*
X176150168Y-61838181D01*
X176157668Y-61843795D01*
X176157671Y-61843797D01*
X176292517Y-61894091D01*
X176292516Y-61894091D01*
X176299444Y-61894835D01*
X176352127Y-61900500D01*
X177247872Y-61900499D01*
X177307483Y-61894091D01*
X177442331Y-61843796D01*
X177557546Y-61757546D01*
X177619199Y-61675188D01*
X177675132Y-61633318D01*
X177718465Y-61625500D01*
X180175714Y-61625500D01*
X180242753Y-61645185D01*
X180271568Y-61670836D01*
X180333589Y-61746410D01*
X180425238Y-61821623D01*
X180493550Y-61877685D01*
X180676046Y-61975232D01*
X180874066Y-62035300D01*
X180874065Y-62035300D01*
X180892529Y-62037118D01*
X181080000Y-62055583D01*
X181285934Y-62035300D01*
X181483954Y-61975232D01*
X181666450Y-61877685D01*
X181826410Y-61746410D01*
X181957685Y-61586450D01*
X182055232Y-61403954D01*
X182115300Y-61205934D01*
X182135583Y-61000000D01*
X182115300Y-60794066D01*
X182055232Y-60596046D01*
X181957685Y-60413550D01*
X181884859Y-60324811D01*
X181826410Y-60253589D01*
X181666452Y-60122317D01*
X181666453Y-60122317D01*
X181666450Y-60122315D01*
X181483954Y-60024768D01*
X181285934Y-59964700D01*
X181285932Y-59964699D01*
X181285934Y-59964699D01*
X181080000Y-59944417D01*
X180874067Y-59964699D01*
X180676043Y-60024769D01*
X180565898Y-60083643D01*
X180493550Y-60122315D01*
X180493548Y-60122316D01*
X180493547Y-60122317D01*
X180333589Y-60253589D01*
X180271568Y-60329164D01*
X180213822Y-60368499D01*
X180175714Y-60374500D01*
X177718465Y-60374500D01*
X177651426Y-60354815D01*
X177619198Y-60324811D01*
X177557546Y-60242454D01*
X177525689Y-60218606D01*
X177442335Y-60156206D01*
X177442328Y-60156202D01*
X177307482Y-60105908D01*
X177307483Y-60105908D01*
X177247883Y-60099501D01*
X177247881Y-60099500D01*
X177247873Y-60099500D01*
X177247864Y-60099500D01*
X176352129Y-60099500D01*
X176352123Y-60099501D01*
X176292516Y-60105908D01*
X176157671Y-60156202D01*
X176157669Y-60156203D01*
X176074311Y-60218606D01*
X176008847Y-60243023D01*
X175940574Y-60228172D01*
X175925689Y-60218606D01*
X175842330Y-60156203D01*
X175842328Y-60156202D01*
X175707482Y-60105908D01*
X175707483Y-60105908D01*
X175647883Y-60099501D01*
X175647881Y-60099500D01*
X175647873Y-60099500D01*
X175647864Y-60099500D01*
X174752129Y-60099500D01*
X174752123Y-60099501D01*
X174692516Y-60105908D01*
X174557671Y-60156202D01*
X174557664Y-60156206D01*
X174442455Y-60242452D01*
X174442452Y-60242455D01*
X174356206Y-60357664D01*
X174356202Y-60357671D01*
X174305908Y-60492517D01*
X174299501Y-60552116D01*
X174299500Y-60552135D01*
X174299500Y-61447870D01*
X174299501Y-61447876D01*
X174305908Y-61507483D01*
X174356202Y-61642328D01*
X174356206Y-61642335D01*
X174442452Y-61757544D01*
X174442453Y-61757545D01*
X174442454Y-61757546D01*
X174524811Y-61819198D01*
X174566682Y-61875131D01*
X174574500Y-61918464D01*
X174574500Y-63081534D01*
X174554815Y-63148573D01*
X174524812Y-63180800D01*
X174442454Y-63242453D01*
X174405091Y-63292364D01*
X174388432Y-63314619D01*
X174380802Y-63324811D01*
X174324868Y-63366682D01*
X174281535Y-63374500D01*
X171824286Y-63374500D01*
X171757247Y-63354815D01*
X171728432Y-63329164D01*
X171666410Y-63253589D01*
X171590836Y-63191568D01*
X171551501Y-63133822D01*
X171545500Y-63095714D01*
X171545500Y-61904285D01*
X171565185Y-61837246D01*
X171590836Y-61808431D01*
X171666410Y-61746410D01*
X171797685Y-61586450D01*
X171895232Y-61403954D01*
X171955300Y-61205934D01*
X171975583Y-61000000D01*
X171955300Y-60794066D01*
X171895232Y-60596046D01*
X171797685Y-60413550D01*
X171724859Y-60324811D01*
X171666410Y-60253589D01*
X171506452Y-60122317D01*
X171506453Y-60122317D01*
X171506450Y-60122315D01*
X171323954Y-60024768D01*
X171125934Y-59964700D01*
X171125932Y-59964699D01*
X171125934Y-59964699D01*
X170920000Y-59944417D01*
X170714067Y-59964699D01*
X170516043Y-60024769D01*
X170405898Y-60083643D01*
X170333550Y-60122315D01*
X170333548Y-60122316D01*
X170333547Y-60122317D01*
X170173589Y-60253589D01*
X170111568Y-60329164D01*
X170053822Y-60368499D01*
X170015714Y-60374500D01*
X169282737Y-60374500D01*
X169267120Y-60372776D01*
X169267093Y-60373062D01*
X169259331Y-60372327D01*
X169192144Y-60374439D01*
X169188250Y-60374500D01*
X169160650Y-60374500D01*
X169156962Y-60374965D01*
X169156649Y-60375005D01*
X169145031Y-60375918D01*
X169101377Y-60377290D01*
X169101367Y-60377292D01*
X169082134Y-60382879D01*
X169063094Y-60386822D01*
X169043217Y-60389334D01*
X169043210Y-60389335D01*
X169043208Y-60389336D01*
X169043206Y-60389336D01*
X169043205Y-60389337D01*
X169002584Y-60405419D01*
X168991537Y-60409201D01*
X168949611Y-60421382D01*
X168949608Y-60421383D01*
X168932363Y-60431581D01*
X168914901Y-60440135D01*
X168896272Y-60447511D01*
X168896267Y-60447514D01*
X168860926Y-60473189D01*
X168851168Y-60479599D01*
X168813580Y-60501828D01*
X168799408Y-60516000D01*
X168784623Y-60528628D01*
X168768412Y-60540407D01*
X168740571Y-60574059D01*
X168732711Y-60582696D01*
X167529134Y-61786274D01*
X167467811Y-61819759D01*
X167398119Y-61814775D01*
X167342186Y-61772903D01*
X167339878Y-61769716D01*
X167331357Y-61757547D01*
X167280826Y-61685380D01*
X167124620Y-61529174D01*
X167124616Y-61529171D01*
X167124615Y-61529170D01*
X166943666Y-61402468D01*
X166943658Y-61402464D01*
X166814811Y-61342382D01*
X166762371Y-61296210D01*
X166743219Y-61229017D01*
X166763435Y-61162135D01*
X166814811Y-61117618D01*
X166843976Y-61104018D01*
X166943662Y-61057534D01*
X167124620Y-60930826D01*
X167280826Y-60774620D01*
X167407534Y-60593662D01*
X167407534Y-60593661D01*
X167409713Y-60590550D01*
X167464290Y-60546925D01*
X167476697Y-60542596D01*
X167490390Y-60538618D01*
X167507629Y-60528422D01*
X167525103Y-60519862D01*
X167543727Y-60512488D01*
X167543727Y-60512487D01*
X167543732Y-60512486D01*
X167579083Y-60486800D01*
X167588814Y-60480408D01*
X167626420Y-60458170D01*
X167640589Y-60443999D01*
X167655379Y-60431368D01*
X167671587Y-60419594D01*
X167699438Y-60385926D01*
X167707279Y-60377309D01*
X169422771Y-58661819D01*
X169484094Y-58628334D01*
X169510452Y-58625500D01*
X170015714Y-58625500D01*
X170082753Y-58645185D01*
X170111568Y-58670836D01*
X170173589Y-58746410D01*
X170215838Y-58781082D01*
X170333550Y-58877685D01*
X170516046Y-58975232D01*
X170714066Y-59035300D01*
X170714065Y-59035300D01*
X170732529Y-59037118D01*
X170920000Y-59055583D01*
X171125934Y-59035300D01*
X171323954Y-58975232D01*
X171506450Y-58877685D01*
X171666410Y-58746410D01*
X171702707Y-58702182D01*
X171728432Y-58670836D01*
X171786178Y-58631501D01*
X171824286Y-58625500D01*
X174281535Y-58625500D01*
X174348574Y-58645185D01*
X174380800Y-58675187D01*
X174442454Y-58757546D01*
X174477789Y-58783998D01*
X174557664Y-58843793D01*
X174557671Y-58843797D01*
X174692517Y-58894091D01*
X174692516Y-58894091D01*
X174699444Y-58894835D01*
X174752127Y-58900500D01*
X175647872Y-58900499D01*
X175707483Y-58894091D01*
X175842331Y-58843796D01*
X175926105Y-58781082D01*
X175991569Y-58756665D01*
X176059842Y-58771516D01*
X176074727Y-58781082D01*
X176157910Y-58843352D01*
X176157913Y-58843354D01*
X176292620Y-58893596D01*
X176292627Y-58893598D01*
X176352155Y-58899999D01*
X176352172Y-58900000D01*
X176550000Y-58900000D01*
X176550000Y-58250000D01*
X177050000Y-58250000D01*
X177050000Y-58900000D01*
X177247828Y-58900000D01*
X177247844Y-58899999D01*
X177256921Y-58899023D01*
X180534528Y-58899023D01*
X180676233Y-58974766D01*
X180874165Y-59034808D01*
X181080000Y-59055080D01*
X181285834Y-59034808D01*
X181483764Y-58974766D01*
X181625470Y-58899022D01*
X181080001Y-58353553D01*
X181080000Y-58353553D01*
X180534528Y-58899023D01*
X177256921Y-58899023D01*
X177307372Y-58893598D01*
X177307379Y-58893596D01*
X177442086Y-58843354D01*
X177442093Y-58843350D01*
X177557187Y-58757190D01*
X177557190Y-58757187D01*
X177643350Y-58642093D01*
X177643354Y-58642086D01*
X177693596Y-58507379D01*
X177693598Y-58507372D01*
X177699999Y-58447844D01*
X177700000Y-58447827D01*
X177700000Y-58250000D01*
X177050000Y-58250000D01*
X176550000Y-58250000D01*
X176550000Y-58000000D01*
X180024919Y-58000000D01*
X180045191Y-58205834D01*
X180105233Y-58403766D01*
X180180975Y-58545469D01*
X180180976Y-58545469D01*
X180726447Y-58000000D01*
X180698287Y-57971840D01*
X180776105Y-57971840D01*
X180786454Y-58083521D01*
X180836448Y-58183922D01*
X180919334Y-58259484D01*
X181023920Y-58300000D01*
X181107802Y-58300000D01*
X181190250Y-58284588D01*
X181285610Y-58225543D01*
X181353201Y-58136038D01*
X181383895Y-58028160D01*
X181381286Y-58000000D01*
X181433553Y-58000000D01*
X181979022Y-58545469D01*
X182054766Y-58403764D01*
X182114808Y-58205834D01*
X182135080Y-58000000D01*
X182114808Y-57794165D01*
X182054766Y-57596233D01*
X181979023Y-57454528D01*
X181433553Y-57999999D01*
X181433553Y-58000000D01*
X181381286Y-58000000D01*
X181373546Y-57916479D01*
X181323552Y-57816078D01*
X181240666Y-57740516D01*
X181136080Y-57700000D01*
X181052198Y-57700000D01*
X180969750Y-57715412D01*
X180874390Y-57774457D01*
X180806799Y-57863962D01*
X180776105Y-57971840D01*
X180698287Y-57971840D01*
X180180976Y-57454529D01*
X180180975Y-57454529D01*
X180105234Y-57596234D01*
X180045191Y-57794166D01*
X180024919Y-58000000D01*
X176550000Y-58000000D01*
X176550000Y-57100000D01*
X177050000Y-57100000D01*
X177050000Y-57750000D01*
X177700000Y-57750000D01*
X177700000Y-57552172D01*
X177699999Y-57552155D01*
X177693598Y-57492627D01*
X177693596Y-57492620D01*
X177643354Y-57357913D01*
X177643350Y-57357906D01*
X177557190Y-57242812D01*
X177557187Y-57242809D01*
X177442093Y-57156649D01*
X177442086Y-57156645D01*
X177307379Y-57106403D01*
X177307372Y-57106401D01*
X177256921Y-57100976D01*
X180534529Y-57100976D01*
X181080000Y-57646447D01*
X181080001Y-57646447D01*
X181625469Y-57100976D01*
X181625469Y-57100975D01*
X181483766Y-57025233D01*
X181285834Y-56965191D01*
X181080000Y-56944919D01*
X180874166Y-56965191D01*
X180676234Y-57025234D01*
X180534529Y-57100975D01*
X180534529Y-57100976D01*
X177256921Y-57100976D01*
X177247844Y-57100000D01*
X177050000Y-57100000D01*
X176550000Y-57100000D01*
X176352155Y-57100000D01*
X176292627Y-57106401D01*
X176292620Y-57106403D01*
X176157913Y-57156645D01*
X176157910Y-57156647D01*
X176074727Y-57218918D01*
X176009262Y-57243335D01*
X175940989Y-57228483D01*
X175926103Y-57218916D01*
X175875187Y-57180799D01*
X175833317Y-57124865D01*
X175825500Y-57081534D01*
X175825500Y-55918464D01*
X175845185Y-55851425D01*
X175875187Y-55819199D01*
X175925689Y-55781393D01*
X175991153Y-55756977D01*
X176059426Y-55771829D01*
X176074310Y-55781394D01*
X176124757Y-55819158D01*
X176148919Y-55837246D01*
X176157668Y-55843795D01*
X176157671Y-55843797D01*
X176292517Y-55894091D01*
X176292516Y-55894091D01*
X176299444Y-55894835D01*
X176352127Y-55900500D01*
X177247872Y-55900499D01*
X177307483Y-55894091D01*
X177442331Y-55843796D01*
X177557546Y-55757546D01*
X177619199Y-55675188D01*
X177675132Y-55633318D01*
X177718465Y-55625500D01*
X180175714Y-55625500D01*
X180242753Y-55645185D01*
X180271568Y-55670836D01*
X180333589Y-55746410D01*
X180373379Y-55779064D01*
X180493550Y-55877685D01*
X180676046Y-55975232D01*
X180874066Y-56035300D01*
X180874065Y-56035300D01*
X180892529Y-56037118D01*
X181080000Y-56055583D01*
X181285934Y-56035300D01*
X181483954Y-55975232D01*
X181666450Y-55877685D01*
X181826410Y-55746410D01*
X181957685Y-55586450D01*
X182055232Y-55403954D01*
X182115300Y-55205934D01*
X182135583Y-55000000D01*
X182115300Y-54794066D01*
X182055232Y-54596046D01*
X181957685Y-54413550D01*
X181884859Y-54324811D01*
X181826410Y-54253589D01*
X181750836Y-54191568D01*
X181711501Y-54133822D01*
X181705500Y-54095714D01*
X181705500Y-53362738D01*
X181707224Y-53347124D01*
X181706938Y-53347097D01*
X181707672Y-53339334D01*
X181705561Y-53272144D01*
X181705500Y-53268250D01*
X181705500Y-53240651D01*
X181705500Y-53240650D01*
X181704997Y-53236670D01*
X181704080Y-53225021D01*
X181703294Y-53200000D01*
X181702709Y-53181373D01*
X181697122Y-53162144D01*
X181693174Y-53143084D01*
X181692246Y-53135734D01*
X181690664Y-53123208D01*
X181690663Y-53123206D01*
X181690663Y-53123204D01*
X181674588Y-53082604D01*
X181670804Y-53071552D01*
X181658618Y-53029609D01*
X181658616Y-53029606D01*
X181648423Y-53012371D01*
X181639861Y-52994894D01*
X181632487Y-52976269D01*
X181622929Y-52963114D01*
X181606811Y-52940930D01*
X181600405Y-52931177D01*
X181578170Y-52893580D01*
X181578168Y-52893578D01*
X181578165Y-52893574D01*
X181564006Y-52879415D01*
X181551368Y-52864619D01*
X181539594Y-52848413D01*
X181505940Y-52820572D01*
X181497299Y-52812709D01*
X180100803Y-51416212D01*
X180090980Y-51403950D01*
X180090759Y-51404134D01*
X180085786Y-51398122D01*
X180036776Y-51352099D01*
X180033977Y-51349386D01*
X180014477Y-51329885D01*
X180014471Y-51329880D01*
X180011286Y-51327409D01*
X180002434Y-51319848D01*
X179970582Y-51289938D01*
X179970580Y-51289936D01*
X179970577Y-51289935D01*
X179953029Y-51280288D01*
X179936763Y-51269604D01*
X179920932Y-51257324D01*
X179880849Y-51239978D01*
X179870387Y-51234854D01*
X179867333Y-51233176D01*
X179818057Y-51183642D01*
X179803384Y-51115330D01*
X179827972Y-51049930D01*
X179884015Y-51008205D01*
X179927044Y-51000500D01*
X193875500Y-51000500D01*
X193942539Y-51020185D01*
G37*
%TD.AperFunction*%
%TA.AperFunction,Conductor*%
G36*
X157370540Y-58065185D02*
G01*
X157416295Y-58117989D01*
X157427501Y-58169500D01*
X157427501Y-58229876D01*
X157433908Y-58289483D01*
X157484202Y-58424328D01*
X157484206Y-58424335D01*
X157570452Y-58539544D01*
X157570454Y-58539546D01*
X157685664Y-58625793D01*
X157685671Y-58625797D01*
X157729345Y-58642086D01*
X157820517Y-58676091D01*
X157880127Y-58682500D01*
X157920078Y-58682499D01*
X157987116Y-58702182D01*
X158032872Y-58754985D01*
X158042817Y-58824143D01*
X158013794Y-58887700D01*
X157991203Y-58908074D01*
X157875375Y-58989177D01*
X157719175Y-59145377D01*
X157592466Y-59326338D01*
X157592465Y-59326340D01*
X157499107Y-59526548D01*
X157499104Y-59526554D01*
X157441930Y-59739929D01*
X157441929Y-59739937D01*
X157422677Y-59959997D01*
X157422677Y-59960002D01*
X157441929Y-60180062D01*
X157441930Y-60180070D01*
X157499104Y-60393445D01*
X157499105Y-60393447D01*
X157499106Y-60393450D01*
X157587435Y-60582872D01*
X157592466Y-60593662D01*
X157592468Y-60593666D01*
X157719170Y-60774615D01*
X157719175Y-60774621D01*
X157875378Y-60930824D01*
X157875384Y-60930829D01*
X158056333Y-61057531D01*
X158056335Y-61057532D01*
X158056338Y-61057534D01*
X158156024Y-61104018D01*
X158185189Y-61117618D01*
X158237628Y-61163790D01*
X158256780Y-61230984D01*
X158236564Y-61297865D01*
X158185189Y-61342382D01*
X158056340Y-61402465D01*
X158056338Y-61402466D01*
X157875377Y-61529175D01*
X157719175Y-61685377D01*
X157592466Y-61866338D01*
X157592465Y-61866340D01*
X157530992Y-61998170D01*
X157504221Y-62055582D01*
X157499107Y-62066548D01*
X157499104Y-62066554D01*
X157441930Y-62279929D01*
X157441929Y-62279937D01*
X157422677Y-62499997D01*
X157422677Y-62500002D01*
X157441929Y-62720062D01*
X157441930Y-62720070D01*
X157499104Y-62933445D01*
X157499105Y-62933447D01*
X157499106Y-62933450D01*
X157578611Y-63103950D01*
X157592466Y-63133662D01*
X157592468Y-63133666D01*
X157719170Y-63314615D01*
X157719175Y-63314621D01*
X157875378Y-63470824D01*
X157875384Y-63470829D01*
X158056333Y-63597531D01*
X158056335Y-63597532D01*
X158056338Y-63597534D01*
X158161233Y-63646447D01*
X158185189Y-63657618D01*
X158237628Y-63703790D01*
X158256780Y-63770984D01*
X158236564Y-63837865D01*
X158185189Y-63882382D01*
X158056340Y-63942465D01*
X158056338Y-63942466D01*
X157875377Y-64069175D01*
X157719175Y-64225377D01*
X157592466Y-64406338D01*
X157592465Y-64406340D01*
X157499107Y-64606548D01*
X157499104Y-64606554D01*
X157441930Y-64819929D01*
X157441929Y-64819937D01*
X157422677Y-65039997D01*
X157422677Y-65040002D01*
X157441929Y-65260062D01*
X157441930Y-65260070D01*
X157499104Y-65473445D01*
X157499105Y-65473447D01*
X157499106Y-65473450D01*
X157569844Y-65625148D01*
X157592466Y-65673662D01*
X157592468Y-65673666D01*
X157719170Y-65854615D01*
X157719175Y-65854621D01*
X157875378Y-66010824D01*
X157875384Y-66010829D01*
X158056333Y-66137531D01*
X158056335Y-66137532D01*
X158056338Y-66137534D01*
X158175748Y-66193215D01*
X158185189Y-66197618D01*
X158237628Y-66243790D01*
X158256780Y-66310984D01*
X158236564Y-66377865D01*
X158185189Y-66422382D01*
X158056340Y-66482465D01*
X158056338Y-66482466D01*
X157875377Y-66609175D01*
X157719175Y-66765377D01*
X157592466Y-66946338D01*
X157592465Y-66946340D01*
X157499107Y-67146548D01*
X157499104Y-67146554D01*
X157441930Y-67359929D01*
X157441929Y-67359937D01*
X157422677Y-67579997D01*
X157422677Y-67580002D01*
X157441929Y-67800062D01*
X157441930Y-67800070D01*
X157499104Y-68013445D01*
X157499105Y-68013447D01*
X157499106Y-68013450D01*
X157537620Y-68096043D01*
X157592466Y-68213662D01*
X157592468Y-68213666D01*
X157697867Y-68364191D01*
X157719174Y-68394620D01*
X157875380Y-68550826D01*
X157975590Y-68620994D01*
X158011623Y-68646224D01*
X158055248Y-68700801D01*
X158064500Y-68747799D01*
X158064500Y-70899547D01*
X158044815Y-70966586D01*
X158028181Y-70987228D01*
X157477228Y-71538181D01*
X157415905Y-71571666D01*
X157389547Y-71574500D01*
X151400844Y-71574500D01*
X151333805Y-71554815D01*
X151288050Y-71502011D01*
X151278106Y-71432853D01*
X151299269Y-71379376D01*
X151430133Y-71192482D01*
X151526265Y-70986326D01*
X151526269Y-70986317D01*
X151578872Y-70790000D01*
X150733686Y-70790000D01*
X150759493Y-70749844D01*
X150800000Y-70611889D01*
X150800000Y-70468111D01*
X150759493Y-70330156D01*
X150733686Y-70290000D01*
X151578872Y-70290000D01*
X151578872Y-70289999D01*
X151526269Y-70093682D01*
X151526265Y-70093673D01*
X151430134Y-69887517D01*
X151299657Y-69701179D01*
X151138820Y-69540342D01*
X150952482Y-69409865D01*
X150746328Y-69313734D01*
X150550000Y-69261127D01*
X150550000Y-70104498D01*
X150442315Y-70055320D01*
X150335763Y-70040000D01*
X150264237Y-70040000D01*
X150157685Y-70055320D01*
X150050000Y-70104498D01*
X150050000Y-69261127D01*
X149853671Y-69313734D01*
X149647517Y-69409865D01*
X149461179Y-69540342D01*
X149300342Y-69701179D01*
X149169865Y-69887517D01*
X149073734Y-70093673D01*
X149073730Y-70093682D01*
X149021127Y-70289999D01*
X149021128Y-70290000D01*
X149866314Y-70290000D01*
X149840507Y-70330156D01*
X149800000Y-70468111D01*
X149800000Y-70611889D01*
X149840507Y-70749844D01*
X149866314Y-70790000D01*
X149021128Y-70790000D01*
X149073730Y-70986317D01*
X149073734Y-70986326D01*
X149169866Y-71192482D01*
X149300731Y-71379376D01*
X149323058Y-71445582D01*
X149306048Y-71513350D01*
X149255100Y-71561163D01*
X149199156Y-71574500D01*
X140310453Y-71574500D01*
X140243414Y-71554815D01*
X140222772Y-71538181D01*
X138861819Y-70177228D01*
X138828334Y-70115905D01*
X138825500Y-70089547D01*
X138825500Y-67950000D01*
X144300000Y-67950000D01*
X144300000Y-68147844D01*
X144306401Y-68207372D01*
X144306403Y-68207379D01*
X144356645Y-68342086D01*
X144356649Y-68342093D01*
X144442809Y-68457187D01*
X144442812Y-68457190D01*
X144557906Y-68543350D01*
X144557913Y-68543354D01*
X144692620Y-68593596D01*
X144692627Y-68593598D01*
X144752155Y-68599999D01*
X144752172Y-68600000D01*
X144950000Y-68600000D01*
X144950000Y-67950000D01*
X144300000Y-67950000D01*
X138825500Y-67950000D01*
X138825500Y-67450000D01*
X144300000Y-67450000D01*
X144950000Y-67450000D01*
X144950000Y-66800000D01*
X144752155Y-66800000D01*
X144692627Y-66806401D01*
X144692620Y-66806403D01*
X144557913Y-66856645D01*
X144557906Y-66856649D01*
X144442812Y-66942809D01*
X144442809Y-66942812D01*
X144356649Y-67057906D01*
X144356645Y-67057913D01*
X144306403Y-67192620D01*
X144306401Y-67192627D01*
X144300000Y-67252155D01*
X144300000Y-67450000D01*
X138825500Y-67450000D01*
X138825500Y-64682742D01*
X138827224Y-64667122D01*
X138826939Y-64667096D01*
X138827671Y-64659340D01*
X138827673Y-64659333D01*
X138825561Y-64592126D01*
X138825500Y-64588231D01*
X138825500Y-64560654D01*
X138825500Y-64560650D01*
X138824996Y-64556665D01*
X138824080Y-64545021D01*
X138824027Y-64543334D01*
X138822709Y-64501373D01*
X138817122Y-64482144D01*
X138813174Y-64463084D01*
X138812779Y-64459953D01*
X138810664Y-64443208D01*
X138810663Y-64443206D01*
X138810663Y-64443204D01*
X138794588Y-64402604D01*
X138790804Y-64391552D01*
X138778618Y-64349609D01*
X138778616Y-64349606D01*
X138768423Y-64332371D01*
X138759861Y-64314894D01*
X138752487Y-64296269D01*
X138726816Y-64260937D01*
X138720405Y-64251177D01*
X138698170Y-64213580D01*
X138698168Y-64213578D01*
X138698165Y-64213574D01*
X138684006Y-64199415D01*
X138671368Y-64184619D01*
X138666802Y-64178334D01*
X138659594Y-64168413D01*
X138658033Y-64167122D01*
X138625940Y-64140572D01*
X138617299Y-64132709D01*
X137600803Y-63116212D01*
X137590980Y-63103950D01*
X137590759Y-63104134D01*
X137585786Y-63098122D01*
X137536776Y-63052099D01*
X137533977Y-63049386D01*
X137514477Y-63029885D01*
X137514471Y-63029880D01*
X137511286Y-63027409D01*
X137502434Y-63019848D01*
X137470582Y-62989938D01*
X137470580Y-62989936D01*
X137470577Y-62989935D01*
X137453029Y-62980288D01*
X137436763Y-62969604D01*
X137423858Y-62959594D01*
X137420936Y-62957327D01*
X137420935Y-62957326D01*
X137420932Y-62957324D01*
X137380849Y-62939978D01*
X137370363Y-62934841D01*
X137332094Y-62913803D01*
X137332092Y-62913802D01*
X137312693Y-62908822D01*
X137294281Y-62902518D01*
X137275898Y-62894562D01*
X137275892Y-62894560D01*
X137232760Y-62887729D01*
X137221322Y-62885361D01*
X137179020Y-62874500D01*
X137179019Y-62874500D01*
X137158984Y-62874500D01*
X137139586Y-62872973D01*
X137129919Y-62871442D01*
X137119805Y-62869840D01*
X137119799Y-62869839D01*
X137102845Y-62871442D01*
X137034251Y-62858152D01*
X136983732Y-62809886D01*
X136974998Y-62791325D01*
X136943797Y-62707671D01*
X136943793Y-62707664D01*
X136857547Y-62592455D01*
X136852773Y-62587681D01*
X136819288Y-62526358D01*
X136824272Y-62456666D01*
X136852773Y-62412319D01*
X136857542Y-62407548D01*
X136857546Y-62407546D01*
X136943796Y-62292331D01*
X136957099Y-62256664D01*
X136975934Y-62206166D01*
X137017806Y-62150233D01*
X137083270Y-62125816D01*
X137092116Y-62125500D01*
X140781535Y-62125500D01*
X140848574Y-62145185D01*
X140880800Y-62175187D01*
X140942454Y-62257546D01*
X141024811Y-62319198D01*
X141066682Y-62375131D01*
X141074500Y-62418464D01*
X141074500Y-62717255D01*
X141072775Y-62732872D01*
X141073061Y-62732899D01*
X141072326Y-62740665D01*
X141074439Y-62807872D01*
X141074500Y-62811767D01*
X141074500Y-62839357D01*
X141075003Y-62843335D01*
X141075918Y-62854967D01*
X141077290Y-62898624D01*
X141077291Y-62898627D01*
X141082880Y-62917867D01*
X141086824Y-62936911D01*
X141087162Y-62939582D01*
X141089336Y-62956792D01*
X141105414Y-62997403D01*
X141109197Y-63008452D01*
X141118344Y-63039936D01*
X141121382Y-63050390D01*
X141126983Y-63059862D01*
X141131580Y-63067634D01*
X141140136Y-63085100D01*
X141143893Y-63094586D01*
X141147514Y-63103732D01*
X141173181Y-63139060D01*
X141179593Y-63148821D01*
X141201828Y-63186417D01*
X141201833Y-63186424D01*
X141215990Y-63200580D01*
X141228628Y-63215376D01*
X141232667Y-63220936D01*
X141240406Y-63231587D01*
X141267003Y-63253590D01*
X141274057Y-63259425D01*
X141282698Y-63267288D01*
X141899197Y-63883788D01*
X141909022Y-63896051D01*
X141909243Y-63895869D01*
X141914211Y-63901874D01*
X141914213Y-63901876D01*
X141914214Y-63901877D01*
X141957439Y-63942468D01*
X141963222Y-63947899D01*
X141966021Y-63950612D01*
X141985522Y-63970114D01*
X141985526Y-63970117D01*
X141985529Y-63970120D01*
X141988702Y-63972581D01*
X141997574Y-63980159D01*
X142029418Y-64010062D01*
X142046976Y-64019714D01*
X142063235Y-64030395D01*
X142079064Y-64042673D01*
X142119155Y-64060021D01*
X142129626Y-64065151D01*
X142139172Y-64070399D01*
X142167902Y-64086194D01*
X142167904Y-64086195D01*
X142167908Y-64086197D01*
X142187316Y-64091180D01*
X142205717Y-64097480D01*
X142206648Y-64097883D01*
X142224101Y-64105436D01*
X142224102Y-64105436D01*
X142224104Y-64105437D01*
X142267250Y-64112270D01*
X142278672Y-64114636D01*
X142320981Y-64125500D01*
X142341016Y-64125500D01*
X142360415Y-64127027D01*
X142380196Y-64130160D01*
X142420939Y-64126308D01*
X142423672Y-64126050D01*
X142435342Y-64125500D01*
X143026000Y-64125500D01*
X143093039Y-64145185D01*
X143138794Y-64197989D01*
X143150000Y-64249500D01*
X143150000Y-64250000D01*
X143307893Y-64250000D01*
X143374932Y-64269685D01*
X143382204Y-64274733D01*
X143405717Y-64292335D01*
X143407668Y-64293795D01*
X143407671Y-64293797D01*
X143542517Y-64344091D01*
X143542516Y-64344091D01*
X143549444Y-64344835D01*
X143602127Y-64350500D01*
X144326001Y-64350499D01*
X144393039Y-64370183D01*
X144438794Y-64422987D01*
X144450000Y-64474499D01*
X144450000Y-64525500D01*
X144430315Y-64592539D01*
X144377511Y-64638294D01*
X144326000Y-64649500D01*
X143602129Y-64649500D01*
X143602123Y-64649501D01*
X143542516Y-64655908D01*
X143407671Y-64706202D01*
X143407668Y-64706204D01*
X143382204Y-64725267D01*
X143316739Y-64749684D01*
X143307893Y-64750000D01*
X143150000Y-64750000D01*
X143150000Y-64847844D01*
X143156401Y-64907372D01*
X143156403Y-64907379D01*
X143165195Y-64930952D01*
X143170179Y-65000644D01*
X143165196Y-65017615D01*
X143155909Y-65042516D01*
X143155908Y-65042517D01*
X143149501Y-65102117D01*
X143149500Y-65102136D01*
X143149500Y-65797870D01*
X143149501Y-65797876D01*
X143155908Y-65857483D01*
X143206202Y-65992328D01*
X143206206Y-65992335D01*
X143292452Y-66107544D01*
X143292455Y-66107547D01*
X143407664Y-66193793D01*
X143407671Y-66193797D01*
X143542517Y-66244091D01*
X143542516Y-66244091D01*
X143549444Y-66244835D01*
X143602127Y-66250500D01*
X144797872Y-66250499D01*
X144857483Y-66244091D01*
X144992331Y-66193796D01*
X145107546Y-66107546D01*
X145107548Y-66107542D01*
X145114239Y-66102534D01*
X145179703Y-66078116D01*
X145184658Y-66077861D01*
X145190664Y-66077672D01*
X145190667Y-66077673D01*
X145252574Y-66075727D01*
X145257875Y-66075561D01*
X145261768Y-66075500D01*
X145289346Y-66075500D01*
X145289350Y-66075500D01*
X145293324Y-66074997D01*
X145304963Y-66074080D01*
X145348627Y-66072709D01*
X145367869Y-66067117D01*
X145386912Y-66063174D01*
X145406792Y-66060664D01*
X145447401Y-66044585D01*
X145458444Y-66040803D01*
X145500390Y-66028618D01*
X145517629Y-66018422D01*
X145535103Y-66009862D01*
X145553727Y-66002488D01*
X145553727Y-66002487D01*
X145553732Y-66002486D01*
X145589083Y-65976800D01*
X145598810Y-65970411D01*
X145636081Y-65948370D01*
X145703802Y-65931190D01*
X145770065Y-65953350D01*
X145799557Y-65986227D01*
X145800888Y-65985231D01*
X145892452Y-66107544D01*
X145892455Y-66107547D01*
X146007664Y-66193793D01*
X146007671Y-66193797D01*
X146093833Y-66225933D01*
X146149766Y-66267804D01*
X146174184Y-66333268D01*
X146174500Y-66342115D01*
X146174500Y-66781534D01*
X146154815Y-66848573D01*
X146124812Y-66880800D01*
X146073895Y-66918917D01*
X146008431Y-66943335D01*
X145940158Y-66928484D01*
X145925272Y-66918918D01*
X145842088Y-66856646D01*
X145842086Y-66856645D01*
X145707379Y-66806403D01*
X145707372Y-66806401D01*
X145647844Y-66800000D01*
X145450000Y-66800000D01*
X145450000Y-68600000D01*
X145647828Y-68600000D01*
X145647844Y-68599999D01*
X145707372Y-68593598D01*
X145707379Y-68593596D01*
X145842086Y-68543354D01*
X145842089Y-68543352D01*
X145925271Y-68481082D01*
X145990735Y-68456664D01*
X146059008Y-68471515D01*
X146073887Y-68481077D01*
X146157076Y-68543352D01*
X146157668Y-68543795D01*
X146157671Y-68543797D01*
X146292517Y-68594091D01*
X146292516Y-68594091D01*
X146299444Y-68594835D01*
X146352127Y-68600500D01*
X147247872Y-68600499D01*
X147307483Y-68594091D01*
X147442331Y-68543796D01*
X147557546Y-68457546D01*
X147643796Y-68342331D01*
X147694091Y-68207483D01*
X147700500Y-68147873D01*
X147700499Y-67252128D01*
X147694091Y-67192517D01*
X147691377Y-67185241D01*
X147643797Y-67057671D01*
X147643793Y-67057664D01*
X147557547Y-66942455D01*
X147538884Y-66928484D01*
X147526105Y-66918917D01*
X147475188Y-66880800D01*
X147433318Y-66824866D01*
X147425500Y-66781534D01*
X147425500Y-66342115D01*
X147445185Y-66275076D01*
X147497989Y-66229321D01*
X147506167Y-66225933D01*
X147592331Y-66193796D01*
X147640987Y-66157372D01*
X147714645Y-66102232D01*
X147716439Y-66104629D01*
X147764596Y-66078334D01*
X147790954Y-66075500D01*
X149078810Y-66075500D01*
X149145849Y-66095185D01*
X149180385Y-66128377D01*
X149299954Y-66299141D01*
X149460858Y-66460045D01*
X149492879Y-66482466D01*
X149647266Y-66590568D01*
X149853504Y-66686739D01*
X149853509Y-66686740D01*
X149853511Y-66686741D01*
X149881058Y-66694122D01*
X150073308Y-66745635D01*
X150235230Y-66759801D01*
X150299998Y-66765468D01*
X150300000Y-66765468D01*
X150300002Y-66765468D01*
X150356673Y-66760509D01*
X150526692Y-66745635D01*
X150746496Y-66686739D01*
X150952734Y-66590568D01*
X151139139Y-66460047D01*
X151300047Y-66299139D01*
X151430568Y-66112734D01*
X151526739Y-65906496D01*
X151585635Y-65686692D01*
X151605468Y-65460000D01*
X151600446Y-65402604D01*
X151599336Y-65389909D01*
X151585635Y-65233308D01*
X151530467Y-65027416D01*
X151526741Y-65013511D01*
X151526738Y-65013502D01*
X151515749Y-64989936D01*
X151430568Y-64807266D01*
X151320020Y-64649386D01*
X151300045Y-64620858D01*
X151139141Y-64459954D01*
X150952734Y-64329432D01*
X150952732Y-64329431D01*
X150746497Y-64233261D01*
X150746488Y-64233258D01*
X150526697Y-64174366D01*
X150526693Y-64174365D01*
X150526692Y-64174365D01*
X150526691Y-64174364D01*
X150526686Y-64174364D01*
X150300002Y-64154532D01*
X150299998Y-64154532D01*
X150073313Y-64174364D01*
X150073302Y-64174366D01*
X149853511Y-64233258D01*
X149853502Y-64233261D01*
X149647267Y-64329431D01*
X149647265Y-64329432D01*
X149460858Y-64459954D01*
X149299954Y-64620858D01*
X149194389Y-64771623D01*
X149139812Y-64815248D01*
X149092814Y-64824500D01*
X147790954Y-64824500D01*
X147723915Y-64804815D01*
X147714842Y-64797504D01*
X147714645Y-64797768D01*
X147592335Y-64706206D01*
X147592328Y-64706202D01*
X147457482Y-64655908D01*
X147457483Y-64655908D01*
X147397883Y-64649501D01*
X147397881Y-64649500D01*
X147397873Y-64649500D01*
X147397865Y-64649500D01*
X146249500Y-64649500D01*
X146182461Y-64629815D01*
X146136706Y-64577011D01*
X146125500Y-64525500D01*
X146125500Y-64474499D01*
X146145185Y-64407460D01*
X146197989Y-64361705D01*
X146249495Y-64350499D01*
X147397872Y-64350499D01*
X147457483Y-64344091D01*
X147592331Y-64293796D01*
X147656503Y-64245757D01*
X147714645Y-64202232D01*
X147716439Y-64204629D01*
X147764596Y-64178334D01*
X147790954Y-64175500D01*
X148567257Y-64175500D01*
X148582877Y-64177224D01*
X148582904Y-64176939D01*
X148590660Y-64177671D01*
X148590667Y-64177673D01*
X148657873Y-64175561D01*
X148661768Y-64175500D01*
X148689346Y-64175500D01*
X148689350Y-64175500D01*
X148693324Y-64174997D01*
X148704963Y-64174080D01*
X148748627Y-64172709D01*
X148767869Y-64167117D01*
X148786912Y-64163174D01*
X148806792Y-64160664D01*
X148847401Y-64144585D01*
X148858444Y-64140803D01*
X148900390Y-64128618D01*
X148917629Y-64118422D01*
X148935103Y-64109862D01*
X148953727Y-64102488D01*
X148953727Y-64102487D01*
X148953732Y-64102486D01*
X148989083Y-64076800D01*
X148998814Y-64070408D01*
X149036420Y-64048170D01*
X149050589Y-64033999D01*
X149065379Y-64021368D01*
X149081587Y-64009594D01*
X149109438Y-63975926D01*
X149117279Y-63967309D01*
X149683787Y-63400802D01*
X149696042Y-63390986D01*
X149695859Y-63390764D01*
X149701868Y-63385791D01*
X149701877Y-63385786D01*
X149747949Y-63336722D01*
X149750566Y-63334023D01*
X149770120Y-63314471D01*
X149772576Y-63311303D01*
X149780156Y-63302427D01*
X149810062Y-63270582D01*
X149819715Y-63253020D01*
X149830389Y-63236770D01*
X149842673Y-63220936D01*
X149860019Y-63180850D01*
X149865157Y-63170362D01*
X149867437Y-63166216D01*
X149886197Y-63132092D01*
X149891177Y-63112691D01*
X149897478Y-63094288D01*
X149905438Y-63075896D01*
X149912272Y-63032741D01*
X149914635Y-63021331D01*
X149925500Y-62979019D01*
X149925500Y-62958983D01*
X149927027Y-62939582D01*
X149930160Y-62919804D01*
X149926050Y-62876324D01*
X149925500Y-62864655D01*
X149925500Y-62418464D01*
X149945185Y-62351425D01*
X149975187Y-62319199D01*
X150057546Y-62257546D01*
X150119199Y-62175188D01*
X150175132Y-62133318D01*
X150218465Y-62125500D01*
X151267257Y-62125500D01*
X151282877Y-62127224D01*
X151282904Y-62126939D01*
X151290660Y-62127671D01*
X151290667Y-62127673D01*
X151357873Y-62125561D01*
X151361768Y-62125500D01*
X151389346Y-62125500D01*
X151389350Y-62125500D01*
X151393324Y-62124997D01*
X151404963Y-62124080D01*
X151448627Y-62122709D01*
X151467869Y-62117117D01*
X151486912Y-62113174D01*
X151506792Y-62110664D01*
X151547401Y-62094585D01*
X151558444Y-62090803D01*
X151600390Y-62078618D01*
X151617629Y-62068422D01*
X151635103Y-62059862D01*
X151653727Y-62052488D01*
X151653727Y-62052487D01*
X151653732Y-62052486D01*
X151689083Y-62026800D01*
X151698814Y-62020408D01*
X151736420Y-61998170D01*
X151750589Y-61983999D01*
X151765379Y-61971368D01*
X151781587Y-61959594D01*
X151809438Y-61925926D01*
X151817279Y-61917309D01*
X152208785Y-61525803D01*
X152221041Y-61515987D01*
X152220858Y-61515765D01*
X152226870Y-61510790D01*
X152226877Y-61510786D01*
X152272949Y-61461722D01*
X152275566Y-61459023D01*
X152295120Y-61439471D01*
X152297576Y-61436303D01*
X152305156Y-61427427D01*
X152335062Y-61395582D01*
X152344713Y-61378024D01*
X152355396Y-61361761D01*
X152367673Y-61345936D01*
X152385021Y-61305844D01*
X152390151Y-61295371D01*
X152411197Y-61257092D01*
X152416180Y-61237680D01*
X152422481Y-61219280D01*
X152430437Y-61200896D01*
X152437270Y-61157748D01*
X152439633Y-61146338D01*
X152450500Y-61104019D01*
X152450500Y-61083983D01*
X152452027Y-61064582D01*
X152455160Y-61044804D01*
X152451050Y-61001324D01*
X152450500Y-60989655D01*
X152450500Y-60004188D01*
X152470185Y-59937149D01*
X152503377Y-59902613D01*
X152593288Y-59839657D01*
X152664139Y-59790047D01*
X152825047Y-59629139D01*
X152915470Y-59500000D01*
X152937613Y-59468377D01*
X152992189Y-59424752D01*
X153039188Y-59415500D01*
X155402257Y-59415500D01*
X155417877Y-59417224D01*
X155417904Y-59416939D01*
X155425660Y-59417671D01*
X155425667Y-59417673D01*
X155492873Y-59415561D01*
X155496768Y-59415500D01*
X155524346Y-59415500D01*
X155524350Y-59415500D01*
X155528324Y-59414997D01*
X155539963Y-59414080D01*
X155583627Y-59412709D01*
X155602869Y-59407117D01*
X155621912Y-59403174D01*
X155641792Y-59400664D01*
X155682401Y-59384585D01*
X155693444Y-59380803D01*
X155735390Y-59368618D01*
X155752629Y-59358422D01*
X155770103Y-59349862D01*
X155788727Y-59342488D01*
X155788727Y-59342487D01*
X155788732Y-59342486D01*
X155824083Y-59316800D01*
X155833814Y-59310408D01*
X155871420Y-59288170D01*
X155885589Y-59273999D01*
X155900379Y-59261368D01*
X155916587Y-59249594D01*
X155944438Y-59215926D01*
X155952279Y-59207309D01*
X157077771Y-58081819D01*
X157139094Y-58048334D01*
X157165452Y-58045500D01*
X157303501Y-58045500D01*
X157370540Y-58065185D01*
G37*
%TD.AperFunction*%
%TA.AperFunction,Conductor*%
G36*
X145700000Y-54996519D02*
G01*
X145837617Y-54954773D01*
X145843239Y-54952445D01*
X145844314Y-54955040D01*
X145900885Y-54943216D01*
X145965340Y-54967555D01*
X145969669Y-54970796D01*
X146018833Y-54989132D01*
X146074766Y-55031002D01*
X146099184Y-55096465D01*
X146099500Y-55105314D01*
X146099500Y-56642255D01*
X146097775Y-56657872D01*
X146098061Y-56657899D01*
X146097326Y-56665665D01*
X146099439Y-56732872D01*
X146099500Y-56736767D01*
X146099500Y-56764357D01*
X146100003Y-56768335D01*
X146100918Y-56779967D01*
X146102290Y-56823624D01*
X146102291Y-56823627D01*
X146107880Y-56842867D01*
X146111824Y-56861911D01*
X146112533Y-56867517D01*
X146114336Y-56881792D01*
X146130414Y-56922403D01*
X146134197Y-56933452D01*
X146143418Y-56965191D01*
X146146382Y-56975390D01*
X146153082Y-56986720D01*
X146156580Y-56992634D01*
X146165138Y-57010103D01*
X146172514Y-57028732D01*
X146198181Y-57064060D01*
X146204593Y-57073821D01*
X146226828Y-57111417D01*
X146226833Y-57111424D01*
X146240990Y-57125580D01*
X146253628Y-57140376D01*
X146265405Y-57156586D01*
X146265406Y-57156587D01*
X146299057Y-57184425D01*
X146307698Y-57192288D01*
X148289197Y-59173788D01*
X148299022Y-59186051D01*
X148299243Y-59185869D01*
X148304211Y-59191874D01*
X148304213Y-59191876D01*
X148304214Y-59191877D01*
X148353222Y-59237899D01*
X148356021Y-59240612D01*
X148375522Y-59260114D01*
X148375526Y-59260117D01*
X148375529Y-59260120D01*
X148378702Y-59262581D01*
X148387574Y-59270159D01*
X148419418Y-59300062D01*
X148436976Y-59309714D01*
X148453233Y-59320393D01*
X148469064Y-59332673D01*
X148498803Y-59345542D01*
X148509152Y-59350021D01*
X148519641Y-59355160D01*
X148543457Y-59368252D01*
X148557908Y-59376197D01*
X148570523Y-59379435D01*
X148577305Y-59381177D01*
X148595719Y-59387481D01*
X148614104Y-59395438D01*
X148657261Y-59402273D01*
X148668656Y-59404632D01*
X148710981Y-59415500D01*
X148731016Y-59415500D01*
X148750413Y-59417026D01*
X148770196Y-59420160D01*
X148813675Y-59416050D01*
X148825344Y-59415500D01*
X150610812Y-59415500D01*
X150677851Y-59435185D01*
X150712387Y-59468377D01*
X150824954Y-59629141D01*
X150985858Y-59790045D01*
X151146623Y-59902613D01*
X151190248Y-59957189D01*
X151199500Y-60004188D01*
X151199500Y-60714547D01*
X151179815Y-60781586D01*
X151163181Y-60802228D01*
X151127228Y-60838181D01*
X151065905Y-60871666D01*
X151039547Y-60874500D01*
X150218465Y-60874500D01*
X150151426Y-60854815D01*
X150119198Y-60824811D01*
X150105709Y-60806792D01*
X150057546Y-60742454D01*
X150011082Y-60707671D01*
X149942335Y-60656206D01*
X149942328Y-60656202D01*
X149807482Y-60605908D01*
X149807483Y-60605908D01*
X149747883Y-60599501D01*
X149747881Y-60599500D01*
X149747873Y-60599500D01*
X149747864Y-60599500D01*
X148852129Y-60599500D01*
X148852123Y-60599501D01*
X148792516Y-60605908D01*
X148657671Y-60656202D01*
X148657669Y-60656204D01*
X148573894Y-60718918D01*
X148508430Y-60743335D01*
X148440157Y-60728484D01*
X148425272Y-60718918D01*
X148342088Y-60656646D01*
X148342086Y-60656645D01*
X148207379Y-60606403D01*
X148207372Y-60606401D01*
X148147844Y-60600000D01*
X147950000Y-60600000D01*
X147950000Y-62400000D01*
X148147828Y-62400000D01*
X148147844Y-62399999D01*
X148207372Y-62393598D01*
X148207379Y-62393596D01*
X148342086Y-62343354D01*
X148342089Y-62343352D01*
X148425271Y-62281082D01*
X148490735Y-62256664D01*
X148559008Y-62271515D01*
X148573890Y-62281079D01*
X148624811Y-62319198D01*
X148666682Y-62375130D01*
X148674500Y-62418464D01*
X148674500Y-62589547D01*
X148654815Y-62656586D01*
X148638181Y-62677228D01*
X148427228Y-62888181D01*
X148365905Y-62921666D01*
X148339547Y-62924500D01*
X147790954Y-62924500D01*
X147723915Y-62904815D01*
X147714842Y-62897504D01*
X147714645Y-62897768D01*
X147592335Y-62806206D01*
X147592328Y-62806202D01*
X147457482Y-62755908D01*
X147457483Y-62755908D01*
X147397883Y-62749501D01*
X147397881Y-62749500D01*
X147397873Y-62749500D01*
X147397864Y-62749500D01*
X146202129Y-62749500D01*
X146202123Y-62749501D01*
X146142516Y-62755908D01*
X146007671Y-62806202D01*
X146007664Y-62806206D01*
X145892455Y-62892452D01*
X145892452Y-62892455D01*
X145806206Y-63007664D01*
X145806202Y-63007671D01*
X145761181Y-63128380D01*
X145719310Y-63184314D01*
X145653845Y-63208731D01*
X145585572Y-63193879D01*
X145557318Y-63172728D01*
X145550806Y-63166216D01*
X145540981Y-63153952D01*
X145540760Y-63154136D01*
X145535784Y-63148121D01*
X145495722Y-63110500D01*
X145486775Y-63102098D01*
X145483977Y-63099386D01*
X145464477Y-63079885D01*
X145462844Y-63078618D01*
X145461286Y-63077409D01*
X145452434Y-63069848D01*
X145420582Y-63039938D01*
X145420580Y-63039936D01*
X145420577Y-63039935D01*
X145403029Y-63030288D01*
X145386763Y-63019604D01*
X145370932Y-63007324D01*
X145330849Y-62989978D01*
X145320363Y-62984841D01*
X145282094Y-62963803D01*
X145282092Y-62963802D01*
X145262693Y-62958822D01*
X145244281Y-62952518D01*
X145225898Y-62944562D01*
X145225893Y-62944561D01*
X145185588Y-62938177D01*
X145122454Y-62908247D01*
X145112574Y-62897482D01*
X145107548Y-62892457D01*
X145107546Y-62892454D01*
X145083563Y-62874500D01*
X144992335Y-62806206D01*
X144992328Y-62806202D01*
X144857482Y-62755908D01*
X144857483Y-62755908D01*
X144797883Y-62749501D01*
X144797881Y-62749500D01*
X144797873Y-62749500D01*
X144797864Y-62749500D01*
X143602129Y-62749500D01*
X143602123Y-62749501D01*
X143542516Y-62755908D01*
X143407671Y-62806202D01*
X143407668Y-62806204D01*
X143349476Y-62849767D01*
X143284011Y-62874184D01*
X143275165Y-62874500D01*
X142710453Y-62874500D01*
X142643414Y-62854815D01*
X142622772Y-62838181D01*
X142361819Y-62577228D01*
X142328334Y-62515905D01*
X142325500Y-62489547D01*
X142325500Y-62418464D01*
X142345185Y-62351425D01*
X142375187Y-62319199D01*
X142426106Y-62281081D01*
X142491569Y-62256664D01*
X142559842Y-62271515D01*
X142574727Y-62281082D01*
X142657906Y-62343350D01*
X142657913Y-62343354D01*
X142792620Y-62393596D01*
X142792627Y-62393598D01*
X142852155Y-62399999D01*
X142852172Y-62400000D01*
X143050000Y-62400000D01*
X143050000Y-61750000D01*
X143550000Y-61750000D01*
X143550000Y-62400000D01*
X143747828Y-62400000D01*
X143747844Y-62399999D01*
X143807372Y-62393598D01*
X143807379Y-62393596D01*
X143942086Y-62343354D01*
X143942093Y-62343350D01*
X144057187Y-62257190D01*
X144057190Y-62257187D01*
X144143350Y-62142093D01*
X144143354Y-62142086D01*
X144193596Y-62007379D01*
X144193598Y-62007372D01*
X144199999Y-61947844D01*
X144200000Y-61947827D01*
X144200000Y-61750000D01*
X146800000Y-61750000D01*
X146800000Y-61947844D01*
X146806401Y-62007372D01*
X146806403Y-62007379D01*
X146856645Y-62142086D01*
X146856649Y-62142093D01*
X146942809Y-62257187D01*
X146942812Y-62257190D01*
X147057906Y-62343350D01*
X147057913Y-62343354D01*
X147192620Y-62393596D01*
X147192627Y-62393598D01*
X147252155Y-62399999D01*
X147252172Y-62400000D01*
X147450000Y-62400000D01*
X147450000Y-61750000D01*
X146800000Y-61750000D01*
X144200000Y-61750000D01*
X143550000Y-61750000D01*
X143050000Y-61750000D01*
X143050000Y-60600000D01*
X143550000Y-60600000D01*
X143550000Y-61250000D01*
X144200000Y-61250000D01*
X146800000Y-61250000D01*
X147450000Y-61250000D01*
X147450000Y-60600000D01*
X147252155Y-60600000D01*
X147192627Y-60606401D01*
X147192620Y-60606403D01*
X147057913Y-60656645D01*
X147057906Y-60656649D01*
X146942812Y-60742809D01*
X146942809Y-60742812D01*
X146856649Y-60857906D01*
X146856645Y-60857913D01*
X146806403Y-60992620D01*
X146806401Y-60992627D01*
X146800000Y-61052155D01*
X146800000Y-61250000D01*
X144200000Y-61250000D01*
X144200000Y-61052172D01*
X144199999Y-61052155D01*
X144193598Y-60992627D01*
X144193596Y-60992620D01*
X144143354Y-60857913D01*
X144143350Y-60857906D01*
X144057190Y-60742812D01*
X144057187Y-60742809D01*
X143942093Y-60656649D01*
X143942086Y-60656645D01*
X143807379Y-60606403D01*
X143807372Y-60606401D01*
X143747844Y-60600000D01*
X143550000Y-60600000D01*
X143050000Y-60600000D01*
X142852155Y-60600000D01*
X142792627Y-60606401D01*
X142792620Y-60606403D01*
X142657913Y-60656645D01*
X142657910Y-60656647D01*
X142574727Y-60718918D01*
X142509262Y-60743335D01*
X142440989Y-60728483D01*
X142426106Y-60718918D01*
X142342331Y-60656204D01*
X142342328Y-60656202D01*
X142207482Y-60605908D01*
X142207483Y-60605908D01*
X142147883Y-60599501D01*
X142147881Y-60599500D01*
X142147873Y-60599500D01*
X142147864Y-60599500D01*
X141252129Y-60599500D01*
X141252123Y-60599501D01*
X141192516Y-60605908D01*
X141057671Y-60656202D01*
X141057664Y-60656206D01*
X140942456Y-60742452D01*
X140942455Y-60742453D01*
X140942454Y-60742454D01*
X140894291Y-60806792D01*
X140880802Y-60824811D01*
X140824868Y-60866682D01*
X140781535Y-60874500D01*
X137092115Y-60874500D01*
X137025076Y-60854815D01*
X136979321Y-60802011D01*
X136975933Y-60793833D01*
X136943797Y-60707671D01*
X136943793Y-60707664D01*
X136857547Y-60592455D01*
X136852416Y-60587324D01*
X136818931Y-60526001D01*
X136823915Y-60456309D01*
X136852416Y-60411962D01*
X136857190Y-60407187D01*
X136943350Y-60292093D01*
X136943354Y-60292086D01*
X136993596Y-60157379D01*
X136993598Y-60157372D01*
X136999999Y-60097844D01*
X137000000Y-60097827D01*
X137000000Y-59750000D01*
X134874000Y-59750000D01*
X134806961Y-59730315D01*
X134761206Y-59677511D01*
X134760391Y-59673768D01*
X134785165Y-59625148D01*
X134804986Y-59500000D01*
X134785165Y-59374852D01*
X134750000Y-59305836D01*
X134750000Y-58450000D01*
X135250000Y-58450000D01*
X135250000Y-59250000D01*
X137000000Y-59250000D01*
X137000000Y-58902172D01*
X136999999Y-58902155D01*
X136993598Y-58842627D01*
X136993596Y-58842620D01*
X136943354Y-58707913D01*
X136943350Y-58707906D01*
X136857190Y-58592812D01*
X136857187Y-58592809D01*
X136853433Y-58589999D01*
X137646127Y-58589999D01*
X137646128Y-58590000D01*
X138491314Y-58590000D01*
X138465507Y-58630156D01*
X138425000Y-58768111D01*
X138425000Y-58911889D01*
X138465507Y-59049844D01*
X138491314Y-59090000D01*
X137646128Y-59090000D01*
X137698730Y-59286317D01*
X137698734Y-59286326D01*
X137794865Y-59492482D01*
X137925342Y-59678820D01*
X138086179Y-59839657D01*
X138272517Y-59970134D01*
X138478673Y-60066265D01*
X138478682Y-60066269D01*
X138674999Y-60118872D01*
X138675000Y-60118871D01*
X138675000Y-59275501D01*
X138782685Y-59324680D01*
X138889237Y-59340000D01*
X138960763Y-59340000D01*
X139067315Y-59324680D01*
X139175000Y-59275501D01*
X139175000Y-60118872D01*
X139371317Y-60066269D01*
X139371326Y-60066265D01*
X139577482Y-59970134D01*
X139763820Y-59839657D01*
X139924657Y-59678820D01*
X140055134Y-59492482D01*
X140151265Y-59286326D01*
X140151269Y-59286317D01*
X140203872Y-59090000D01*
X139358686Y-59090000D01*
X139384493Y-59049844D01*
X139425000Y-58911889D01*
X139425000Y-58768111D01*
X139384493Y-58630156D01*
X139358686Y-58590000D01*
X140203872Y-58590000D01*
X140203872Y-58589999D01*
X140151269Y-58393682D01*
X140151265Y-58393673D01*
X140055134Y-58187517D01*
X139924657Y-58001179D01*
X139763820Y-57840342D01*
X139577482Y-57709865D01*
X139371328Y-57613734D01*
X139175000Y-57561127D01*
X139175000Y-58404498D01*
X139067315Y-58355320D01*
X138960763Y-58340000D01*
X138889237Y-58340000D01*
X138782685Y-58355320D01*
X138675000Y-58404498D01*
X138675000Y-57561127D01*
X138478671Y-57613734D01*
X138272517Y-57709865D01*
X138086179Y-57840342D01*
X137925342Y-58001179D01*
X137794865Y-58187517D01*
X137698734Y-58393673D01*
X137698730Y-58393682D01*
X137646127Y-58589999D01*
X136853433Y-58589999D01*
X136742093Y-58506649D01*
X136742086Y-58506645D01*
X136607379Y-58456403D01*
X136607372Y-58456401D01*
X136547844Y-58450000D01*
X135250000Y-58450000D01*
X134750000Y-58450000D01*
X133452155Y-58450000D01*
X133392627Y-58456401D01*
X133392619Y-58456403D01*
X133292833Y-58493621D01*
X133223141Y-58498605D01*
X133161818Y-58465120D01*
X133128334Y-58403796D01*
X133125500Y-58377439D01*
X133125500Y-56410452D01*
X133145185Y-56343413D01*
X133161819Y-56322771D01*
X135062771Y-54421819D01*
X135124094Y-54388334D01*
X135150452Y-54385500D01*
X137710812Y-54385500D01*
X137777851Y-54405185D01*
X137812387Y-54438377D01*
X137924954Y-54599141D01*
X138085858Y-54760045D01*
X138085861Y-54760047D01*
X138272266Y-54890568D01*
X138478504Y-54986739D01*
X138478509Y-54986740D01*
X138478511Y-54986741D01*
X138487431Y-54989131D01*
X138698308Y-55045635D01*
X138860230Y-55059801D01*
X138924998Y-55065468D01*
X138925000Y-55065468D01*
X138925002Y-55065468D01*
X138981673Y-55060509D01*
X139151692Y-55045635D01*
X139371496Y-54986739D01*
X139577734Y-54890568D01*
X139764139Y-54760047D01*
X139925047Y-54599139D01*
X140037613Y-54438377D01*
X140092189Y-54394752D01*
X140139188Y-54385500D01*
X143158049Y-54385500D01*
X143225088Y-54405185D01*
X143267406Y-54451045D01*
X143333599Y-54574883D01*
X143337406Y-54582005D01*
X143463431Y-54735568D01*
X143616994Y-54861594D01*
X143617001Y-54861598D01*
X143792191Y-54955239D01*
X143792193Y-54955239D01*
X143792196Y-54955241D01*
X143982299Y-55012908D01*
X143982298Y-55012908D01*
X144000024Y-55014653D01*
X144180000Y-55032380D01*
X144377701Y-55012908D01*
X144567804Y-54955241D01*
X144743004Y-54861595D01*
X144743010Y-54861589D01*
X144746552Y-54859224D01*
X144813227Y-54838339D01*
X144880609Y-54856817D01*
X144884349Y-54859220D01*
X144887283Y-54861180D01*
X145062384Y-54954774D01*
X145199999Y-54996519D01*
X145200000Y-54996519D01*
X145200000Y-54089737D01*
X145208146Y-54097883D01*
X145322850Y-54156327D01*
X145418015Y-54171400D01*
X145481985Y-54171400D01*
X145577150Y-54156327D01*
X145691854Y-54097883D01*
X145700000Y-54089737D01*
X145700000Y-54996519D01*
G37*
%TD.AperFunction*%
%TA.AperFunction,Conductor*%
G36*
X179356587Y-52445185D02*
G01*
X179377229Y-52461819D01*
X180418181Y-53502771D01*
X180451666Y-53564094D01*
X180454500Y-53590452D01*
X180454500Y-54095714D01*
X180434815Y-54162753D01*
X180409164Y-54191568D01*
X180333589Y-54253589D01*
X180271568Y-54329164D01*
X180213822Y-54368499D01*
X180175714Y-54374500D01*
X177718465Y-54374500D01*
X177651426Y-54354815D01*
X177619198Y-54324811D01*
X177557546Y-54242454D01*
X177525689Y-54218606D01*
X177442335Y-54156206D01*
X177442328Y-54156202D01*
X177307482Y-54105908D01*
X177307483Y-54105908D01*
X177247883Y-54099501D01*
X177247881Y-54099500D01*
X177247873Y-54099500D01*
X177247864Y-54099500D01*
X176352129Y-54099500D01*
X176352123Y-54099501D01*
X176292516Y-54105908D01*
X176157671Y-54156202D01*
X176157669Y-54156203D01*
X176074311Y-54218606D01*
X176008847Y-54243023D01*
X175940574Y-54228172D01*
X175925689Y-54218606D01*
X175842330Y-54156203D01*
X175842328Y-54156202D01*
X175707482Y-54105908D01*
X175707483Y-54105908D01*
X175647883Y-54099501D01*
X175647881Y-54099500D01*
X175647873Y-54099500D01*
X175647864Y-54099500D01*
X174752129Y-54099500D01*
X174752123Y-54099501D01*
X174692516Y-54105908D01*
X174557671Y-54156202D01*
X174557664Y-54156206D01*
X174442455Y-54242452D01*
X174442452Y-54242455D01*
X174356206Y-54357664D01*
X174356202Y-54357671D01*
X174305908Y-54492517D01*
X174299501Y-54552116D01*
X174299500Y-54552135D01*
X174299500Y-55447870D01*
X174299501Y-55447876D01*
X174305908Y-55507483D01*
X174356202Y-55642328D01*
X174356206Y-55642335D01*
X174442452Y-55757544D01*
X174442453Y-55757545D01*
X174442454Y-55757546D01*
X174524811Y-55819198D01*
X174566682Y-55875131D01*
X174574500Y-55918464D01*
X174574500Y-57081534D01*
X174554815Y-57148573D01*
X174524812Y-57180800D01*
X174442454Y-57242453D01*
X174380802Y-57324811D01*
X174324868Y-57366682D01*
X174281535Y-57374500D01*
X171824286Y-57374500D01*
X171757247Y-57354815D01*
X171728432Y-57329164D01*
X171666410Y-57253589D01*
X171590836Y-57191568D01*
X171551501Y-57133822D01*
X171545500Y-57095714D01*
X171545500Y-55904285D01*
X171565185Y-55837246D01*
X171590836Y-55808431D01*
X171666410Y-55746410D01*
X171797685Y-55586450D01*
X171895232Y-55403954D01*
X171955300Y-55205934D01*
X171975583Y-55000000D01*
X171955300Y-54794066D01*
X171895232Y-54596046D01*
X171797685Y-54413550D01*
X171724859Y-54324811D01*
X171666410Y-54253589D01*
X171506452Y-54122317D01*
X171506453Y-54122317D01*
X171506450Y-54122315D01*
X171323954Y-54024768D01*
X171125934Y-53964700D01*
X171125932Y-53964699D01*
X171125934Y-53964699D01*
X170920000Y-53944417D01*
X170714067Y-53964699D01*
X170516043Y-54024769D01*
X170434142Y-54068547D01*
X170333550Y-54122315D01*
X170333548Y-54122316D01*
X170333547Y-54122317D01*
X170173589Y-54253589D01*
X170042317Y-54413547D01*
X169944769Y-54596043D01*
X169884699Y-54794067D01*
X169864417Y-55000000D01*
X169884699Y-55205932D01*
X169884700Y-55205934D01*
X169944768Y-55403954D01*
X170042315Y-55586450D01*
X170042317Y-55586452D01*
X170173587Y-55746407D01*
X170173588Y-55746408D01*
X170173590Y-55746410D01*
X170216219Y-55781394D01*
X170249164Y-55808431D01*
X170288499Y-55866177D01*
X170294500Y-55904285D01*
X170294500Y-57095714D01*
X170274815Y-57162753D01*
X170249164Y-57191568D01*
X170173589Y-57253589D01*
X170111568Y-57329164D01*
X170053822Y-57368499D01*
X170015714Y-57374500D01*
X169282743Y-57374500D01*
X169267122Y-57372775D01*
X169267095Y-57373061D01*
X169259333Y-57372326D01*
X169192113Y-57374439D01*
X169188219Y-57374500D01*
X169160650Y-57374500D01*
X169156673Y-57375002D01*
X169145042Y-57375917D01*
X169101374Y-57377289D01*
X169101368Y-57377290D01*
X169082126Y-57382880D01*
X169063087Y-57386823D01*
X169043217Y-57389334D01*
X169043203Y-57389337D01*
X169002598Y-57405413D01*
X168991554Y-57409194D01*
X168949614Y-57421379D01*
X168949610Y-57421381D01*
X168932366Y-57431579D01*
X168914905Y-57440133D01*
X168896274Y-57447510D01*
X168896262Y-57447517D01*
X168860933Y-57473185D01*
X168851173Y-57479596D01*
X168813580Y-57501829D01*
X168799414Y-57515995D01*
X168784624Y-57528627D01*
X168768414Y-57540404D01*
X168768411Y-57540407D01*
X168740573Y-57574058D01*
X168732711Y-57582697D01*
X167313108Y-59002300D01*
X167251785Y-59035785D01*
X167182093Y-59030801D01*
X167137746Y-59002300D01*
X167124621Y-58989175D01*
X167124615Y-58989170D01*
X166943666Y-58862468D01*
X166943662Y-58862466D01*
X166814218Y-58802105D01*
X166761779Y-58755932D01*
X166742627Y-58688739D01*
X166762843Y-58621858D01*
X166814219Y-58577340D01*
X166943412Y-58517097D01*
X167124301Y-58390436D01*
X167280436Y-58234301D01*
X167407099Y-58053409D01*
X167407100Y-58053407D01*
X167500419Y-57853284D01*
X167500424Y-57853270D01*
X167549531Y-57670000D01*
X166685278Y-57670000D01*
X166733625Y-57586260D01*
X166763810Y-57454008D01*
X166753673Y-57318735D01*
X166704113Y-57192459D01*
X166686203Y-57170000D01*
X167549531Y-57170000D01*
X167549531Y-57169999D01*
X167500424Y-56986729D01*
X167500420Y-56986720D01*
X167407099Y-56786591D01*
X167407098Y-56786589D01*
X167280442Y-56605704D01*
X167124297Y-56449560D01*
X166943409Y-56322900D01*
X166943407Y-56322899D01*
X166743283Y-56229580D01*
X166560000Y-56180468D01*
X166560000Y-57045810D01*
X166507453Y-57009984D01*
X166377827Y-56970000D01*
X166276276Y-56970000D01*
X166175862Y-56985135D01*
X166060000Y-57040931D01*
X166060000Y-56180468D01*
X165876718Y-56229579D01*
X165676591Y-56322900D01*
X165676589Y-56322901D01*
X165620622Y-56362090D01*
X165554415Y-56384417D01*
X165486648Y-56367406D01*
X165438836Y-56316458D01*
X165425499Y-56260515D01*
X165425499Y-54118464D01*
X165445184Y-54051425D01*
X165475186Y-54019199D01*
X165557545Y-53957546D01*
X165619198Y-53875188D01*
X165675131Y-53833318D01*
X165718464Y-53825500D01*
X168175713Y-53825500D01*
X168242752Y-53845185D01*
X168271567Y-53870836D01*
X168333588Y-53946410D01*
X168422281Y-54019197D01*
X168493549Y-54077685D01*
X168676045Y-54175232D01*
X168874065Y-54235300D01*
X168874064Y-54235300D01*
X168892528Y-54237118D01*
X169079999Y-54255583D01*
X169285933Y-54235300D01*
X169483953Y-54175232D01*
X169666449Y-54077685D01*
X169826409Y-53946410D01*
X169957684Y-53786450D01*
X170055231Y-53603954D01*
X170115299Y-53405934D01*
X170135582Y-53200000D01*
X170115299Y-52994066D01*
X170055231Y-52796046D01*
X169957684Y-52613550D01*
X169957682Y-52613547D01*
X169954812Y-52608178D01*
X169957324Y-52606835D01*
X169940042Y-52551839D01*
X169958459Y-52484440D01*
X170010390Y-52437697D01*
X170064020Y-52425500D01*
X179289548Y-52425500D01*
X179356587Y-52445185D01*
G37*
%TD.AperFunction*%
%TA.AperFunction,Conductor*%
G36*
X163136873Y-51020185D02*
G01*
X163182628Y-51072989D01*
X163192572Y-51142147D01*
X163163547Y-51205703D01*
X163132884Y-51231273D01*
X163132289Y-51231625D01*
X163114899Y-51240137D01*
X163096269Y-51247513D01*
X163096266Y-51247515D01*
X163060939Y-51273181D01*
X163051180Y-51279592D01*
X163013579Y-51301830D01*
X162999408Y-51316000D01*
X162984623Y-51328628D01*
X162968412Y-51340407D01*
X162940571Y-51374059D01*
X162932711Y-51382696D01*
X162816207Y-51499200D01*
X162803950Y-51509021D01*
X162804133Y-51509242D01*
X162798121Y-51514215D01*
X162752097Y-51563224D01*
X162749390Y-51566017D01*
X162729888Y-51585518D01*
X162729874Y-51585535D01*
X162727406Y-51588716D01*
X162719842Y-51597571D01*
X162689936Y-51629419D01*
X162689935Y-51629421D01*
X162680283Y-51646977D01*
X162669609Y-51663227D01*
X162657328Y-51679062D01*
X162657323Y-51679069D01*
X162639974Y-51719159D01*
X162634837Y-51729645D01*
X162613802Y-51767907D01*
X162608821Y-51787308D01*
X162602520Y-51805711D01*
X162594561Y-51824103D01*
X162594560Y-51824106D01*
X162587727Y-51867244D01*
X162585359Y-51878675D01*
X162574500Y-51920972D01*
X162574499Y-51920983D01*
X162574499Y-51941017D01*
X162572972Y-51960416D01*
X162569839Y-51980195D01*
X162569839Y-51980196D01*
X162573949Y-52023675D01*
X162574499Y-52035344D01*
X162574499Y-52281534D01*
X162554814Y-52348573D01*
X162524811Y-52380800D01*
X162442453Y-52442453D01*
X162380801Y-52524811D01*
X162324867Y-52566682D01*
X162281534Y-52574500D01*
X159824285Y-52574500D01*
X159757246Y-52554815D01*
X159728431Y-52529164D01*
X159666409Y-52453589D01*
X159506451Y-52322317D01*
X159506452Y-52322317D01*
X159506449Y-52322315D01*
X159323953Y-52224768D01*
X159125933Y-52164700D01*
X159125931Y-52164699D01*
X159125933Y-52164699D01*
X158919999Y-52144417D01*
X158714066Y-52164699D01*
X158516042Y-52224769D01*
X158409844Y-52281534D01*
X158333549Y-52322315D01*
X158333547Y-52322316D01*
X158333546Y-52322317D01*
X158173588Y-52453589D01*
X158042316Y-52613547D01*
X158042314Y-52613550D01*
X158011235Y-52671695D01*
X157944768Y-52796043D01*
X157884698Y-52994067D01*
X157864416Y-53200000D01*
X157884698Y-53405932D01*
X157901540Y-53461453D01*
X157940671Y-53590452D01*
X157944768Y-53603956D01*
X158009858Y-53725729D01*
X158024500Y-53784183D01*
X158024500Y-56033500D01*
X158004815Y-56100539D01*
X157952011Y-56146294D01*
X157900505Y-56157500D01*
X157880132Y-56157500D01*
X157880123Y-56157501D01*
X157820516Y-56163908D01*
X157685671Y-56214202D01*
X157685664Y-56214206D01*
X157570455Y-56300452D01*
X157570452Y-56300455D01*
X157484206Y-56415664D01*
X157484202Y-56415671D01*
X157433908Y-56550517D01*
X157427501Y-56610116D01*
X157427501Y-56610123D01*
X157427500Y-56610135D01*
X157427500Y-56670500D01*
X157407815Y-56737539D01*
X157355011Y-56783294D01*
X157303500Y-56794500D01*
X156937743Y-56794500D01*
X156922122Y-56792775D01*
X156922095Y-56793061D01*
X156914333Y-56792326D01*
X156847113Y-56794439D01*
X156843219Y-56794500D01*
X156815650Y-56794500D01*
X156811673Y-56795002D01*
X156800042Y-56795917D01*
X156756374Y-56797289D01*
X156756368Y-56797290D01*
X156737126Y-56802880D01*
X156718087Y-56806823D01*
X156698217Y-56809334D01*
X156698203Y-56809337D01*
X156657598Y-56825413D01*
X156646554Y-56829194D01*
X156604614Y-56841379D01*
X156604610Y-56841381D01*
X156587366Y-56851579D01*
X156569905Y-56860133D01*
X156551274Y-56867510D01*
X156551262Y-56867517D01*
X156515933Y-56893185D01*
X156506173Y-56899596D01*
X156468580Y-56921829D01*
X156454414Y-56935995D01*
X156439624Y-56948627D01*
X156423414Y-56960404D01*
X156423411Y-56960407D01*
X156395573Y-56994058D01*
X156387711Y-57002697D01*
X155262228Y-58128181D01*
X155200905Y-58161666D01*
X155174547Y-58164500D01*
X153039188Y-58164500D01*
X152972149Y-58144815D01*
X152937613Y-58111623D01*
X152825045Y-57950858D01*
X152664141Y-57789954D01*
X152477734Y-57659432D01*
X152477732Y-57659431D01*
X152271497Y-57563261D01*
X152271488Y-57563258D01*
X152051697Y-57504366D01*
X152051693Y-57504365D01*
X152051692Y-57504365D01*
X152051691Y-57504364D01*
X152051686Y-57504364D01*
X151825002Y-57484532D01*
X151824998Y-57484532D01*
X151598313Y-57504364D01*
X151598302Y-57504366D01*
X151378511Y-57563258D01*
X151378502Y-57563261D01*
X151172267Y-57659431D01*
X151172265Y-57659432D01*
X150985858Y-57789954D01*
X150824954Y-57950858D01*
X150712387Y-58111623D01*
X150657811Y-58155248D01*
X150610812Y-58164500D01*
X149100452Y-58164500D01*
X149033413Y-58144815D01*
X149012771Y-58128181D01*
X147386819Y-56502228D01*
X147353334Y-56440905D01*
X147350500Y-56414547D01*
X147350500Y-55101585D01*
X147370185Y-55034546D01*
X147422989Y-54988791D01*
X147431168Y-54985403D01*
X147470326Y-54970798D01*
X147470326Y-54970797D01*
X147470331Y-54970796D01*
X147585546Y-54884546D01*
X147671796Y-54769331D01*
X147722091Y-54634483D01*
X147728500Y-54574873D01*
X147728499Y-53459999D01*
X150546127Y-53459999D01*
X150546128Y-53460000D01*
X151391314Y-53460000D01*
X151365507Y-53500156D01*
X151325000Y-53638111D01*
X151325000Y-53781889D01*
X151365507Y-53919844D01*
X151391314Y-53960000D01*
X150546128Y-53960000D01*
X150598730Y-54156317D01*
X150598734Y-54156326D01*
X150694865Y-54362482D01*
X150825341Y-54548819D01*
X150986179Y-54709657D01*
X151172517Y-54840134D01*
X151378673Y-54936265D01*
X151378682Y-54936269D01*
X151574999Y-54988872D01*
X151575000Y-54988871D01*
X151575000Y-54145501D01*
X151682685Y-54194680D01*
X151789237Y-54210000D01*
X151860763Y-54210000D01*
X151967315Y-54194680D01*
X152075000Y-54145501D01*
X152075000Y-54988872D01*
X152271317Y-54936269D01*
X152271326Y-54936265D01*
X152477482Y-54840134D01*
X152663820Y-54709657D01*
X152824659Y-54548819D01*
X152955134Y-54362482D01*
X153051265Y-54156326D01*
X153051269Y-54156317D01*
X153103872Y-53960000D01*
X152258686Y-53960000D01*
X152284493Y-53919844D01*
X152325000Y-53781889D01*
X152325000Y-53638111D01*
X152284493Y-53500156D01*
X152258686Y-53460000D01*
X153103872Y-53460000D01*
X153103872Y-53459999D01*
X153051269Y-53263682D01*
X153051265Y-53263673D01*
X152955134Y-53057517D01*
X152824657Y-52871179D01*
X152663820Y-52710342D01*
X152477482Y-52579865D01*
X152271328Y-52483734D01*
X152075000Y-52431127D01*
X152075000Y-53274498D01*
X151967315Y-53225320D01*
X151860763Y-53210000D01*
X151789237Y-53210000D01*
X151682685Y-53225320D01*
X151575000Y-53274498D01*
X151575000Y-52431127D01*
X151378671Y-52483734D01*
X151172517Y-52579865D01*
X150986179Y-52710342D01*
X150825342Y-52871179D01*
X150694865Y-53057517D01*
X150598734Y-53263673D01*
X150598730Y-53263682D01*
X150546127Y-53459999D01*
X147728499Y-53459999D01*
X147728499Y-52955128D01*
X147722091Y-52895517D01*
X147721366Y-52893574D01*
X147671797Y-52760671D01*
X147671793Y-52760664D01*
X147585547Y-52645455D01*
X147585544Y-52645452D01*
X147470335Y-52559206D01*
X147470328Y-52559202D01*
X147335482Y-52508908D01*
X147335483Y-52508908D01*
X147275883Y-52502501D01*
X147275881Y-52502500D01*
X147275873Y-52502500D01*
X147275864Y-52502500D01*
X146164129Y-52502500D01*
X146164123Y-52502501D01*
X146104516Y-52508908D01*
X145969671Y-52559202D01*
X145969668Y-52559204D01*
X145965336Y-52562447D01*
X145899870Y-52586860D01*
X145844272Y-52575071D01*
X145843243Y-52577556D01*
X145837614Y-52575224D01*
X145700000Y-52533478D01*
X145700000Y-53440263D01*
X145691854Y-53432117D01*
X145577150Y-53373673D01*
X145481985Y-53358600D01*
X145418015Y-53358600D01*
X145322850Y-53373673D01*
X145208146Y-53432117D01*
X145200000Y-53440263D01*
X145200000Y-52533478D01*
X145062387Y-52575224D01*
X144887281Y-52668820D01*
X144884343Y-52670784D01*
X144882569Y-52671339D01*
X144881904Y-52671695D01*
X144881836Y-52671568D01*
X144817665Y-52691661D01*
X144750285Y-52673176D01*
X144746557Y-52670780D01*
X144743010Y-52668410D01*
X144743004Y-52668405D01*
X144742995Y-52668400D01*
X144567808Y-52574760D01*
X144472752Y-52545925D01*
X144377701Y-52517092D01*
X144377699Y-52517091D01*
X144377701Y-52517091D01*
X144180000Y-52497620D01*
X143982300Y-52517091D01*
X143792191Y-52574760D01*
X143617001Y-52668401D01*
X143616994Y-52668405D01*
X143463431Y-52794431D01*
X143337406Y-52947994D01*
X143337405Y-52947996D01*
X143272751Y-53068954D01*
X143223790Y-53118797D01*
X143163394Y-53134500D01*
X140139188Y-53134500D01*
X140072149Y-53114815D01*
X140037613Y-53081623D01*
X139925045Y-52920858D01*
X139764141Y-52759954D01*
X139577734Y-52629432D01*
X139577732Y-52629431D01*
X139371497Y-52533261D01*
X139371488Y-52533258D01*
X139151697Y-52474366D01*
X139151693Y-52474365D01*
X139151692Y-52474365D01*
X139151691Y-52474364D01*
X139151686Y-52474364D01*
X138925002Y-52454532D01*
X138924998Y-52454532D01*
X138698313Y-52474364D01*
X138698302Y-52474366D01*
X138478511Y-52533258D01*
X138478502Y-52533261D01*
X138272267Y-52629431D01*
X138272265Y-52629432D01*
X138085858Y-52759954D01*
X137924954Y-52920858D01*
X137812387Y-53081623D01*
X137757811Y-53125248D01*
X137710812Y-53134500D01*
X134922743Y-53134500D01*
X134907122Y-53132775D01*
X134907095Y-53133061D01*
X134899333Y-53132326D01*
X134832113Y-53134439D01*
X134828219Y-53134500D01*
X134800650Y-53134500D01*
X134796673Y-53135002D01*
X134785042Y-53135917D01*
X134741374Y-53137289D01*
X134741368Y-53137290D01*
X134722126Y-53142880D01*
X134703087Y-53146823D01*
X134683217Y-53149334D01*
X134683203Y-53149337D01*
X134642598Y-53165413D01*
X134631554Y-53169194D01*
X134589614Y-53181379D01*
X134589610Y-53181381D01*
X134572366Y-53191579D01*
X134554905Y-53200133D01*
X134536274Y-53207510D01*
X134536262Y-53207517D01*
X134500933Y-53233185D01*
X134491173Y-53239596D01*
X134453580Y-53261829D01*
X134439414Y-53275995D01*
X134424624Y-53288627D01*
X134408414Y-53300404D01*
X134408411Y-53300407D01*
X134380573Y-53334058D01*
X134372711Y-53342697D01*
X132116208Y-55599199D01*
X132103951Y-55609020D01*
X132104134Y-55609241D01*
X132098122Y-55614214D01*
X132052098Y-55663223D01*
X132049391Y-55666016D01*
X132029889Y-55685517D01*
X132029875Y-55685534D01*
X132027407Y-55688715D01*
X132019843Y-55697570D01*
X131989937Y-55729418D01*
X131989936Y-55729420D01*
X131980284Y-55746976D01*
X131969610Y-55763226D01*
X131957329Y-55779061D01*
X131957324Y-55779068D01*
X131939975Y-55819158D01*
X131934838Y-55829644D01*
X131913803Y-55867906D01*
X131908822Y-55887307D01*
X131902521Y-55905710D01*
X131894562Y-55924102D01*
X131894561Y-55924105D01*
X131887728Y-55967243D01*
X131885360Y-55978674D01*
X131874501Y-56020971D01*
X131874500Y-56020982D01*
X131874500Y-56041016D01*
X131872973Y-56060415D01*
X131869840Y-56080194D01*
X131869840Y-56080195D01*
X131873950Y-56123674D01*
X131874500Y-56135343D01*
X131874500Y-57870346D01*
X131854815Y-57937385D01*
X131802011Y-57983140D01*
X131732853Y-57993084D01*
X131670794Y-57965335D01*
X131615214Y-57918698D01*
X131615212Y-57918697D01*
X131458437Y-57839961D01*
X131416476Y-57830016D01*
X131287721Y-57799500D01*
X131156291Y-57799500D01*
X131051854Y-57811707D01*
X131025743Y-57814759D01*
X131025740Y-57814760D01*
X130860884Y-57874762D01*
X130860880Y-57874764D01*
X130714306Y-57971167D01*
X130714305Y-57971168D01*
X130593910Y-58098778D01*
X130531886Y-58206207D01*
X130481319Y-58254423D01*
X130412712Y-58267645D01*
X130347847Y-58241677D01*
X130307319Y-58184763D01*
X130300499Y-58144212D01*
X130300499Y-56552128D01*
X130294091Y-56492517D01*
X130265429Y-56415671D01*
X130243797Y-56357671D01*
X130243793Y-56357664D01*
X130157547Y-56242455D01*
X130157544Y-56242452D01*
X130042335Y-56156206D01*
X130042328Y-56156202D01*
X129907482Y-56105908D01*
X129907483Y-56105908D01*
X129847883Y-56099501D01*
X129847881Y-56099500D01*
X129847873Y-56099500D01*
X129847865Y-56099500D01*
X126124500Y-56099500D01*
X126057461Y-56079815D01*
X126011706Y-56027011D01*
X126000500Y-55975500D01*
X126000500Y-51124500D01*
X126020185Y-51057461D01*
X126072989Y-51011706D01*
X126124500Y-51000500D01*
X163069834Y-51000500D01*
X163136873Y-51020185D01*
G37*
%TD.AperFunction*%
%TD*%
M02*
