M48
; DRILL file {KiCad 7.0.10} date Fri Mar 29 17:01:36 2024
; FORMAT={-:-/ absolute / metric / decimal}
; #@! TF.CreationDate,2024-03-29T17:01:36+09:00
; #@! TF.GenerationSoftware,Kicad,Pcbnew,7.0.10
; #@! TF.FileFunction,MixedPlating,1,2
FMAT,2
METRIC
; #@! TA.AperFunction,Plated,PTH,ViaDrill
T1C0.400
; #@! TA.AperFunction,Plated,PTH,ComponentDrill
T2C0.600
; #@! TA.AperFunction,Plated,PTH,ComponentDrill
T3C0.800
; #@! TA.AperFunction,Plated,PTH,ComponentDrill
T4C0.813
; #@! TA.AperFunction,Plated,PTH,ComponentDrill
T5C0.900
; #@! TA.AperFunction,Plated,PTH,ComponentDrill
T6C1.000
; #@! TA.AperFunction,NonPlated,NPTH,ComponentDrill
T7C1.000
%
G90
G05
T1
X135.0Y-57.2
X141.0Y-64.5
X143.5Y-67.7
X145.1Y-61.5
X145.45Y-51.95
X145.45Y-56.15
X147.7Y-59.9
X155.64Y-70.54
X160.0Y-72.6
X169.2Y-72.6
X178.4Y-58.0
X178.6Y-64.0
X185.2Y-70.1
T2
X158.92Y-53.2
X169.08Y-53.2
X170.92Y-55.0
X170.92Y-58.0
X170.92Y-61.0
X170.92Y-64.0
X170.92Y-68.5
X170.92Y-71.5
X181.08Y-55.0
X181.08Y-58.0
X181.08Y-61.0
X181.08Y-64.0
X181.08Y-68.5
X181.08Y-71.5
T3
X134.4Y-59.5
X134.4Y-61.5
X134.4Y-63.5
X134.4Y-65.5
X185.6Y-59.5
X185.6Y-61.5
X185.6Y-63.5
X185.6Y-65.5
T4
X144.18Y-53.765
X145.45Y-53.765
X146.72Y-53.765
T5
X158.69Y-57.42
X158.69Y-59.96
X158.69Y-62.5
X158.69Y-65.04
X158.69Y-67.58
X166.31Y-57.42
X166.31Y-59.96
X166.31Y-62.5
X166.31Y-65.04
X166.31Y-67.58
T6
X138.925Y-53.76
X138.925Y-58.84
X150.3Y-65.46
X150.3Y-70.54
X151.825Y-53.71
X151.825Y-58.79
T7
X131.2Y-58.55
X131.2Y-66.45
X188.8Y-58.55
X188.8Y-66.45
M30
